<svg width="512" height="512" viewBox="0 0 512 512" fill="none" xmlns="http://www.w3.org/2000/svg">
<g clip-path="url(#clip0)">
<path d="M89.058 223.264C88.991 221.908 88.854 220.571 88.854 219.198C88.854 174.256 125.287 137.824 170.228 137.824C179.161 137.824 187.733 139.317 195.775 141.976C219.488 109.895 257.471 89 300.428 89C372.335 89 430.627 147.293 430.627 219.199C430.627 219.883 430.534 220.544 430.524 221.227C477.002 230.614 512.001 271.673 512.001 320.918C512.001 377.096 466.461 422.636 410.283 422.636H117.334C61.156 422.636 15.616 377.095 15.616 320.918C15.617 274.562 46.654 235.525 89.058 223.264Z" fill="white"/>
<path d="M187.966 142.159C211.679 110.078 249.662 89.1831 292.619 89.1831C364.526 89.1831 422.818 147.476 422.818 219.382C422.818 220.066 422.725 220.727 422.715 221.41C469.194 230.797 504.193 271.856 504.193 321.101C504.193 377.279 458.653 422.819 402.475 422.819" fill="white"/>
<path d="M109.527 430.626H402.475C462.868 430.626 512.001 381.493 512.001 321.101C512.001 271.34 478.123 227.811 430.564 215.226C428.362 141.041 367.327 81.375 292.619 81.375C270.371 81.375 249.13 86.533 229.485 96.707C212.416 105.546 197.153 118.081 185.051 133.152C177.62 131.191 170.031 130.2 162.418 130.2C113.766 130.2 74.087 169.36 73.25 217.816C53.244 224.865 35.363 237.818 22.423 254.748C7.75297 273.941 -0.0010376 296.885 -0.0010376 321.1C0.000962402 381.493 49.134 430.626 109.527 430.626ZM292.62 96.99C360.107 96.99 415.012 151.894 415.012 219.382C415.012 219.556 414.992 219.727 414.981 219.897C414.948 220.356 414.919 220.815 414.911 221.282L414.804 227.777L421.172 229.063C464.754 237.866 496.387 276.573 496.387 321.102C496.387 372.884 454.259 415.012 402.477 415.012H109.528C57.746 415.012 15.618 372.884 15.618 321.102C15.618 300.343 22.263 280.678 34.833 264.232C47.001 248.311 64.258 236.491 83.42 230.951L89.35 229.235L89.05 223.07C89.025 222.556 88.991 222.046 88.956 221.533C88.904 220.756 88.854 220.022 88.854 219.383C88.854 178.818 121.855 145.816 162.421 145.816C170.208 145.816 177.978 147.08 185.517 149.573L190.886 151.349L194.247 146.802C217.644 115.144 253.5 96.99 292.62 96.99Z" fill="white"/>
<path d="M360.782 193.408H376.397C376.397 158.157 347.718 129.479 312.468 129.479V145.094C339.109 145.095 360.782 166.768 360.782 193.408Z" fill="#F7CC7F"/>
</g>
<defs>
<clipPath id="clip0">
<rect width="512.001" height="512.001" fill="white" transform="matrix(-1 0 0 1 512.001 0)"/>
</clipPath>
</defs>
</svg>
