<svg width="497" height="334" viewBox="0 0 497 334" fill="none" xmlns="http://www.w3.org/2000/svg">
<path d="M74.058 134.264C73.991 132.908 73.854 131.571 73.854 130.198C73.854 85.256 110.287 48.824 155.228 48.824C164.161 48.824 172.733 50.317 180.775 52.976C204.488 20.895 242.471 0 285.428 0C357.335 0 415.627 58.293 415.627 130.199C415.627 130.883 415.534 131.544 415.524 132.227C462.002 141.614 497.001 182.673 497.001 231.918C497.001 288.096 451.461 333.636 395.283 333.636H102.334C46.156 333.636 0.615997 288.095 0.615997 231.918C0.616997 185.562 31.654 146.525 74.058 134.264Z" fill="#FF6765"/>
</svg>
