<svg width="497" height="334" viewBox="0 0 497 334" fill="none" xmlns="http://www.w3.org/2000/svg">
<path d="M422.943 134.264C423.01 132.908 423.147 131.571 423.147 130.198C423.147 85.256 386.714 48.824 341.773 48.824C332.84 48.824 324.268 50.317 316.226 52.976C292.513 20.895 254.53 0 211.573 0C139.666 0 81.374 58.293 81.374 130.199C81.374 130.883 81.467 131.544 81.477 132.227C34.999 141.614 0 182.673 0 231.918C0 288.096 45.54 333.636 101.718 333.636H394.667C450.845 333.636 496.385 288.095 496.385 231.918C496.384 185.562 465.347 146.525 422.943 134.264Z" fill="#FF6765"/>
</svg>
