<svg width="512" height="512" viewBox="0 0 512 512" fill="none" xmlns="http://www.w3.org/2000/svg">
<g clip-path="url(#clip0)">
<path d="M430.751 223.448C430.818 222.092 430.955 220.755 430.955 219.382C430.955 174.44 394.522 138.008 349.581 138.008C340.648 138.008 332.076 139.501 324.034 142.16C300.321 110.079 262.338 89.1841 219.381 89.1841C147.474 89.1841 89.1821 147.477 89.1821 219.383C89.1821 220.067 89.2751 220.728 89.2851 221.411C42.8071 230.798 7.80811 271.857 7.80811 321.102C7.80811 377.28 53.3481 422.82 109.526 422.82H402.475C458.653 422.82 504.193 377.279 504.193 321.102C504.192 274.746 473.155 235.709 430.751 223.448Z" fill="white"/>
<path d="M324.035 142.159C300.322 110.078 262.339 89.1831 219.382 89.1831C147.475 89.1831 89.1831 147.476 89.1831 219.382C89.1831 220.066 89.2761 220.727 89.2861 221.41C42.8071 230.797 7.80811 271.856 7.80811 321.101C7.80811 377.279 53.3481 422.819 109.526 422.819" fill="white"/>
<path d="M402.474 430.626H109.526C49.133 430.626 0 381.493 0 321.101C0 271.34 33.878 227.811 81.437 215.226C83.639 141.041 144.674 81.375 219.382 81.375C241.63 81.375 262.871 86.533 282.516 96.707C299.585 105.546 314.848 118.081 326.95 133.152C334.381 131.191 341.97 130.2 349.583 130.2C398.235 130.2 437.914 169.36 438.751 217.816C458.757 224.865 476.638 237.818 489.578 254.748C504.248 273.941 512.002 296.885 512.002 321.1C512 381.493 462.867 430.626 402.474 430.626ZM219.381 96.99C151.894 96.99 96.989 151.894 96.989 219.382C96.989 219.556 97.009 219.727 97.02 219.897C97.053 220.356 97.082 220.815 97.09 221.282L97.197 227.777L90.829 229.063C47.247 237.866 15.614 276.573 15.614 321.102C15.614 372.884 57.742 415.012 109.524 415.012H402.473C454.255 415.012 496.383 372.884 496.383 321.102C496.383 300.343 489.738 280.678 477.168 264.232C465 248.311 447.743 236.491 428.581 230.951L422.651 229.235L422.951 223.07C422.976 222.556 423.01 222.046 423.045 221.533C423.097 220.756 423.147 220.022 423.147 219.383C423.147 178.818 390.146 145.816 349.58 145.816C341.793 145.816 334.023 147.08 326.484 149.573L321.115 151.349L317.754 146.802C294.357 115.144 258.501 96.99 219.381 96.99Z" fill="white"/>
<path d="M151.219 193.408H135.604C135.604 158.157 164.283 129.479 199.533 129.479V145.094C172.892 145.095 151.219 166.768 151.219 193.408Z" fill="#F7CC7F"/>
</g>
<defs>
<clipPath id="clip0">
<rect width="512.001" height="512.001" fill="white"/>
</clipPath>
</defs>
</svg>
