<svg xmlns="http://www.w3.org/2000/svg" viewBox="0 0 750 500"><g id="freepik--background-simple--inject-37"><path d="M579,116.77a105.77,105.77,0,0,0-14.79-20.72c-20.46-22.21-47.85-37.09-76-47.2a371.34,371.34,0,0,0-129.55-21.5C309.12,28,258.47,41.6,216.76,68.62a188.43,188.43,0,0,0-53,51.1c-16.49,23.82-21,52.36-34.16,77.85-13.68,26.58-31.89,50.55-50.93,73.48-12.24,14.73-25,29.3-33.85,46.27S31.14,354.24,36,372.77c4.4,16.81,16.36,30.92,30.65,40.82,33.44,23.16,77.52,29,117.13,31.15,174.29,9.6,151.91-12.79,277.43-1.59,71.92,6.41,173.19,9.72,213.58-63.87,13.72-25,18.21-53.93,5.65-80.46-9.56-20.18-26.94-35.33-42.64-51.21C616.11,225.69,606.67,203.3,599,174,593.86,154.12,588.68,134.38,579,116.77Z" style="fill:#B0BEC5"></path><path d="M579,116.77a105.77,105.77,0,0,0-14.79-20.72c-20.46-22.21-47.85-37.09-76-47.2a371.34,371.34,0,0,0-129.55-21.5C309.12,28,258.47,41.6,216.76,68.62a188.43,188.43,0,0,0-53,51.1c-16.49,23.82-21,52.36-34.16,77.85-13.68,26.58-31.89,50.55-50.93,73.48-12.24,14.73-25,29.3-33.85,46.27S31.14,354.24,36,372.77c4.4,16.81,16.36,30.92,30.65,40.82,33.44,23.16,77.52,29,117.13,31.15,174.29,9.6,151.91-12.79,277.43-1.59,71.92,6.41,173.19,9.72,213.58-63.87,13.72-25,18.21-53.93,5.65-80.46-9.56-20.18-26.94-35.33-42.64-51.21C616.11,225.69,606.67,203.3,599,174,593.86,154.12,588.68,134.38,579,116.77Z" style="fill:#fff;opacity:0.7000000000000001"></path></g><g id="freepik--Floor--inject-37"><line x1="687.97" y1="441.24" x2="34.91" y2="441.24" style="fill:none;stroke:#263238;stroke-linecap:round;stroke-linejoin:round"></line></g><g id="freepik--trash-bin--inject-37"><polygon points="121.76 365.71 62.51 365.71 68.44 443.81 115.84 443.81 121.76 365.71" style="fill:#fff;stroke:#263238;stroke-linecap:round;stroke-linejoin:round"></polygon><polygon points="67.57 432.36 68.44 443.81 115.84 443.81 116.7 432.36 67.57 432.36" style="fill:#263238;stroke:#263238;stroke-linecap:round;stroke-linejoin:round"></polygon><polygon points="120.59 381.19 121.76 365.71 62.51 365.71 63.69 381.19 120.59 381.19" style="fill:#263238;stroke:#263238;stroke-linecap:round;stroke-linejoin:round"></polygon><path d="M114,440.39l2.28-1.74.1-1.33-2.84,2.17q-1.08-2.13-2.28-4.53l4.06-3.12c.44.89.86,1.74,1.28,2.57l.15-1.94c-.21-.42-.42-.82-.63-1.25l.77-.6.1-1.35-1.32,1-2.25-4.58q2.05-1.61,4-3.18l0,.08.15-2-2-4.28,2.52-2,.11-1.37-3.07,2.48q-1.06-2.26-2.18-4.67c1.37-1.11,2.71-2.19,4-3.26l1.42,3.05.15-2-.77-1.67c.33-.26.64-.53,1-.79l.11-1.38-1.5,1.23c-.71-1.54-1.42-3.11-2.15-4.72q2.07-1.71,4-3.33l.15.32.16-2.09c-.68-1.52-1.36-3.06-2-4.64l2.57-2.18.1-1.41L117,390.48q-1-2.39-2.08-4.83c1.39-1.19,2.72-2.33,4-3.42.46,1.09.92,2.15,1.37,3.22l.17-2.16-.75-1.75.94-.82.11-1.42-1.46,1.27c-.68-1.61-1.35-3.24-2-4.89l4-3.58.11-1.45c-1.35,1.21-2.86,2.56-4.56,4.05-.66-1.63-1.33-3.28-2-4.94,1.72-1.52,3.22-2.88,4.52-4.05h-1.49l-3.42,3.06c-.41-1-.8-2-1.2-3.06h-1.08c.49,1.26,1,2.52,1.48,3.76l-4,3.48q-1-2.46-2-5c.92-.79,1.77-1.54,2.59-2.27h-1.51L107.35,367l-.49-1.28h-1.07c.25.66.5,1.33.76,2l-4,3.45q-1-2.47-1.91-5l.51-.45H99.42l.06.15-4,3.42c-.45-1.18-.89-2.38-1.33-3.57H93.08c.53,1.42,1.06,2.85,1.59,4.25-1.29,1.09-2.63,2.22-4,3.37q-.93-2.46-1.86-5l3.13-2.65H90.38l-2,1.65-.59-1.65H86.76c.29.78.56,1.56.85,2.33l-4,3.35c-.61-1.66-1.22-3.32-1.82-5l.82-.68H80.46l.12.36c-1.31,1.08-2.65,2.19-4,3.32-.44-1.21-.85-2.46-1.28-3.68H74.2c.51,1.45,1,2.92,1.52,4.35-1.32,1.07-2.68,2.17-4.07,3.28-.9-2.52-1.78-5.07-2.66-7.63H67.93c.95,2.78,1.92,5.55,2.9,8.29q-2,1.59-4.08,3.22c-1.37-3.78-2.7-7.63-4-11.51h-.24l.24,3.14q1.56,4.56,3.17,9c-.77.6-1.56,1.22-2.35,1.82l.1,1.2,2.61-2q.9,2.47,1.82,4.91c-1.31,1-2.63,2-4,3.07l.3,4c.33.85.65,1.71,1,2.55-.24.19-.5.38-.75.56l.09,1.18,1-.77q.94,2.43,1.9,4.8L65.19,401l.09,1.17,2.79-2.06c.64,1.6,1.29,3.19,1.94,4.75-1.36,1-2.74,2-4.13,3-.07-.16-.14-.33-.2-.5l.24,3.18c.5,1.2,1,2.4,1.5,3.57l-1.17.84.09,1.16,1.48-1.06c.67,1.58,1.35,3.13,2,4.66l-3,2.17.09,1.16,3.37-2.39q1,2.35,2.05,4.62c-1.37,1-2.76,1.95-4.17,2.93-.34-.78-.69-1.58-1-2.36l.31,4.08.32-.22q1,2.34,2.07,4.57l-2,1.33.09,1.15,2.3-1.56q1.07,2.32,2.11,4.54c-1.32.89-2.65,1.79-4,2.68l.11,1.37h.24c0-.11-.09-.2-.14-.31l4.21-2.83c.5,1.07,1,2.11,1.49,3.14h1.1l-1.76-3.71q2.11-1.44,4.18-2.88c.74,1.55,1.45,3.06,2.15,4.52l-3,2.07h1.77l1.68-1.15.56,1.15H82l-.84-1.73c1.4-1,2.79-1.95,4.17-2.92q1.13,2.34,2.19,4.51l-.2.14h1.74L93,441.05l1.37,2.76h1.11c-.54-1.08-1.08-2.19-1.65-3.35l4.12-3c.77,1.58,1.52,3.08,2.23,4.52l-2.53,1.83h1.71l1.27-.93.47.93h1.12c-.25-.5-.5-1-.77-1.52l4.1-3q1.2,2.4,2.28,4.5l-.06.05h1.68l3.74-2.8c.5,1,1,1.92,1.44,2.8h1.13C115.15,442.75,114.57,441.61,114,440.39Zm.86-9.46q-2,1.54-4.06,3.12c-.72-1.45-1.46-3-2.24-4.56,1.38-1.06,2.73-2.1,4.06-3.14Q113.73,428.74,114.81,430.93ZM89.57,405l-4.08,3.15c-.67-1.56-1.35-3.13-2-4.73l4.08-3.16C88.22,401.88,88.89,403.47,89.57,405Zm-1.22-5.38c1.38-1.08,2.74-2.15,4.06-3.21q1,2.43,2,4.77c-1.32,1.05-2.68,2.12-4.06,3.19ZM90,406q1,2.4,2.06,4.71L88,413.8c-.68-1.53-1.37-3.1-2.06-4.69Q88,407.54,90,406Zm.81-.63c1.38-1.07,2.74-2.14,4.06-3.19l2.07,4.74c-1.33,1-2.68,2.1-4.06,3.16C92.17,408.51,91.49,406.94,90.79,405.34Zm4.87-3.83q2.07-1.63,4-3.23c.7,1.61,1.39,3.2,2.07,4.75l-4,3.22Zm1.68,6.32,2.1,4.7-4.06,3.14c-.7-1.53-1.4-3.08-2.11-4.68C94.65,409.93,96,408.87,97.34,407.83Zm.81-.64q2.05-1.62,4-3.21c.71,1.6,1.41,3.18,2.11,4.72q-2,1.57-4,3.19Q99.22,409.6,98.15,407.19Zm4.85-3.86q2.06-1.65,4-3.25,1.07,2.42,2.11,4.74-2,1.59-4,3.23Q104.07,405.74,103,403.33Zm-.42-.94-2.07-4.76c1.38-1.11,2.72-2.21,4-3.28q1.05,2.43,2.08,4.78C105.3,400.2,104,401.28,102.58,402.39Zm-2.48-5.72q-1-2.35-2-4.79,2.07-1.68,4-3.3c.68,1.63,1.36,3.23,2,4.82Q102.17,395,100.1,396.67Zm-.81.66q-2,1.59-4,3.23-1-2.35-2-4.78,2.07-1.65,4-3.25C97.94,394.16,98.62,395.75,99.29,397.33Zm-6.47-2.5c-.66-1.59-1.33-3.19-2-4.82l4-3.27c.67,1.63,1.33,3.24,2,4.83Q94.9,393.17,92.82,394.83Zm-.81.65L88,398.68q-1-2.35-2-4.79L90,390.67C90.68,392.29,91.35,393.89,92,395.48Zm-4.87,3.84q-2,1.57-4.08,3.16c-.66-1.57-1.32-3.15-2-4.76l4.07-3.18C85.81,396.15,86.47,397.75,87.14,399.32Zm-6.46-2.56q-1-2.38-2-4.81l4.07-3.2q1,2.43,2,4.82C83.42,394.62,82.06,395.69,80.68,396.76Zm1.56,6.35-4.09,3.12c-.66-1.56-1.32-3.15-2-4.75,1.39-1.05,2.75-2.09,4.1-3.13Q81.25,400.77,82.24,403.11Zm.4.95q1,2.4,2,4.73c-1.35,1-2.71,2.06-4.1,3.09q-1-2.31-2-4.7Q80.63,405.61,82.64,404.06Zm2.44,5.67c.69,1.59,1.38,3.16,2.06,4.69-1.35,1-2.71,2.05-4.1,3.08q-1-2.29-2.06-4.67C82.37,411.79,83.73,410.76,85.08,409.73Zm2.48,5.63,2.1,4.65q-2,1.53-4.11,3.06-1-2.26-2.09-4.64Zm.82-.62,4.08-3.12,2.1,4.68-4.08,3.1C89.78,417.88,89.09,416.32,88.38,414.74ZM95,417.23q1.08,2.37,2.13,4.64c-1.34,1-2.71,2.05-4.09,3.08Q92,422.7,90.9,420.33Zm.81-.62,4.07-3.15c.72,1.59,1.43,3.15,2.13,4.66-1.33,1-2.69,2.08-4.06,3.13Q96.88,419,95.8,416.61Zm4.88-3.78,4-3.19,2.14,4.68q-2,1.56-4,3.17Q101.76,415.21,100.68,412.83Zm6.62,2.42c.73,1.59,1.46,3.14,2.17,4.65-1.32,1-2.68,2.09-4,3.15-.71-1.5-1.44-3-2.17-4.63ZM105.53,409l4-3.23q1.08,2.4,2.14,4.7c-1.31,1.06-2.66,2.13-4,3.22C107,412.15,106.25,410.59,105.53,409Zm2.3-9.57q2.06-1.68,4-3.3,1.07,2.43,2.11,4.76c-1.3,1.07-2.63,2.17-4,3.29C109.24,402.61,108.53,401,107.83,399.42Zm-.42-.95q-1-2.36-2.07-4.78l4-3.32c.69,1.62,1.39,3.23,2.07,4.8C110.12,396.25,108.78,397.35,107.41,398.47Zm.29-14.58,4-3.39c.68,1.64,1.36,3.27,2,4.87l-4,3.37C109.05,387.14,108.38,385.53,107.7,383.89Zm1.23,5.52-4,3.32q-1-2.37-2-4.82l4-3.34C107.57,386.2,108.25,387.82,108.93,389.41ZM102.49,387c-.66-1.6-1.33-3.22-2-4.86l4-3.37c.66,1.64,1.33,3.27,2,4.88C105.21,384.69,103.87,385.8,102.49,387Zm-.8.67-4,3.29c-.67-1.59-1.33-3.2-2-4.83l4-3.32C100.36,384.4,101,386,101.69,387.62Zm-6.41-2.51q-1-2.42-2-4.88c1.38-1.15,2.72-2.26,4-3.35.65,1.65,1.3,3.29,2,4.9C98,382.87,96.66,384,95.28,385.11Zm-.81.66-4,3.28c-.66-1.61-1.31-3.22-2-4.86l4-3.3C93.17,382.54,93.82,384.16,94.47,385.77Zm-4.85,3.93q-2,1.59-4.05,3.23-1-2.39-1.95-4.83l4-3.25Q88.64,387.3,89.62,389.7Zm-6.39-2.57c-.64-1.61-1.27-3.24-1.91-4.88,1.39-1.11,2.73-2.2,4.05-3.27.64,1.65,1.27,3.28,1.91,4.9Zm-.82.65L78.35,391q-1-2.4-1.91-4.85c1.38-1.09,2.74-2.16,4.07-3.23C81.14,384.54,81.78,386.17,82.41,387.78Zm-6.35-2.63c-.62-1.61-1.24-3.25-1.86-4.89,1.38-1.1,2.74-2.18,4.06-3.25q.93,2.48,1.87,4.92C78.8,383,77.44,384.07,76.06,385.15Zm-.82.65L71.16,389q-.94-2.42-1.87-4.87l4.09-3.2C74,382.55,74.62,384.18,75.24,385.8Zm.38,1c.63,1.64,1.27,3.25,1.91,4.85l-4.09,3.16c-.64-1.59-1.27-3.2-1.91-4.83Q73.62,388.35,75.62,386.77Zm2.29,5.82q1,2.43,2,4.8c-1.34,1-2.71,2.08-4.09,3.14q-1-2.37-2-4.79Q75.91,394.15,77.91,392.59Zm-.58,14.26q-2,1.53-4.12,3.06-1-2.32-2-4.72,2.08-1.54,4.11-3.08C76,403.71,76.67,405.29,77.33,406.85Zm.4.95,2,4.7-4.12,3.05c-.67-1.54-1.34-3.11-2-4.69Zm2.43,5.64q1,2.37,2.06,4.67c-1.36,1-2.73,2-4.13,3-.67-1.52-1.36-3.07-2-4.65C77.43,415.47,78.8,414.45,80.16,413.44Zm-.39,13.84c-1.37,1-2.75,2-4.15,3-.68-1.5-1.38-3-2.08-4.59q2.1-1.49,4.14-3C78.39,424.24,79.09,425.77,79.77,427.28Zm-1.26-5.21q2.08-1.51,4.13-3,1,2.37,2.09,4.63c-1.36,1-2.74,2-4.13,3C79.91,425.17,79.22,423.64,78.51,422.07Zm6.64,2.53c.72,1.57,1.43,3.11,2.13,4.6-1.36,1-2.74,2-4.13,3Q82.1,430,81,427.61C82.42,426.6,83.79,425.6,85.15,424.6ZM86,424q2.07-1.53,4.1-3.06,1.08,2.37,2.13,4.62c-1.35,1-2.72,2-4.11,3Q87.05,426.35,86,424Zm6.67,2.49q1.09,2.36,2.16,4.58c-1.35,1-2.73,2-4.11,3-.71-1.47-1.43-3-2.17-4.57Q90.62,428,92.65,426.49Zm.81-.61q2.08-1.54,4.09-3.08,1.11,2.37,2.17,4.6c-1.34,1-2.71,2-4.09,3.07Q94.57,428.24,93.46,425.88Zm4.91-3.7c1.38-1.05,2.73-2.1,4.07-3.13.73,1.58,1.46,3.13,2.17,4.63l-4.07,3.11C99.83,425.3,99.1,423.76,98.37,422.18Zm6.68,2.42c.75,1.58,1.49,3.12,2.21,4.59q-2,1.55-4.08,3.09c-.71-1.47-1.45-3-2.2-4.57C102.36,426.67,103.71,425.63,105.05,424.6Zm.81-.62,4-3.16q1.13,2.39,2.21,4.61-2,1.56-4.05,3.14Q107,426.35,105.86,424Zm11.1-2.36q-2,1.58-4,3.18-1.08-2.22-2.21-4.61l4-3.2C115.5,418.58,116.24,420.13,117,421.62Zm-2.65-5.56-4,3.2c-.71-1.51-1.44-3.05-2.18-4.65,1.37-1.08,2.72-2.16,4-3.21Zm2.2-9.51q-2,1.6-4,3.26c-.7-1.53-1.42-3.1-2.14-4.7l4-3.28Q115.45,404.25,116.51,406.55Zm2.22-9.66c-1.28,1.08-2.62,2.19-4,3.33q-1-2.34-2.11-4.76l4-3.35C117.33,393.73,118,395.33,118.73,396.89Zm-2.53-5.74c-1.28,1.09-2.61,2.2-4,3.35-.68-1.57-1.38-3.18-2.07-4.8l4-3.37Q115.17,388.78,116.2,391.15Zm2.28-9.88-4,3.42-2-4.87,4-3.45Q117.46,378.86,118.48,381.27ZM114,370.46c.67,1.66,1.33,3.31,2,4.94-1.24,1.08-2.56,2.24-4,3.44-.67-1.62-1.34-3.25-2-4.91C111.49,372.7,112.81,371.55,114,370.46Zm-2.76,9.07-4,3.39c-.67-1.61-1.33-3.24-2-4.88l4-3.42C110,376.28,110.61,377.91,111.28,379.53Zm-4.35-10.85q1,2.51,2,5l-4,3.42q-1-2.44-2-4.93Zm-2.83,9.06q-1.92,1.63-4,3.37c-.65-1.62-1.3-3.25-1.95-4.91,1.39-1.16,2.72-2.3,4-3.39C102.8,374.47,103.45,376.12,104.1,377.74Zm-4.25-10.89c.64,1.67,1.27,3.33,1.91,5-1.27,1.09-2.61,2.22-4,3.39-.64-1.63-1.28-3.29-1.92-5Zm-4.8,4.1Q96,373.46,97,375.9l-4,3.35c-.64-1.63-1.27-3.27-1.91-4.93C92.42,373.17,93.76,372,95.05,371Zm-2.92,9-4,3.3q-1-2.43-1.91-4.91c1.38-1.13,2.72-2.23,4-3.32Q91.17,377.48,92.13,379.92ZM88,369c.61,1.67,1.24,3.33,1.86,5q-1.95,1.62-4,3.32c-.62-1.64-1.25-3.29-1.86-4.95Zm-3,9-4,3.27q-.95-2.44-1.87-4.92,2.08-1.68,4-3.3Q84.06,375.54,85,378Zm-4.06-10.93c.6,1.67,1.21,3.34,1.82,5q-2,1.62-4.05,3.3c-.61-1.65-1.21-3.3-1.81-5Zm-4.87,4c.61,1.66,1.21,3.32,1.82,5-1.32,1.07-2.68,2.16-4.06,3.25q-.92-2.44-1.82-4.94Zm-9,7.15q2.08-1.63,4.08-3.22c.6,1.66,1.21,3.3,1.82,4.94l-4.08,3.2Q68,380.69,67.11,378.21Zm-2.74,9.69,4.1-3.15q.93,2.46,1.86,4.87c-1.34,1-2.71,2.08-4.1,3.13Q65.3,390.35,64.37,387.9Zm2.24,5.82,4.1-3.13c.63,1.62,1.27,3.23,1.9,4.82q-2,1.54-4.1,3.11Q67.55,396.14,66.61,393.72Zm2.29,5.76,4.1-3.11c.65,1.61,1.3,3.21,2,4.78q-2,1.55-4.11,3.09Q69.86,401.89,68.9,399.48Zm-2.63,9.36c1.4-1,2.77-2,4.13-3,.66,1.59,1.33,3.16,2,4.71-1.36,1-2.74,2-4.13,3Q67.26,411.23,66.27,408.84Zm2.38,5.64c1.4-1,2.77-2,4.14-3,.67,1.58,1.35,3.14,2,4.68q-2,1.5-4.14,3Zm2.42,5.6q2.1-1.5,4.14-3,1,2.36,2.06,4.64c-1.37,1-2.75,2-4.15,3C72.45,423.2,71.76,421.65,71.07,420.08Zm-2.53,9.07c1.4-1,2.79-1.95,4.17-2.92.7,1.56,1.4,3.09,2.08,4.59l-4.17,2.91C69.93,432.23,69.24,430.71,68.54,429.15Zm4.61,10L71,434.65l4.18-2.91c.71,1.56,1.42,3.08,2.11,4.56C76,437.26,74.56,438.23,73.15,439.19Zm2.9-8c1.39-1,2.78-2,4.15-3,.72,1.57,1.42,3.09,2.12,4.58q-2.05,1.47-4.16,2.94C77.47,434.24,76.76,432.72,76.05,431.16Zm4.7,10c-.71-1.46-1.42-3-2.15-4.52l4.15-2.94q1.09,2.34,2.16,4.55Zm2.83-8.05c1.39-1,2.77-2,4.13-3l2.16,4.57q-2,1.49-4.14,3Q84.68,435.46,83.58,433.11Zm4.78,10c-.71-1.45-1.44-2.95-2.19-4.52q2.1-1.49,4.14-3c.75,1.57,1.49,3.08,2.2,4.54C91.14,441.12,89.76,442.11,88.36,443.09Zm5-3.55q-1.06-2.18-2.19-4.53c1.38-1,2.76-2,4.11-3,.75,1.57,1.49,3.1,2.2,4.56Zm2.74-8.15c1.38-1,2.75-2.05,4.09-3.07.76,1.58,1.49,3.11,2.21,4.58l-4.1,3C97.56,434.48,96.82,433,96.07,431.39Zm4.88,10c-.72-1.44-1.46-2.95-2.24-4.52,1.39-1,2.75-2,4.1-3.05.78,1.58,1.52,3.1,2.24,4.54Q103,439.87,101,441.38Zm2.68-8.18,4.07-3.09c.78,1.59,1.52,3.11,2.24,4.56l-4.07,3.07C105.15,436.3,104.4,434.78,103.63,433.2Zm5,10q-1.07-2.12-2.27-4.51,2.07-1.54,4.08-3.07,1.2,2.4,2.28,4.52Q110.66,441.63,108.59,443.16Z" style="fill:#263238"></path></g><g id="freepik--Plant--inject-37"><path d="M647.08,276.63h0a.13.13,0,1,0-.24-.1,173.86,173.86,0,0,0-9.16,28.72A267.38,267.38,0,0,0,632.62,335l-.72,7.53c-.11,1.26-.24,2.51-.33,3.77l-.21,3.77c-.11,2.52-.26,5-.33,7.56l.07,7.56.08,3.78c.06,1.26.15,2.52.23,3.78.19,2.51.35,5,.58,7.53.48,5,1.23,10,2,15a.13.13,0,0,0,.13.11.13.13,0,0,0,.13-.13h0c0-2.52-.12-5-.18-7.54s-.29-5-.25-7.51-.05-5-.08-7.5l-.07-3.75.06-3.75,0-7.49.2-7.49.08-3.75c.05-1.25.14-2.5.21-3.74l.46-7.49a265.73,265.73,0,0,1,4.24-29.7A173.33,173.33,0,0,1,647.08,276.63Z" style="fill:#263238"></path><path d="M648.15,315.82a.13.13,0,0,0-.08-.17.14.14,0,0,0-.17.08,178.47,178.47,0,0,0-5.33,19,176.24,176.24,0,0,0-3.15,19.56c-.67,6.56-1.4,13.12-1.49,19.72a163.24,163.24,0,0,0,.7,19.77.14.14,0,0,0,.12.12.13.13,0,0,0,.14-.12c.77-6.57,1.23-13.11,1.69-19.66s.52-13.11.95-19.66A173.1,173.1,0,0,1,643.87,335,177.89,177.89,0,0,1,648.15,315.82Z" style="fill:#263238"></path><path d="M669.88,329.6a.13.13,0,0,0-.18,0,66.19,66.19,0,0,0-14.53,12.67,57.87,57.87,0,0,0-5.68,7.89l-1.17,2.21-.91,2.28a22.1,22.1,0,0,0-.8,2.33c-.23.78-.5,1.55-.71,2.34a93.32,93.32,0,0,0-3,19.16,111.12,111.12,0,0,0,.72,19.3.15.15,0,0,0,.12.12.13.13,0,0,0,.14-.12l1.66-19.11c.66-6.32,1.06-12.67,2.42-18.84.17-.77.39-1.52.59-2.28a18.83,18.83,0,0,1,.67-2.25l.77-2.21,1-2.09a55.84,55.84,0,0,1,5.21-7.9,65.57,65.57,0,0,1,13.64-13.28h0A.13.13,0,0,0,669.88,329.6Z" style="fill:#263238"></path><path d="M659.36,354.15c-3,1.91-4.94,4.92-6.6,7.94a46.56,46.56,0,0,0-3.7,9.73c-.26.83-.47,1.67-.65,2.52l-.6,2.54a44.89,44.89,0,0,0-.64,5.16c0,1.74-.07,3.47,0,5.19a44.71,44.71,0,0,0,.69,5.16.14.14,0,0,0,.1.11.13.13,0,0,0,.16-.11,48.3,48.3,0,0,0,.92-5.07c.26-1.69.53-3.36.73-5s.46-3.33.59-5,.36-3.35.72-5a45.41,45.41,0,0,1,2.83-9.64,21.28,21.28,0,0,1,5.55-8.28l0,0a.14.14,0,0,0,0-.17A.14.14,0,0,0,659.36,354.15Z" style="fill:#263238"></path><path d="M628.9,373.29c-.72-8.49-2.12-16.88-3.44-25.28s-2.79-16.76-4.32-25.11-3.26-16.67-5.06-25a.12.12,0,0,0-.15-.1.13.13,0,0,0-.11.15c1.46,8.36,2.77,16.75,4,25.14s2.47,16.78,3.53,25.19,1.85,16.85,2.9,25.25l3.1,25.25a.13.13,0,0,0,.13.12.13.13,0,0,0,.14-.13c.1-2.12.1-4.25.15-6.38s-.09-4.26-.12-6.39C629.58,381.77,629.21,377.53,628.9,373.29Z" style="fill:#263238"></path><path d="M623.81,373.16c-.45-3.36-1.07-6.69-1.71-10l-1.19-5c-.39-1.65-.76-3.3-1.25-4.93A139.64,139.64,0,0,0,613.18,334l-1-2.33L611,329.34c-.72-1.53-1.59-3-2.41-4.48a37.55,37.55,0,0,0-6.12-8.12.13.13,0,0,0-.18,0,.13.13,0,0,0,0,.19h0a38,38,0,0,1,5.6,8.31c.73,1.5,1.51,3,2.14,4.54l1,2.31.88,2.36a137.5,137.5,0,0,1,5.65,19.29c.78,3.27,1.29,6.59,1.92,9.88l.8,5c.28,1.66.64,3.3.87,5,.53,3.32,1.14,6.62,1.72,9.94s1.12,6.65,1.82,10a.14.14,0,0,0,.13.1.13.13,0,0,0,.14-.13q0-5.08-.24-10.16C624.56,379.9,624.16,376.54,623.81,373.16Z" style="fill:#263238"></path><path d="M616.79,373.6c-1.57-4.45-3.39-8.81-5.37-13.08a116,116,0,0,0-6.76-12.39.15.15,0,0,0-.18,0,.13.13,0,0,0,0,.18,118.05,118.05,0,0,1,5.76,12.78c1.73,4.33,3.28,8.73,4.58,13.21s2.27,9,3.46,13.51,2.26,9,3.64,13.55a.15.15,0,0,0,.13.1.13.13,0,0,0,.13-.13,66.74,66.74,0,0,0-1.32-14.11A87.55,87.55,0,0,0,616.79,373.6Z" style="fill:#263238"></path><path d="M616.5,388.42a30.64,30.64,0,0,0-3.74-7.83,32.44,32.44,0,0,0-5.43-6.75,25.71,25.71,0,0,0-3.46-2.61,14,14,0,0,0-3.92-1.77.12.12,0,0,0-.15.07.14.14,0,0,0,.07.18h0a19.62,19.62,0,0,1,6.51,5.06,30.79,30.79,0,0,1,4.53,6.86c1.28,2.43,2,5.13,3.07,7.64.49,1.28,1,2.58,1.55,3.86a34.25,34.25,0,0,0,1.71,3.92h0a.15.15,0,0,0,.12.07.13.13,0,0,0,.14-.13,31.29,31.29,0,0,0-.16-4.33C617.14,391.24,616.84,389.83,616.5,388.42Z" style="fill:#263238"></path><path d="M617,310.07s-13.9-3.21-17.1-18.17,7.12-8.56-2.14-32.08-7.13-28.86-3.92-35.63,5-4.64,7.84,4.27,13.19,22.81,17.11,48.83S617,310.07,617,310.07Z" style="fill:#B0BEC5"></path><path d="M644.46,284.77s-9.26-3.21-9.62-20.67,6.77-13.9,7.84-35.64,2.5-37.06,6.42-37.42,14.25,10.69,17.82,34.93-4.64,40.27-11.76,47.4S644.46,284.77,644.46,284.77Z" style="fill:#B0BEC5"></path><path d="M612,331.1s-2.13-12.83-6.41-18.89-13.54-11.4-19.6-23.16-12.83-17.47-12.47-.72,7.84,25.31,17.1,31S612,331.1,612,331.1Z" style="fill:#B0BEC5"></path><path d="M608.11,353.19s-8.55-16.39-21-28.51-22.45-18.17-18.89-12.11,7.84,5.7,13.9,16.39,4.28,18.53,12.83,24.59S608.11,353.19,608.11,353.19Z" style="fill:#B0BEC5"></path><path d="M607,374.22c-.35-1.07-.71-8.91-12.82-15.32s-23.53-3.92-22.1-.72,8.91,8.56,16.39,11.76S607,374.22,607,374.22Z" style="fill:#B0BEC5"></path><path d="M643.75,331.81s-5.34-6.77-2.49-21,9.26-10.69,16.39-18.17,5.7-8.55,12.83-16.39,13.54-12.12,16.39-8.91-1.42,13.18-5.7,18.88-11,8.56-14.25,15.69-1.79,18.53-10,23.87S643.75,331.81,643.75,331.81Z" style="fill:#B0BEC5"></path><path d="M661.57,335.73s12.83-14.61,22.1-25.3,12.82-18.89,13.18-11.76,3.21,12.83-4.28,22.09S661.57,335.73,661.57,335.73Z" style="fill:#B0BEC5"></path><path d="M654.8,359.25s-.36-5.7,20-18.89,28.86-15.68,26.72-10.33-11,10.69-20.67,20.31S654.8,359.25,654.8,359.25Z" style="fill:#B0BEC5"></path><path d="M617.87,308.55s-4.77-25.56-9.76-43.74-8.19-29.22-8.19-29.22" style="fill:none;stroke:#263238;stroke-linecap:round;stroke-linejoin:round"></path><path d="M643.64,285s8.66-27.71,11.52-44.46-.36-29.22-1.79-36.71" style="fill:none;stroke:#263238;stroke-linecap:round;stroke-linejoin:round"></path><path d="M610.91,330.56a134.6,134.6,0,0,0-13.13-18.71c-7.84-9.26-13.9-14.25-17.46-23.16" style="fill:none;stroke:#263238;stroke-linecap:round;stroke-linejoin:round"></path><path d="M643.75,331.81s2.85-17.11,9.62-26S673.69,283,679,274.08" style="fill:none;stroke:#263238;stroke-linecap:round;stroke-linejoin:round"></path><path d="M606.21,373.83s-12-7.81-20.55-12.08" style="fill:none;stroke:#263238;stroke-linecap:round;stroke-linejoin:round"></path><path d="M606,391.29c-.91,15.61,8.92,42.84,13.09,53.58a6.88,6.88,0,0,0,6.35,4.54h15.69a6.89,6.89,0,0,0,6.36-4.54c4.17-10.74,14-38,13.09-53.58Z" style="fill:#263238;stroke:#263238;stroke-linecap:round;stroke-linejoin:round"></path></g><g id="freepik--character-3--inject-37"><path d="M502.3,130.21c-1.53,1.52-3.43,2.67-5.15,4.57s-8.2,4-8.77,4.2.38-3.25,0-6.87-2.67-3.05-3.43-1.33-.76,4.19-1.34,6.1-5.71,7.05-5.52,9.91.57,9,.57,9l-19.83,24.4s-5.72-18.3-8.38-27.26-6.87-14.49-14.87-16.77a78.36,78.36,0,0,0-15.64-2.67L390,133.07c-.95.38-21.35,1.9-25.16,6.67s-7.05,24-7.05,25.35-5.91,19.26-5.91,19.26-8.77-2.29-17.92-10.49-16.59-13.53-16.78-14.11-3.43-3.43-9.34-9.15-9.91-7.81-13.15-9.15-6.67,0-6.48,1.72.95,1.52,4.38,2.1,6.29,4.38,6.29,4.38-3.24,3.62-3.81,5.91-1.72,5.91.38,7.05,6.48,1.34,6.48,1.34,1.34,2.29,2.86,2.29,7.25-.58,7.25-.58,18.11,25.17,22.49,29.36,17.35,10.3,19.45,11.06,5.14,1.71,7.62,0S373.24,180,373.24,180s5.7,14.19,6.85,20.1a21.27,21.27,0,0,1-.14,9.55c0-.23,1.13-1.67,1-2.82,9.87,2.1,32.64,6.65,54.93.87l0,.28c-.57-5.91,2.35-22.26,2.35-22.26s6.49,12.2,9.54,17.54,8.2,8.6,12,7.84,15.25-23.45,16.78-29.74,8.38-22.52,9.33-24.23,6.87-6.3,8.2-7.25,7-5,8.39-6.86,2.09-6.29,2.29-9.72S503.82,128.68,502.3,130.21Z" style="fill:#fff;stroke:#263238;stroke-linecap:round;stroke-linejoin:round"></path><path d="M441.65,314c.74-3.59,2.22-6.92,3.34-10.45A173,173,0,0,0,451.62,276a76,76,0,0,0,.88-13.81c-.84-21-14.8-49-16.31-52.76a6.48,6.48,0,0,1-.33-1.76c-22.29,5.78-45.06,1.23-54.93-.87.15,1.15-1,2.59-1,2.82,0,.75-13.21,30.13-14.26,44s-.21,21.39,2.72,35q1.54,7.11,3.61,14.09c1.3,4.36,3.37,8.75,4.12,13.35.8,4.9,1.52,9.65.5,14.42-3,14-3,25.94,0,38.91s4,23.93,5.48,32.41S383.51,434,383.51,434a78.92,78.92,0,0,1-6.88,10.21c-6.81,8.56-6.66,15.64-4.66,17.64s4.16.82,10.15-3.67,11.47-13,12-16l.5-3,2-12s5.49-39.89,5.49-53.85c0-12.58,2.44-27.92,3.26-40.46s-.39-9.71.76-22.11c.2-2.14.34-16.69.5-18.83l1.32-18.44c0-.29.05-.57.07-.86h1.1c1.13,7.9,1.34,15.89,1.77,23.85.63,11.61.73,23.76,1.41,35.36.47,8.05,2,15.51,2.39,23.56.28,6,.59,11.95.59,17.93,0,14,5.49,53.85,5.49,53.85l2,12,.5,3c.5,3,6,11.47,12,16s8.12,5,10.11,3,1.21-6.82-5-15.85A86.81,86.81,0,0,1,434,434.65s-.29-24.39,1.2-32.87,3.49-19.43,6.48-32.41,3-24.94,0-38.91c-1-4.47-.77-9-.44-13.63A22.06,22.06,0,0,1,441.65,314Z" style="fill:#263238;stroke:#263238;stroke-linecap:round;stroke-linejoin:round"></path><path d="M423.23,442.19c.5,3,6,11.47,12,16s8.12,5,10.11,3,1.21-6.82-5-15.85A91.09,91.09,0,0,1,434.18,435c-5.16,2.84-10.43.52-12.22-.45l.77,4.61Z" style="fill:#fff;stroke:#263238;stroke-linecap:round;stroke-linejoin:round"></path><path d="M394.09,442.19l.5-3,.73-4.34c-8.39,3-11.81-.88-11.81-.88a78.92,78.92,0,0,1-6.88,10.21c-6.81,8.56-6.66,15.64-4.66,17.64s4.16.82,10.15-3.67S393.59,445.18,394.09,442.19Z" style="fill:#fff;stroke:#263238;stroke-linecap:round;stroke-linejoin:round"></path><path d="M394.59,439.19l.3-1.78a26.7,26.7,0,0,0-3,4.94c-2.49,5.2-6.34,10.18-11.54,10a6.68,6.68,0,0,1-6.26-4.49c-4.17,6.88-3.82,12.29-2.12,14,2,2,4.16.82,10.15-3.67s11.47-13,12-16Z" style="fill:#263238;stroke:#263238;stroke-linecap:round;stroke-linejoin:round"></path><path d="M440.33,451.63c-2.26,1.81-9.5,0-12-5a24.86,24.86,0,0,0-5.49-6.73c.07.43.19,1.14.38,2.27.5,3,6,11.47,12,16s8.12,5,10.11,3c1.81-1.81,1.32-5.93-3.34-13.35A4,4,0,0,1,440.33,451.63Z" style="fill:#263238;stroke:#263238;stroke-linecap:round;stroke-linejoin:round"></path><line x1="421.99" y1="263.85" x2="419.37" y2="267" style="fill:none;stroke:#fff;stroke-linecap:round;stroke-linejoin:round"></line><line x1="433.63" y1="249.81" x2="424.09" y2="261.31" style="fill:none;stroke:#fff;stroke-linecap:round;stroke-linejoin:round"></line><line x1="389.72" y1="256.99" x2="398.02" y2="264.55" style="fill:none;stroke:#fff;stroke-linecap:round;stroke-linejoin:round"></line><path d="M482.66,152.51s2.86-6.48,7.82-8.2,9.15-2.67,9.15-2.67,3.62-11,5.15-8.38-1.34,10.48-2.67,11.63-16.21,12.2-16.21,12.2" style="fill:#fff;stroke:#263238;stroke-linecap:round;stroke-linejoin:round"></path><path d="M314,157.09s-1.52-4.77-2.09-5.91-4-2.48-5.15-5.15-1.53-4.39-2.86-2.67a5.46,5.46,0,0,0-.76,5.91,5.8,5.8,0,0,0,3.24,3s-2.67,6.48,3.05,9.15" style="fill:#fff;stroke:#263238;stroke-linecap:round;stroke-linejoin:round"></path><path d="M299.85,151s5.52,2.86,5.33,5.33-2.67,8.2-3.05,8.77-6.48-.76-7.43-1.33-1.25-4.53.38-8.2a29.1,29.1,0,0,1,2.29-3.81" style="fill:#fff;stroke:#263238;stroke-linecap:round;stroke-linejoin:round"></path><path d="M295.88,153.84a18.83,18.83,0,0,0,8.66,4.44" style="fill:none;stroke:#263238;stroke-linecap:round;stroke-linejoin:round"></path><path d="M294.19,158.81a13.58,13.58,0,0,0,9.19,3.27" style="fill:none;stroke:#263238;stroke-linecap:round;stroke-linejoin:round"></path><path d="M475.92,183.4c-11.16-1.46-11.87-5.57-12.38-9l-4.71,5.79s-5.72-18.3-8.39-27.26-6.86-14.49-14.86-16.77a78.36,78.36,0,0,0-15.64-2.67L390,133.07c-.95.38-21.35,1.9-25.16,6.67s-7.05,24-7.05,25.35-5.91,19.26-5.91,19.26a44.73,44.73,0,0,1-12.37-6.14l-6.26,15.44c.5.57.94,1,1.28,1.37,4.39,4.2,17.35,10.3,19.45,11.06s5.14,1.71,7.62,0S373.24,180,373.24,180s5.7,14.19,6.85,20.1a21.27,21.27,0,0,1-.14,9.55c0,.11-.21.8-.55,1.91a60.05,60.05,0,0,0,26.78,5.07,152.16,152.16,0,0,0,30.88-4.9c-.39-1-.69-1.81-.87-2.27-1.51-3.77,2.05-23.74,2.05-23.74s6.49,12.2,9.54,17.54,8.2,8.6,12,7.84C463.26,210.36,473,191.53,475.92,183.4Z" style="fill:#B0BEC5;stroke:#263238;stroke-linecap:round;stroke-linejoin:round"></path><line x1="453.47" y1="186.34" x2="450.63" y2="189.61" style="fill:none;stroke:#263238;stroke-linecap:round;stroke-linejoin:round"></line><line x1="458.83" y1="180.15" x2="455.13" y2="184.42" style="fill:none;stroke:#263238;stroke-linecap:round;stroke-linejoin:round"></line><line x1="359.18" y1="187.58" x2="360.95" y2="188.36" style="fill:none;stroke:#263238;stroke-linecap:round;stroke-linejoin:round"></line><line x1="351.89" y1="184.35" x2="356.74" y2="186.07" style="fill:none;stroke:#263238;stroke-linecap:round;stroke-linejoin:round"></line><path d="M385.22,67.94a42.89,42.89,0,0,0-3.9,8c-.92,3.22-.23,22.3-6.9,27.35s-4.37,12.64,3.91,17.47,22.29,11.26,37.92,8.28,23.91-10.35,24.83-16.55-3-7.36-4.83-13.34.23-12.18-3.45-22.75-15.86-18.16-26.2-17.7S387.29,63.35,385.22,67.94Z" style="fill:#263238;stroke:#263238;stroke-linecap:round;stroke-linejoin:round"></path><path d="M397.61,127.72s-6.23,2.31-7.3,3.73a45.86,45.86,0,0,0-3,6.23s-.71,23.67,2.85,22.07S404,149.43,405.08,149.6s14.24,9.26,15.66,9.61,1.78,1.07,2.67-1.78,1.6-14.94.89-20.1-6.23-8.37-9.26-9.08S397.61,127.72,397.61,127.72Z" style="fill:#fff;stroke:#263238;stroke-linecap:round;stroke-linejoin:round"></path><path d="M396.54,121.67s-.71,7.65-2,11.56,10.14,25.45,12.46,23.14,10.67-19.58,10.67-22.25-1.06-12.81-1.06-12.81Z" style="fill:#fff;stroke:#263238;stroke-linecap:round;stroke-linejoin:round"></path><path d="M412.72,125.41s-2.4,4.81-9.24,7-8.9.8-8.9.8l2-11.56Z" style="fill:#263238;stroke:#263238;stroke-linecap:round;stroke-linejoin:round"></path><path d="M397.24,79.09s-9.89,13.69-9.89,14.38-.06,4.59-.06,4.59-6-1.38-3.68,6.66,7.13,6.9,7.13,6.9,3.45,9.88,8.05,13.56S410.06,130.24,416,124a25.14,25.14,0,0,0,6.88-12.64s6.15-1.64,6.46-7.5c.13-2.54-.09-4.25-3.47-5.6l.46-7.13S398.85,88.74,397.24,79.09Z" style="fill:#fff;stroke:#263238;stroke-linecap:round;stroke-linejoin:round"></path><path d="M401.39,101.88c0,1.25-.67,2.27-1.5,2.27s-1.49-1-1.49-2.27.67-2.26,1.49-2.26S401.39,100.63,401.39,101.88Z" style="fill:#263238"></path><path d="M417.3,101.88c0,1.25-.67,2.27-1.5,2.27s-1.5-1-1.5-2.27.68-2.26,1.5-2.26S417.3,100.63,417.3,101.88Z" style="fill:#263238"></path><path d="M403.13,110.61a4.68,4.68,0,0,0,4,1.6,5.18,5.18,0,0,0,3.74-2.4" style="fill:none;stroke:#263238;stroke-linecap:round;stroke-linejoin:round"></path><path d="M393.09,97.21s2.4-3.06,7.74-1.33" style="fill:none;stroke:#263238;stroke-linecap:round;stroke-linejoin:round"></path><path d="M412,94.21s5.57-1.17,7.4,4.37" style="fill:none;stroke:#263238;stroke-linecap:round;stroke-linejoin:round"></path><path d="M402.32,114.84a6.59,6.59,0,0,0,3.93,1.8c2.62.33,5.74-2,5.74-2s-1,4.1-3.93,5.58S402.32,118,402.32,114.84Z" style="fill:#263238"></path><line x1="438.24" y1="185.68" x2="440.15" y2="163" style="fill:none;stroke:#263238;stroke-linecap:round;stroke-linejoin:round"></line><line x1="373.24" y1="179.96" x2="370" y2="162.04" style="fill:none;stroke:#263238;stroke-linecap:round;stroke-linejoin:round"></line><path d="M411.4,222.55a2.73,2.73,0,1,0-2.72,2.72A2.72,2.72,0,0,0,411.4,222.55Z" style="fill:#fff;stroke:#263238;stroke-linecap:round;stroke-linejoin:round"></path></g><g id="freepik--characters-1-and-2--inject-37"><rect x="493.57" y="439.15" width="105.34" height="30.95" style="fill:#263238;stroke:#263238;stroke-linecap:round;stroke-linejoin:round"></rect><rect x="493.57" y="439.15" width="110.74" height="7.09" style="fill:#263238;stroke:#263238;stroke-linecap:round;stroke-linejoin:round"></rect><polygon points="493.25 439.15 604.3 439.15 568.04 398.36 475.12 398.36 493.25 439.15" style="fill:#fff;stroke:#263238;stroke-linecap:round;stroke-linejoin:round"></polygon><polygon points="475.12 398.36 475.12 404.72 493.57 446.24 493.25 439.15 475.12 398.36" style="fill:#fff;stroke:#263238;stroke-linecap:round;stroke-linejoin:round"></polygon><rect x="151.84" y="439.15" width="110.74" height="7.09" transform="translate(414.43 885.39) rotate(180)" style="fill:#263238;stroke:#263238;stroke-linecap:round;stroke-linejoin:round"></rect><rect x="156.09" y="439.15" width="106.49" height="31.23" transform="translate(418.67 909.54) rotate(180)" style="fill:#263238;stroke:#263238;stroke-linecap:round;stroke-linejoin:round"></rect><polygon points="262.89 439.15 151.84 439.15 188.1 398.36 281.02 398.36 262.89 439.15" style="fill:#fff;stroke:#263238;stroke-linecap:round;stroke-linejoin:round"></polygon><polygon points="281.02 398.36 281.02 404.72 262.58 446.24 262.89 439.15 281.02 398.36" style="fill:#fff;stroke:#263238;stroke-linecap:round;stroke-linejoin:round"></polygon><rect x="183.68" y="463.46" width="390.93" height="6.76" style="fill:#263238;stroke:#263238;stroke-linecap:round;stroke-linejoin:round"></rect><polygon points="279.18 335.05 183.68 463.46 574.5 463.46 479 335.05 279.18 335.05" style="fill:#fff;stroke:#263238;stroke-linecap:round;stroke-linejoin:round"></polygon><path d="M548.67,260.29s9.29-7.8,15.74-4.8,9.29,5.85,14.54,16.95,4.35,22.64-2.4,26.84-12.74,6.74-12.89,9.59,2.1,2.4,3,2.1,2.85,2.7.75,4.65-7.8,4.95-15.6,4.2-9.89-6.6-9.44-12.6,2.7-8.09,4.2-9.89,3.89-9.3,1-19.8-4.5-12.74-3.6-14.24S548.67,260.29,548.67,260.29Z" style="fill:#263238;stroke:#263238;stroke-linecap:round;stroke-linejoin:round"></path><path d="M515.83,255.34s-8,4.5-10.2,10.65-3.45,11.09-7.94,13.34c-1.83.92-4.2,2.25-4.05,4.35s4.35,4.65,4.35,4.65,2.25,12.44,2.7,15.14,3,3,4.94,2.7a64,64,0,0,1,7.2-.15l2.85,14,17.09-9.75-.3-6.75a20,20,0,0,0,7.95-8.39c2.55-5.55,3.15-14.1-3.15-23.39s-12-14-13.94-14.85A14.89,14.89,0,0,0,515.83,255.34Z" style="fill:#fff;stroke:#263238;stroke-linecap:round;stroke-linejoin:round"></path><polygon points="512.83 306.02 519.7 305.42 513.86 311.4 512.83 306.02" style="fill:#263238;stroke:#263238;stroke-linecap:round;stroke-linejoin:round"></polygon><path d="M516.73,247.25s-2.7,8.24-2.7,14.24,4.05,13.5,5.4,13.05,1.65-3.45,1.65-3.45,1.2,6.89,1.65,9.59.75,4.2,3.44,4.5,1.35-1.35,5.55-1.35,6.15,3.9,5.25,7.5-3.45,6-5.55,6.6a22.22,22.22,0,0,1-5.55.45s5.1,6.29,8.1,6.14,12.3-3.6,17.24-7.64,5.85-21.89,2.4-30.44-6.89-9.45-14.39-13.8S520,241.85,516.73,247.25Z" style="fill:#263238;stroke:#263238;stroke-linecap:round;stroke-linejoin:round"></path><path d="M506.72,278.49c-.38,1.31-1.25,2.22-2,2s-.95-1.43-.57-2.75,1.25-2.22,1.95-2S507.1,277.17,506.72,278.49Z" style="fill:#263238"></path><path d="M505.93,271.84s2.85-1,3.3,3.3" style="fill:none;stroke:#263238;stroke-linecap:round;stroke-linejoin:round"></path><path d="M500.54,290.73s4.79,1.2,7.19-1.65" style="fill:none;stroke:#263238;stroke-linecap:round;stroke-linejoin:round"></path><polygon points="511.93 320.27 514.63 328.81 537.27 313.52 533.37 307.22 511.93 320.27" style="fill:#fff;stroke:#263238;stroke-linecap:round;stroke-linejoin:round"></polygon><path d="M513.58,322.82s-4.79,42.55-5.85,48.58c-.37,2.11-.29,2-.29,2l42.09,55.95s16.37-2.05,11.13-41.27c-1.24-9.27-6.75-31.79-7.35-34.79s-9-27.44-12.29-33.13-6.15-7.8-6.15-7.8Z" style="fill:#B0BEC5;stroke:#263238;stroke-linecap:round;stroke-linejoin:round"></path><path d="M526.77,325.66s-1.79,4,1.5,15.15,10.35,23.84,12.9,22.79,22.49-9.75,22.94-11.7-.75-3.74-2.7-6.74-17.09-22.94-20.24-26.69-7.5-1.65-8.85-.15" style="fill:#B0BEC5;stroke:#263238;stroke-linecap:round;stroke-linejoin:round"></path><polygon points="542.82 363.3 545.07 366.6 564.26 356.25 562.46 353.4 542.82 363.3" style="fill:#fff;stroke:#263238;stroke-linecap:round;stroke-linejoin:round"></polygon><path d="M446.71,368.27l.35,2.66,19.87,27.32.66-2.32A80.35,80.35,0,0,0,462,382.69c-3.48-6.3-9.11-10.1-10.43-11.43A24.1,24.1,0,0,0,446.71,368.27Z" style="fill:#fff;stroke:#263238;stroke-linecap:round;stroke-linejoin:round"></path><path d="M457.65,380.2l32.15-1.43s5.5,1.27,7.38,4.27,3.62,6.88,5.82,8.55a34.07,34.07,0,0,1,3.26,2.72l-38.67,1.62s-3.74-6.87-5.26-10.46A11.61,11.61,0,0,0,457.65,380.2Z" style="fill:#fff;stroke:#263238;stroke-linecap:round;stroke-linejoin:round"></path><path d="M457.65,381.2s.41-4.44-2.64-5.8c-4.48-2-8.3-7.13-8.3-7.13L480,366a39,39,0,0,0,4.8,6.13c2.05,2.05,5.3,3.56,5,6.68Z" style="fill:#fff;stroke:#263238;stroke-linecap:round;stroke-linejoin:round"></path><path d="M545.07,366.6s-16.2,11.54-21,14.09-9.75,2.55-11.7,2.7-8.25-.45-12.59-.6-5.7,1.5-6.9,3.15-3.45,7.05-3.9,7.95,1.05,1.05,1.65.75l.6-.3s.3,1.05,1.8.75a12,12,0,0,0,2.7-.9s-.3,1.65,1.65,1.2a45.7,45.7,0,0,0,6.74-3s1.65.75,6.9,0a19.88,19.88,0,0,0,8.7-3.45s20.24-5.1,29.09-9.6,13.49-7.49,17.09-10.64,4.35-3.45,2.55-6.6a39.69,39.69,0,0,0-4.2-5.85Z" style="fill:#fff;stroke:#263238;stroke-linecap:round;stroke-linejoin:round"></path><path d="M495.74,394.19a53.69,53.69,0,0,1,6.89-4.5" style="fill:none;stroke:#263238;stroke-linecap:round;stroke-linejoin:round"></path><path d="M491.24,394.34s6.9-6.75,7.5-7.2" style="fill:none;stroke:#263238;stroke-linecap:round;stroke-linejoin:round"></path><path d="M491.39,388.94s3.45-2.85,4.65-3.6" style="fill:none;stroke:#263238;stroke-linecap:round;stroke-linejoin:round"></path><path d="M509.18,359.9c-.45.15-17.72,1.35-18.92,1.35a23.2,23.2,0,0,1-4.65-.9c-1-.3-13-4.05-14.54-4.05s-4.65,10.49-4.05,12,5.4,1.65,9.75,2.1,6.75.45,8.7,0a26.86,26.86,0,0,0,3.74-1.2l18.3,3.45Z" style="fill:#fff;stroke:#263238;stroke-linecap:round;stroke-linejoin:round"></path><path d="M473.7,371.13l-1.53,2.51-.19-3.05L478,351.45a.9.9,0,0,1,1.13-.58h0a.89.89,0,0,1,.59,1.13Z" style="fill:none;stroke:#263238;stroke-linecap:round;stroke-linejoin:round"></path><path d="M479.17,350.87a.9.9,0,0,0-1.13.58l-.84,2.65,1.72.54.84-2.64A.89.89,0,0,0,479.17,350.87Z" style="fill:none;stroke:#263238;stroke-linecap:round;stroke-linejoin:round"></path><path d="M475.87,357.5s-5.7-3.3-6.6-2.7-3.3,3.45-3.15,5.1,4.35,9.44,4.5,10,2.85-.3,3.15-1.65-1.35-8.69-1.35-8.69" style="fill:#fff;stroke:#263238;stroke-linecap:round;stroke-linejoin:round"></path><path d="M466.12,359.9s-3.15,3-2.85,4.35,3.9,6.14,6.15,6.14.6.75,1.2-.45S466.12,359.9,466.12,359.9Z" style="fill:#fff;stroke:#263238;stroke-linecap:round;stroke-linejoin:round"></path><path d="M463.72,365.44s-1.35,2.85-.6,3.75,5.25.3,6.3,1.2,1.2-.45,1.2-.45Z" style="fill:#fff;stroke:#263238;stroke-linecap:round;stroke-linejoin:round"></path><path d="M464.47,370.24a6.69,6.69,0,0,0,2.85,1.8,14.26,14.26,0,0,0,3.9.3l-1.8-1.95Z" style="fill:#fff;stroke:#263238;stroke-linecap:round;stroke-linejoin:round"></path><path d="M479.77,361.1a28.17,28.17,0,0,0-3,3c-.15.45-5.85,7.34-5.55,8.24s3,1.35,4,1.05,5-4.2,5-4.2a7,7,0,0,0,3.6.45c1.94-.3,4.64-3.6,4.64-3.6" style="fill:#fff;stroke:#263238;stroke-linecap:round;stroke-linejoin:round"></path><polygon points="466.93 398.25 506.01 396.27 506.26 394.31 467.59 395.94 466.93 398.25" style="fill:#fff;stroke:#263238;stroke-linecap:round;stroke-linejoin:round"></polygon><path d="M246.36,378.13,243.24,367l8.77-4.7c-2.78-6.67-8.28-18.08-11.59-25.18-4.42-9.49-7.57-11.71-13.13-14.54s-12.46-3.24-18-2.84-16.14,5.45-17.65,7.27c0,0-9.58,8.68-10.82,13.13s9.71,61,9.33,64.63,2.89,18.76,6.82,21.82A15.81,15.81,0,0,0,209.26,430l37.49-51.67Z" style="fill:#B0BEC5;stroke:#263238;stroke-linecap:round;stroke-linejoin:round"></path><path d="M200.91,316.7s-4.11.81-4.77,1.82-4.48,8.48-4.48,8.48,6.05,13.74,6.37,15.35,1.26,3.44,3.58,1.82,12-8.68,13.47-9.08,15,6.06,16.22,5.46,1.28-1.22.59-3.84-8-16-12.27-19.6S200.91,316.7,200.91,316.7Z" style="fill:#fff;stroke:#263238;stroke-linecap:round;stroke-linejoin:round"></path><path d="M198.06,312.66s2,9.9,2.31,11.11S213.73,346,216.22,341s2.29-17.78,2-20.21-.26-7.27-.26-7.27S202.82,315.08,198.06,312.66Z" style="fill:#fff;stroke:#263238;stroke-linecap:round;stroke-linejoin:round"></path><path d="M198.06,312.66s2,9.9,2.31,11.11a14.12,14.12,0,0,0,1.06,1.94,182.3,182.3,0,0,0,16.6-7.77c-.08-2.2-.07-4.47-.07-4.47S202.82,315.08,198.06,312.66Z" style="fill:#263238;stroke:#263238;stroke-linecap:round;stroke-linejoin:round"></path><path d="M231.06,274.49s-1.77,11.31-1.67,13.33,3.27,12.32.58,17.37-8.3,11.52-14.87,12.73a24.12,24.12,0,0,1-18.72-4.25,18.31,18.31,0,0,1-7.08-9.3,10.19,10.19,0,0,1-6.17-2.83c-2.52-2.62-5.21-5.86-3.47-8.08a11.79,11.79,0,0,1,4-3.23s-2.16-5.66-3-9.09-4.66-8.89.71-14.55,16.91-8.68,24.58-7.47,15.17,2,19.1,4.86S231.06,274.49,231.06,274.49Z" style="fill:#fff;stroke:#263238;stroke-linecap:round;stroke-linejoin:round"></path><path d="M185.48,282.55s3.77,10.31,2.33,10.71a4.14,4.14,0,0,1-4-1.41c-.77-1-2.69-3.24-2.69-3.24l-3.41-5.25s-9.39-7.88-8.19-15.76,4.19-10.71,6.7-12.12a39.15,39.15,0,0,1,6.84-2.62s-7.06-1.22-4.12-3,4.48,0,4.48,0,5.15-5.46,5.5-4.25a23.43,23.43,0,0,1,0,5,32.26,32.26,0,0,1,19.64-6.25c11.38.4,22.58,8.69,26.4,13.74s6.74,7.88,2.47,12.12-6.93,8.49-14.77,6.47a29,29,0,0,1-12.3-6.47s1.39,4.85-3.45,3.83-9.71-5.45-9.71-5.45,2.42,4.64-3.07,8.68A42.72,42.72,0,0,1,185.48,282.55Z" style="fill:#263238;stroke:#263238;stroke-linecap:round;stroke-linejoin:round"></path><path d="M217.18,296.1a1.77,1.77,0,0,1-1.8,1.61,1.58,1.58,0,0,1-1.66-1.61,1.79,1.79,0,0,1,1.81-1.62A1.58,1.58,0,0,1,217.18,296.1Z" style="fill:none;stroke:#263238;stroke-linecap:round;stroke-linejoin:round"></path><path d="M209.09,303.57s5.87,4.65,12.15-3" style="fill:none;stroke:#263238;stroke-linecap:round;stroke-linejoin:round"></path><path d="M205.46,289.52c.27,1.63-.18,3.1-1,3.28s-1.72-1-2-2.65.18-3.11,1-3.28S205.19,287.88,205.46,289.52Z" style="fill:#263238"></path><path d="M222.52,286.81c.27,1.63-.18,3.1-1,3.27s-1.72-1-2-2.65.18-3.1,1-3.27S222.25,285.17,222.52,286.81Z" style="fill:#263238"></path><path d="M197.18,284.78s3.89-4.65,9.36-4" style="fill:none;stroke:#263238;stroke-linecap:round;stroke-linejoin:round"></path><path d="M217.43,278.52s6.43-2.42,9.07,1.82" style="fill:none;stroke:#263238;stroke-linecap:round;stroke-linejoin:round"></path><path d="M186.73,332.05s-6.23,2.62-9.9,6.86-.89,47.48-.89,47.48l23.27-5.65L191,349.63" style="fill:#B0BEC5;stroke:#263238;stroke-linecap:round;stroke-linejoin:round"></path><path d="M243.24,367,273,344.6s6.12-8.85,7.5-10,8.85,1.32,11,3.39,3.7,5.83,1.08,8.84a23.17,23.17,0,0,1-10,6.21c-3.08.94-4.71-.56-4.71-.56s-15.61,20.51-18,22.2-6.39,6.59-13.18,3.61C244,377.13,243.24,367,243.24,367Z" style="fill:#fff;stroke:#263238;stroke-linecap:round;stroke-linejoin:round"></path><path d="M280,336.88s3.75-7,5.33-8.28,7.59-4,7.88-2.07-1.3,3.2-2.28,4a18.4,18.4,0,0,1-2.54,1.5L285,339.33" style="fill:#fff;stroke:#263238;stroke-linecap:round;stroke-linejoin:round"></path><path d="M287.93,333.5s3.61-.19,3.92,1.13-.87,6.21-3.22,7.72-3.6,0-3.56-.76S287.93,333.5,287.93,333.5Z" style="fill:#fff;stroke:#263238;stroke-linecap:round;stroke-linejoin:round"></path><path d="M291.85,334.63s3.91,1.51,3.65,3-1.25,6.21-3.36,6.59-3.51-1.88-3.51-1.88S291.86,338.39,291.85,334.63Z" style="fill:#fff;stroke:#263238;stroke-linecap:round;stroke-linejoin:round"></path><path d="M295.5,337.64s3.47,2.64,2.2,5.46-3.86,5.27-5.12,3.76a2.14,2.14,0,0,1-.44-2.63S295.35,340.65,295.5,337.64Z" style="fill:#fff;stroke:#263238;stroke-linecap:round;stroke-linejoin:round"></path><path d="M274.18,343.09s4.84-5.83,5.81-6.21,7.27,2.45,8.78,2.64,3.6,0,2.75,1.89-3.15,2.44-5.24,2.44a3.46,3.46,0,0,1-3-1.51s-.11,6.22-5.88,7.91" style="fill:#fff;stroke:#263238;stroke-linecap:round;stroke-linejoin:round"></path><path d="M199.21,380.74s25.69,4.5,28.91,4.69,7,.19,7,.19,9.89-4.51,12.22-5.64,2.15-1.32,6.06.19a83.77,83.77,0,0,1,9.27,4.33c.55.38,2.57,1.7,1.76,2.83s-1.41,1.69-3.9,2.07-5.33.56-5.33.56,7.51,1.51,5.77,2.07-9.83-.57-11.16-.57a23.5,23.5,0,0,0-7.86,1.88c-2.91,1.32-7.76-.37-9.65-.56s-22.13,2.63-30.46,2.43-15.71-.75-20.5-3.58-3.51-5.83-3.51-5.83Z" style="fill:#fff;stroke:#263238;stroke-linecap:round;stroke-linejoin:round"></path><line x1="250.29" y1="385.82" x2="264.44" y2="387.33" style="fill:none;stroke:#263238;stroke-linecap:round;stroke-linejoin:round"></line><line x1="251.42" y1="382.05" x2="262.68" y2="384.5" style="fill:none;stroke:#263238;stroke-linecap:round;stroke-linejoin:round"></line><line x1="243.24" y1="366.99" x2="236.15" y2="345.15" style="fill:none;stroke:#263238;stroke-linecap:round;stroke-linejoin:round"></line></g><g id="freepik--Books--inject-37"><polygon points="432.51 396.13 374.48 396.13 378.08 375.52 424.8 375.38 432.51 396.13" style="fill:#263238;stroke:#263238;stroke-linecap:round;stroke-linejoin:round"></polygon><rect x="375.94" y="387.46" width="55.01" height="6.73" style="fill:#fff;stroke:#263238;stroke-linecap:round;stroke-linejoin:round"></rect><path d="M432.51,390.31h-58l3.31-18.19a2.82,2.82,0,0,1,2.84-2.42l41.94-.13a2.82,2.82,0,0,1,2.78,2.06Z" style="fill:#263238;stroke:#263238;stroke-linecap:round;stroke-linejoin:round"></path><polygon points="410.45 386.07 353.34 396.31 353.24 375.39 399.21 367 410.45 386.07" style="fill:#B0BEC5;stroke:#263238;stroke-linecap:round;stroke-linejoin:round"></polygon><rect x="353.41" y="382.61" width="55.01" height="6.73" transform="translate(-62.12 73.25) rotate(-10.16)" style="fill:#fff;stroke:#263238;stroke-linecap:round;stroke-linejoin:round"></rect><path d="M409.42,380.35l-57.11,10.23.05-18.49a2.81,2.81,0,0,1,2.36-2.88L396,361.68a2.84,2.84,0,0,1,3.1,1.53Z" style="fill:#B0BEC5;stroke:#263238;stroke-linecap:round;stroke-linejoin:round"></path></g><g id="freepik--Windmill--inject-37"><polygon points="309.84 310.12 305.24 310.12 302.94 383.4 312.15 383.4 309.84 310.12" style="fill:#fff;stroke:#263238;stroke-linecap:round;stroke-linejoin:round"></polygon><path d="M301.71,312.3l9.64,1.71v-8.29l-9.64,1.71a2.47,2.47,0,0,0-2,2.43h0A2.48,2.48,0,0,0,301.71,312.3Z" style="fill:#fff;stroke:#263238;stroke-linecap:round;stroke-linejoin:round"></path><path d="M310.08,305.72l-10-44.62s2.52-2.82,4.09,1.89,11.93,32.36,11.31,34.55-4.09,5.34-4.09,5.34l.94,5h-3.14Z" style="fill:#fff;stroke:#263238;stroke-linecap:round;stroke-linejoin:round"></path><path d="M309.79,315l-24.38,38.67s-3.77.23-1.57-4.22S298.2,318.08,300.19,317s6.66-.9,6.66-.9l2.88-4.23L312,314Z" style="fill:#fff;stroke:#263238;stroke-linecap:round;stroke-linejoin:round"></path><path d="M312.63,310.57l45,7.94s1.64,3.41-3.31,3.05-34.46-1.42-36.25-2.85-3.36-5.82-3.36-5.82l-5-1.06,1.21-2.9Z" style="fill:#fff;stroke:#263238;stroke-linecap:round;stroke-linejoin:round"></path><path d="M315.75,310.12a4.41,4.41,0,1,1-4.4-4.4A4.41,4.41,0,0,1,315.75,310.12Z" style="fill:#fff;stroke:#263238;stroke-linecap:round;stroke-linejoin:round"></path><rect x="290.24" y="382.37" width="34.77" height="6.79" style="fill:#fff;stroke:#263238;stroke-linecap:round;stroke-linejoin:round"></rect></g></svg>