<svg width="1550" height="1748" viewBox="0 0 1550 1748" fill="none" xmlns="http://www.w3.org/2000/svg">
<path d="M205.639 1599.21C205.654 1599.5 205.639 1599.24 205.639 1599.21Z" fill="#8F86E3"/>
<path d="M1045.98 1264.36L965.63 1238.76C957.145 1236.06 952.6 1227.41 955.481 1219.45C958.362 1211.48 967.579 1207.22 976.067 1209.92L1056.43 1235.52C1064.9 1238.22 1069.45 1246.87 1066.58 1254.83C1063.7 1262.8 1054.47 1267.06 1045.98 1264.36V1264.36Z" stroke="#E8CA1A" stroke-width="5.33333" stroke-miterlimit="10"/>
<path d="M974.546 1101.97V1101.97C974.631 1102.21 974.712 1102.47 974.801 1102.71C976.587 1108.1 987.174 1142.16 982.767 1179.96L1068.97 1206.65C1089.43 1173.82 1119.53 1152.36 1124.39 1149.04C1124.62 1148.89 1124.85 1148.73 1125.08 1148.58V1148.58C1127.42 1147 1129.7 1145.32 1131.91 1143.54C1144.89 1133.03 1155.09 1119.19 1160.86 1102.8C1177.82 1054.61 1149.91 1002.65 1098.54 986.737C1047.18 970.828 991.79 997.001 974.836 1045.2C969.071 1061.58 968.489 1078.4 972.254 1094.09C972.891 1096.75 973.662 1099.38 974.546 1101.97Z" stroke="#E8CA1A" stroke-width="5.33333" stroke-miterlimit="10"/>
<path d="M970.024 1240.51C969.066 1256.49 979.551 1271.72 996.524 1276.98C1013.28 1282.17 1031.12 1276.02 1040.59 1262.99L970.024 1240.51Z" stroke="#E8CA1A" stroke-width="5.33333" stroke-miterlimit="10"/>
<path d="M1009.75 1187.9L1035.38 1115.08C1037.9 1107.91 1033.75 1100.18 1026.1 1097.81C1018.46 1095.44 1010.22 1099.34 1007.7 1106.51C1005.18 1113.68 1009.33 1121.41 1016.97 1123.78L1047.7 1133.3" stroke="#E8CA1A" stroke-width="5.33333" stroke-miterlimit="10"/>
<path d="M1043.56 1198.37L1069.18 1125.55C1071.71 1118.38 1079.95 1114.49 1087.59 1116.85C1095.23 1119.22 1099.37 1126.95 1096.86 1134.12C1094.33 1141.29 1086.09 1145.18 1078.45 1142.82L1047.7 1133.3" stroke="#E8CA1A" stroke-width="5.33333" stroke-miterlimit="10"/>
<path d="M1179.04 1127.93L1205 1135.97" stroke="#E8CA1A" stroke-width="5.33333" stroke-miterlimit="10" stroke-linecap="round"/>
<path d="M1190.97 1097.24L1217.98 1093.41" stroke="#E8CA1A" stroke-width="5.33333" stroke-miterlimit="10" stroke-linecap="round"/>
<path d="M1160.89 1154.24L1180.17 1172.42" stroke="#E8CA1A" stroke-width="5.33333" stroke-miterlimit="10" stroke-linecap="round"/>
<path d="M937.947 1053.27L911.988 1045.22" stroke="#E8CA1A" stroke-width="5.33333" stroke-miterlimit="10" stroke-linecap="round"/>
<path d="M947.857 1021.96L928.566 1003.78" stroke="#E8CA1A" stroke-width="5.33333" stroke-miterlimit="10" stroke-linecap="round"/>
<path d="M935.846 1084.55L908.816 1088.38" stroke="#E8CA1A" stroke-width="5.33333" stroke-miterlimit="10" stroke-linecap="round"/>
<path d="M968.808 849.831C941.509 849.831 919.377 829.069 919.377 803.457C919.377 829.069 897.247 849.831 869.95 849.831C897.247 849.831 919.377 870.595 919.377 896.207C919.377 870.595 941.509 849.831 968.808 849.831V849.831Z" stroke="#FA8231" stroke-width="5.33333" stroke-miterlimit="10" stroke-linecap="round" stroke-linejoin="round"/>
<path d="M262.485 747.19C235.188 747.19 213.056 726.428 213.056 700.817C213.056 726.428 190.926 747.19 163.627 747.19C190.926 747.19 213.056 767.953 213.056 793.566C213.056 767.953 235.188 747.19 262.485 747.19Z" stroke="#1C2E6C" stroke-width="5.33333" stroke-miterlimit="10" stroke-linecap="round" stroke-linejoin="round"/>
<path d="M1427.75 1058.54C1400.44 1058.54 1378.32 1037.78 1378.32 1012.17C1378.32 1037.78 1356.18 1058.54 1328.89 1058.54C1356.18 1058.54 1378.32 1079.31 1378.32 1104.92C1378.32 1079.31 1400.44 1058.54 1427.75 1058.54Z" stroke="#50BFA5" stroke-width="5.33333" stroke-miterlimit="10" stroke-linecap="round" stroke-linejoin="round"/>
<path d="M712.904 1101.15C685.603 1101.15 663.473 1080.39 663.473 1054.78C663.473 1080.39 641.343 1101.15 614.046 1101.15C641.343 1101.15 663.473 1121.92 663.473 1147.53C663.473 1121.92 685.603 1101.15 712.904 1101.15Z" stroke="#50BFA5" stroke-width="5.33333" stroke-miterlimit="10" stroke-linecap="round" stroke-linejoin="round"/>
<path d="M1037.07 233.318C1009.77 233.318 987.643 212.556 987.643 186.944C987.643 212.556 965.511 233.318 938.212 233.318C965.511 233.318 987.643 254.08 987.643 279.691C987.643 254.08 1009.77 233.318 1037.07 233.318Z" stroke="#006837" stroke-width="5.33333" stroke-miterlimit="10" stroke-linecap="round" stroke-linejoin="round"/>
<path d="M369.927 1045.23C347.788 1045.23 329.84 1028.39 329.84 1007.61C329.84 1028.39 311.891 1045.23 289.752 1045.23C311.891 1045.23 329.84 1062.06 329.84 1082.84C329.84 1062.06 347.788 1045.23 369.927 1045.23Z" stroke="#8F86E3" stroke-width="5.33333" stroke-miterlimit="10" stroke-linecap="round" stroke-linejoin="round"/>
<path d="M1335.03 1284.9C1312.89 1284.9 1294.94 1268.06 1294.94 1247.29C1294.94 1268.06 1276.99 1284.9 1254.85 1284.9C1276.99 1284.9 1294.94 1301.74 1294.94 1322.51C1294.94 1301.74 1312.89 1284.9 1335.03 1284.9V1284.9Z" stroke="#FDA14D" stroke-width="5.33333" stroke-miterlimit="10" stroke-linecap="round" stroke-linejoin="round"/>
<path d="M906.39 595.776C884.249 595.776 866.3 578.935 866.3 558.164C866.3 578.935 848.349 595.776 826.21 595.776C848.349 595.776 866.3 612.615 866.3 633.385C866.3 612.615 884.249 595.776 906.39 595.776Z" stroke="#355389" stroke-width="5.33333" stroke-miterlimit="10" stroke-linecap="round" stroke-linejoin="round"/>
<path d="M1208.87 40.9962C1186.73 40.9962 1168.78 24.1572 1168.78 3.38431C1168.78 24.1572 1150.83 40.9962 1128.69 40.9962C1150.83 40.9962 1168.78 57.8352 1168.78 78.606C1168.78 57.8352 1186.73 40.9962 1208.87 40.9962Z" stroke="#FF8383" stroke-width="5.33333" stroke-miterlimit="10" stroke-linecap="round" stroke-linejoin="round"/>
<path d="M769.357 1707.39C747.216 1707.39 729.267 1690.55 729.267 1669.78C729.267 1690.55 711.317 1707.39 689.177 1707.39C711.317 1707.39 729.267 1724.23 729.267 1745C729.267 1724.23 747.216 1707.39 769.357 1707.39Z" stroke="#006837" stroke-width="5.33333" stroke-miterlimit="10" stroke-linecap="round" stroke-linejoin="round"/>
<path d="M504.726 614.323C504.726 624.565 495.875 632.869 484.955 632.869C474.037 632.869 465.186 624.565 465.186 614.323C465.186 604.078 474.037 595.776 484.955 595.776C495.875 595.776 504.726 604.078 504.726 614.323Z" stroke="#8F86E3" stroke-width="5.33333" stroke-miterlimit="10" stroke-linecap="round" stroke-linejoin="round"/>
<path d="M1450.38 732.207C1450.38 742.449 1441.54 750.753 1430.61 750.753C1419.7 750.753 1410.84 742.449 1410.84 732.207C1410.84 721.964 1419.7 713.658 1430.61 713.658C1441.54 713.658 1450.38 721.964 1450.38 732.207Z" stroke="#FDA14D" stroke-width="5.33333" stroke-miterlimit="10" stroke-linecap="round" stroke-linejoin="round"/>
<path d="M1312.06 907.596C1312.06 917.838 1303.23 926.142 1292.29 926.142C1281.39 926.142 1272.53 917.838 1272.53 907.596C1272.53 897.353 1281.39 889.049 1292.29 889.049C1303.23 889.049 1312.06 897.353 1312.06 907.596Z" stroke="#1C2E6C" stroke-width="5.33333" stroke-miterlimit="10" stroke-linecap="round" stroke-linejoin="round"/>
<path d="M833.398 59.5433C833.398 69.7883 824.544 78.0901 813.626 78.0901C802.709 78.0901 793.858 69.7883 793.858 59.5433C793.858 49.3004 802.709 40.9964 813.626 40.9964C824.544 40.9964 833.398 49.3004 833.398 59.5433Z" stroke="#8F86E3" stroke-width="5.33333" stroke-miterlimit="10" stroke-linecap="round" stroke-linejoin="round"/>
<path d="M1007.41 416.327C1007.41 426.572 998.561 434.876 987.643 434.876C976.723 434.876 967.872 426.572 967.872 416.327C967.872 406.084 976.723 397.782 987.643 397.782C998.561 397.782 1007.41 406.084 1007.41 416.327Z" stroke="#EA9ECB" stroke-width="5.33333" stroke-miterlimit="10" stroke-linecap="round" stroke-linejoin="round"/>
<path d="M339.425 59.5433C339.425 69.7883 330.571 78.0901 319.654 78.0901C308.736 78.0901 299.885 69.7883 299.885 59.5433C299.885 49.3004 308.736 40.9964 319.654 40.9964C330.571 40.9964 339.425 49.3004 339.425 59.5433Z" stroke="#EA9ECB" stroke-width="5.33333" stroke-miterlimit="10" stroke-linecap="round" stroke-linejoin="round"/>
<path d="M42.54 1455.37C42.54 1465.61 33.6889 1473.92 22.7688 1473.92C11.8511 1473.92 3 1465.61 3 1455.37C3 1445.13 11.8511 1436.82 22.7688 1436.82C33.6889 1436.82 42.54 1445.13 42.54 1455.37Z" stroke="#FF8383" stroke-width="5.33333" stroke-miterlimit="10" stroke-linecap="round" stroke-linejoin="round"/>
<path d="M801.227 1284.9C801.227 1295.14 792.375 1303.45 781.458 1303.45C770.54 1303.45 761.687 1295.14 761.687 1284.9C761.687 1274.66 770.54 1266.36 781.458 1266.36C792.375 1266.36 801.227 1274.66 801.227 1284.9Z" stroke="#9E005D" stroke-width="5.33333" stroke-miterlimit="10" stroke-linecap="round" stroke-linejoin="round"/>
<path d="M555.062 1530.45C555.062 1540.69 546.211 1549 535.291 1549C524.373 1549 515.522 1540.69 515.522 1530.45C515.522 1520.2 524.373 1511.9 535.291 1511.9C546.211 1511.9 555.062 1520.2 555.062 1530.45Z" stroke="#9E005D" stroke-width="5.33333" stroke-miterlimit="10" stroke-linecap="round" stroke-linejoin="round"/>
<path d="M1047.11 1479.9C1047.11 1490.14 1038.26 1498.45 1027.34 1498.45C1016.42 1498.45 1007.57 1490.14 1007.57 1479.9C1007.57 1469.66 1016.42 1461.35 1027.34 1461.35C1038.26 1461.35 1047.11 1469.66 1047.11 1479.9Z" stroke="#FDA14D" stroke-width="5.33333" stroke-miterlimit="10" stroke-linecap="round" stroke-linejoin="round"/>
<path d="M664.382 284.97C584.667 284.97 520.044 256.232 520.044 220.786C520.044 185.337 584.667 156.599 664.382 156.599C744.095 156.599 808.72 185.337 808.72 220.786C808.72 256.232 744.095 284.97 664.382 284.97V284.97Z" stroke="#9BC1F9" stroke-width="5.33333" stroke-miterlimit="10" stroke-linecap="round" stroke-linejoin="round"/>
<path d="M722.814 254.164C681.362 318.042 621.595 354.883 589.322 336.448C557.048 318.016 564.49 251.286 605.945 187.408C647.4 123.526 707.169 86.6875 739.441 105.122C771.711 123.554 764.269 190.282 722.814 254.164V254.164Z" stroke="#9BC1F9" stroke-width="5.33333" stroke-miterlimit="10" stroke-linecap="round" stroke-linejoin="round"/>
<path d="M605.945 254.164C647.4 318.042 707.169 354.883 739.441 336.448C771.711 318.016 764.269 251.286 722.814 187.408C681.362 123.526 621.595 86.6875 589.322 105.122C557.048 123.554 564.49 190.282 605.945 254.164V254.164Z" stroke="#9BC1F9" stroke-width="5.33333" stroke-miterlimit="10" stroke-linecap="round" stroke-linejoin="round"/>
<path d="M682.487 220.786C682.487 230.165 674.379 237.772 664.382 237.772C654.383 237.772 646.277 230.165 646.277 220.786C646.277 211.402 654.383 203.798 664.382 203.798C674.379 203.798 682.487 211.402 682.487 220.786Z" stroke="#9BC1F9" stroke-width="5.33333" stroke-miterlimit="10" stroke-linecap="round" stroke-linejoin="round"/>
<path d="M192.417 1243.15C192.417 1253.4 183.566 1261.7 172.648 1261.7C161.731 1261.7 152.877 1253.4 152.877 1243.15C152.877 1232.91 161.731 1224.61 172.648 1224.61C183.566 1224.61 192.417 1232.91 192.417 1243.15Z" stroke="#F27A6A" stroke-width="5.33333" stroke-miterlimit="10" stroke-linecap="round" stroke-linejoin="round"/>
<path d="M404.004 1385.47C404.004 1395.71 395.153 1404.02 384.235 1404.02C373.317 1404.02 364.466 1395.71 364.466 1385.47C364.466 1375.23 373.317 1366.92 384.235 1366.92C395.153 1366.92 404.004 1375.23 404.004 1385.47Z" stroke="#F27A6A" stroke-width="5.33333" stroke-miterlimit="10" stroke-linecap="round" stroke-linejoin="round"/>
<path d="M351.944 1307.77C351.944 1329.61 333.073 1347.31 309.792 1347.31C286.509 1347.31 267.638 1329.61 267.638 1307.77C267.638 1285.93 286.509 1268.22 309.792 1268.22C333.073 1268.22 351.944 1285.93 351.944 1307.77Z" stroke="#F27A6A" stroke-width="5.33333" stroke-miterlimit="10" stroke-linecap="round" stroke-linejoin="round"/>
<path d="M383.266 1307.77L369.187 1330.85L361.746 1356.51L334.392 1363.49L309.793 1376.7L285.193 1363.49L257.837 1356.51L250.399 1330.85L236.319 1307.77L250.399 1284.69L257.837 1259.03L285.193 1252.04L309.793 1238.84L334.392 1252.04L361.746 1259.03L369.187 1284.69L383.266 1307.77Z" stroke="#F27A6A" stroke-width="5.33333" stroke-miterlimit="10" stroke-linecap="round" stroke-linejoin="round"/>
<path d="M364.466 1385.47C364.466 1375.23 373.317 1366.92 384.235 1366.92C390.133 1366.92 395.415 1369.36 399.035 1373.2C414.088 1355.16 423.085 1332.46 423.085 1307.77C423.085 1249.07 372.362 1201.48 309.792 1201.48C247.222 1201.48 196.498 1249.07 196.498 1307.77C196.498 1366.47 247.222 1414.06 309.792 1414.06C331.782 1414.06 352.296 1408.16 369.674 1397.99C366.452 1394.69 364.466 1390.3 364.466 1385.47Z" stroke="#F27A6A" stroke-width="5.33333" stroke-miterlimit="10" stroke-linecap="round" stroke-linejoin="round"/>
<path d="M309.792 1163.93C256.923 1163.93 210.308 1189.03 182.745 1227.23C188.528 1230.46 192.417 1236.38 192.417 1243.15C192.417 1253.4 183.566 1261.7 172.649 1261.7C169.961 1261.7 167.401 1261.19 165.065 1260.28C159.521 1275.15 156.472 1291.12 156.472 1307.77C156.472 1387.21 225.118 1451.61 309.792 1451.61C394.467 1451.61 463.11 1387.21 463.11 1307.77C463.11 1228.33 394.467 1163.93 309.792 1163.93Z" stroke="#F27A6A" stroke-width="5.33333" stroke-miterlimit="10" stroke-linecap="round" stroke-linejoin="round"/>
<path d="M1112.35 703.335L1042.38 767.884C1034.99 774.7 1023.11 774.605 1015.84 767.672C1008.57 760.737 1008.67 749.588 1016.06 742.769L1086.05 678.222C1093.43 671.406 1105.33 671.499 1112.58 678.434C1119.85 685.369 1119.76 696.516 1112.35 703.335V703.335Z" stroke="#F15A24" stroke-width="5.33333" stroke-miterlimit="10" stroke-linecap="round"/>
<path d="M1251.91 653.96C1220.42 683.507 1169.36 683.507 1137.85 653.96C1106.37 624.412 1106.37 576.508 1137.85 546.962C1169.36 517.415 1220.42 517.415 1251.91 546.962C1283.41 576.508 1283.41 624.412 1251.91 653.96Z" stroke="#F15A24" stroke-width="5.33333" stroke-miterlimit="10" stroke-linecap="round"/>
<path d="M1236.03 639.061C1213.31 660.381 1176.47 660.381 1153.73 639.061C1131.01 617.744 1131.01 583.179 1153.73 561.86C1176.47 540.541 1213.31 540.541 1236.03 561.86C1258.74 583.179 1258.74 617.744 1236.03 639.061Z" stroke="#F15A24" stroke-width="5.33333" stroke-miterlimit="10" stroke-linecap="round"/>
<path d="M1137.85 653.96L1115.23 675.189" stroke="#8F86E3" stroke-width="5.33333" stroke-miterlimit="10" stroke-linecap="round"/>
<path d="M1396.41 1683.81L1289.44 1706.98L1284.63 1687.42C1283.53 1682.89 1286.52 1678.37 1291.35 1677.32L1380.83 1657.94C1385.66 1656.9 1390.47 1659.72 1391.6 1664.25L1396.41 1683.81Z" stroke="#86B1F2" stroke-width="5.33333" stroke-miterlimit="10" stroke-linecap="round"/>
<path d="M1389.3 1450.57C1417.56 1500.83 1397.01 1563.05 1343.43 1589.55C1289.86 1616.05 1223.55 1596.78 1195.29 1546.52C1167.05 1496.26 1187.58 1434.03 1241.16 1407.54C1294.73 1381.04 1361.06 1400.3 1389.3 1450.57Z" stroke="#86B1F2" stroke-width="5.33333" stroke-miterlimit="10"/>
<path d="M1343.43 1589.55L1241.16 1407.54L1228.39 1385.44C1161.71 1418.41 1136.17 1495.84 1171.31 1558.39C1206.45 1620.93 1288.98 1644.9 1355.65 1611.93L1343.16 1589.69" stroke="#86B1F2" stroke-width="5.33333" stroke-miterlimit="10" stroke-linecap="round" stroke-linejoin="round"/>
<path d="M1191.77 1457.52C1215.41 1461.81 1240.67 1458.87 1263.64 1447.53C1286.59 1436.17 1303.46 1418.26 1313.03 1397.54C1289.4 1393.26 1264.1 1396.19 1241.16 1407.54C1218.21 1418.89 1201.34 1436.81 1191.77 1457.52Z" stroke="#86B1F2" stroke-width="5.33333" stroke-miterlimit="10"/>
<path d="M1271.58 1599.55C1295.22 1603.83 1320.49 1600.9 1343.43 1589.55C1366.4 1578.2 1383.25 1560.28 1392.84 1539.57C1369.21 1535.28 1343.92 1538.21 1320.97 1549.56C1298.03 1560.92 1281.16 1578.83 1271.58 1599.55V1599.55Z" stroke="#86B1F2" stroke-width="5.33333" stroke-miterlimit="10"/>
<path d="M1340.81 1474.56C1369.05 1524.82 1370.22 1576.3 1343.43 1589.55C1316.64 1602.8 1272.04 1572.79 1243.8 1522.53C1215.57 1472.27 1214.37 1420.79 1241.16 1407.54C1267.95 1394.29 1312.57 1424.29 1340.81 1474.56Z" stroke="#86B1F2" stroke-width="5.33333" stroke-miterlimit="10"/>
<path d="M1195.29 1546.52L1389.3 1450.57" stroke="#86B1F2" stroke-width="5.33333" stroke-miterlimit="10"/>
<path d="M1324.15 1623.13L1335.47 1667.44" stroke="#86B1F2" stroke-width="5.33333" stroke-miterlimit="10"/>
<path d="M1276.58 1711.11L1412.93 1680.43" stroke="#86B1F2" stroke-width="5.33333" stroke-miterlimit="10" stroke-linecap="round"/>
<path d="M1234.71 185.348C1237.94 191.648 1235.11 199.21 1228.39 202.234C1221.67 205.262 1213.61 202.606 1210.39 196.306C1207.17 190.005 1210 182.446 1216.72 179.419C1223.41 176.394 1231.49 179.05 1234.71 185.348Z" stroke="#00BDED" stroke-width="5.33333" stroke-miterlimit="10" stroke-linecap="round" stroke-linejoin="round"/>
<path d="M1259.2 124.947C1262.42 131.248 1259.59 138.809 1252.9 141.834C1246.18 144.859 1238.12 142.203 1234.9 135.903C1231.65 129.605 1234.48 122.046 1241.2 119.019C1247.92 115.994 1255.98 118.647 1259.2 124.947Z" stroke="#00BDED" stroke-width="5.33333" stroke-miterlimit="10" stroke-linecap="round" stroke-linejoin="round"/>
<path d="M1427.62 112.472C1430.84 118.772 1428.01 126.333 1421.31 129.358C1414.59 132.383 1406.54 129.73 1403.29 123.429C1400.07 117.129 1402.9 109.568 1409.62 106.543C1416.34 103.518 1424.39 106.174 1427.62 112.472V112.472Z" stroke="#00920F" stroke-width="5.33333" stroke-miterlimit="10" stroke-linecap="round" stroke-linejoin="round"/>
<path d="M1317.93 228.613L1246.06 260.294C1242.19 261.988 1237.61 260.438 1235.82 256.828L1231.22 247.624C1229.4 244.016 1231.06 239.717 1234.9 238.02L1306.77 206.341C1310.61 204.647 1315.19 206.197 1317.01 209.805L1321.61 219.009C1323.43 222.619 1321.78 226.918 1317.93 228.613V228.613Z" stroke="#00BDED" stroke-width="5.33333" stroke-miterlimit="10" stroke-linecap="round"/>
<path d="M1345.85 300.546L1310.66 231.837L1253.77 257.472L1288.93 326.184L1311.12 441.135C1318.42 455.396 1336.64 461.405 1351.85 454.559L1413.3 426.879C1428.49 420.03 1434.89 402.915 1427.59 388.654L1345.85 300.546Z" stroke="#00BDED" stroke-width="5.33333" stroke-miterlimit="10" stroke-linecap="round"/>
<path d="M1298.95 378.021C1298.95 378.021 1310.66 360.187 1341.87 361.195C1373.07 362.203 1378.32 335.543 1378.32 335.543" stroke="#00BDED" stroke-width="5.33333" stroke-miterlimit="10" stroke-linecap="round"/>
<path d="M1464.07 162.764L1392.2 194.445C1388.35 196.139 1383.77 194.589 1381.96 190.981L1377.35 181.775C1375.56 178.169 1377.19 173.868 1381.04 172.173L1452.93 140.495C1456.77 138.798 1461.35 140.348 1463.15 143.958L1467.78 153.164C1469.57 156.772 1467.91 161.071 1464.07 162.764V162.764Z" stroke="#00920F" stroke-width="6" stroke-miterlimit="10" stroke-linecap="round"/>
<path d="M1486.97 361.707C1494.52 376.45 1513.37 382.662 1529.08 375.582C1544.8 368.502 1551.43 350.813 1543.88 336.072L1456.82 165.987L1399.91 191.625L1486.97 361.707Z" stroke="#00920F" stroke-width="5.33333" stroke-miterlimit="10" stroke-linecap="round"/>
<path d="M1486.97 361.707C1494.52 376.45 1513.37 382.662 1529.08 375.582C1544.8 368.502 1551.43 350.813 1543.88 336.072L1456.82 165.987L1399.91 191.625L1486.97 361.707Z" stroke="#00920F" stroke-width="5.33333" stroke-miterlimit="10" stroke-linecap="round"/>
<path d="M1456.64 302.422C1463.49 298.309 1473.94 294.507 1488.81 294.989C1503.1 295.451 1511.94 290.118 1517.32 284.199" stroke="#00920F" stroke-width="5.33333" stroke-miterlimit="10" stroke-linecap="round"/>
<path d="M360.441 539.516L88.9472 463.439C69.2083 457.907 57.9845 438.41 63.8806 419.889L118.11 249.543C124.006 231.025 144.788 220.495 164.527 226.026L436.023 302.103C455.764 307.635 466.988 327.131 461.092 345.652L406.86 515.998C400.966 534.517 380.185 545.047 360.441 539.516V539.516Z" stroke="#F7CC7F" stroke-width="5.33333" stroke-miterlimit="10" stroke-linecap="round"/>
<path d="M70.2921 399.749L413.274 495.856" stroke="#F7CC7F" stroke-width="5.33333" stroke-miterlimit="10" stroke-linecap="round"/>
<path d="M242.624 475.729C241.149 480.358 235.957 482.99 231.021 481.608C226.086 480.224 223.281 475.351 224.754 470.722C226.227 466.091 231.423 463.459 236.358 464.843C241.294 466.225 244.099 471.1 242.624 475.729Z" fill="#F7CC7F"/>
<path d="M252.785 544.783L175.891 523.235L186.25 490.704L263.141 512.25L252.785 544.783Z" stroke="#F7CC7F" stroke-width="5.33333" stroke-miterlimit="10" stroke-linecap="round"/>
<path d="M147.416 517.159L280.148 554.353" stroke="#F7CC7F" stroke-width="5.33333" stroke-miterlimit="10" stroke-linecap="round"/>
<path d="M736.498 880.883L802.708 850.85L670.731 594.756L604.518 624.792L736.498 880.883Z" stroke="#355389" stroke-width="5.33333" stroke-miterlimit="10" stroke-linecap="round" stroke-linejoin="round"/>
<path d="M686.558 625.472L653.455 640.489" stroke="#355389" stroke-width="5.33333" stroke-miterlimit="10" stroke-linecap="round" stroke-linejoin="round"/>
<path d="M717.139 684.809L684.033 699.826" stroke="#355389" stroke-width="5.33333" stroke-miterlimit="10" stroke-linecap="round" stroke-linejoin="round"/>
<path d="M747.719 744.146L714.614 759.163" stroke="#355389" stroke-width="5.33333" stroke-miterlimit="10" stroke-linecap="round" stroke-linejoin="round"/>
<path d="M778.3 803.483L745.193 818.502" stroke="#355389" stroke-width="5.33333" stroke-miterlimit="10" stroke-linecap="round" stroke-linejoin="round"/>
<path d="M696.682 645.114L680.13 652.623" stroke="#355389" stroke-width="5.33333" stroke-miterlimit="10" stroke-linecap="round" stroke-linejoin="round"/>
<path d="M706.909 664.96L690.358 672.47" stroke="#355389" stroke-width="5.33333" stroke-miterlimit="10" stroke-linecap="round" stroke-linejoin="round"/>
<path d="M727.313 704.554L710.762 712.062" stroke="#355389" stroke-width="5.33333" stroke-miterlimit="10" stroke-linecap="round" stroke-linejoin="round"/>
<path d="M737.543 724.401L720.989 731.91" stroke="#355389" stroke-width="5.33333" stroke-miterlimit="10" stroke-linecap="round" stroke-linejoin="round"/>
<path d="M757.947 763.993L741.395 771.502" stroke="#355389" stroke-width="5.33333" stroke-miterlimit="10" stroke-linecap="round" stroke-linejoin="round"/>
<path d="M768.174 783.842L751.623 791.349" stroke="#355389" stroke-width="5.33333" stroke-miterlimit="10" stroke-linecap="round" stroke-linejoin="round"/>
<path d="M589.543 742.687L569.685 751.695" stroke="#50BFA5" stroke-width="5.33333" stroke-miterlimit="10" stroke-linecap="round" stroke-linejoin="round"/>
<path d="M620.122 802.026L600.266 811.034" stroke="#50BFA5" stroke-width="5.33333" stroke-miterlimit="10" stroke-linecap="round" stroke-linejoin="round"/>
<path d="M650.702 861.363L630.844 870.371" stroke="#50BFA5" stroke-width="5.33333" stroke-miterlimit="10" stroke-linecap="round" stroke-linejoin="round"/>
<path d="M569.087 702.993L559.158 707.497" stroke="#50BFA5" stroke-width="5.33333" stroke-miterlimit="10" stroke-linecap="round" stroke-linejoin="round"/>
<path d="M579.314 722.84L569.386 727.344" stroke="#50BFA5" stroke-width="5.33333" stroke-miterlimit="10" stroke-linecap="round" stroke-linejoin="round"/>
<path d="M599.718 762.432L589.792 766.936" stroke="#50BFA5" stroke-width="5.33333" stroke-miterlimit="10" stroke-linecap="round" stroke-linejoin="round"/>
<path d="M609.945 782.281L600.019 786.784" stroke="#50BFA5" stroke-width="5.33333" stroke-miterlimit="10" stroke-linecap="round" stroke-linejoin="round"/>
<path d="M630.352 821.873L620.421 826.376" stroke="#50BFA5" stroke-width="5.33333" stroke-miterlimit="10" stroke-linecap="round" stroke-linejoin="round"/>
<path d="M661.432 882.181L651.501 886.685" stroke="#50BFA5" stroke-width="5.33333" stroke-miterlimit="10" stroke-linecap="round" stroke-linejoin="round"/>
<path d="M640.579 841.719L630.651 846.223" stroke="#50BFA5" stroke-width="5.33333" stroke-miterlimit="10" stroke-linecap="round" stroke-linejoin="round"/>
<path d="M528.762 975.116L543.134 652.636L675.113 908.729L528.762 975.116Z" stroke="#50BFA5" stroke-width="5.33333" stroke-miterlimit="10" stroke-linecap="round" stroke-linejoin="round"/>
<path d="M576.028 907.596L579.958 819.39L616.06 889.438L576.028 907.596Z" stroke="#50BFA5" stroke-width="5.33333" stroke-miterlimit="10" stroke-linecap="round" stroke-linejoin="round"/>
<path d="M706.546 1379.11L654.256 1428.17L799.137 1564.09L851.427 1515.03L706.546 1379.11Z" stroke="#8F86E3" stroke-width="5.33333" stroke-miterlimit="10" stroke-linecap="round" stroke-linejoin="round"/>
<path d="M865.584 1577.37L851.426 1515.03L799.137 1564.09L865.584 1577.37Z" stroke="#8F86E3" stroke-width="5.33333" stroke-miterlimit="10" stroke-linecap="round" stroke-linejoin="round"/>
<path d="M858.975 1548.27L834.567 1571.17" stroke="#8F86E3" stroke-width="5.33333" stroke-miterlimit="10" stroke-linecap="round" stroke-linejoin="round"/>
<path d="M638.878 1390.76L666.681 1364.68C673.44 1358.34 684.404 1358.34 691.165 1364.68L706.546 1379.11L654.256 1428.17L638.878 1413.74C632.114 1407.39 632.114 1397.11 638.878 1390.76Z" stroke="#8F86E3" stroke-width="5.33333" stroke-miterlimit="10" stroke-linecap="round" stroke-linejoin="round"/>
<path d="M720.671 1392.36L668.382 1441.42" stroke="#8F86E3" stroke-width="5.33333" stroke-miterlimit="10" stroke-linecap="round" stroke-linejoin="round"/>
<path d="M825.283 1539.56L694.525 1416.89" stroke="#8F86E3" stroke-width="5.33333" stroke-miterlimit="10" stroke-linecap="round" stroke-linejoin="round"/>
</svg>
