<svg width="2609" height="2471" viewBox="0 0 2609 2471" fill="none" xmlns="http://www.w3.org/2000/svg">
<path d="M344.625 2261.66C344.647 2262.06 344.625 2261.7 344.625 2261.66Z" fill="white"/>
<path d="M1761.34 1787.72L1625.88 1751.49C1611.58 1747.67 1603.91 1735.43 1608.77 1724.16C1613.63 1712.89 1629.17 1706.85 1643.47 1710.68L1778.95 1746.91C1793.23 1750.73 1800.91 1762.97 1796.06 1774.24C1791.21 1785.51 1775.65 1791.55 1761.34 1787.72V1787.72Z" stroke="white" stroke-width="5.33333" stroke-miterlimit="10"/>
<path d="M1640.91 1557.88V1557.88C1641.05 1558.23 1641.19 1558.59 1641.34 1558.94C1644.35 1566.56 1662.2 1614.77 1654.77 1668.27L1800.1 1706.05C1834.59 1659.58 1885.34 1629.21 1893.52 1624.5C1893.91 1624.29 1894.3 1624.07 1894.69 1623.86V1623.86C1898.65 1621.61 1902.49 1619.23 1906.21 1616.72C1928.09 1601.84 1945.28 1582.26 1955.02 1559.06C1983.61 1490.86 1936.55 1417.31 1849.95 1394.79C1763.35 1372.27 1669.98 1409.32 1641.4 1477.53C1631.68 1500.72 1630.7 1524.53 1637.05 1546.74C1638.12 1550.5 1639.42 1554.22 1640.91 1557.88Z" stroke="white" stroke-width="5.33333" stroke-miterlimit="10"/>
<path d="M1633.29 1753.98C1631.67 1776.59 1649.35 1798.15 1677.96 1805.58C1706.21 1812.93 1736.29 1804.22 1752.25 1785.79L1633.29 1753.98Z" stroke="white" stroke-width="5.33333" stroke-miterlimit="10"/>
<path d="M1700.26 1679.51L1743.46 1576.44C1747.72 1566.29 1740.72 1555.35 1727.83 1552C1714.95 1548.65 1701.06 1554.16 1696.8 1564.31C1692.55 1574.46 1699.55 1585.4 1712.43 1588.75L1764.25 1602.22" stroke="white" stroke-width="5.33333" stroke-miterlimit="10"/>
<path d="M1757.26 1694.33L1800.45 1591.26C1804.71 1581.11 1818.6 1575.6 1831.48 1578.95C1844.37 1582.3 1851.35 1593.24 1847.12 1603.39C1842.85 1613.54 1828.96 1619.05 1816.08 1615.7L1764.25 1602.22" stroke="white" stroke-width="5.33333" stroke-miterlimit="10"/>
<path d="M1985.67 1594.63L2029.44 1606.01" stroke="white" stroke-width="5.33333" stroke-miterlimit="10" stroke-linecap="round"/>
<path d="M2005.77 1551.19L2051.32 1545.77" stroke="white" stroke-width="5.33333" stroke-miterlimit="10" stroke-linecap="round"/>
<path d="M1955.06 1631.87L1987.57 1657.59" stroke="white" stroke-width="5.33333" stroke-miterlimit="10" stroke-linecap="round"/>
<path d="M1579.21 1488.95L1535.44 1477.57" stroke="white" stroke-width="5.33333" stroke-miterlimit="10" stroke-linecap="round"/>
<path d="M1595.92 1444.64L1563.39 1418.92" stroke="white" stroke-width="5.33333" stroke-miterlimit="10" stroke-linecap="round"/>
<path d="M1575.67 1533.23L1530.1 1538.65" stroke="white" stroke-width="5.33333" stroke-miterlimit="10" stroke-linecap="round"/>
<path d="M1631.24 1201.02C1585.22 1201.02 1547.9 1171.63 1547.9 1135.39C1547.9 1171.63 1510.59 1201.02 1464.58 1201.02C1510.59 1201.02 1547.9 1230.41 1547.9 1266.66C1547.9 1230.41 1585.22 1201.02 1631.24 1201.02V1201.02Z" stroke="#FA8231" stroke-width="5.33333" stroke-miterlimit="10" stroke-linecap="round" stroke-linejoin="round"/>
<path d="M440.461 1055.75C394.442 1055.75 357.129 1026.36 357.129 990.112C357.129 1026.36 319.821 1055.75 273.798 1055.75C319.821 1055.75 357.129 1085.13 357.129 1121.39C357.129 1085.13 394.442 1055.75 440.461 1055.75Z" stroke="white" stroke-width="5.33333" stroke-miterlimit="10" stroke-linecap="round" stroke-linejoin="round"/>
<path d="M2404.97 1496.42C2358.91 1496.42 2321.63 1467.04 2321.63 1430.79C2321.63 1467.04 2284.3 1496.42 2238.29 1496.42C2284.3 1496.42 2321.63 1525.81 2321.63 1562.06C2321.63 1525.81 2358.91 1496.42 2404.97 1496.42Z" stroke="#FDA14D" stroke-width="5.33333" stroke-miterlimit="10" stroke-linecap="round" stroke-linejoin="round"/>
<path d="M1199.81 1556.73C1153.79 1556.73 1116.48 1527.34 1116.48 1491.1C1116.48 1527.34 1079.17 1556.73 1033.15 1556.73C1079.17 1556.73 1116.48 1586.12 1116.48 1622.37C1116.48 1586.12 1153.79 1556.73 1199.81 1556.73Z" stroke="#FA8231" stroke-width="5.33333" stroke-miterlimit="10" stroke-linecap="round" stroke-linejoin="round"/>
<path d="M1746.32 328.437C1700.3 328.437 1662.99 299.052 1662.99 262.802C1662.99 299.052 1625.68 328.437 1579.66 328.437C1625.68 328.437 1662.99 357.823 1662.99 394.072C1662.99 357.823 1700.3 328.437 1746.32 328.437Z" stroke="white" stroke-width="5.33333" stroke-miterlimit="10" stroke-linecap="round" stroke-linejoin="round"/>
<path d="M621.596 1477.57C584.272 1477.57 554.013 1453.74 554.013 1424.34C554.013 1453.74 523.754 1477.57 486.429 1477.57C523.754 1477.57 554.013 1501.4 554.013 1530.81C554.013 1501.4 584.272 1477.57 621.596 1477.57Z" stroke="white" stroke-width="5.33333" stroke-miterlimit="10" stroke-linecap="round" stroke-linejoin="round"/>
<path d="M2248.65 1816.8C2211.32 1816.8 2181.06 1792.97 2181.06 1763.57C2181.06 1792.97 2150.8 1816.8 2113.47 1816.8C2150.8 1816.8 2181.06 1840.63 2181.06 1870.03C2181.06 1840.63 2211.32 1816.8 2248.65 1816.8V1816.8Z" stroke="#FDA14D" stroke-width="5.33333" stroke-miterlimit="10" stroke-linecap="round" stroke-linejoin="round"/>
<path d="M1526.01 841.443C1488.68 841.443 1458.42 817.607 1458.42 788.209C1458.42 817.607 1428.16 841.443 1390.83 841.443C1428.16 841.443 1458.42 865.276 1458.42 894.674C1458.42 865.276 1488.68 841.443 1526.01 841.443Z" stroke="white" stroke-width="5.33333" stroke-miterlimit="10" stroke-linecap="round" stroke-linejoin="round"/>
<path d="M2035.95 56.2338C1998.63 56.2338 1968.37 32.4007 1968.37 2.9997C1968.37 32.4007 1938.1 56.2338 1900.78 56.2338C1938.1 56.2338 1968.37 80.0669 1968.37 109.465C1968.37 80.0669 1998.63 56.2338 2035.95 56.2338Z" stroke="white" stroke-width="5.33333" stroke-miterlimit="10" stroke-linecap="round" stroke-linejoin="round"/>
<path d="M1294.99 2414.77C1257.66 2414.77 1227.4 2390.93 1227.4 2361.53C1227.4 2390.93 1197.14 2414.77 1159.81 2414.77C1197.14 2414.77 1227.4 2438.6 1227.4 2468C1227.4 2438.6 1257.66 2414.77 1294.99 2414.77Z" stroke="#FDA14D" stroke-width="5.33333" stroke-miterlimit="10" stroke-linecap="round" stroke-linejoin="round"/>
<path d="M848.85 867.693C848.85 882.19 833.928 893.943 815.519 893.943C797.112 893.943 782.19 882.19 782.19 867.693C782.19 853.193 797.112 841.443 815.519 841.443C833.928 841.443 848.85 853.193 848.85 867.693Z" stroke="white" stroke-width="5.33333" stroke-miterlimit="10" stroke-linecap="round" stroke-linejoin="round"/>
<path d="M2443.1 1034.54C2443.1 1049.04 2428.21 1060.79 2409.78 1060.79C2391.39 1060.79 2376.45 1049.04 2376.45 1034.54C2376.45 1020.04 2391.39 1008.29 2409.78 1008.29C2428.21 1008.29 2443.1 1020.04 2443.1 1034.54Z" stroke="#FDA14D" stroke-width="5.33333" stroke-miterlimit="10" stroke-linecap="round" stroke-linejoin="round"/>
<path d="M2209.93 1282.78C2209.93 1297.27 2195.03 1309.03 2176.6 1309.03C2158.21 1309.03 2143.27 1297.27 2143.27 1282.78C2143.27 1268.28 2158.21 1256.53 2176.6 1256.53C2195.03 1256.53 2209.93 1268.28 2209.93 1282.78Z" stroke="#FDA14D" stroke-width="5.33333" stroke-miterlimit="10" stroke-linecap="round" stroke-linejoin="round"/>
<path d="M1402.95 82.4846C1402.95 96.9849 1388.03 108.735 1369.62 108.735C1351.21 108.735 1336.29 96.9849 1336.29 82.4846C1336.29 67.9873 1351.21 56.2343 1369.62 56.2343C1388.03 56.2343 1402.95 67.9873 1402.95 82.4846Z" stroke="white" stroke-width="5.33333" stroke-miterlimit="10" stroke-linecap="round" stroke-linejoin="round"/>
<path d="M1696.31 587.459C1696.31 601.96 1681.4 613.713 1662.99 613.713C1644.58 613.713 1629.66 601.96 1629.66 587.459C1629.66 572.962 1644.58 561.212 1662.99 561.212C1681.4 561.212 1696.31 572.962 1696.31 587.459Z" stroke="white" stroke-width="5.33333" stroke-miterlimit="10" stroke-linecap="round" stroke-linejoin="round"/>
<path d="M570.172 82.4846C570.172 96.9849 555.246 108.735 536.84 108.735C518.434 108.735 503.512 96.9849 503.512 82.4846C503.512 67.9873 518.434 56.2343 536.84 56.2343C555.246 56.2343 570.172 67.9873 570.172 82.4846Z" stroke="white" stroke-width="5.33333" stroke-miterlimit="10" stroke-linecap="round" stroke-linejoin="round"/>
<path d="M69.6597 2058.07C69.6597 2072.57 54.7378 2084.32 36.3279 2084.32C17.9219 2084.32 3 2072.57 3 2058.07C3 2043.57 17.9219 2031.82 36.3279 2031.82C54.7378 2031.82 69.6597 2043.57 69.6597 2058.07Z" stroke="white" stroke-width="5.33333" stroke-miterlimit="10" stroke-linecap="round" stroke-linejoin="round"/>
<path d="M1348.72 1816.8C1348.72 1831.3 1333.79 1843.05 1315.39 1843.05C1296.98 1843.05 1282.06 1831.3 1282.06 1816.8C1282.06 1802.3 1296.98 1790.55 1315.39 1790.55C1333.79 1790.55 1348.72 1802.3 1348.72 1816.8Z" stroke="#FDA14D" stroke-width="5.33333" stroke-miterlimit="10" stroke-linecap="round" stroke-linejoin="round"/>
<path d="M933.711 2164.33C933.711 2178.83 918.789 2190.59 900.379 2190.59C881.973 2190.59 867.051 2178.83 867.051 2164.33C867.051 2149.84 881.973 2138.08 900.379 2138.08C918.789 2138.08 933.711 2149.84 933.711 2164.33Z" stroke="#FDA14D" stroke-width="5.33333" stroke-miterlimit="10" stroke-linecap="round" stroke-linejoin="round"/>
<path d="M1763.24 2092.79C1763.24 2107.29 1748.32 2119.04 1729.91 2119.04C1711.5 2119.04 1696.58 2107.29 1696.58 2092.79C1696.58 2078.29 1711.5 2066.54 1729.91 2066.54C1748.32 2066.54 1763.24 2078.29 1763.24 2092.79Z" stroke="#FDA14D" stroke-width="5.33333" stroke-miterlimit="10" stroke-linecap="round" stroke-linejoin="round"/>
<path d="M1118.01 401.543C983.621 401.543 874.674 360.869 874.674 310.7C874.674 260.528 983.621 219.853 1118.01 219.853C1252.4 219.853 1361.35 260.528 1361.35 310.7C1361.35 360.869 1252.4 401.543 1118.01 401.543V401.543Z" stroke="white" stroke-width="5.33333" stroke-miterlimit="10" stroke-linecap="round" stroke-linejoin="round"/>
<path d="M1216.52 357.942C1146.64 448.351 1045.88 500.494 991.47 474.403C937.059 448.315 949.606 353.868 1019.49 263.459C1089.38 173.044 1190.15 120.904 1244.55 146.995C1298.96 173.083 1286.41 267.527 1216.52 357.942V357.942Z" stroke="white" stroke-width="5.33333" stroke-miterlimit="10" stroke-linecap="round" stroke-linejoin="round"/>
<path d="M1019.49 357.942C1089.38 448.351 1190.15 500.494 1244.55 474.403C1298.96 448.315 1286.41 353.868 1216.52 263.459C1146.64 173.044 1045.88 120.904 991.47 146.995C937.059 173.083 949.606 267.527 1019.49 357.942V357.942Z" stroke="white" stroke-width="5.33333" stroke-miterlimit="10" stroke-linecap="round" stroke-linejoin="round"/>
<path d="M1148.53 310.7C1148.53 323.975 1134.87 334.741 1118.01 334.741C1101.15 334.741 1087.49 323.975 1087.49 310.7C1087.49 297.419 1101.15 286.656 1118.01 286.656C1134.87 286.656 1148.53 297.419 1148.53 310.7Z" stroke="white" stroke-width="5.33333" stroke-miterlimit="10" stroke-linecap="round" stroke-linejoin="round"/>
<path d="M322.335 1757.71C322.335 1772.21 307.413 1783.96 289.007 1783.96C270.601 1783.96 255.675 1772.21 255.675 1757.71C255.675 1743.21 270.601 1731.46 289.007 1731.46C307.413 1731.46 322.335 1743.21 322.335 1757.71Z" stroke="white" stroke-width="5.33333" stroke-miterlimit="10" stroke-linecap="round" stroke-linejoin="round"/>
<path d="M679.045 1959.14C679.045 1973.64 664.123 1985.39 645.717 1985.39C627.311 1985.39 612.389 1973.64 612.389 1959.14C612.389 1944.64 627.311 1932.89 645.717 1932.89C664.123 1932.89 679.045 1944.64 679.045 1959.14Z" stroke="white" stroke-width="5.33333" stroke-miterlimit="10" stroke-linecap="round" stroke-linejoin="round"/>
<path d="M591.279 1849.16C591.279 1880.08 559.464 1905.13 520.215 1905.13C480.963 1905.13 449.148 1880.08 449.148 1849.16C449.148 1818.25 480.963 1793.19 520.215 1793.19C559.464 1793.19 591.279 1818.25 591.279 1849.16Z" stroke="white" stroke-width="5.33333" stroke-miterlimit="10" stroke-linecap="round" stroke-linejoin="round"/>
<path d="M644.084 1849.16L620.347 1881.83L607.803 1918.15L561.687 1928.03L520.216 1946.73L478.744 1928.03L432.624 1918.15L420.084 1881.83L396.347 1849.16L420.084 1816.5L432.624 1780.17L478.744 1770.29L520.216 1751.6L561.687 1770.29L607.803 1780.17L620.347 1816.5L644.084 1849.16Z" stroke="white" stroke-width="5.33333" stroke-miterlimit="10" stroke-linecap="round" stroke-linejoin="round"/>
<path d="M612.389 1959.14C612.389 1944.64 627.311 1932.89 645.717 1932.89C655.661 1932.89 664.565 1936.34 670.668 1941.78C696.046 1916.24 711.213 1884.11 711.213 1849.16C711.213 1766.08 625.701 1698.73 520.215 1698.73C414.73 1698.73 329.214 1766.08 329.214 1849.16C329.214 1932.25 414.73 1999.6 520.215 1999.6C557.287 1999.6 591.872 1991.25 621.169 1976.85C615.737 1972.18 612.389 1965.98 612.389 1959.14Z" stroke="white" stroke-width="5.33333" stroke-miterlimit="10" stroke-linecap="round" stroke-linejoin="round"/>
<path d="M520.215 1645.58C431.084 1645.58 352.497 1681.11 306.028 1735.17C315.778 1739.75 322.335 1748.12 322.335 1757.71C322.335 1772.21 307.413 1783.96 289.007 1783.96C284.476 1783.96 280.161 1783.24 276.223 1781.95C266.877 1803 261.736 1825.6 261.736 1849.16C261.736 1961.6 377.464 2052.75 520.215 2052.75C662.967 2052.75 778.691 1961.6 778.691 1849.16C778.691 1736.73 662.967 1645.58 520.215 1645.58Z" stroke="white" stroke-width="5.33333" stroke-miterlimit="10" stroke-linecap="round" stroke-linejoin="round"/>
<path d="M1873.23 993.677L1755.28 1085.04C1742.81 1094.68 1722.78 1094.55 1710.53 1084.74C1698.27 1074.92 1698.44 1059.14 1710.91 1049.49L1828.89 958.133C1841.34 948.486 1861.4 948.617 1873.62 958.433C1885.88 968.248 1885.72 984.026 1873.23 993.677V993.677Z" stroke="white" stroke-width="5.33333" stroke-miterlimit="10" stroke-linecap="round"/>
<path d="M2108.51 923.793C2055.43 965.613 1969.34 965.613 1916.22 923.793C1863.14 881.973 1863.14 814.171 1916.22 772.354C1969.34 730.534 2055.43 730.534 2108.51 772.354C2161.62 814.171 2161.62 881.973 2108.51 923.793Z" stroke="white" stroke-width="5.33333" stroke-miterlimit="10" stroke-linecap="round"/>
<path d="M2081.73 902.707C2043.44 932.881 1981.32 932.881 1942.99 902.707C1904.7 872.536 1904.7 823.614 1942.99 793.44C1981.32 763.266 2043.44 763.266 2081.73 793.44C2120.03 823.614 2120.03 872.536 2081.73 902.707Z" stroke="white" stroke-width="5.33333" stroke-miterlimit="10" stroke-linecap="round"/>
<path d="M1916.22 923.794L1878.08 953.84" stroke="white" stroke-width="5.33333" stroke-miterlimit="10" stroke-linecap="round"/>
<path d="M2352.12 2381.4L2171.79 2414.19L2163.68 2386.5C2161.82 2380.09 2166.86 2373.69 2175.01 2372.21L2325.86 2344.78C2334 2343.3 2342.11 2347.3 2344.01 2353.71L2352.12 2381.4Z" stroke="white" stroke-width="5.33333" stroke-miterlimit="10" stroke-linecap="round"/>
<path d="M2340.13 2051.27C2387.78 2122.41 2353.13 2210.48 2262.81 2247.99C2172.49 2285.49 2060.71 2258.22 2013.06 2187.08C1965.46 2115.95 2000.07 2027.87 2090.39 1990.37C2180.71 1952.87 2292.53 1980.13 2340.13 2051.27Z" stroke="white" stroke-width="5.33333" stroke-miterlimit="10"/>
<path d="M2262.81 2247.99L2090.39 1990.37L2068.85 1959.1C1956.45 2005.76 1913.39 2115.35 1972.63 2203.87C2031.88 2292.39 2171.01 2326.32 2283.41 2279.66L2262.34 2248.18" stroke="white" stroke-width="5.33333" stroke-miterlimit="10" stroke-linecap="round" stroke-linejoin="round"/>
<path d="M2007.13 2061.11C2046.97 2067.18 2089.57 2063.03 2128.29 2046.97C2166.98 2030.9 2195.41 2005.54 2211.56 1976.22C2171.71 1970.16 2129.07 1974.3 2090.39 1990.37C2051.71 2006.44 2023.27 2031.8 2007.13 2061.11Z" stroke="white" stroke-width="5.33333" stroke-miterlimit="10"/>
<path d="M2141.68 2262.13C2181.53 2268.2 2224.13 2264.05 2262.81 2247.99C2301.53 2231.92 2329.93 2206.56 2346.11 2177.24C2306.26 2171.18 2263.62 2175.32 2224.94 2191.39C2186.26 2207.46 2157.82 2232.81 2141.68 2262.13V2262.13Z" stroke="white" stroke-width="5.33333" stroke-miterlimit="10"/>
<path d="M2258.38 2085.22C2305.99 2156.36 2307.97 2229.23 2262.81 2247.99C2217.65 2266.74 2142.45 2224.27 2094.85 2153.13C2047.24 2081.99 2045.23 2009.12 2090.39 1990.37C2135.55 1971.62 2210.78 2014.09 2258.38 2085.22Z" stroke="white" stroke-width="5.33333" stroke-miterlimit="10"/>
<path d="M2013.06 2187.08L2340.13 2051.27" stroke="white" stroke-width="5.33333" stroke-miterlimit="10"/>
<path d="M2230.29 2295.52L2249.38 2358.23" stroke="white" stroke-width="5.33333" stroke-miterlimit="10"/>
<path d="M2150.1 2420.03L2379.98 2376.6" stroke="white" stroke-width="5.33333" stroke-miterlimit="10" stroke-linecap="round"/>
<path d="M2079.52 260.543C2084.96 269.46 2080.18 280.162 2068.85 284.443C2057.53 288.728 2043.95 284.969 2038.51 276.052C2033.08 267.134 2037.85 256.436 2049.18 252.151C2060.47 247.87 2074.09 251.629 2079.52 260.543Z" stroke="white" stroke-width="5.33333" stroke-miterlimit="10" stroke-linecap="round" stroke-linejoin="round"/>
<path d="M2120.81 175.055C2126.24 183.972 2121.46 194.673 2110.17 198.955C2098.85 203.236 2085.27 199.477 2079.83 190.56C2074.36 181.646 2079.14 170.947 2090.46 166.663C2101.79 162.382 2115.37 166.137 2120.81 175.055Z" stroke="white" stroke-width="5.33333" stroke-miterlimit="10" stroke-linecap="round" stroke-linejoin="round"/>
<path d="M2404.73 157.397C2410.17 166.314 2405.39 177.016 2394.1 181.298C2382.77 185.579 2369.19 181.823 2363.72 172.906C2358.29 163.989 2363.06 153.287 2374.39 149.006C2385.72 144.724 2399.3 148.483 2404.73 157.397V157.397Z" stroke="white" stroke-width="5.33333" stroke-miterlimit="10" stroke-linecap="round" stroke-linejoin="round"/>
<path d="M2219.82 321.777L2098.65 366.617C2092.13 369.016 2084.41 366.821 2081.39 361.712L2073.63 348.685C2070.56 343.578 2073.35 337.494 2079.83 335.092L2201 290.255C2207.48 287.857 2215.2 290.051 2218.27 295.157L2226.03 308.185C2229.09 313.294 2226.3 319.378 2219.82 321.777V321.777Z" stroke="white" stroke-width="5.33333" stroke-miterlimit="10" stroke-linecap="round"/>
<path d="M2266.88 423.589L2207.56 326.34L2111.65 362.623L2170.93 459.875L2208.33 622.572C2220.63 642.756 2251.36 651.261 2277.01 641.57L2380.6 602.393C2406.21 592.7 2416.99 568.476 2404.69 548.291L2266.88 423.589Z" stroke="white" stroke-width="5.33333" stroke-miterlimit="10" stroke-linecap="round"/>
<path d="M2187.81 533.244C2187.81 533.244 2207.56 508.002 2260.17 509.429C2312.78 510.856 2321.63 473.121 2321.63 473.121" stroke="white" stroke-width="5.33333" stroke-miterlimit="10" stroke-linecap="round"/>
<path d="M2466.19 228.578L2345.02 273.418C2338.54 275.817 2330.82 273.623 2327.76 268.516L2320 255.486C2316.97 250.382 2319.73 244.295 2326.2 241.896L2447.41 197.06C2453.89 194.658 2461.61 196.852 2464.64 201.961L2472.44 214.992C2475.46 220.098 2472.67 226.182 2466.19 228.578V228.578Z" stroke="white" stroke-width="5.33333" stroke-miterlimit="10" stroke-linecap="round"/>
<path d="M2504.79 510.153C2517.52 531.019 2549.3 539.811 2575.8 529.791C2602.3 519.77 2613.47 494.733 2600.74 473.87L2453.97 233.141L2358.02 269.427L2504.79 510.153Z" stroke="white" stroke-width="5.33333" stroke-miterlimit="10" stroke-linecap="round"/>
<path d="M2504.79 510.153C2517.52 531.019 2549.3 539.811 2575.8 529.791C2602.3 519.77 2613.47 494.733 2600.74 473.87L2453.97 233.141L2358.02 269.427L2504.79 510.153Z" stroke="white" stroke-width="5.33333" stroke-miterlimit="10" stroke-linecap="round"/>
<path d="M2453.66 426.244C2465.22 420.423 2482.83 415.041 2507.9 415.723C2531.99 416.377 2546.89 408.828 2555.97 400.452" stroke="white" stroke-width="5.33333" stroke-miterlimit="10" stroke-linecap="round"/>
<path d="M605.603 761.815L147.897 654.14C114.619 646.311 95.6972 618.716 105.637 592.502L197.062 351.402C207.002 325.192 242.037 310.288 275.315 318.117L733.025 425.792C766.306 433.622 785.228 461.217 775.288 487.43L683.859 728.53C673.923 754.741 638.888 769.644 605.603 761.815V761.815Z" stroke="white" stroke-width="5.33333" stroke-miterlimit="10" stroke-linecap="round"/>
<path d="M116.446 563.995L694.672 700.02" stroke="white" stroke-width="5.33333" stroke-miterlimit="10" stroke-linecap="round"/>
<path d="M406.978 671.534C404.491 678.086 395.738 681.811 387.415 679.855C379.097 677.896 374.368 670.999 376.851 664.447C379.334 657.892 388.095 654.167 396.413 656.126C404.735 658.082 409.465 664.982 406.978 671.534Z" fill="white"/>
<path d="M424.107 769.271L294.474 738.773L311.937 692.729L441.567 723.224L424.107 769.271Z" stroke="white" stroke-width="5.33333" stroke-miterlimit="10" stroke-linecap="round"/>
<path d="M246.468 730.173L470.239 782.814" stroke="white" stroke-width="5.33333" stroke-miterlimit="10" stroke-linecap="round"/>
<path d="M1239.59 1244.97L1351.21 1202.46L1128.72 840L1017.09 882.51L1239.59 1244.97Z" stroke="white" stroke-width="5.33333" stroke-miterlimit="10" stroke-linecap="round" stroke-linejoin="round"/>
<path d="M1155.4 883.474L1099.59 904.728" stroke="white" stroke-width="5.33333" stroke-miterlimit="10" stroke-linecap="round" stroke-linejoin="round"/>
<path d="M1206.95 967.457L1151.14 988.71" stroke="white" stroke-width="5.33333" stroke-miterlimit="10" stroke-linecap="round" stroke-linejoin="round"/>
<path d="M1258.51 1051.44L1202.7 1072.69" stroke="white" stroke-width="5.33333" stroke-miterlimit="10" stroke-linecap="round" stroke-linejoin="round"/>
<path d="M1310.06 1135.42L1254.25 1156.68" stroke="white" stroke-width="5.33333" stroke-miterlimit="10" stroke-linecap="round" stroke-linejoin="round"/>
<path d="M1172.47 911.273L1144.56 921.901" stroke="white" stroke-width="5.33333" stroke-miterlimit="10" stroke-linecap="round" stroke-linejoin="round"/>
<path d="M1189.71 939.363L1161.8 949.992" stroke="white" stroke-width="5.33333" stroke-miterlimit="10" stroke-linecap="round" stroke-linejoin="round"/>
<path d="M1224.11 995.402L1196.2 1006.03" stroke="white" stroke-width="5.33333" stroke-miterlimit="10" stroke-linecap="round" stroke-linejoin="round"/>
<path d="M1241.35 1023.49L1213.44 1034.12" stroke="white" stroke-width="5.33333" stroke-miterlimit="10" stroke-linecap="round" stroke-linejoin="round"/>
<path d="M1275.75 1079.53L1247.85 1090.16" stroke="white" stroke-width="5.33333" stroke-miterlimit="10" stroke-linecap="round" stroke-linejoin="round"/>
<path d="M1292.99 1107.62L1265.09 1118.25" stroke="white" stroke-width="5.33333" stroke-miterlimit="10" stroke-linecap="round" stroke-linejoin="round"/>
<path d="M991.842 1049.37L958.363 1062.12" stroke="white" stroke-width="5.33333" stroke-miterlimit="10" stroke-linecap="round" stroke-linejoin="round"/>
<path d="M1043.39 1133.36L1009.92 1146.11" stroke="white" stroke-width="5.33333" stroke-miterlimit="10" stroke-linecap="round" stroke-linejoin="round"/>
<path d="M1094.95 1217.34L1061.47 1230.09" stroke="white" stroke-width="5.33333" stroke-miterlimit="10" stroke-linecap="round" stroke-linejoin="round"/>
<path d="M957.354 993.193L940.616 999.568" stroke="white" stroke-width="5.33333" stroke-miterlimit="10" stroke-linecap="round" stroke-linejoin="round"/>
<path d="M974.596 1021.28L957.859 1027.66" stroke="white" stroke-width="5.33333" stroke-miterlimit="10" stroke-linecap="round" stroke-linejoin="round"/>
<path d="M1008.99 1077.32L992.261 1083.69" stroke="white" stroke-width="5.33333" stroke-miterlimit="10" stroke-linecap="round" stroke-linejoin="round"/>
<path d="M1026.24 1105.41L1009.5 1111.79" stroke="white" stroke-width="5.33333" stroke-miterlimit="10" stroke-linecap="round" stroke-linejoin="round"/>
<path d="M1060.64 1161.45L1043.9 1167.82" stroke="white" stroke-width="5.33333" stroke-miterlimit="10" stroke-linecap="round" stroke-linejoin="round"/>
<path d="M1113.04 1246.81L1096.3 1253.18" stroke="white" stroke-width="5.33333" stroke-miterlimit="10" stroke-linecap="round" stroke-linejoin="round"/>
<path d="M1077.88 1189.54L1061.14 1195.91" stroke="white" stroke-width="5.33333" stroke-miterlimit="10" stroke-linecap="round" stroke-linejoin="round"/>
<path d="M889.372 1378.34L913.601 921.919L1136.1 1284.38L889.372 1378.34Z" stroke="white" stroke-width="5.33333" stroke-miterlimit="10" stroke-linecap="round" stroke-linejoin="round"/>
<path d="M969.056 1282.78L975.683 1157.94L1036.55 1257.08L969.056 1282.78Z" stroke="white" stroke-width="5.33333" stroke-miterlimit="10" stroke-linecap="round" stroke-linejoin="round"/>
<path d="M1189.09 1950.14L1100.94 2019.57L1345.19 2211.95L1433.35 2142.52L1189.09 1950.14Z" stroke="white" stroke-width="5.33333" stroke-miterlimit="10" stroke-linecap="round" stroke-linejoin="round"/>
<path d="M1457.21 2230.75L1433.35 2142.52L1345.19 2211.95L1457.21 2230.75Z" stroke="white" stroke-width="5.33333" stroke-miterlimit="10" stroke-linecap="round" stroke-linejoin="round"/>
<path d="M1446.07 2189.56L1404.92 2221.97" stroke="white" stroke-width="5.33333" stroke-miterlimit="10" stroke-linecap="round" stroke-linejoin="round"/>
<path d="M1075.01 1966.63L1121.89 1929.71C1133.28 1920.73 1151.77 1920.73 1163.16 1929.71L1189.09 1950.14L1100.94 2019.57L1075.01 1999.15C1063.61 1990.17 1063.61 1975.61 1075.01 1966.63Z" stroke="white" stroke-width="5.33333" stroke-miterlimit="10" stroke-linecap="round" stroke-linejoin="round"/>
<path d="M1212.91 1968.89L1124.75 2038.32" stroke="white" stroke-width="5.33333" stroke-miterlimit="10" stroke-linecap="round" stroke-linejoin="round"/>
<path d="M1389.27 2177.23L1168.83 2003.61" stroke="white" stroke-width="5.33333" stroke-miterlimit="10" stroke-linecap="round" stroke-linejoin="round"/>
</svg>
