<svg xmlns="http://www.w3.org/2000/svg" viewBox="0 0 500 500"><g id="freepik--background-simple--inject-17"><path d="M406.92,118.78c-10.92-28-34.56-52.07-64.61-61s-65.9-1-86,22c-16.87,19.33-23.23,48.07-46.73,59.62-14.59,7.17-32,5.57-48.25,8.12-37.24,5.87-68.21,36.24-74.82,71.43a84.85,84.85,0,0,0-.28,29.22c5.49,34.07,30.68,61.67,63.76,71.49l44.38,13.19c45.24,7.48,93.27-1.38,132.25-24.37s68.54-59.92,81.4-101.67C416.86,178.12,417.83,146.77,406.92,118.78Z" style="fill:#f5f5f5"></path></g><g id="freepik--Floor--inject-17"><path d="M466.5,406.26c0,.14-98.28.26-219.49.26S27.5,406.4,27.5,406.26,125.76,406,247,406,466.5,406.11,466.5,406.26Z" style="fill:#263238"></path></g><g id="freepik--Books--inject-17"><path d="M157.49,406.59H45.12c-1.89-5-2.08-9.64,0-13.89H157.49A13.35,13.35,0,0,1,157.49,406.59Z" style="fill:#455a64"></path><path d="M82.93,396.59h1.19v4.19h2.59v1H82.93Z" style="fill:#f5f5f5"></path><path d="M90.85,399.49v2.26H89.78v-.5a1.3,1.3,0,0,1-1.21.56c-.93,0-1.48-.52-1.48-1.2s.49-1.19,1.7-1.19h.91c0-.49-.29-.78-.91-.78a1.87,1.87,0,0,0-1.14.37l-.42-.81a3.07,3.07,0,0,1,1.71-.48C90.15,397.72,90.85,398.28,90.85,399.49Zm-1.15,1v-.41h-.78c-.54,0-.71.2-.71.46s.24.48.65.48A.83.83,0,0,0,89.7,400.5Z" style="fill:#f5f5f5"></path><path d="M96,399.48v2.27H94.8v-2.09c0-.65-.3-.94-.81-.94s-.95.34-.95,1.07v2H91.89v-4H93v.47a1.73,1.73,0,0,1,1.31-.53A1.56,1.56,0,0,1,96,399.48Z" style="fill:#f5f5f5"></path><path d="M101.12,397.78v3.31a1.94,1.94,0,0,1-2.23,2.15,3.25,3.25,0,0,1-1.94-.55l.46-.82a2.39,2.39,0,0,0,1.4.45c.81,0,1.16-.37,1.16-1.09v-.17a1.64,1.64,0,0,1-1.25.5,1.92,1.92,0,1,1,0-3.84,1.6,1.6,0,0,1,1.31.57v-.51ZM100,399.64a1,1,0,1,0-1,1A1,1,0,0,0,100,399.64Z" style="fill:#f5f5f5"></path><path d="M106.18,397.78v4h-1.09v-.47a1.62,1.62,0,0,1-1.23.53,1.58,1.58,0,0,1-1.69-1.79v-2.24h1.15v2.07c0,.67.29,1,.8,1s.91-.34.91-1.07v-2Z" style="fill:#f5f5f5"></path><path d="M110.76,399.49v2.26h-1.07v-.5a1.3,1.3,0,0,1-1.21.56c-.93,0-1.48-.52-1.48-1.2s.49-1.19,1.7-1.19h.91c0-.49-.29-.78-.91-.78a1.87,1.87,0,0,0-1.14.37l-.42-.81a3.07,3.07,0,0,1,1.71-.48C110.06,397.72,110.76,398.28,110.76,399.49Zm-1.15,1v-.41h-.79c-.53,0-.7.2-.7.46s.24.48.64.48A.84.84,0,0,0,109.61,400.5Z" style="fill:#f5f5f5"></path><path d="M115.94,397.78v3.31a1.94,1.94,0,0,1-2.23,2.15,3.31,3.31,0,0,1-1.95-.55l.46-.82a2.39,2.39,0,0,0,1.4.45c.81,0,1.17-.37,1.17-1.09v-.17a1.66,1.66,0,0,1-1.26.5,1.92,1.92,0,1,1,0-3.84,1.59,1.59,0,0,1,1.31.57v-.51Zm-1.14,1.86a1,1,0,0,0-1-1,1,1,0,1,0,0,1.94A1,1,0,0,0,114.8,399.64Z" style="fill:#f5f5f5"></path><path d="M120.87,400.09h-3a1.06,1.06,0,0,0,1.13.8,1.36,1.36,0,0,0,1-.39l.61.67a2.32,2.32,0,0,1-3.9-1.4,2,2,0,0,1,2.12-2,2,2,0,0,1,2.06,2.06C120.89,399.87,120.87,400,120.87,400.09Zm-3-.67h2a1,1,0,0,0-1-.83A.94.94,0,0,0,117.85,399.42Z" style="fill:#f5f5f5"></path><path d="M52.73,399.47h5.15v1.19h-4.2v1h-1Z" style="fill:#f5f5f5"></path><polygon points="60.5 392.7 65.83 406.59 72.82 406.59 68.38 392.7 60.5 392.7" style="fill:#263238"></polygon><polygon points="129.5 392.7 134.83 406.59 141.82 406.59 137.38 392.7 129.5 392.7" style="fill:#263238"></polygon><path d="M157.49,392.58H45.12c-1.89-7-2.08-13.54,0-19.5H157.49A25.37,25.37,0,0,1,157.49,392.58Z" style="fill:#F2066D"></path><path d="M78.42,379.19l-1.22,6.12h-.44l1-5.2-3.38,4.39H74.2l-1.73-4.45-1,5.26H71l1.23-6.12h.36l1.83,4.73L78,379.19Z" style="fill:#f5f5f5"></path><path d="M84.17,380.75l-.91,4.56h-.42l.17-.89a2.33,2.33,0,0,1-1.92.93,1.81,1.81,0,0,1-2-1.9,2.58,2.58,0,0,1,2.58-2.74,1.69,1.69,0,0,1,1.8,1.17l.23-1.13Zm-.85,1.88a1.44,1.44,0,0,0-1.62-1.53,2.17,2.17,0,0,0-2.14,2.32A1.44,1.44,0,0,0,81.18,385,2.16,2.16,0,0,0,83.32,382.63Z" style="fill:#f5f5f5"></path><path d="M85.89,384a1.33,1.33,0,0,0,0,.32c0,.43.23.66.7.66a1.25,1.25,0,0,0,.75-.25l.13.32a1.57,1.57,0,0,1-1,.31.92.92,0,0,1-1-1,2.26,2.26,0,0,1,0-.35l.59-2.9h-.85l.07-.37h.85l.2-1h.44l-.2,1H88l-.07.37H86.46Z" style="fill:#f5f5f5"></path><path d="M93.24,382.17a3,3,0,0,1,0,.5l-.53,2.64h-.43l.52-2.64a1.72,1.72,0,0,0,0-.44c0-.71-.42-1.13-1.28-1.13a1.93,1.93,0,0,0-2,1.73l-.5,2.48h-.44l1.3-6.49h.43l-.55,2.77a2.2,2.2,0,0,1,1.87-.88C92.67,380.71,93.24,381.27,93.24,382.17Z" style="fill:#f5f5f5"></path><path d="M94.84,383.12c0,.1,0,.2,0,.29,0,1,.58,1.54,1.69,1.54a2.1,2.1,0,0,0,1.56-.61l.2.31a2.48,2.48,0,0,1-1.8.7,1.85,1.85,0,0,1-2.08-1.92,2.54,2.54,0,0,1,2.49-2.72,1.79,1.79,0,0,1,2,1.91,2.54,2.54,0,0,1-.06.5Zm0-.34h3.52a1.7,1.7,0,0,0,0-.22,1.4,1.4,0,0,0-1.54-1.47A2,2,0,0,0,94.89,382.78Z" style="fill:#f5f5f5"></path><path d="M107.78,382.15a3.15,3.15,0,0,1,0,.52l-.54,2.64h-.43l.53-2.64a2.42,2.42,0,0,0,0-.45c0-.7-.41-1.12-1.23-1.12a1.85,1.85,0,0,0-1.92,1.62l-.52,2.59h-.44l.54-2.64a2.42,2.42,0,0,0,0-.45c0-.7-.41-1.12-1.23-1.12a1.9,1.9,0,0,0-1.94,1.73l-.5,2.48h-.44l.91-4.56H101l-.18.85a2.13,2.13,0,0,1,1.83-.89,1.39,1.39,0,0,1,1.52,1,2.3,2.3,0,0,1,2-1C107.23,380.71,107.78,381.26,107.78,382.15Z" style="fill:#f5f5f5"></path><path d="M114,380.75l-.91,4.56h-.42l.17-.89a2.35,2.35,0,0,1-1.92.93,1.81,1.81,0,0,1-2-1.9,2.58,2.58,0,0,1,2.58-2.74,1.69,1.69,0,0,1,1.8,1.17l.23-1.13Zm-.85,1.88a1.44,1.44,0,0,0-1.62-1.53,2.17,2.17,0,0,0-2.14,2.32A1.44,1.44,0,0,0,111,385,2.16,2.16,0,0,0,113.13,382.63Z" style="fill:#f5f5f5"></path><path d="M115.7,384a1.33,1.33,0,0,0,0,.32c0,.43.23.66.7.66a1.22,1.22,0,0,0,.74-.25l.14.32a1.59,1.59,0,0,1-1,.31.92.92,0,0,1-1-1,1.46,1.46,0,0,1,0-.35l.59-2.9H115l.07-.37h.85l.2-1h.43l-.2,1h1.46l-.07.37h-1.46Z" style="fill:#f5f5f5"></path><path d="M119.29,380.75h.44l-.91,4.56h-.44Zm.15-1.44a.37.37,0,0,1,.38-.38.33.33,0,0,1,.34.32.38.38,0,0,1-.39.39A.33.33,0,0,1,119.44,379.31Z" style="fill:#f5f5f5"></path><path d="M120.59,383.45a2.59,2.59,0,0,1,2.62-2.74,1.85,1.85,0,0,1,1.74.86l-.36.22a1.49,1.49,0,0,0-1.4-.69,2.17,2.17,0,0,0-2.16,2.32,1.45,1.45,0,0,0,1.65,1.53,1.92,1.92,0,0,0,1.51-.66l.31.24a2.32,2.32,0,0,1-1.85.82A1.85,1.85,0,0,1,120.59,383.45Z" style="fill:#f5f5f5"></path><path d="M130.41,380.75l-.91,4.56h-.42l.18-.89a2.35,2.35,0,0,1-1.93.93,1.81,1.81,0,0,1-2-1.9,2.58,2.58,0,0,1,2.58-2.74,1.7,1.7,0,0,1,1.81,1.17l.22-1.13Zm-.85,1.88a1.44,1.44,0,0,0-1.62-1.53,2.17,2.17,0,0,0-2.14,2.32,1.44,1.44,0,0,0,1.62,1.53A2.16,2.16,0,0,0,129.56,382.63Z" style="fill:#f5f5f5"></path><path d="M132.63,378.82h.44l-1.3,6.49h-.43Z" style="fill:#f5f5f5"></path><path d="M49.83,381.08,56,382.3v.45l-5.72-1.15v1.5l-.4-.08Z" style="fill:#f5f5f5"></path><path d="M64.25,373.08c.13,0-1.24,4.46-3.07,9.86a102.66,102.66,0,0,1-3.56,9.7c-.13-.05,1.24-4.46,3.07-9.87A100.5,100.5,0,0,1,64.25,373.08Z" style="fill:#fff"></path><path d="M68.83,373.08c.13,0-1.24,4.46-3.07,9.86a102.66,102.66,0,0,1-3.56,9.7c-.13-.05,1.24-4.46,3.07-9.87A100.5,100.5,0,0,1,68.83,373.08Z" style="fill:#fff"></path><path d="M143.89,373.08c.13,0-1.24,4.46-3.07,9.86a102.66,102.66,0,0,1-3.56,9.7c-.13-.05,1.24-4.46,3.07-9.87A100.5,100.5,0,0,1,143.89,373.08Z" style="fill:#fff"></path><path d="M148.47,373.08c.13,0-1.24,4.46-3.07,9.86a102.66,102.66,0,0,1-3.56,9.7,102.15,102.15,0,0,1,3.07-9.87A100.5,100.5,0,0,1,148.47,373.08Z" style="fill:#fff"></path></g><g id="freepik--Character--inject-17"><path d="M281.59,119c9.35,10.68,13.44,25,15.21,39.11s1.49,28.38,3.45,42.44c1,7.35,2.66,14.71,2.08,22.1s-3.87,15.07-10.35,18.68c-3.81,2.13-9.16,2.39-12.11-.83-2.08-2.28-2.43-5.61-2.67-8.69L268,115.59" style="fill:#263238"></path><path d="M227.68,219.3l6.89-1.87,42.6-2.2,9.47,2s-17.12,19.34-31.63,19.4C228.47,236.78,227.68,219.3,227.68,219.3Z" style="fill:#ffbe9d"></path><path d="M209.44,174.56c-3.1-9.38-7.75-25.61-6-35.34s6.65-19.06,14.51-25c10.76-8.22,25.47-9.29,38.85-7.22,9.17,1.41,18.58,4.41,24.85,11.23,4,4.38,6.46,10,7.82,15.81a104.75,104.75,0,0,1,2.11,17.68c.22,3.58-.71,11.12-2.73,14.63" style="fill:#F2066D"></path><path d="M288,163.94s3.88-33.36-17.77-46.22c-21.19-12.57-43.31-7.81-51.16,2.3-15.16,19.54-11.39,33.17-11.39,33.17l75.75,17.72Z" style="fill:#263238"></path><path d="M207.76,152.45c0-.18,0-.37,0-.56.18-19.28,15.86-35.12,35.14-34.95.93,0,1.89,0,2.86.08a43,43,0,0,1,4.52.45c16.74,2.62,28.88,17.38,29.12,34.32.19,13.79.31,32.15-.33,37.61-1.06,9.08-.78,12.32-.78,12.32l0,21.14a23.26,23.26,0,0,1-22.1,23.28h0a23.26,23.26,0,0,1-24.42-22.6l-.3-10.89c-14.39-1.48-21.36-15.15-22.74-31.68C208.05,172.16,207.63,171.5,207.76,152.45Z" style="fill:#ffbe9d"></path><path d="M278.76,163.68c.38-.18,15.29-5.09,15.32,10.3s-15.43,12.23-15.45,11.79S278.76,163.68,278.76,163.68Z" style="fill:#ffbe9d"></path><path d="M283.32,179.93c.06-.05.26.19.72.4a2.68,2.68,0,0,0,2,0c1.63-.6,3-3.19,3.06-6a8.74,8.74,0,0,0-.76-3.83,3.1,3.1,0,0,0-2-2.06,1.37,1.37,0,0,0-1.58.74c-.2.43-.1.74-.18.76s-.34-.25-.21-.89a1.7,1.7,0,0,1,.6-1,2,2,0,0,1,1.48-.39,3.77,3.77,0,0,1,2.81,2.38,9.18,9.18,0,0,1,.93,4.29c-.09,3.1-1.67,6-3.9,6.65a2.86,2.86,0,0,1-2.45-.41C283.34,180.31,283.26,180,283.32,179.93Z" style="fill:#eb996e"></path><path d="M214.51,157.53c.43.42,2.9-1.54,6.5-1.65s6.31,1.6,6.68,1.15c.19-.21-.26-1-1.44-1.78a9.19,9.19,0,0,0-5.36-1.46,8.82,8.82,0,0,0-5.16,1.86C214.65,156.54,214.3,157.34,214.51,157.53Z" style="fill:#263238"></path><path d="M248.16,158c.43.42,2.91-1.54,6.51-1.65s6.3,1.6,6.68,1.14c.18-.2-.26-1-1.45-1.77a9.19,9.19,0,0,0-5.36-1.46,8.87,8.87,0,0,0-5.16,1.86C248.31,157,248,157.8,248.16,158Z" style="fill:#263238"></path><path d="M248.57,146.75c.32.91,3.34.86,6.68,1.62s6,1.91,6.79,1.24c.36-.33.09-1.17-.91-2.12a10.47,10.47,0,0,0-4.92-2.41,11.56,11.56,0,0,0-5.67.16C249.13,145.68,248.44,146.32,248.57,146.75Z" style="fill:#263238"></path><path d="M227.42,145c-1-.92-4.49-1-7.88-.25s-5.37,2.17-4.41,3.09,4.49,1,7.88.24S228.38,145.88,227.42,145Z" style="fill:#263238"></path><path d="M242,188.7c0,.21.45.59,1.41.69a5.08,5.08,0,0,0,3.54-1.1,5,5,0,0,0,1.84-3.22c.11-.95-.14-1.52-.36-1.51-.45,0-.77,2.05-2.52,3.43S242,188.26,242,188.7Z" style="fill:#263238"></path><path d="M231.52,212.65s18.44-.18,22.71-3.48c0,0-3,9-22.57,8.57Z" style="fill:#eb996e"></path><path d="M224.32,165.05a3.1,3.1,0,0,1-2.63,3.42,3,3,0,0,1-3.46-2.43,3.09,3.09,0,0,1,2.63-3.42A3,3,0,0,1,224.32,165.05Z" style="fill:#263238"></path><path d="M255.82,165.43a3.08,3.08,0,0,1-2.63,3.41,2.94,2.94,0,0,1-3.46-2.42,3.09,3.09,0,0,1,2.62-3.42A3,3,0,0,1,255.82,165.43Z" style="fill:#263238"></path><path d="M238.46,177.65c-.06-.22-1.08,0-2.61-.21a7.27,7.27,0,0,1-1.22-.27,5.24,5.24,0,0,1-1.21-.52c-.13-.11-.12-.14-.12-.18a1.87,1.87,0,0,1,.16-.49l.73-1.7c1.95-4.66,3.22-8.57,2.84-8.73s-2.27,3.49-4.23,8.15c-.24.59-.47,1.16-.7,1.71a2.61,2.61,0,0,0-.23,1.2,1.63,1.63,0,0,0,.77,1.18,3.83,3.83,0,0,0,.89.39c.27.08.54.15.8.2a6.89,6.89,0,0,0,1.46.12C237.58,178.45,238.53,177.81,238.46,177.65Z" style="fill:#263238"></path><path d="M306.43,127.22c-2-4.61-4.81-9.16-4.57-14.16.12-2.25.64-5-1.22-6.3a5.06,5.06,0,0,0-2.17-.67,97.85,97.85,0,0,0-31.76.7,5.37,5.37,0,0,0-.17-1.49,5.76,5.76,0,0,0-4.64-4,6.69,6.69,0,0,0-5,1.42A49.49,49.49,0,0,0,229,87.8c-3-.5-6.32-.68-9,.75-4.2,2.2-5.72,7.34-6.83,12-.44,1.8-.85,3.82.09,5.42,1.29,2.18,4.32,2.39,6.85,2.34q17.21-.35,34.39-1.15l.17-.14a3.22,3.22,0,0,0,.18.86l-.1-.93,0,0a6.7,6.7,0,0,0,3.66,4.8,6.09,6.09,0,0,0,6.12-.62,5.27,5.27,0,0,0,.56-.5c10.79,8.71,22.43,16.49,35.32,21.58,2.15.85,5.13,1.37,6.32-.62C307.51,130.24,307,128.6,306.43,127.22Z" style="fill:#F2066D"></path><path d="M217.89,118.14c8.53-6.56,23.54-9.68,34-7.27S272.34,124,276.8,133.74c4.73,10.37,4.16,22.38,2,33.58-.35,1.86-1,4-2.83,4.56a3.6,3.6,0,0,1-3.59-1.36,10.67,10.67,0,0,1-1.7-3.66q-2.52-7.89-5-15.79c-.83-2.61-1.75-5.35-3.8-7.16a19.8,19.8,0,0,0-4-2.41,30.86,30.86,0,0,1-16-23.64,20.12,20.12,0,0,1-11,14.91c-3.43,1.66-7.42,2.38-10.21,5a32.15,32.15,0,0,0-8,12.29c-1.51,4.64-4,11.44-4.94,17.72-.41-4.15-1.82-13.58-2.23-17.72C205.51,150,203,129.57,217.89,118.14Z" style="fill:#263238"></path><path d="M266.29,108.08a1.61,1.61,0,0,1-.19.77,5.27,5.27,0,0,1-1.22,1.8,5.78,5.78,0,0,1-2.84,1.53,5.61,5.61,0,0,1-3.91-.63,5.68,5.68,0,0,1-2.59-3,5.79,5.79,0,0,1-.2-3.23,5.42,5.42,0,0,1,.88-2c.31-.42.54-.59.56-.57a7.83,7.83,0,0,0-1.08,2.62,5.76,5.76,0,0,0,.28,3,5.48,5.48,0,0,0,6,3.31,5.69,5.69,0,0,0,2.68-1.33A7.75,7.75,0,0,0,266.29,108.08Z" style="fill:#263238"></path><path d="M264.31,110.25a8.25,8.25,0,0,1-.34-1.47,9.48,9.48,0,0,0-1.48-3.22,9.67,9.67,0,0,0-2.57-2.43c-.78-.49-1.32-.71-1.29-.79a3.05,3.05,0,0,1,1.47.47,7.91,7.91,0,0,1,2.81,2.45,8,8,0,0,1,1.42,3.45A3.12,3.12,0,0,1,264.31,110.25Z" style="fill:#263238"></path><path d="M266.07,104.35c0,.15-.88.07-1.83.42s-1.56.94-1.68.85.39-.94,1.5-1.34S266.12,104.22,266.07,104.35Z" style="fill:#263238"></path><path d="M285.18,110.16a21.41,21.41,0,0,1-2.75-.53,46,46,0,0,0-6.69-.86,47.14,47.14,0,0,0-6.73.13,23.41,23.41,0,0,1-2.8.23,11.24,11.24,0,0,1,2.75-.6,35.09,35.09,0,0,1,6.81-.28,34.67,34.67,0,0,1,6.74,1A11,11,0,0,1,285.18,110.16Z" style="fill:#263238"></path><path d="M282,114.32a16.74,16.74,0,0,1-2.3-1,46.29,46.29,0,0,0-11.49-3.55,16.47,16.47,0,0,1-2.48-.46,10,10,0,0,1,2.53.1,33.64,33.64,0,0,1,6,1.26A32.74,32.74,0,0,1,279.9,113,9.45,9.45,0,0,1,282,114.32Z" style="fill:#263238"></path><path d="M255.41,107.7a2.77,2.77,0,0,1-.56,0l-1.6,0-5.87-.09c-5,0-11.81,0-19.36.42l-5.52.32a25,25,0,0,1-5.18.08,5.79,5.79,0,0,1-4.15-2.22,3.93,3.93,0,0,1-.64-2.1,8.43,8.43,0,0,1,.19-2,54.24,54.24,0,0,1,1.52-5.69c.22-.66.41-1.17.55-1.5a2,2,0,0,1,.25-.5,2.22,2.22,0,0,1-.15.53c-.11.35-.27.87-.45,1.53-.37,1.33-.91,3.28-1.36,5.7a5,5,0,0,0,.45,3.77,5.39,5.39,0,0,0,3.85,2,25.82,25.82,0,0,0,5.09-.12c1.78-.12,3.63-.23,5.52-.33,7.57-.39,14.43-.4,19.39-.26,2.49.06,4.49.17,5.88.25l1.59.12A1.93,1.93,0,0,1,255.41,107.7Z" style="fill:#263238"></path><path d="M291.15,128.07a5.79,5.79,0,0,1-1.16-.48c-.74-.33-1.79-.84-3.07-1.5-2.56-1.32-6-3.27-9.73-5.67s-6.89-4.79-9.13-6.6c-1.13-.9-2-1.65-2.62-2.19a7,7,0,0,1-.9-.87,5.27,5.27,0,0,1,1,.71l2.71,2.06c2.3,1.73,5.52,4.06,9.19,6.45s7.11,4.39,9.63,5.79l3,1.64A5.12,5.12,0,0,1,291.15,128.07Z" style="fill:#263238"></path><path d="M237.21,100.44a11.24,11.24,0,0,1,2.85-.26,28.22,28.22,0,0,1,6.86.84,27.76,27.76,0,0,1,6.44,2.52,10.09,10.09,0,0,1,2.38,1.58c0,.07-1-.5-2.55-1.26a34.19,34.19,0,0,0-6.4-2.33,33.77,33.77,0,0,0-6.74-1A24.37,24.37,0,0,1,237.21,100.44Z" style="fill:#263238"></path><g style="opacity:0.30000000000000004"><path d="M255.63,104.62c-1.54-2.09-3.92-3.38-6.24-4.55a26.21,26.21,0,0,0-5.7-2.28,10.06,10.06,0,0,0-6.05.25,1.4,1.4,0,0,0-.86.69,1,1,0,0,0,.59,1.23,3.35,3.35,0,0,0,1.48.24A33.73,33.73,0,0,1,255.41,105"></path></g><g style="opacity:0.30000000000000004"><path d="M266.09,109.31a46.1,46.1,0,0,1,12,.77,12.43,12.43,0,0,1,4.12,1.41,5.11,5.11,0,0,1,2.48,3.45.69.69,0,0,1-.13.61c-.24.24-.64.07-.93-.09a47.79,47.79,0,0,0-17.33-6"></path></g><path d="M196.31,427.12l31,9.95s.3,34.88,5.86,37.28l21.45-59.47L207,397.4Z" style="fill:#455a64"></path><path d="M231.4,417.76a2.57,2.57,0,0,1,3.37-.68,2.48,2.48,0,0,1,.71,3.34,2.73,2.73,0,0,1-3.58.7c-1-.8-1.29-2.71-.35-3.56" style="fill:#e0e0e0"></path><g style="opacity:0.6000000000000001"><path d="M254.65,414.88l-4.88-1.57L231,470.91s.19,3.06,2.17,3.44Z" style="fill:#fff"></path></g><path d="M226.69,437.93c.29.09.95-1.31,2.4-2.4s2.94-1.42,2.92-1.73-1.85-.48-3.58.88S226.4,437.89,226.69,437.93Z" style="fill:#263238"></path><path d="M227,445.09c.25.17,1.2-.91,2.79-1.45s3-.36,3.07-.65-1.48-1.07-3.44-.36S226.74,445,227,445.09Z" style="fill:#263238"></path><path d="M233.2,451.33c.16-.24-1.14-1.17-3-1s-3,1.3-2.79,1.51,1.35-.32,2.88-.44S233.07,451.61,233.2,451.33Z" style="fill:#263238"></path><path d="M219.87,434.87c.31,0,.39-1.5,1.09-3.1s1.68-2.69,1.49-2.93-1.67.61-2.48,2.51S219.59,434.93,219.87,434.87Z" style="fill:#263238"></path><path d="M312,430.94l-31,9.95s-.31,34.88-5.86,37.28L253.64,418.7l47.71-17.48Z" style="fill:#455a64"></path><path d="M276.9,421.58a2.58,2.58,0,0,0-3.38-.68,2.49,2.49,0,0,0-.7,3.34,2.72,2.72,0,0,0,3.58.7c1-.8,1.29-2.71.35-3.56" style="fill:#e0e0e0"></path><g style="opacity:0.6000000000000001"><path d="M253.64,418.7l4.88-1.57,18.75,57.6s-.2,3.06-2.17,3.44Z" style="fill:#fff"></path></g><path d="M281.61,441.75c-.3.09-.95-1.31-2.4-2.4s-2.94-1.42-2.93-1.73,1.86-.48,3.59.88S281.9,441.71,281.61,441.75Z" style="fill:#263238"></path><path d="M281.28,448.91c-.26.17-1.21-.91-2.79-1.45s-3-.36-3.08-.65,1.49-1.07,3.44-.36S281.55,448.81,281.28,448.91Z" style="fill:#263238"></path><path d="M275.09,455.15c-.15-.24,1.15-1.17,3-1s3,1.3,2.78,1.51-1.35-.32-2.87-.44S275.23,455.43,275.09,455.15Z" style="fill:#263238"></path><path d="M288.43,438.69c-.31,0-.39-1.5-1.09-3.1s-1.69-2.69-1.49-2.93,1.67.61,2.47,2.51S288.71,438.75,288.43,438.69Z" style="fill:#263238"></path><path d="M209.79,358.88c-1.15,0-67.65-14-74.32-14.32s-23.6,5.7-24.75,20.35-.93,25,9.7,31.92,94.17,47.65,94.17,47.65l10.89-34,17,6.37,15.88-54.8Z" style="fill:#263238"></path><path d="M204.23,395.1a7,7,0,0,1-.68-.35l-1.92-1.08c-1.65-1-4-2.36-6.95-4.14a142.66,142.66,0,0,1-21.58-15.72c-3.89-3.47-7.73-6.62-11.24-9.46-1.76-1.42-3.41-2.79-5-4a39.9,39.9,0,0,0-4.7-3,28.64,28.64,0,0,0-7.51-2.82c-.93-.2-1.67-.31-2.17-.37a3.89,3.89,0,0,1-.75-.12,5.57,5.57,0,0,1,.77,0,16.58,16.58,0,0,1,2.18.27,27.21,27.21,0,0,1,7.65,2.69,39.45,39.45,0,0,1,4.78,2.94c1.65,1.18,3.3,2.54,5.07,3.94,3.53,2.83,7.39,6,11.28,9.45a153.66,153.66,0,0,0,21.43,15.8l6.87,4.27,1.86,1.17A3.19,3.19,0,0,1,204.23,395.1Z" style="fill:#455a64"></path><path d="M155,351.71a9.57,9.57,0,0,1,2.16,1.45,21.14,21.14,0,0,1,4.3,4.6,17.86,17.86,0,0,1,2.58,5.75,8.6,8.6,0,0,1,.36,2.59c-.19.06-.6-4-3.37-8S154.87,351.86,155,351.71Z" style="fill:#455a64"></path><path d="M283.46,359.47c1.15,0,67.65-14,74.31-14.33s23.61,5.71,24.76,20.36.92,25-9.7,31.92-94.18,47.64-94.18,47.64l-10.89-34-17,6.37-15.88-54.8Z" style="fill:#263238"></path><path d="M289,395.69a3.67,3.67,0,0,1,.63-.44l1.87-1.17,6.87-4.28A152.08,152.08,0,0,0,319.8,374c3.9-3.49,7.76-6.63,11.28-9.45,1.77-1.4,3.43-2.77,5.07-3.95a41.52,41.52,0,0,1,4.79-2.93,27.17,27.17,0,0,1,7.64-2.69,16.89,16.89,0,0,1,2.19-.27,4.06,4.06,0,0,1,.77,0,3.92,3.92,0,0,1-.76.12c-.5.06-1.23.17-2.16.37a28.78,28.78,0,0,0-7.51,2.81,41.26,41.26,0,0,0-4.7,3c-1.62,1.18-3.26,2.56-5,4-3.5,2.85-7.35,6-11.23,9.46a142.12,142.12,0,0,1-21.58,15.73c-2.91,1.78-5.3,3.18-7,4.13l-1.91,1.09A5.4,5.4,0,0,1,289,395.69Z" style="fill:#455a64"></path><path d="M338.24,352.3c.14.15-3.29,2.34-6,6.34s-3.18,8.11-3.37,8a8.3,8.3,0,0,1,.35-2.58,18.21,18.21,0,0,1,2.58-5.75,21.39,21.39,0,0,1,4.3-4.6A9.07,9.07,0,0,1,338.24,352.3Z" style="fill:#455a64"></path><path d="M193.59,233.79l-34.92,53.82s-19.26,9.86-21.61,23-2.82,22.55,3.76,26.78a14.76,14.76,0,0,0,3.83,1.62,26.5,26.5,0,0,0,29.46-11.27l24.95-38.46,8.14-62.63S200.11,226.66,193.59,233.79Z" style="fill:#F2066D"></path><path d="M160.79,314.15H154.9s-12.92,4.88-12,16.14c0,0,1.88,7.66,14.12,6.31l15.77-4.51,1.95-16.77Z" style="fill:#ffbe9d"></path><path d="M312.71,230.38,285,215.23s-14.72,16-34.13,15.54-23.17-11.47-23.17-11.47l-24.78,8.24h0l-3.84,61.75s.12,71.55,1.05,71.55S302.83,363,302.83,363l-1.38-47.8Z" style="fill:#F2066D"></path><path d="M311.42,229.67s12.73,5.19,20.6,27.11c3.08,8.57,19.51,42.54,26.24,56.37a30.76,30.76,0,0,1,3,17.59c-.38,2.77-1.15,5.37-2.64,7-3.18,3.42-36.57,15-36.57,15l-13.4-21.17,10.58-7.75-15.31-27s.83-31.45,1.54-40.23S311.42,229.67,311.42,229.67Z" style="fill:#F2066D"></path><path d="M196.92,248.84c.14,0,.93,14,1.77,31.27s1.39,31.28,1.25,31.29-.94-14-1.77-31.27S196.77,248.85,196.92,248.84Z" style="fill:#263238"></path><path d="M311.42,246.54c.14,0-2,15.07-4.68,33.6s-5.05,33.54-5.2,33.52,2-15.06,4.68-33.6S311.27,246.52,311.42,246.54Z" style="fill:#263238"></path><path d="M172.47,301.88c-.13.1-2.31-2.84-5.74-5.71s-6.67-4.54-6.59-4.69a9.42,9.42,0,0,1,2.18,1,31,31,0,0,1,4.75,3.3,30.64,30.64,0,0,1,4.05,4.12A8.89,8.89,0,0,1,172.47,301.88Z" style="fill:#263238"></path><path d="M342.8,316.79c0,.09-1.43-.13-3.72-.14a31.89,31.89,0,0,0-8.84,1.19,32.27,32.27,0,0,0-8.14,3.64c-1.94,1.22-3,2.15-3.09,2.08s.23-.28.72-.71a19.54,19.54,0,0,1,2.17-1.68,28.44,28.44,0,0,1,17.19-4.89,18.59,18.59,0,0,1,2.73.28A3.24,3.24,0,0,1,342.8,316.79Z" style="fill:#263238"></path><path d="M338,308c0,.09-1.37.4-3.5,1.24a29.42,29.42,0,0,0-3.6,1.73,31.15,31.15,0,0,0-4,2.78,29.1,29.1,0,0,0-5.91,6.61c-1.24,1.92-1.81,3.23-1.9,3.19a3.87,3.87,0,0,1,.34-.95,18.4,18.4,0,0,1,1.25-2.43,25,25,0,0,1,2.35-3.32,29.41,29.41,0,0,1,3.54-3.51,29,29,0,0,1,4.13-2.78,24.68,24.68,0,0,1,3.71-1.66,18.62,18.62,0,0,1,2.63-.76A3.7,3.7,0,0,1,338,308Z" style="fill:#263238"></path><g style="opacity:0.30000000000000004"><path d="M303.74,296.86c4.58-4.2,6.74-10.53,7.15-16.73s-.76-12.38-1.92-18.48"></path></g><g style="opacity:0.30000000000000004"><path d="M319.07,323.39a19.86,19.86,0,0,1,24.45-7,32.88,32.88,0,0,0-24.2,6.8"></path></g><g style="opacity:0.30000000000000004"><path d="M173,302.05a13.56,13.56,0,0,0-7.85-10.27c-1.17-.51-2.75-.76-3.54.25A35.94,35.94,0,0,1,173,302.53"></path></g><path d="M141.44,320.28a2.34,2.34,0,0,1,.23-.85,7.81,7.81,0,0,1,1.22-2.06,12,12,0,0,1,6.74-3.94,23,23,0,0,1,7.83-.09c1,.14,1.79.28,2.34.39a3.18,3.18,0,0,1,.84.23,24.81,24.81,0,0,1-3.22-.26,26.16,26.16,0,0,0-7.68.24,12.3,12.3,0,0,0-6.57,3.67A14.88,14.88,0,0,0,141.44,320.28Z" style="fill:#263238"></path><path d="M253.19,274.47a21.94,21.94,0,0,0-9.33-16.21,13.43,13.43,0,0,0-6.77-2.58,7.77,7.77,0,0,0-6.54,2.68c-2.24,2.86-1.52,7.28.85,10s6,4.16,9.52,4.94,7.23,1.05,10.71,2.11c-3.93.93-7.94,1.9-11.33,4.08s-6.11,5.85-6.06,9.89,3.69,8,7.69,7.46c3.06-.41,5.31-3.07,6.83-5.76a31.7,31.7,0,0,0,4.43-16.65" style="fill:#fafafa"></path><path d="M253.19,274.47a21.14,21.14,0,0,1-.18,4.92,33.37,33.37,0,0,1-4.55,12.6,14.12,14.12,0,0,1-2.9,3.44,6.91,6.91,0,0,1-4.57,1.7,6.82,6.82,0,0,1-4.69-2.27,8.28,8.28,0,0,1-2.27-5.07,10,10,0,0,1,1.45-5.66,14.48,14.48,0,0,1,4.16-4.46c3.45-2.41,7.71-3.48,11.93-4.48l0,.51c-.57-.17-1.19-.35-1.83-.49-4.31-1-8.77-1.2-12.77-2.78a14.87,14.87,0,0,1-5.29-3.37,9.62,9.62,0,0,1-2.62-5.4,7.13,7.13,0,0,1,1.4-5.52,7.6,7.6,0,0,1,4.72-2.58,10.34,10.34,0,0,1,5,.55,16.19,16.19,0,0,1,4.09,2.21,21.8,21.8,0,0,1,5.46,5.73,22.55,22.55,0,0,1,2.57,5.41,20.6,20.6,0,0,1,.81,3.7c.05.43.07.76.08,1a1.17,1.17,0,0,1,0,.33,1.29,1.29,0,0,1-.06-.33c0-.24-.08-.56-.13-1a24,24,0,0,0-.9-3.64,23.1,23.1,0,0,0-2.62-5.31,21.7,21.7,0,0,0-5.44-5.61,16,16,0,0,0-4-2.12,9.83,9.83,0,0,0-4.81-.5,7.2,7.2,0,0,0-4.44,2.44,6.73,6.73,0,0,0-1.28,5.17,9.14,9.14,0,0,0,2.51,5.11,14.25,14.25,0,0,0,5.12,3.24c3.9,1.55,8.32,1.75,12.7,2.75.65.15,1.28.32,1.87.5l.94.27-1,.23c-4.22,1-8.41,2.06-11.76,4.39a14.06,14.06,0,0,0-4,4.29,9.52,9.52,0,0,0-1.39,5.38c.25,3.64,3.24,6.82,6.5,6.95a6.5,6.5,0,0,0,4.3-1.59,13.49,13.49,0,0,0,2.84-3.33,34.08,34.08,0,0,0,4.67-12.43,32.38,32.38,0,0,0,.33-3.62c0-.39,0-.7,0-.94A2.06,2.06,0,0,1,253.19,274.47Z" style="fill:#263238"></path><path d="M255.49,274.47a21.94,21.94,0,0,1,9.33-16.21,13.43,13.43,0,0,1,6.77-2.58,7.77,7.77,0,0,1,6.54,2.68c2.24,2.86,1.52,7.28-.85,10s-6,4.16-9.52,4.94-7.23,1.05-10.71,2.11c3.93.93,7.94,1.9,11.33,4.08s6.11,5.85,6.06,9.89-3.69,8-7.69,7.46c-3.06-.41-5.31-3.07-6.83-5.76a31.7,31.7,0,0,1-4.43-16.65" style="fill:#fafafa"></path><path d="M255.49,274.47a2.06,2.06,0,0,1,0,.33c0,.24,0,.55,0,.94a30.58,30.58,0,0,0,.34,3.62,33.85,33.85,0,0,0,4.66,12.43,13.49,13.49,0,0,0,2.84,3.33,6.5,6.5,0,0,0,4.3,1.59c3.26-.13,6.26-3.31,6.5-6.95a9.52,9.52,0,0,0-1.39-5.38,14.06,14.06,0,0,0-4-4.29c-3.35-2.33-7.54-3.4-11.76-4.39l-1-.23.94-.27c.59-.18,1.22-.35,1.87-.5,4.38-1,8.8-1.2,12.7-2.75a14.16,14.16,0,0,0,5.12-3.24,9.14,9.14,0,0,0,2.51-5.11,6.73,6.73,0,0,0-1.28-5.17,7.2,7.2,0,0,0-4.44-2.44,9.83,9.83,0,0,0-4.81.5,16,16,0,0,0-4,2.12,21.7,21.7,0,0,0-5.44,5.61,23.1,23.1,0,0,0-2.62,5.31,24,24,0,0,0-.9,3.64c-.05.41-.1.73-.13,1a1.29,1.29,0,0,1-.06.33,1.17,1.17,0,0,1,0-.33c0-.22,0-.55.08-1a20.6,20.6,0,0,1,.81-3.7,22.55,22.55,0,0,1,2.57-5.41,21.69,21.69,0,0,1,5.47-5.73,16,16,0,0,1,4.08-2.21,10.34,10.34,0,0,1,5-.55,7.6,7.6,0,0,1,4.72,2.58,7.13,7.13,0,0,1,1.4,5.52,9.62,9.62,0,0,1-2.62,5.4,14.87,14.87,0,0,1-5.29,3.37c-4,1.58-8.46,1.78-12.77,2.78-.64.14-1.26.32-1.83.49l0-.51c4.22,1,8.48,2.07,11.93,4.48a14.63,14.63,0,0,1,4.17,4.46,10.07,10.07,0,0,1,1.44,5.66,8.28,8.28,0,0,1-2.27,5.07,6.82,6.82,0,0,1-4.69,2.27,6.92,6.92,0,0,1-4.57-1.7,13.86,13.86,0,0,1-2.89-3.44,33.24,33.24,0,0,1-4.56-12.6A21.14,21.14,0,0,1,255.49,274.47Z" style="fill:#263238"></path><path d="M254.34,291.58h0a1.14,1.14,0,0,1-1.13-1.13V268.7a1.14,1.14,0,0,1,1.13-1.14h0a1.14,1.14,0,0,1,1.13,1.14v21.75A1.14,1.14,0,0,1,254.34,291.58Z" style="fill:#263238"></path><path d="M254.34,291.6a1.16,1.16,0,0,1-1.16-1.15V268.7a1.16,1.16,0,0,1,2.32,0v21.75A1.16,1.16,0,0,1,254.34,291.6Zm0-24a1.11,1.11,0,0,0-1.11,1.11v21.75a1.11,1.11,0,0,0,2.22,0V268.7A1.11,1.11,0,0,0,254.34,267.59Z" style="fill:#263238"></path><path d="M248.12,255.94a7.39,7.39,0,0,1,1.63,1.72,20.28,20.28,0,0,1,2.83,5,20.65,20.65,0,0,1,1.35,5.55,7.49,7.49,0,0,1,0,2.36,27.41,27.41,0,0,0-5.8-14.6Z" style="fill:#263238"></path><path d="M260.49,256.05a44.43,44.43,0,0,0-3.74,6.32,44,44,0,0,0-2.13,7,6.84,6.84,0,0,1,.14-2.18,21.28,21.28,0,0,1,4.22-9.58A6.7,6.7,0,0,1,260.49,256.05Z" style="fill:#263238"></path><path d="M253.74,276.62c-.08,0-.6-1-1.64-2.56a26.53,26.53,0,0,0-11-9.31c-1.71-.77-2.83-1.1-2.8-1.19s.29,0,.81.15a17,17,0,0,1,2.13.7,23.44,23.44,0,0,1,11.17,9.45,16.86,16.86,0,0,1,1.05,2A2.67,2.67,0,0,1,253.74,276.62Z" style="fill:#263238"></path><path d="M253.82,274.5a13,13,0,0,1-1.4,2.62,54.66,54.66,0,0,1-4.13,5.84,54.05,54.05,0,0,1-4.85,5.27,14.16,14.16,0,0,1-2.26,1.92,19,19,0,0,1,2-2.18c1.26-1.32,2.95-3.17,4.7-5.33s3.21-4.21,4.23-5.72A20.91,20.91,0,0,1,253.82,274.5Z" style="fill:#263238"></path><path d="M266.66,264.75a19.75,19.75,0,0,1-2.18,1.53,40.92,40.92,0,0,0-5,4,43.37,43.37,0,0,0-4.33,4.7,19.92,19.92,0,0,1-1.66,2.08,10.06,10.06,0,0,1,1.37-2.3,32.4,32.4,0,0,1,4.26-4.86,31.51,31.51,0,0,1,5.15-3.92A10.71,10.71,0,0,1,266.66,264.75Z" style="fill:#263238"></path><path d="M266.53,289.7a10.58,10.58,0,0,1-2.32-1.52A28.43,28.43,0,0,1,256,277.74a10,10,0,0,1-.94-2.61,23,23,0,0,1,1.27,2.45,34.86,34.86,0,0,0,8.16,10.32A23.14,23.14,0,0,1,266.53,289.7Z" style="fill:#263238"></path><path d="M281.27,303.57c0,.15-11.55.26-25.8.26s-25.8-.11-25.8-.26,11.55-.26,25.8-.26S281.27,303.43,281.27,303.57Z" style="fill:#263238"></path><path d="M208.32,175.81c-5.79,10.39,4.44,24.26-.9,34.89-1.52,3-4.29,5.67-4.27,9.06s2.74,6.22,2.29,9.47c-.35,2.5-2.46,4.33-3.8,6.47-2.65,4.2-2.22,9.89.29,14.18a17,17,0,0,0,30.48-2.12c2.2-5.35.59-11.3.34-17.08-.25-5.94-1.09-12.94-1.23-18,0,0-16.21-1.71-20.72-20.3a84,84,0,0,1-2.11-12.42C208.35,176.74,208.32,175.81,208.32,175.81Z" style="fill:#263238"></path><polygon points="308.88 331.89 287.48 339.32 290.81 346.63 298.98 357.26 320.95 351.03 308.88 331.89" style="fill:#ffbe9d"></polygon><polygon points="261.57 347.18 235.85 314.8 164.41 314.8 227.28 394.49 293.89 388.4 261.57 347.18" style="fill:#455a64"></polygon><polygon points="164.86 315.37 160.38 321.3 224.76 401.83 286.07 395.91 290.58 388.7 227.28 394.49 164.86 315.37" style="fill:#e0e0e0"></polygon><path d="M243.68,324.07a7.85,7.85,0,0,0,.84-1.9,4.45,4.45,0,0,0,0-2.2,4.27,4.27,0,0,0-4-3,4.44,4.44,0,0,0-2.13.54,8.53,8.53,0,0,0-1.61,1.33c-.05,0,.25-.87,1.43-1.64a4.41,4.41,0,0,1,5.11.22,4.52,4.52,0,0,1,1.66,2.46,4.59,4.59,0,0,1-.07,2.41A3,3,0,0,1,243.68,324.07Z" style="fill:#263238"></path><path d="M247.21,327.61a8.31,8.31,0,0,0,.85-1.91,4.41,4.41,0,0,0,0-2.19,4.23,4.23,0,0,0-1.5-2.17,4.28,4.28,0,0,0-2.5-.87,4.51,4.51,0,0,0-2.12.55,8.13,8.13,0,0,0-1.61,1.33,3,3,0,0,1,1.42-1.65A4.71,4.71,0,0,1,244,320a4.5,4.5,0,0,1,4.4,5.81A3,3,0,0,1,247.21,327.61Z" style="fill:#263238"></path><path d="M250.75,331.15a8.58,8.58,0,0,0,.85-1.91,4.53,4.53,0,0,0,0-2.19,4.28,4.28,0,0,0-4-3,4.48,4.48,0,0,0-2.12.55,7.74,7.74,0,0,0-1.61,1.33c-.05,0,.25-.88,1.42-1.65a4.52,4.52,0,0,1,6.77,2.68,4.53,4.53,0,0,1-.07,2.42A3,3,0,0,1,250.75,331.15Z" style="fill:#263238"></path><path d="M254.29,334.68a8.08,8.08,0,0,0,.85-1.9,4.46,4.46,0,0,0,0-2.2,4.27,4.27,0,0,0-4-3,4.44,4.44,0,0,0-2.13.54,8.53,8.53,0,0,0-1.61,1.33c-.05,0,.25-.87,1.43-1.64a4.53,4.53,0,0,1,6.77,2.68,4.59,4.59,0,0,1-.07,2.41A3,3,0,0,1,254.29,334.68Z" style="fill:#263238"></path><path d="M240.81,404.07c0-.65-39.46-48.72-52.71-67.07l2.08-5.11,64.1-6,5.52,1.7,46.78,68.9Z" style="fill:#263238"></path><path d="M159.85,318.43s.06-.27.15-.72c.55-2.59,2.46-11.31,3.61-12.2,1.35-1.05,6.16-2.55,6.16-2.55h2.4s8.11-5.86,9.76-5.86,5.42.88,5.72,2.83a8.55,8.55,0,0,1,.12,2.76s5.28-.94,6.33,1.62c0,0,4.07,1.05,5,4.5s1.05,12.62,1.05,12.62-2,1.95-3.46.9a2,2,0,0,1-2.55,1.35,6.33,6.33,0,0,1-4.51-4.95c-.15-2.11-.75-5.71-.75-5.71l-1.2.75s.3,3.15-2.55,3.3-2.94-1.71-2.94-1.71l-17.34-.09-2.42,3Z" style="fill:#ffbe9d"></path><path d="M187.88,301.12a44.24,44.24,0,0,1,.15,6.72,43.07,43.07,0,0,1-.38,6.71,44.24,44.24,0,0,1-.15-6.72A43.07,43.07,0,0,1,187.88,301.12Z" style="fill:#eb996e"></path><path d="M193.59,303.57s.21.19.49.6a10.86,10.86,0,0,1,1,1.84,25.07,25.07,0,0,1,1.67,6.65,36.69,36.69,0,0,1,.2,6.85,11.14,11.14,0,0,1-.42,2.81,23.6,23.6,0,0,1,.05-2.83,48.29,48.29,0,0,0-.35-6.76,29.88,29.88,0,0,0-1.49-6.59C194.13,304.52,193.52,303.63,193.59,303.57Z" style="fill:#eb996e"></path><path d="M178.4,307.86a25.14,25.14,0,0,1,3-3.08l.46-.43-.07.63c-.09.94-.16,2-.19,3.16-.12,4.12.5,7.44.34,7.46a7,7,0,0,1-.52-2.15,28.88,28.88,0,0,1-.34-5.33,30,30,0,0,1,.25-3.2l.39.2A25,25,0,0,1,178.4,307.86Z" style="fill:#eb996e"></path><path d="M168,309.4s0-.1.09-.27a1,1,0,0,1,.71-.41,1.46,1.46,0,0,1,1.23.42,2.59,2.59,0,0,1,.59,1.6c.05.62,0,1.28,0,2a3.58,3.58,0,0,0,.59,2,1.84,1.84,0,0,0,2,.63,1.94,1.94,0,0,0,1.52-1.65c.24-3.56,1.12-7.13-.42-9.05a2.82,2.82,0,0,0-2.32-1.21,4,4,0,0,0-1,.19s.06-.09.22-.17a1.92,1.92,0,0,1,.77-.22,3,3,0,0,1,2.63,1.18,6.11,6.11,0,0,1,1.06,4.16c-.1,1.63-.23,3.33-.43,5.21a2.43,2.43,0,0,1-.64,1.35,2.67,2.67,0,0,1-2.66.67,2.24,2.24,0,0,1-1.1-.8,4,4,0,0,1-.63-2.28c0-.73.06-1.39,0-2a2.39,2.39,0,0,0-.44-1.43,1.22,1.22,0,0,0-1-.4A1,1,0,0,0,168,309.4Z" style="fill:#eb996e"></path><path d="M222.1,440.84c-3-2.27-5.73-5.15-9.26-6.56-3.8-1.52-15.89-1.89-19.73-3.31-7.12-2.63-5.3-9.17-1.82-17.93,2.8-7.05,6.63-13.74,12.94-17.94L195.38,382a204.82,204.82,0,0,0-17.08,33.88c-2.09,5.29-4,11-2.66,16.55a15.41,15.41,0,0,0,12.13,11.33c6.23,1,12.87-1.86,18.81.27,2.93,1,5.3,3.19,7.84,5a36.37,36.37,0,0,0,24.93,6.3c3.28-.39,7.18-1.95,7.49-5.24C238.17,448.15,229.2,446.15,222.1,440.84Z" style="fill:#F2066D"></path><g style="opacity:0.30000000000000004"><path d="M204,432.7c-1.26-.06-3.57-.46-6.09-.75-5-.56-8.66-2-9.46-5.86-1.28-6.28,6-19.81,6-19.81s7.23-10.36,10-11L196.93,387a101.77,101.77,0,0,0-12.61,25.51,33.75,33.75,0,0,0-2,9.39,14.53,14.53,0,0,0,2.51,9.11c3.22,4.36,9.24,4.66,14.56,5.63,4.49.82,6.3.44,11.66,2.73,5.12,2.19,9.5,6.14,14.4,8.7,0,0,10.91,6.42,19.55,5.14,0,0,1.93-1.66,1.81-3.14,0,0-13.22-3-16.05-4.44s-7-3.32-10.28-6S214.88,433.18,204,432.7Z"></path></g><path d="M245,453.16a5.65,5.65,0,0,1-1.09.25,13,13,0,0,1-3.19,0,46.91,46.91,0,0,1-11.27-3.23,38.26,38.26,0,0,1-7.14-3.88c-2.47-1.57-5.06-3.31-7.86-5-.7-.43-1.42-.85-2.15-1.25a15.48,15.48,0,0,0-2.33-.92c-1.63-.51-3.34-.92-5.09-1.29-3.5-.73-7.17-1.34-10.93-1.87h0l-1.79-.43a17.73,17.73,0,0,1-5.45-2.15,8.21,8.21,0,0,1-2.13-2,12.23,12.23,0,0,1-1.39-2.49,17.48,17.48,0,0,1-.62-10.61,80.51,80.51,0,0,1,5.79-17.09,83,83,0,0,1,6-10.61c.81-1.19,1.44-2.1,1.9-2.71l.52-.68a.94.94,0,0,1,.19-.23l-.15.26-.47.71c-.43.63-1,1.56-1.82,2.76a88.87,88.87,0,0,0-5.79,10.66,81.56,81.56,0,0,0-5.66,17,17,17,0,0,0,.62,10.31,11.58,11.58,0,0,0,1.33,2.38,7.76,7.76,0,0,0,2,1.86,17.49,17.49,0,0,0,5.29,2.08l1.78.42h0c3.79.53,7.46,1.15,11,1.9,1.75.37,3.47.79,5.13,1.31a14.8,14.8,0,0,1,2.41,1c.75.4,1.47.83,2.17,1.26,2.8,1.74,5.38,3.49,7.84,5.07a37.87,37.87,0,0,0,7.05,3.9,48.77,48.77,0,0,0,11.16,3.37,14.39,14.39,0,0,0,3.15.12C244.65,453.23,245,453.13,245,453.16Z" style="fill:#263238"></path><path d="M265.7,338.55s-12.14-7.75-21.45-4.91c-10.22,3.12-20.43,10.93-21.93,28.59-1.18,14,3.65,27.61,3.65,27.61l-31.41-25.55s-1.73,14.95,2.55,22.92c1,1.91,7.3,8.23,15.89,15.53,18,15.29,44.31,36.07,44.31,36.07s47.13,28.18,56.87,29.76,61.09-20,61.09-20,9.22-19.49,8.43-25.28-69.54-56.75-76.46-60.64S265.7,338.55,265.7,338.55Z" style="fill:#F2066D"></path><path d="M318.52,444.48c.07,0-.7,1.15-1.71,3a30.23,30.23,0,0,0-2.86,7.86,29.93,29.93,0,0,0-.56,4.57,29.09,29.09,0,0,0,.13,3.76c.22,2.14.56,3.44.47,3.46a2.86,2.86,0,0,1-.31-.89,17.06,17.06,0,0,1-.52-2.53,23.81,23.81,0,0,1-.25-3.82,27.51,27.51,0,0,1,.53-4.66,26.72,26.72,0,0,1,3.05-7.92,20.15,20.15,0,0,1,1.41-2.15C318.27,444.71,318.49,444.45,318.52,444.48Z" style="fill:#263238"></path><path d="M257.32,418.41a9.57,9.57,0,0,1-1.37-1c-.86-.65-2.08-1.61-3.57-2.83-3-2.43-7-5.92-11.24-9.95s-8-7.74-10.79-10.43l-3.24-3.19a11.72,11.72,0,0,1-1.14-1.21,8.76,8.76,0,0,1,1.28,1.07c.81.71,1.95,1.76,3.36,3.07l10.89,10.31c4.26,4,8.21,7.55,11.12,10l3.46,3A10.88,10.88,0,0,1,257.32,418.41Z" style="fill:#263238"></path><path d="M269.64,404.69a7.27,7.27,0,0,1-1,.94c-.34.28-.73.64-1.19,1.07s-1,.9-1.55,1.45a63.33,63.33,0,0,0-7.95,9.36,51.11,51.11,0,0,0-5.79,10.8c-1.11,2.95-1.49,4.87-1.6,4.85a7.69,7.69,0,0,1,.23-1.36,12.72,12.72,0,0,1,.39-1.57,20.93,20.93,0,0,1,.64-2,45.86,45.86,0,0,1,5.7-11,55.86,55.86,0,0,1,8.12-9.32c.58-.55,1.13-1,1.61-1.41s.91-.75,1.27-1A7,7,0,0,1,269.64,404.69Z" style="fill:#263238"></path><path d="M381.84,422.25c.05.14-14.09,5.22-31.57,11.36s-31.71,11-31.75,10.87,14.08-5.22,31.57-11.36S381.79,422.12,381.84,422.25Z" style="fill:#263238"></path><path d="M312.71,371.27a1.85,1.85,0,0,1-.39-.21l-1.09-.64L307,367.9l-15.36-9.36-5.08-3.11c-1.77-1.08-3.62-2.2-5.48-3.45-3.72-2.46-7.57-5.3-11.83-7.93a36.81,36.81,0,0,0-14.44-5.7,23.31,23.31,0,0,0-8.19.29,20.11,20.11,0,0,0-7.59,3.6,25.25,25.25,0,0,0-8.77,13.89,29.39,29.39,0,0,0,.66,15.42,42.19,42.19,0,0,0,6.41,12.57c1.31,1.79,2.72,3.41,4.1,5s2.72,3,4,4.41c5.15,5.58,9.57,9.85,12.72,12.68,1.58,1.42,2.83,2.5,3.68,3.22l1,.83a2.2,2.2,0,0,1,.32.29,2,2,0,0,1-.35-.25l-1-.79c-.87-.69-2.14-1.75-3.74-3.14-3.2-2.8-7.67-7-12.86-12.59-1.29-1.39-2.64-2.85-4-4.39a64,64,0,0,1-4.15-5,42.42,42.42,0,0,1-6.52-12.68,29.92,29.92,0,0,1-.7-15.68,25.76,25.76,0,0,1,8.95-14.19,20.75,20.75,0,0,1,7.8-3.69,23.62,23.62,0,0,1,8.37-.28,37,37,0,0,1,14.63,5.79c4.27,2.66,8.11,5.51,11.81,8,1.85,1.26,3.68,2.37,5.45,3.46l5.06,3.14,15.27,9.5,4.14,2.61,1.07.69Z" style="fill:#263238"></path><path d="M312.71,366.42A5.1,5.1,0,0,1,312,366l-2-1.25c-1.72-1.09-4.22-2.65-7.33-4.52-6.23-3.77-15-8.72-24.52-14.39-2.38-1.44-4.69-2.85-6.94-4.2s-4.45-2.56-6.58-3.65-4.21-2.06-6.18-2.88a23.37,23.37,0,0,0-5.63-1.72,19.65,19.65,0,0,0-8.48.33,28.8,28.8,0,0,0-3,1.07,11.78,11.78,0,0,1,2.9-1.27,19.27,19.27,0,0,1,8.6-.49,23.93,23.93,0,0,1,5.74,1.68c2,.81,4.07,1.77,6.22,2.85s4.38,2.3,6.64,3.64l6.94,4.19c9.54,5.67,18.26,10.68,24.44,14.52,3.09,1.92,5.57,3.52,7.25,4.67.85.56,1.49,1,1.93,1.34A4.5,4.5,0,0,1,312.71,366.42Z" style="fill:#263238"></path><path d="M277.42,335.42l-15.54,6s-.67,1.47,1.6,2.95,6.12.53,6.12.53l-3,11.52s.05,3.08,3,3.08a5.28,5.28,0,0,0,4.33-2,4.88,4.88,0,0,0,2.55,5.09,2.68,2.68,0,0,0,4.15-1.61s2,2.33,3.35,2.1,8-9.87,8-9.87l2.27,1.34,4.69,2.68a16.59,16.59,0,0,0,1.48-8c-.41-4.2-4.29-8.36-8.85-7.69,0,0-3.34-3.08-5.76-3.48s-3.48.67-3.48.67A5.33,5.33,0,0,0,277.42,335.42Z" style="fill:#ffbe9d"></path><path d="M284,363.11l-.27,0a2,2,0,0,1-.77-.19,8,8,0,0,1-2.39-1.88l.18,0a3.41,3.41,0,0,1-1.31,1.83,2.71,2.71,0,0,1-2.65,0,5.05,5.05,0,0,1-2.35-2,5.2,5.2,0,0,1-.67-3.42l.34.14a5.53,5.53,0,0,1-4.18,2.1,3.28,3.28,0,0,1-2.49-.76,3.7,3.7,0,0,1-1.08-2.51v-.06c.92-3.52,1.93-7.42,3-11.53l.3.31a11,11,0,0,1-5,0,5.22,5.22,0,0,1-2.25-1.3,2.5,2.5,0,0,1-.82-2.57l0-.09.11,0,3.59-1.39,11.95-4.63.05,0h.05a5.46,5.46,0,0,1,3.17,1,5.87,5.87,0,0,1,2,2.54l-.4-.09a4.05,4.05,0,0,1,2.77-.82,6.57,6.57,0,0,1,1.39.2,7.38,7.38,0,0,1,1.26.51,19.86,19.86,0,0,1,4.14,2.94l-.18-.06a7.14,7.14,0,0,1,4.57.94,8.83,8.83,0,0,1,3,2.9,9.11,9.11,0,0,1,1.35,3.41,12.48,12.48,0,0,1,.07,3.09,16.68,16.68,0,0,1-1,4.17c-.18.47-.33.81-.44,1a1.57,1.57,0,0,1-.19.34,2,2,0,0,1,.13-.36c.09-.24.22-.59.38-1.06a18.46,18.46,0,0,0,.85-4.15,12.55,12.55,0,0,0-.12-3,9,9,0,0,0-4.26-6,6.78,6.78,0,0,0-4.31-.85l-.1,0-.08-.07a19.7,19.7,0,0,0-4.05-2.85,5.52,5.52,0,0,0-2.46-.64,3.69,3.69,0,0,0-2.42.69l-.26.22-.14-.31a5.28,5.28,0,0,0-1.83-2.29,5,5,0,0,0-2.89-.89h.09l-11.95,4.64L262,341.69l.14-.13a2,2,0,0,0,.71,2,4.67,4.67,0,0,0,2,1.17,10.32,10.32,0,0,0,4.69,0l.41-.08-.11.39c-1.09,4.1-2.12,8-3.06,11.51v-.06a3.31,3.31,0,0,0,.92,2.21,3,3,0,0,0,2.18.66,5.16,5.16,0,0,0,3.89-1.9l.44-.58-.11.72a5,5,0,0,0,.59,3.18,4.81,4.81,0,0,0,2.19,1.9,2.44,2.44,0,0,0,2.4,0,3.18,3.18,0,0,0,1.24-1.68l.06-.17.12.13a8.24,8.24,0,0,0,2.27,1.92A2.1,2.1,0,0,0,284,363.11Z" style="fill:#eb996e"></path><path d="M281,340.05a44.51,44.51,0,0,1-6.44,2.31l-2.54.78a4.43,4.43,0,0,0-1.85.86,3.79,3.79,0,0,0-.58,1.25c-.11.33-.19.51-.23.5s0-.2,0-.54a3.31,3.31,0,0,1,.5-1.45,4.26,4.26,0,0,1,2-1.07l2.54-.83A44.34,44.34,0,0,1,281,340.05Z" style="fill:#eb996e"></path><path d="M285.31,343.89a24.32,24.32,0,0,1-2.75.78,14,14,0,0,0-2.83,1.12,7.75,7.75,0,0,0-2.71,2.42,5.62,5.62,0,0,0-.67,1.75l-.46,1.77c-.29,1.13-.57,2.15-.82,3a11.57,11.57,0,0,1-1,2.68,27.25,27.25,0,0,1,.66-2.78c.22-.91.45-1.92.71-3,.14-.58.28-1.18.43-1.79a6.2,6.2,0,0,1,.73-1.9,7.91,7.91,0,0,1,2.92-2.56,12.62,12.62,0,0,1,3-1.06A11.83,11.83,0,0,1,285.31,343.89Z" style="fill:#eb996e"></path><path d="M290,347.8c0,.08-1,.26-2.51.73a8,8,0,0,0-2.46,1.24,6.59,6.59,0,0,0-2,2.68c-.92,2.24-1.08,4.52-1.55,6.08a6.14,6.14,0,0,1-1,2.43c-.08,0,.36-.94.68-2.51.17-.79.31-1.74.5-2.8a16.09,16.09,0,0,1,.93-3.4,6.76,6.76,0,0,1,2.15-2.86,7.54,7.54,0,0,1,2.65-1.21A8.43,8.43,0,0,1,290,347.8Z" style="fill:#eb996e"></path><path d="M327.75,372.84c-3.5-2.62-8.34-4.19-12.82-2.48-10.32,3.94-32.31,17.22-41,23.61a13.21,13.21,0,0,0-5,7.48l-.56,2.32s45.88,32.89,52,33.44,53.35-20.15,53.35-20.15,2.86-7.29-1.62-11.14C353.2,389.71,340.93,382.71,327.75,372.84Z" style="fill:#e0e0e0"></path><path d="M319.41,427a6.6,6.6,0,0,1-.41,1.57,13.6,13.6,0,0,0-.64,3.76,7.09,7.09,0,0,0,1,3.6,10.76,10.76,0,0,1,.85,1.37s-.55-.34-1.16-1.17a6.59,6.59,0,0,1-1.2-3.8,10.6,10.6,0,0,1,.81-3.88A4.19,4.19,0,0,1,319.41,427Z" style="fill:#263238"></path><path d="M319.41,427a2.27,2.27,0,0,1,.52-.23l1.53-.56,5.63-2c4.76-1.73,11.3-4.2,18.5-7L364,410.06l5.6-2.15,1.53-.56a2.29,2.29,0,0,1,.54-.16,2.48,2.48,0,0,1-.5.26l-1.5.65-5.53,2.3c-4.69,1.92-11.19,4.51-18.4,7.28s-13.77,5.18-18.56,6.83c-2.4.82-4.34,1.47-5.7,1.88l-1.56.47A2.36,2.36,0,0,1,319.41,427Z" style="fill:#263238"></path><path d="M318.62,427a1.93,1.93,0,0,1-.56-.15c-.35-.13-.89-.28-1.55-.56a54.24,54.24,0,0,1-5.49-2.57c-4.54-2.38-10.47-6.23-17-10.5s-12.65-7.77-16.87-10.68c-2.11-1.46-3.74-2.74-4.83-3.66-.56-.45-1-.82-1.25-1.07s-.43-.39-.41-.4.17.09.47.32l1.31,1c1.14.87,2.79,2.1,4.92,3.51,4.24,2.82,10.43,6.24,16.94,10.55s12.4,8.16,16.88,10.61c2.23,1.24,4.08,2.14,5.39,2.71S318.63,427,318.62,427Z" style="fill:#263238"></path><path d="M289.39,399.12a4.9,4.9,0,0,0-1.4-1.24l-3.81-2.58-1.37,1a26.54,26.54,0,0,0,3.42,4.12,3.79,3.79,0,0,0,1.58,1,1.6,1.6,0,0,0,1.68-.52A1.63,1.63,0,0,0,289.39,399.12Z" style="fill:#F2066D"></path><path d="M326.73,372.13a2.43,2.43,0,0,1-.52.31l-1.54.77L319,376c-4.78,2.36-11.39,5.64-18.51,9.58-3.55,2-6.89,4-9.89,5.8s-5.65,3.6-7.83,5.13c-1.11.75-2.08,1.47-2.94,2.09s-1.6,1.15-2.19,1.6l-1.38,1c-.32.22-.49.34-.51.32a3.21,3.21,0,0,1,.44-.41l1.33-1.1c.57-.47,1.29-1,2.14-1.68s1.8-1.38,2.89-2.15c2.16-1.57,4.81-3.34,7.79-5.24s6.34-3.86,9.9-5.85c7.14-3.94,13.77-7.18,18.6-9.46,2.42-1.13,4.38-2,5.75-2.64l1.57-.69A3.67,3.67,0,0,1,326.73,372.13Z" style="fill:#263238"></path><path d="M316,444.76a2.24,2.24,0,0,1-.62,0,16.31,16.31,0,0,1-1.75-.23,24.63,24.63,0,0,1-6.18-2,46.14,46.14,0,0,1-8.21-5.07c-2.92-2.16-6-4.74-9.35-7.16a96.32,96.32,0,0,0-10.08-6,51.35,51.35,0,0,1-8.09-5.26,23.14,23.14,0,0,1-4.44-4.75,14.38,14.38,0,0,1-.93-1.51,2.4,2.4,0,0,1-.25-.56s.43.73,1.34,1.95a25.14,25.14,0,0,0,4.51,4.58,53.22,53.22,0,0,0,8.09,5.13,90.21,90.21,0,0,1,10.16,6c3.41,2.44,6.44,5,9.32,7.2a48.83,48.83,0,0,0,8.08,5.12,26.73,26.73,0,0,0,6.07,2.15C315.18,444.65,316,444.71,316,444.76Z" style="fill:#263238"></path><path d="M211.93,401.83a4.06,4.06,0,0,1-.89-.62l-2.29-1.82a87.06,87.06,0,0,1-7.29-6.39,23.89,23.89,0,0,1-5.61-7.9,8.84,8.84,0,0,1-.5-1.61,6.33,6.33,0,0,1-.23-1.25,4.65,4.65,0,0,1,0-1.08,23.06,23.06,0,0,0,1.11,3.8,25.82,25.82,0,0,0,5.64,7.68c2.65,2.66,5.3,4.84,7.15,6.47.94.81,1.69,1.47,2.2,1.95A4.58,4.58,0,0,1,211.93,401.83Z" style="fill:#263238"></path><path d="M326.24,391.43a2.59,2.59,0,0,0-2.13-.61c-.83,0-1.54,1.28-1.6,2.11a7.18,7.18,0,0,0,.79,3.95,11.19,11.19,0,0,0-3.16-1.5,5.5,5.5,0,0,0-2.95-.17,2.78,2.78,0,0,0-2.05,2,2.93,2.93,0,0,0,1.08,2.66,8.43,8.43,0,0,0,2.66,1.38c4.56,1.7,9.19,3.21,13.82,4.72C332,400.48,330.08,395.39,326.24,391.43Z" style="fill:#F2066D"></path><path d="M240.12,448.55s19.25,2.7,23.64,0c4.09-2.51,4.39-3.38,4.39-3.38l4.41,2.54a16.67,16.67,0,0,1-10,5.72c-10,1.59-23.74-.6-23.74-.6Z" style="fill:#263238"></path><path d="M255.57,452.06s.12.24.18.72a2.37,2.37,0,0,1-.06.89,1.65,1.65,0,0,1-.75,1,4.21,4.21,0,0,1-1.36.47,3.11,3.11,0,0,1-1.68,0,1.65,1.65,0,0,1-.78-.59,1.91,1.91,0,0,1-.31-1c0-.64,0-1.24,0-1.89a6.39,6.39,0,0,1,.16-1.93,2,2,0,0,1,1.41-1.27,3,3,0,0,1,1.68.05,2.81,2.81,0,0,1,.72.28,1.46,1.46,0,0,1,.5.55,4.21,4.21,0,0,1,.22,1.17c0,.3.05.58.08.85a2.26,2.26,0,0,1,0,.74s-.11-.25-.21-.71c-.06-.26-.11-.54-.17-.84a4.58,4.58,0,0,0-.26-1,1.29,1.29,0,0,0-1-.59,2.49,2.49,0,0,0-1.43,0,1.52,1.52,0,0,0-1.07,1,6.6,6.6,0,0,0-.12,1.77c.06,1.25-.28,2.69.77,3a2.66,2.66,0,0,0,1.43.06,3.69,3.69,0,0,0,1.24-.36,1.59,1.59,0,0,0,.8-1.52A2.65,2.65,0,0,1,255.57,452.06Z" style="fill:#263238"></path><g style="opacity:0.30000000000000004"><path d="M369.32,438.64a3.32,3.32,0,0,0-2.47-.3c-14.2,2.1-33.16,6.93-40.12,15.74a97.42,97.42,0,0,1,38.35-10.92,7.16,7.16,0,0,0,3.88-1C370,441.31,370.41,439.45,369.32,438.64Z"></path></g></g></svg>