<svg xmlns="http://www.w3.org/2000/svg" xmlns:xlink="http://www.w3.org/1999/xlink" viewBox="0 0 500 500"><defs><clipPath id="freepik--clip-path--inject-126"><path d="M399,186.64s-13.1-3.18-19.83-.7-16.64,12.39-19.12,15.22-9.91,13.1-9.91,13.1l9.91,8.85,17.35-9.91,2.48,19.12L358,274.8s15.57,16.29,45,17.35,52.4-14.87,52.4-14.87L433.38,230.9l.35-22.3L455,223.82,465.6,209.3s-12.75-14.16-20.18-19.12-18.77-3.89-26.2-3.89-18.77.71-18.77.71Z" style="fill:#FFFFFF;stroke:#263238;stroke-linecap:round;stroke-linejoin:round"></path></clipPath></defs><g id="freepik--background-simple--inject-126"><path d="M167.19,71.92S91.42,110.52,53.63,170,18.83,306,64.75,362.8s133.69,49.34,207.18,85.32,154.57,28.57,189.32-47.66S443.6,295.74,434.6,207.52,346.07-9.88,167.19,71.92Z" style="fill:#FFFFFF"></path><path d="M167.19,71.92S91.42,110.52,53.63,170,18.83,306,64.75,362.8s133.69,49.34,207.18,85.32,154.57,28.57,189.32-47.66S443.6,295.74,434.6,207.52,346.07-9.88,167.19,71.92Z" style="fill:#fff;opacity:0.7000000000000001"></path></g><g id="freepik--Icons--inject-126"><path d="M349.87,89.64C347.63,95,339.44,99,329.69,99s-17.94-4-20.18-9.35" style="fill:none;stroke:#263238;stroke-miterlimit:10"></path><path d="M349.87,89.64a7.72,7.72,0,0,0,.61-3c0-2.8-1.58-5.38-4.25-7.44" style="fill:none;stroke:#263238;stroke-miterlimit:10"></path><path d="M309.51,89.64a7.54,7.54,0,0,1-.61-3c0-2.8,1.58-5.38,4.24-7.44" style="fill:none;stroke:#263238;stroke-miterlimit:10"></path><path d="M309.51,89.64c-2.53,2.17-4,4.76-4,7.54,0,7.56,10.83,13.69,24.19,13.69s24.18-6.13,24.18-13.69c0-2.78-1.47-5.37-4-7.54" style="fill:none;stroke:#263238;stroke-miterlimit:10"></path><path d="M316.24,85.81c3,2.84,7.91,4.69,13.45,4.69s10.44-1.85,13.44-4.69" style="fill:none;stroke:#263238;stroke-miterlimit:10"></path><path d="M346.23,79.24c0-2.93-1.66-5.59-4.36-7.59" style="fill:none;stroke:#263238;stroke-miterlimit:10"></path><path d="M343.13,85.81a9.07,9.07,0,0,0,3.11-6.55v0" style="fill:none;stroke:#263238;stroke-miterlimit:10"></path><path d="M316.24,85.81a9.06,9.06,0,0,1-3.1-6.55v0" style="fill:none;stroke:#263238;stroke-miterlimit:10"></path><path d="M317.5,71.65c-2.7,2-4.35,4.66-4.36,7.59" style="fill:none;stroke:#263238;stroke-miterlimit:10"></path><path d="M317.5,71.65c0-.12,0-.23,0-.35,0-2.7,1.69-5.11,4.34-6.73" style="fill:none;stroke:#263238;stroke-miterlimit:10"></path><path d="M340,76a7.2,7.2,0,0,0,1.87-4.35" style="fill:none;stroke:#263238;stroke-miterlimit:10"></path><path d="M319.38,76c2.16,2.46,6,4.11,10.31,4.11S337.84,78.46,340,76" style="fill:none;stroke:#263238;stroke-miterlimit:10"></path><path d="M319.38,76a7.15,7.15,0,0,1-1.88-4.35" style="fill:none;stroke:#263238;stroke-miterlimit:10"></path><path d="M337.56,64.57c2.65,1.62,4.34,4,4.34,6.73,0,.12,0,.23,0,.35" style="fill:none;stroke:#263238;stroke-miterlimit:10"></path><path d="M322.18,69.24a8.07,8.07,0,0,0,7.51,5.14" style="fill:none;stroke:#263238;stroke-miterlimit:10"></path><path d="M337.56,64.57a8.06,8.06,0,0,0-15.74,0" style="fill:none;stroke:#263238;stroke-miterlimit:10"></path><path d="M337.19,69.24a8.06,8.06,0,0,1-7.5,5.14" style="fill:none;stroke:#263238;stroke-miterlimit:10"></path><path d="M337.56,64.57a8.45,8.45,0,0,1,.19,1.75,7.9,7.9,0,0,1-.56,2.92" style="fill:none;stroke:#263238;stroke-miterlimit:10"></path><path d="M322.18,69.24a8.1,8.1,0,0,1-.55-2.92,8.45,8.45,0,0,1,.19-1.75" style="fill:none;stroke:#263238;stroke-miterlimit:10"></path><path d="M438.8,94.81l11.88,7.08a7.11,7.11,0,0,0,9.77-2.47c.05-.08.08-.16.13-.23" style="fill:none;stroke:#263238;stroke-miterlimit:10"></path><line x1="449" y1="84.29" x2="435.57" y2="76.28" style="fill:none;stroke:#263238;stroke-miterlimit:10"></line><path d="M412.78,78.14a7.12,7.12,0,0,0,2.59,2.7l7.6,4.53" style="fill:none;stroke:#263238;stroke-miterlimit:10"></path><path d="M412.78,78.14a7.12,7.12,0,0,1,9.89-9.55l12.9,7.69" style="fill:none;stroke:#263238;stroke-miterlimit:10"></path><path d="M449,84.29l9,5.35a7.13,7.13,0,0,1,2.6,9.55" style="fill:none;stroke:#263238;stroke-miterlimit:10"></path><path d="M412.78,78.14a7.12,7.12,0,0,0,2.59,9.55l3.32,2" style="fill:none;stroke:#263238;stroke-miterlimit:10"></path><path d="M434.21,98.92l16.47,9.82a7.13,7.13,0,0,0,9.9-9.55" style="fill:none;stroke:#263238;stroke-miterlimit:10"></path><path d="M416.76,97.42a8.88,8.88,0,0,0,.54,1.45" style="fill:none;stroke:#263238;stroke-miterlimit:10"></path><path d="M450,68.14c-.54.23-1.06.46-1.54.7" style="fill:none;stroke:#263238;stroke-miterlimit:10"></path><path d="M453.69,78.55c-1.36,1.83-3,3.78-4.69,5.74" style="fill:none;stroke:#263238;stroke-miterlimit:10"></path><path d="M433.62,99.41l.59-.49,4.59-4.11L423,85.37l-4.28,4.3a12.09,12.09,0,0,0-2,3.18" style="fill:none;stroke:#263238;stroke-miterlimit:10"></path><path d="M427.9,102.93a10.17,10.17,0,0,1-7.43-.71" style="fill:none;stroke:#263238;stroke-miterlimit:10"></path><path d="M457.31,72.77a6.44,6.44,0,0,0,.77-3,3,3,0,0,0-1-2.23" style="fill:none;stroke:#263238;stroke-miterlimit:10"></path><path d="M435.57,76.28c5.54-3.5,10.12-6,10.12-6s1.14-.7,2.73-1.47" style="fill:none;stroke:#263238;stroke-miterlimit:10"></path><path d="M457.06,67.52c.05-2.6,0-10.73-2.36-10.73-1.72,0-3.57,6.39-4.74,11.35" style="fill:none;stroke:#263238;stroke-miterlimit:10"></path><path d="M457.06,67.52c0,.49,0,.79,0,.79l-8.29,5.53s.47-2.56,1.21-5.7" style="fill:none;stroke:#263238;stroke-miterlimit:10"></path><path d="M457.31,72.77l-.15-.13-5.28,5s.73.4,1.81.91" style="fill:none;stroke:#263238;stroke-miterlimit:10"></path><path d="M453.69,78.55c2.73,1.29,7.75,3.27,9.46,1.34.9-1-4.86-6.25-5.84-7.12" style="fill:none;stroke:#263238;stroke-miterlimit:10"></path><path d="M448.42,68.84c-2.89-.82-9.94-2.69-9.49-1.34.56,1.69,3.38,4.5,3.38,4.5" style="fill:none;stroke:#263238;stroke-miterlimit:10"></path><path d="M416.76,97.42c.37.35.72.66,1,.94" style="fill:none;stroke:#263238;stroke-miterlimit:10"></path><path d="M416.73,92.85c-1.82-4.18-4.37-8.43-6.73-6.67-2.59,1.94,3.23,8,6.76,11.24" style="fill:none;stroke:#263238;stroke-miterlimit:10"></path><path d="M416.73,92.85c.85,1.93,1.53,3.85,2,5.14" style="fill:none;stroke:#263238;stroke-miterlimit:10"></path><path d="M421.07,100.1c3-.59,9.29-1.64,12.55-.69" style="fill:none;stroke:#263238;stroke-miterlimit:10"></path><path d="M421,101a66.85,66.85,0,0,0,6.86,1.91" style="fill:none;stroke:#263238;stroke-miterlimit:10"></path><path d="M433.62,99.41c1.35.39,2.19,1.12,2,2.37-.27,2.14-4,1.94-7.75,1.15" style="fill:none;stroke:#263238;stroke-miterlimit:10"></path><path d="M417.92,102.63c-1.21,4.8-2.79,13.21,1,13,3.19-.16,1.83-8.14.74-12.87" style="fill:none;stroke:#263238;stroke-miterlimit:10"></path><path d="M417.92,102.63a2.58,2.58,0,0,1-1.12-2.18,2.7,2.7,0,0,1,.5-1.58" style="fill:none;stroke:#263238;stroke-miterlimit:10"></path><path d="M417.3,98.87a2.16,2.16,0,0,1,.49-.51" style="fill:none;stroke:#263238;stroke-miterlimit:10"></path><path d="M421,101a2.63,2.63,0,0,1-.57,1.2" style="fill:none;stroke:#263238;stroke-miterlimit:10"></path><path d="M418.7,98a1.9,1.9,0,0,1,.25,0,2.28,2.28,0,0,1,2.12,2.14" style="fill:none;stroke:#263238;stroke-miterlimit:10"></path><path d="M421,101a2.69,2.69,0,0,0,.06-.57c0-.12,0-.23,0-.35" style="fill:none;stroke:#263238;stroke-miterlimit:10"></path><path d="M417.92,102.63a2,2,0,0,0,1,.31,1.86,1.86,0,0,0,.74-.16" style="fill:none;stroke:#263238;stroke-miterlimit:10"></path><path d="M419.69,102.78a2,2,0,0,0,.78-.56" style="fill:none;stroke:#263238;stroke-miterlimit:10"></path><path d="M417.79,98.36a1.93,1.93,0,0,1,.91-.37" style="fill:none;stroke:#263238;stroke-miterlimit:10"></path><polygon points="338.21 384.95 313.81 373.25 313.81 342.68 338.21 354.38 338.21 384.95" style="fill:none;stroke:#263238;stroke-linejoin:round"></polygon><polygon points="338.21 354.38 362.17 346.28 362.17 375.14 338.21 384.95 338.21 354.38" style="fill:none;stroke:#263238;stroke-linejoin:round"></polygon><polygon points="313.81 342.68 337.43 335.12 362.17 346.28 338.21 354.38 313.81 342.68" style="fill:none;stroke:#263238;stroke-linejoin:round"></polygon><path d="M334.41,364.1v12.22c0,.4-.22.52-.62.35L329.88,375a.94.94,0,0,1-.62-.89v-.88c0-.18-.11-.27-.26-.18-1.13.74-2.82.63-5-.33-3.58-1.57-6.25-4.46-6.25-8.23s2.67-4.75,7.6-2.59l3.7,1.62c.11,0,.22,0,.22-.13v-.76a4.25,4.25,0,0,0-2.93-3.84c-1.46-.65-2.45-.57-2.78.17-.14.3-.36.35-.73.15l-4.06-2.29c-.36-.2-.62-.49-.58-.77.36-2.87,3.62-3.68,8-1.74C331.05,356.38,334.41,360.56,334.41,364.1Zm-5.15,4v-1.29a.37.37,0,0,0-.22-.31l-2.6-1.14c-2.19-1-3.55-.71-3.55.82a3.88,3.88,0,0,0,2.6,3.26C327.54,370.38,329.26,369.93,329.26,368.14Z" style="fill:none;stroke:#263238;stroke-miterlimit:10"></path><path d="M359.9,364.17a15.88,15.88,0,0,1-.62,4.65,12.84,12.84,0,0,1-7.06,8.31c-1.94.81-3.25.59-4.17-.23-.11-.1-.25,0-.25.18v1a.9.9,0,0,1-.63.88l-3.91,1.63c-.4.17-.62,0-.62-.36V355.86a.92.92,0,0,1,.62-.88l3.91-1.63c.41-.17.63,0,.63.36v7.53c0,.19.14.2.25,0a8.57,8.57,0,0,1,4.17-3.53c3.37-1.4,5.93-.42,7,2.21A10.69,10.69,0,0,1,359.9,364.17Zm-5.41,2.37a5.67,5.67,0,0,0-.88-3.48,2.05,2.05,0,0,0-2.56-.32,4.91,4.91,0,0,0-2.45,2.45,9.9,9.9,0,0,0-.77,4.08,6,6,0,0,0,.73,3.32,1.89,1.89,0,0,0,2.49.53,5.07,5.07,0,0,0,2.67-2.68A9.75,9.75,0,0,0,354.49,366.54Z" style="fill:none;stroke:#263238;stroke-miterlimit:10"></path><path d="M332.63,348.44a17.44,17.44,0,0,1-3.81-1.75,8,8,0,0,1-2.51-2.09c-1.26-1.83.27-3.68,4.2-4.88a21.71,21.71,0,0,1,11.92-.17,6.59,6.59,0,0,1,1.13.42c.31.15.25.32-.06.46l-3.42,1.44a1.21,1.21,0,0,1-1,0l-.48-.19a8.43,8.43,0,0,0-4.86,0c-1.57.49-2.05,1.2-1.49,1.94a6,6,0,0,0,1.81,1.47,13.16,13.16,0,0,0,2.58,1.23,8.14,8.14,0,0,0,4.89.08c1.54-.47,2.1-1.23,1.54-2a.49.49,0,0,0-.09-.1c-.08-.07-.11-.36.35-.45l4.29-.92a1.21,1.21,0,0,1,1,.16,1.64,1.64,0,0,1,.44.43c1.37,1.8-.43,3.65-4.24,4.82A21.77,21.77,0,0,1,332.63,348.44Z" style="fill:none;stroke:#263238;stroke-miterlimit:10"></path><path d="M175,351.9l6.91-6.47a1.45,1.45,0,0,0,.45-1.29L181,334.78a1.46,1.46,0,0,1,2.15-1.49l8.29,4.57a1.45,1.45,0,0,0,1.36,0l8.47-4.23a1.46,1.46,0,0,1,2.09,1.58l-1.79,9.3a1.42,1.42,0,0,0,.39,1.3l6.64,6.74a1.46,1.46,0,0,1-.86,2.48l-9.39,1.17a1.47,1.47,0,0,0-1.12.77l-4.36,8.41a1.46,1.46,0,0,1-2.62-.06l-4-8.57a1.45,1.45,0,0,0-1.08-.82l-9.34-1.55A1.47,1.47,0,0,1,175,351.9Z" style="fill:none;stroke:#263238;stroke-miterlimit:10"></path><path d="M202.68,382.37l3.32-3.1a.72.72,0,0,0,.22-.62l-.68-4.49a.7.7,0,0,1,1-.72l4,2.19a.7.7,0,0,0,.66,0l4.06-2a.7.7,0,0,1,1,.76l-.86,4.47a.7.7,0,0,0,.19.62l3.19,3.24a.7.7,0,0,1-.41,1.19l-4.51.56a.71.71,0,0,0-.54.38l-2.09,4a.7.7,0,0,1-1.26,0l-1.93-4.12a.71.71,0,0,0-.52-.4l-4.48-.74A.71.71,0,0,1,202.68,382.37Z" style="fill:none;stroke:#263238;stroke-miterlimit:10"></path><path d="M70.79,226.26l-7.05,6.33a1.44,1.44,0,0,0-.47,1.27l1.21,9.39a1.46,1.46,0,0,1-2.18,1.45L54.11,240a1.43,1.43,0,0,0-1.36-.06L44.2,244a1.47,1.47,0,0,1-2.06-1.63l2-9.26a1.47,1.47,0,0,0-.37-1.31l-6.5-6.88a1.45,1.45,0,0,1,.91-2.45l9.42-1a1.47,1.47,0,0,0,1.13-.75l4.53-8.31a1.46,1.46,0,0,1,2.62.11l3.84,8.65a1.42,1.42,0,0,0,1.06.84l9.31,1.75A1.46,1.46,0,0,1,70.79,226.26Z" style="fill:none;stroke:#263238;stroke-miterlimit:10"></path><path d="M43.76,195.22l-3.38,3a.7.7,0,0,0-.23.61l.59,4.51a.7.7,0,0,1-1.05.69l-3.93-2.27a.7.7,0,0,0-.66,0L31,203.72a.7.7,0,0,1-1-.78l.95-4.45a.7.7,0,0,0-.18-.63l-3.12-3.3a.7.7,0,0,1,.44-1.18l4.52-.47a.75.75,0,0,0,.55-.36l2.17-4a.7.7,0,0,1,1.26.05l1.84,4.15a.72.72,0,0,0,.52.41l4.46.84A.7.7,0,0,1,43.76,195.22Z" style="fill:none;stroke:#263238;stroke-miterlimit:10"></path><path d="M225.16,113.56l-6.54-1.32a1,1,0,0,0-.92.27l-4.79,4.64a1,1,0,0,1-1.74-.63l-.77-6.63a1,1,0,0,0-.54-.79L204,106a1,1,0,0,1,.05-1.84l6.07-2.78a1,1,0,0,0,.59-.76L211.83,94a1,1,0,0,1,1.78-.52l4.51,4.92a1,1,0,0,0,.9.32l6.61-.93a1,1,0,0,1,1,1.52l-3.28,5.82a1.06,1.06,0,0,0,0,.95l2.93,6A1,1,0,0,1,225.16,113.56Z" style="fill:none;stroke:#263238;stroke-miterlimit:10"></path><path d="M231.34,85.22l-3.14-.64a.51.51,0,0,0-.44.13l-2.3,2.23a.5.5,0,0,1-.84-.3l-.37-3.18a.45.45,0,0,0-.25-.38l-2.84-1.51a.49.49,0,0,1,0-.88l2.92-1.34a.5.5,0,0,0,.28-.36l.55-3.16a.5.5,0,0,1,.85-.25L228,77.94a.5.5,0,0,0,.43.16l3.18-.45a.5.5,0,0,1,.5.73l-1.58,2.8a.5.5,0,0,0,0,.46l1.41,2.87A.5.5,0,0,1,231.34,85.22Z" style="fill:none;stroke:#263238;stroke-miterlimit:10"></path><path d="M351.49,283.23,345,281.9a1.08,1.08,0,0,0-.92.27l-4.79,4.64a1,1,0,0,1-1.74-.62l-.77-6.63a1,1,0,0,0-.54-.79l-5.89-3.13a1,1,0,0,1,.05-1.85l6.07-2.77a1,1,0,0,0,.59-.76l1.15-6.57a1,1,0,0,1,1.78-.52l4.51,4.91a1.06,1.06,0,0,0,.9.33l6.61-.94a1,1,0,0,1,1,1.53l-3.28,5.81a1.05,1.05,0,0,0,0,1l2.93,6A1,1,0,0,1,351.49,283.23Z" style="fill:none;stroke:#263238;stroke-miterlimit:10"></path><path d="M357.67,254.88l-3.14-.63a.48.48,0,0,0-.44.13l-2.3,2.22a.5.5,0,0,1-.84-.29l-.37-3.19a.47.47,0,0,0-.26-.38l-2.83-1.5a.5.5,0,0,1,0-.89l2.91-1.33a.5.5,0,0,0,.29-.36l.55-3.16a.5.5,0,0,1,.85-.25l2.17,2.36a.5.5,0,0,0,.43.16l3.18-.45a.49.49,0,0,1,.5.73l-1.58,2.79a.5.5,0,0,0,0,.46l1.4,2.88A.49.49,0,0,1,357.67,254.88Z" style="fill:none;stroke:#263238;stroke-miterlimit:10"></path><line x1="109.28" y1="99.39" x2="112.18" y2="100.17" style="fill:none;stroke:#263238;stroke-miterlimit:10"></line><line x1="125.32" y1="103.71" x2="128.55" y2="104.58" style="fill:none;stroke:#263238;stroke-miterlimit:10"></line><line x1="128.25" y1="108.64" x2="123.43" y2="107.34" style="fill:none;stroke:#263238;stroke-miterlimit:10"></line><line x1="90.8" y1="98.55" x2="94.38" y2="99.51" style="fill:none;stroke:#263238;stroke-miterlimit:10"></line><line x1="92.64" y1="94.91" x2="96.14" y2="95.85" style="fill:none;stroke:#263238;stroke-miterlimit:10"></line><line x1="107.44" y1="103.03" x2="111.23" y2="104.06" style="fill:none;stroke:#263238;stroke-miterlimit:10"></line><line x1="103.38" y1="81.55" x2="100.24" y2="79.9" style="fill:none;stroke:#263238;stroke-miterlimit:10"></line><line x1="135.58" y1="94.01" x2="131.03" y2="91.61" style="fill:none;stroke:#263238;stroke-miterlimit:10"></line><line x1="115.17" y1="87.77" x2="117.77" y2="89.14" style="fill:none;stroke:#263238;stroke-miterlimit:10"></line><line x1="119.98" y1="85.78" x2="116.98" y2="84.2" style="fill:none;stroke:#263238;stroke-miterlimit:10"></line><line x1="132.44" y1="96.87" x2="129.56" y2="95.35" style="fill:none;stroke:#263238;stroke-miterlimit:10"></line><line x1="102.05" y1="76.33" x2="105.19" y2="77.99" style="fill:none;stroke:#263238;stroke-miterlimit:10"></line><path d="M102.05,76.33,103.76,73a6.66,6.66,0,0,0-11.88-6L77.24,95.82a6.66,6.66,0,0,0,11.89,6l1.67-3.29" style="fill:none;stroke:#263238;stroke-miterlimit:10"></path><line x1="90.8" y1="98.55" x2="92.64" y2="94.91" style="fill:none;stroke:#263238;stroke-miterlimit:10"></line><line x1="102.05" y1="76.33" x2="100.24" y2="79.9" style="fill:none;stroke:#263238;stroke-miterlimit:10"></line><line x1="100.24" y1="79.9" x2="92.64" y2="94.91" style="fill:none;stroke:#263238;stroke-miterlimit:10"></line><line x1="107.44" y1="103.03" x2="109.28" y2="99.39" style="fill:none;stroke:#263238;stroke-miterlimit:10"></line><line x1="116.98" y1="84.2" x2="115.17" y2="87.77" style="fill:none;stroke:#263238;stroke-miterlimit:10"></line><line x1="115.17" y1="87.77" x2="109.28" y2="99.39" style="fill:none;stroke:#263238;stroke-miterlimit:10"></line><line x1="103.38" y1="81.55" x2="96.14" y2="95.85" style="fill:none;stroke:#263238;stroke-miterlimit:10"></line><path d="M117,84.2l.26-.51a6.66,6.66,0,1,0-11.89-6l-.16.32" style="fill:none;stroke:#263238;stroke-miterlimit:10"></path><line x1="105.19" y1="77.99" x2="103.38" y2="81.55" style="fill:none;stroke:#263238;stroke-miterlimit:10"></line><path d="M96.14,95.85l-1.38,2.73a5.68,5.68,0,0,0-.38.93" style="fill:none;stroke:#263238;stroke-miterlimit:10"></path><path d="M94.38,99.51a6.66,6.66,0,0,0,12.26,5.09l.8-1.57" style="fill:none;stroke:#263238;stroke-miterlimit:10"></path><path d="M131,91.61a6.65,6.65,0,0,0-11-5.83" style="fill:none;stroke:#263238;stroke-miterlimit:10"></path><path d="M129.56,95.35l.82-1.61a6.47,6.47,0,0,0,.65-2.13" style="fill:none;stroke:#263238;stroke-miterlimit:10"></path><path d="M120,85.78a6.87,6.87,0,0,0-1.49,1.94l-.72,1.42" style="fill:none;stroke:#263238;stroke-miterlimit:10"></path><line x1="129.56" y1="95.35" x2="125.32" y2="103.71" style="fill:none;stroke:#263238;stroke-miterlimit:10"></line><path d="M123.43,107.34a7.16,7.16,0,0,0,.39-.66l1.5-3" style="fill:none;stroke:#263238;stroke-miterlimit:10"></path><path d="M111.23,104.06a6.63,6.63,0,0,1,.71-3.4l.24-.49" style="fill:none;stroke:#263238;stroke-miterlimit:10"></path><line x1="112.18" y1="100.17" x2="117.77" y2="89.14" style="fill:none;stroke:#263238;stroke-miterlimit:10"></line><path d="M111.23,104.06a6.66,6.66,0,0,0,9.62,5.57,6.59,6.59,0,0,0,2.58-2.29" style="fill:none;stroke:#263238;stroke-miterlimit:10"></path><path d="M128.25,108.64a6.65,6.65,0,0,0,12.41,1.46l3.53-7A6.66,6.66,0,0,0,135.58,94" style="fill:none;stroke:#263238;stroke-miterlimit:10"></path><path d="M132.44,96.87l-.13.24-3.53,7a4.52,4.52,0,0,0-.23.5" style="fill:none;stroke:#263238;stroke-miterlimit:10"></path><path d="M135.58,94a6.72,6.72,0,0,0-3.14,2.86" style="fill:none;stroke:#263238;stroke-miterlimit:10"></path><path d="M128.25,108.64a6.61,6.61,0,0,1,.3-4.06" style="fill:none;stroke:#263238;stroke-miterlimit:10"></path><path d="M86.78,94.8a1.72,1.72,0,1,1-2.27-.7A1.67,1.67,0,0,1,86.78,94.8Z" style="fill:none;stroke:#263238;stroke-miterlimit:10"></path><path d="M104.28,98.57a1.68,1.68,0,0,1-.82,2.24A1.64,1.64,0,1,1,102,97.87,1.7,1.7,0,0,1,104.28,98.57Z" style="fill:none;stroke:#263238;stroke-miterlimit:10"></path><path d="M119.63,103.22a1.73,1.73,0,0,1-3.09,1.54,1.73,1.73,0,0,1,3.09-1.54Z" style="fill:none;stroke:#263238;stroke-miterlimit:10"></path><path d="M97.47,72a1.73,1.73,0,1,1-2.28-.7A1.69,1.69,0,0,1,97.47,72Z" style="fill:none;stroke:#263238;stroke-miterlimit:10"></path><path d="M113.26,82a1.73,1.73,0,1,1-2.27-.7A1.67,1.67,0,0,1,113.26,82Z" style="fill:none;stroke:#263238;stroke-miterlimit:10"></path><path d="M127,90a1.73,1.73,0,1,1-2.28-.7A1.69,1.69,0,0,1,127,90Z" style="fill:none;stroke:#263238;stroke-miterlimit:10"></path><path d="M139.71,97.44a1.73,1.73,0,1,1-2.28-.7A1.69,1.69,0,0,1,139.71,97.44Z" style="fill:none;stroke:#263238;stroke-miterlimit:10"></path><path d="M135,107.87a1.73,1.73,0,1,1-2.28-.7A1.68,1.68,0,0,1,135,107.87Z" style="fill:none;stroke:#263238;stroke-miterlimit:10"></path><path d="M73.79,107.75a3.55,3.55,0,0,0-1.2.16,3.47,3.47,0,0,0-1.08.56" style="fill:none;stroke:#263238;stroke-miterlimit:10"></path><path d="M71.51,108.47a3.81,3.81,0,1,0,2.28-.72" style="fill:none;stroke:#263238;stroke-miterlimit:10"></path><path d="M73.79,107.75a1.55,1.55,0,0,0,0-.21L62.85,73.12a1.22,1.22,0,0,0-1.53-.79,1.21,1.21,0,0,0-.79,1.52l10.9,34.42a1.19,1.19,0,0,0,.08.2" style="fill:none;stroke:#263238;stroke-miterlimit:10"></path><path d="M131.74,77.48a3.74,3.74,0,0,0-.44-1.13,3.9,3.9,0,0,0-.8-.91" style="fill:none;stroke:#263238;stroke-miterlimit:10"></path><path d="M130.5,75.44a3.82,3.82,0,1,0,1.24,2" style="fill:none;stroke:#263238;stroke-miterlimit:10"></path><path d="M131.74,77.48a1.11,1.11,0,0,0,.19-.09l30.8-18.85a1.21,1.21,0,1,0-1.27-2.07l-30.8,18.84-.16.13" style="fill:none;stroke:#263238;stroke-miterlimit:10"></path></g></svg>