<svg width="2000" height="1022" viewBox="0 0 2000 1022" fill="none" xmlns="http://www.w3.org/2000/svg">
<path d="M1929.95 719.709H1927.44V682.453H1929.95V719.709Z" fill="white"/>
<path d="M1929.95 825.076H1927.44V787.821H1929.95V825.076Z" fill="white"/>
<path d="M1953.65 730.571L1951.88 728.797L1978.23 702.453L1980 704.227L1953.65 730.571Z" fill="white"/>
<path d="M1879.15 805.076L1877.37 803.303L1903.72 776.96L1905.49 778.733L1879.15 805.076Z" fill="white"/>
<path d="M2000 755.019H1962.75V752.511H2000V755.019Z" fill="white"/>
<path d="M1894.63 755.019H1857.37V752.511H1894.63V755.019Z" fill="white"/>
<path d="M1978.23 805.076L1951.88 778.733L1953.65 776.96L1980 803.303L1978.23 805.076Z" fill="white"/>
<path d="M1903.72 730.571L1877.37 704.227L1879.15 702.453L1905.49 728.797L1903.72 730.571Z" fill="white"/>
<path d="M143.215 162.435H140.708V134.855H143.215V162.435Z" fill="white"/>
<path d="M143.215 240.439H140.708V212.86H143.215V240.439Z" fill="white"/>
<path d="M160.675 170.707L158.903 168.932L178.405 149.432L180.177 151.206L160.675 170.707Z" fill="white"/>
<path d="M105.517 225.864L103.745 224.091L123.248 204.588L125.02 206.362L105.517 225.864Z" fill="white"/>
<path d="M194.753 188.901H167.173V186.393H194.753V188.901Z" fill="white"/>
<path d="M116.751 188.901H89.1693V186.393H116.751V188.901Z" fill="white"/>
<path d="M178.405 225.864L158.903 206.363L160.675 204.59L180.177 224.091L178.405 225.864Z" fill="white"/>
<path d="M123.248 170.707L103.747 151.206L105.519 149.432L125.02 168.932L123.248 170.707" fill="white"/>
<path d="M1757.6 255.068C1757.6 267.508 1747.52 277.594 1735.08 277.594C1722.64 277.594 1712.56 267.508 1712.56 255.068C1712.56 242.628 1722.64 232.544 1735.08 232.544C1747.52 232.544 1757.6 242.628 1757.6 255.068Z" fill="white"/>
<path d="M1962.13 154.208C1962.13 172.675 1947.16 187.647 1928.69 187.647C1910.23 187.647 1895.25 172.675 1895.25 154.208C1895.25 135.739 1910.23 120.767 1928.69 120.767C1947.16 120.767 1962.13 135.739 1962.13 154.208Z" fill="white"/>
<path d="M89.1693 915.568C89.1693 940.192 69.208 960.153 44.5853 960.153C19.9627 960.153 0 940.192 0 915.568C0 890.944 19.9627 870.983 44.5853 870.983C69.208 870.983 89.1693 890.944 89.1693 915.568Z" fill="white"/>
<path d="M904.516 207.385C904.516 321.924 811.665 414.774 697.127 414.774C582.588 414.774 489.737 321.924 489.737 207.385C489.737 92.8492 582.588 -0.000235694 697.127 -0.000235694C811.665 -0.000235694 904.516 92.8492 904.516 207.385Z" fill="#FF6765"/>
<path d="M1435.39 778.57C1435.39 871.23 1360.27 946.348 1267.6 946.348C1174.95 946.348 1099.83 871.23 1099.83 778.57C1099.83 685.91 1174.95 610.793 1267.6 610.793C1360.27 610.793 1435.39 685.91 1435.39 778.57Z" fill="#FF6765"/>
<path d="M1007.02 822.976C1007.02 932.604 918.147 1021.48 808.517 1021.48C698.888 1021.48 610.015 932.604 610.015 822.976C610.015 713.347 698.888 624.475 808.517 624.475C918.147 624.475 1007.02 713.347 1007.02 822.976Z" fill="#00BDED"/>
<path d="M1413.87 159.256C1413.87 245.974 1343.56 316.274 1256.84 316.274C1170.12 316.274 1099.83 245.974 1099.83 159.256C1099.83 72.533 1170.12 2.23967 1256.84 2.23967C1343.56 2.23967 1413.87 72.533 1413.87 159.256" fill="#00BDED"/>
<path d="M663.157 570.609C663.157 656.673 593.389 726.442 507.324 726.442C421.259 726.442 351.489 656.673 351.489 570.609C351.489 484.545 421.259 414.774 507.324 414.774C593.389 414.774 663.157 484.545 663.157 570.609Z" fill="#E8CA1A"/>
<path d="M1612.88 456.348C1612.88 538.152 1546.57 604.467 1464.76 604.467C1382.96 604.467 1316.64 538.152 1316.64 456.348C1316.64 374.544 1382.96 308.229 1464.76 308.229C1546.57 308.229 1612.88 374.544 1612.88 456.348" fill="#E8CA1A"/>
<path d="M1188.64 456.82C1188.64 548.947 1113.96 623.632 1021.83 623.632C929.704 623.632 855.02 548.947 855.02 456.82C855.02 364.692 929.704 290.006 1021.83 290.006C1113.96 290.006 1188.64 364.692 1188.64 456.82" fill="#0089D0"/>
<path d="M746.851 319.483C747.155 321.471 745.713 323.338 743.632 323.655L687.352 332.232C685.271 332.55 683.339 331.196 683.036 329.21L682.251 324.051C681.947 322.063 683.388 320.195 685.469 319.877L741.749 311.3C743.831 310.983 745.761 312.336 746.065 314.324L746.851 319.483" fill="white"/>
<path d="M743.369 338.201C743.672 340.189 742.557 342.008 740.881 342.264L695.521 349.176C693.844 349.432 692.24 348.028 691.937 346.041L691.151 340.883C690.848 338.896 691.961 337.077 693.639 336.821L738.999 329.908C740.675 329.653 742.28 331.056 742.584 333.044L743.369 338.201" fill="white"/>
<path d="M731.031 348.891C732.047 355.555 727.468 361.779 720.804 362.795C714.14 363.811 707.915 359.232 706.899 352.568" fill="white"/>
<path d="M677.795 302.769L744.608 292.587C744.619 292.251 744.601 291.807 744.519 291.264C744.403 290.5 744.245 289.972 744.117 289.647L741.595 289.252L741.344 285.863C739.848 265.669 749.448 247.804 756.459 234.759C758.841 230.323 760.9 226.492 761.988 223.539L762.033 223.42C762.444 222.4 762.841 221.344 763.215 220.283L763.232 220.231C767.321 208.559 768.483 195.839 766.595 183.443C765.073 173.461 761.701 164.069 756.576 155.528C751.629 147.284 745.263 140.173 737.653 134.396C730.056 128.628 721.604 124.479 712.532 122.064C703.152 119.569 693.511 119.047 683.877 120.516C674.244 121.985 665.196 125.355 656.985 130.531C649.044 135.537 642.212 142.016 636.677 149.787C631.136 157.568 627.176 166.252 624.909 175.596C622.56 185.275 622.141 195.245 623.663 205.229C625.736 218.828 631.369 231.567 639.957 242.069L640.037 242.171C641.973 244.691 645.089 247.765 648.699 251.323C659.399 261.877 674.053 276.331 678.424 296.111L678.884 298.192L677.524 299.788C677.445 299.923 677.227 300.532 677.373 301.496C677.464 302.084 677.643 302.505 677.795 302.769V302.769ZM747.196 300.851L678.239 311.361C673.843 312.032 669.747 308.265 668.912 302.787C668.563 300.497 668.849 298.232 669.681 296.357C665.397 279.82 652.319 266.919 642.688 257.419C638.876 253.659 635.583 250.409 633.289 247.437C623.755 235.76 617.5 221.611 615.2 206.519C613.509 195.429 613.977 184.345 616.591 173.577C619.115 163.169 623.528 153.495 629.704 144.821C635.889 136.137 643.531 128.892 652.42 123.288C661.633 117.481 671.783 113.701 682.587 112.053C693.392 110.407 704.207 110.991 714.732 113.792C724.887 116.493 734.34 121.132 742.832 127.579C751.311 134.019 758.405 141.939 763.917 151.123C769.619 160.624 773.367 171.064 775.056 182.155C776.124 189.155 776.328 196.237 775.664 203.211C775.168 208.399 774.193 213.533 772.755 218.529L773.055 218.599L771.269 223.181C770.867 224.321 770.441 225.456 770 226.556C768.7 230.061 766.521 234.117 764 238.811C757.763 250.417 749.319 266.131 749.768 282.992C751.155 284.244 752.432 286.371 752.981 289.973C754.009 296.721 750.817 300.299 747.196 300.851" fill="white"/>
<path d="M679.353 90.8324C677.016 91.1884 674.833 89.5831 674.476 87.2471L669.248 52.9337C668.892 50.6004 670.497 48.4137 672.835 48.067C675.171 47.707 677.355 49.3071 677.711 51.6538L682.94 85.9564C683.296 88.2937 681.691 90.4764 679.353 90.8324Z" fill="white"/>
<path d="M827.636 170.378L793.329 175.606C790.993 175.962 788.809 174.357 788.453 172.021C788.097 169.683 789.703 167.499 792.04 167.143L826.347 161.914C828.683 161.558 830.867 163.165 831.223 165.501C831.579 167.837 829.973 170.022 827.636 170.378Z" fill="white"/>
<path d="M595.955 205.688L561.648 210.917C559.311 211.273 557.128 209.667 556.772 207.329C556.416 204.993 558.021 202.811 560.359 202.455L594.665 197.225C597.001 196.869 599.184 198.476 599.541 200.812C599.897 203.149 598.291 205.332 595.955 205.688Z" fill="white"/>
<path d="M751.957 99.8724C750.988 100.019 749.965 99.8364 749.067 99.2817C747.055 98.0417 746.431 95.4031 747.672 93.3924L765.897 63.8537C767.139 61.8537 769.776 61.227 771.788 62.467C773.8 63.707 774.424 66.3471 773.183 68.3604L754.957 97.8871C754.269 99.0004 753.156 99.6897 751.957 99.8724Z" fill="white"/>
<path d="M611.869 121.222C610.671 121.406 609.403 121.082 608.416 120.223L582.22 97.4616C580.436 95.9123 580.245 93.2084 581.796 91.4244C583.347 89.6391 586.049 89.4497 587.833 90.999L614.029 113.762C615.815 115.312 616.004 118.014 614.453 119.799C613.76 120.596 612.837 121.075 611.869 121.222Z" fill="white"/>
<path d="M1204.57 241.246L1262.89 253.252C1284.09 246.563 1299.97 228.995 1304.47 207.206C1309.91 180.778 1297.08 153.484 1273.28 140.828C1271.91 140.098 1271.19 138.547 1271.49 137.023L1282.04 85.8203C1282.43 83.9203 1284.29 82.6989 1286.19 83.0896L1287.2 83.299C1290.33 83.943 1293.4 81.9203 1294.04 78.787L1294.51 76.5069C1295.16 73.3869 1293.13 70.3203 1290 69.6669L1252.19 61.8804C1250.67 61.5737 1249.12 61.867 1247.83 62.7203C1246.53 63.5737 1245.65 64.8803 1245.35 66.387L1244.88 68.6669C1244.23 71.8003 1246.25 74.8669 1249.37 75.5069L1250.4 75.7203C1251.31 75.907 1252.11 76.4536 1252.63 77.227C1253.13 78.0003 1253.32 78.9603 1253.13 79.8669L1242.59 131.072C1242.28 132.598 1240.99 133.732 1239.44 133.862C1212.57 136.087 1190.01 156.098 1184.57 182.524C1180.09 204.315 1187.75 226.731 1204.57 241.246V241.246ZM1263.07 260.379C1262.83 260.379 1262.6 260.356 1262.36 260.308L1202.28 247.939C1201.71 247.822 1201.19 247.566 1200.73 247.192C1181.47 231.038 1172.64 205.715 1177.71 181.108C1183.59 152.519 1207.45 130.666 1236.23 127.136L1245.6 81.6537C1240.05 79.3337 1236.75 73.347 1238 67.2537L1238.47 64.9736C1239.16 61.6269 1241.11 58.7337 1243.97 56.8537C1246.83 54.9737 1250.25 54.3204 1253.6 55.0137L1291.43 62.8003C1298.35 64.2136 1302.81 71.0136 1301.39 77.9336L1300.92 80.2137C1299.67 86.2603 1294.32 90.4376 1288.37 90.4376H1288.25L1278.89 135.918C1303.93 150.528 1317.23 180.031 1311.33 208.619C1306.28 233.227 1288.16 253.003 1264.08 260.232C1263.75 260.33 1263.41 260.379 1263.07 260.379" fill="white"/>
<path d="M1324.93 115.615C1324.05 119.904 1319.87 122.663 1315.57 121.781C1311.28 120.899 1308.52 116.708 1309.41 112.419C1310.29 108.131 1314.48 105.371 1318.77 106.253C1323.05 107.136 1325.81 111.327 1324.93 115.615Z" fill="#FCFCFC"/>
<path d="M1344.8 99.8485C1344.15 103.039 1341.03 105.092 1337.84 104.435C1334.65 103.779 1332.6 100.66 1333.25 97.4712C1333.91 94.2805 1337.03 92.2271 1340.21 92.8831C1343.4 93.5418 1345.45 96.6578 1344.8 99.8485Z" fill="#FCFCFC"/>
<path d="M1192.32 188.996C1192.32 188.996 1258.92 216.811 1295.37 183.62C1295.87 183.168 1296.36 182.705 1296.85 182.228C1296.85 182.228 1305.12 230.605 1256.24 241.763L1205.85 231.109C1205.85 231.109 1187.05 210.053 1192.32 188.996Z" fill="white"/>
<path d="M1048.21 344.437C1047.96 344.437 1047.77 344.531 1047.67 344.597C1047.53 344.681 1047.3 344.877 1047.22 345.233L998.137 567.016C998.057 567.372 998.188 567.648 998.272 567.78C998.356 567.913 998.552 568.148 998.909 568.225L1050.09 579.552H1050.09C1050.44 579.629 1050.72 579.501 1050.85 579.417C1050.99 579.332 1051.22 579.137 1051.3 578.781L1100.39 356.999C1100.47 356.643 1100.33 356.367 1100.25 356.235C1100.16 356.101 1099.97 355.868 1099.61 355.789L1048.43 344.463L1048.21 344.437ZM1050.32 584.593C1049.88 584.593 1049.44 584.544 1049 584.448L997.825 573.121C996.252 572.772 994.909 571.833 994.044 570.475C993.179 569.116 992.893 567.503 993.241 565.932L1042.33 344.151C1042.67 342.577 1043.61 341.235 1044.97 340.369C1046.33 339.503 1047.95 339.22 1049.52 339.568L1100.69 350.893C1102.27 351.241 1103.61 352.18 1104.48 353.54C1105.35 354.897 1105.63 356.511 1105.28 358.083L1056.19 579.865C1055.85 581.435 1054.91 582.777 1053.55 583.644C1052.57 584.269 1051.45 584.593 1050.32 584.593" fill="white"/>
<path d="M1038.55 369.013L1065.8 375.044L1067.01 369.565L1039.76 363.535L1038.55 369.013Z" fill="white"/>
<path d="M1033.19 395.211L1052.54 399.494L1053.75 394.019L1034.4 389.736L1033.19 395.211Z" fill="white"/>
<path d="M1026.97 421.32L1054.22 427.351L1055.43 421.872L1028.18 415.841L1026.97 421.32Z" fill="white"/>
<path d="M1021.61 447.518L1040.96 451.8L1042.17 446.324L1022.82 442.044L1021.61 447.518Z" fill="white"/>
<path d="M1015.45 473.369L1042.7 479.4L1043.91 473.923L1016.66 467.891L1015.45 473.369Z" fill="white"/>
<path d="M1010.09 499.567L1029.44 503.851L1030.65 498.375L1011.3 494.093L1010.09 499.567" fill="white"/>
<path d="M1003.91 525.535L1031.16 531.563L1032.37 526.087L1005.12 520.055L1003.91 525.535" fill="white"/>
<path d="M998.545 551.732L1017.9 556.015L1019.11 550.539L999.757 546.256L998.545 551.732Z" fill="white"/>
<path d="M974.836 379.728L1004.6 386.316L999.673 356.367L991.937 354.653L974.836 379.728ZM1007.53 392.04C1007.35 392.04 1007.17 392.02 1006.99 391.981L970.276 383.855C969.389 383.657 968.677 382.996 968.416 382.127L968.366 381.964C968.149 381.24 968.271 380.456 968.697 379.831L988.75 350.427C989.329 349.58 990.365 349.175 991.364 349.391L1002.41 351.837C1003.41 352.059 1004.18 352.868 1004.35 353.879L1010.12 389C1010.24 389.745 1010.02 390.505 1009.52 391.069L1009.41 391.196C1008.93 391.739 1008.24 392.04 1007.53 392.04" fill="white"/>
<path d="M995.084 350.063L998.9 350.908L998.048 345.718L995.084 350.063ZM1001.97 356.662C1001.79 356.662 1001.61 356.643 1001.43 356.603L990.385 354.158C989.572 353.979 988.902 353.407 988.596 352.634C988.289 351.86 988.386 350.986 988.856 350.298L995.489 340.571C996.533 339.039 998.068 338.324 999.609 338.667C1001.14 339.007 1002.24 340.303 1002.54 342.132L1004.45 353.75C1004.58 354.57 1004.3 355.404 1003.7 355.976C1003.23 356.422 1002.61 356.662 1001.97 356.662Z" fill="white"/>
<path d="M942.579 520.216L974.701 527.324L1004.56 392.432L972.433 385.321L942.579 520.216ZM976.611 532.821C976.431 532.821 976.248 532.803 976.065 532.763L939.048 524.571C938.399 524.427 937.833 524.032 937.474 523.471C937.117 522.909 936.998 522.231 937.141 521.581L968.08 381.789C968.224 381.14 968.62 380.575 969.18 380.217C969.741 379.86 970.42 379.74 971.069 379.883L1008.09 388.077C1009.44 388.377 1010.29 389.715 1009.99 391.067L979.056 530.856C978.796 532.025 977.76 532.821 976.611 532.821Z" fill="white"/>
<path d="M939.388 534.64L938.888 536.896C938.856 537.028 937.041 544.775 940.756 550.728C942.82 554.037 946.285 556.251 951.053 557.305C956 558.4 960.208 557.859 963.565 555.699C969.24 552.044 970.789 545.009 970.804 544.937L970.808 544.917L971.509 541.749L939.388 534.64ZM955.809 562.876C953.951 562.876 952.003 562.651 949.969 562.201C943.819 560.84 939.279 557.859 936.477 553.341C931.655 545.568 933.908 536.151 934.007 535.753L935.033 531.108C935.177 530.459 935.573 529.893 936.133 529.537C936.693 529.179 937.375 529.059 938.023 529.203L975.041 537.395C976.392 537.695 977.247 539.033 976.947 540.384L975.705 545.992C975.589 546.531 973.615 555.192 966.279 559.915C963.216 561.885 959.711 562.876 955.809 562.876Z" fill="white"/>
<path d="M954.6 522.872L962.204 524.553L992.029 389.793L984.425 388.111L954.6 522.872ZM964.112 530.051C963.933 530.051 963.751 530.032 963.568 529.991L951.069 527.225C950.42 527.081 949.855 526.687 949.497 526.125C949.139 525.565 949.02 524.885 949.163 524.236L980.072 384.58C980.372 383.228 981.715 382.377 983.061 382.673L995.56 385.439C996.209 385.584 996.776 385.979 997.133 386.54C997.491 387.1 997.611 387.779 997.467 388.429L966.557 528.085C966.299 529.255 965.263 530.051 964.112 530.051" fill="white"/>
<path d="M940.471 529.744L972.593 536.854L973.619 532.22L941.495 525.112L940.471 529.744ZM974.5 542.35C974.319 542.35 974.137 542.33 973.957 542.291L936.939 534.099C936.289 533.954 935.724 533.559 935.367 532.998C935.009 532.436 934.889 531.758 935.032 531.108L937.141 521.582C937.441 520.23 938.783 519.376 940.131 519.675L977.149 527.867C977.799 528.011 978.364 528.406 978.723 528.967C979.08 529.527 979.199 530.207 979.056 530.856L976.947 540.384C976.804 541.035 976.408 541.599 975.847 541.956C975.441 542.215 974.973 542.35 974.5 542.35" fill="white"/>
<path d="M1455.37 433.623C1455.37 431.92 1459.72 429.447 1466.53 429.447C1473.36 429.447 1477.71 431.92 1477.71 433.623C1477.71 435.324 1473.36 437.797 1466.53 437.797C1459.72 437.797 1455.37 435.324 1455.37 433.623ZM1357.71 431.101C1384.05 422.881 1447.33 399.068 1464.6 392.532L1576.35 430.681L1466.53 478.321L1394.03 446.86L1455.25 438.781C1457.92 440.424 1461.92 441.437 1466.53 441.437C1474.97 441.437 1481.35 438.076 1481.35 433.623C1481.35 429.168 1474.97 425.808 1466.53 425.808C1459.25 425.808 1453.53 428.309 1452.09 431.856L1381.05 441.229L1357.71 431.101ZM1527.01 516.128C1527.01 518.999 1524.67 521.333 1521.8 521.333H1419.15C1416.28 521.333 1413.93 518.999 1413.93 516.128V463.435L1465.09 485.627C1465.56 485.828 1466.04 485.928 1466.53 485.928C1467.04 485.928 1467.52 485.828 1467.99 485.627L1527.01 460.023V516.128ZM1374.75 500.099L1378.49 477.876C1378.71 476.599 1378.23 475.307 1377.24 474.477C1376.61 473.959 1376.27 473.201 1376.27 472.396C1376.27 470.904 1377.48 469.688 1378.97 469.688C1380.47 469.688 1381.68 470.904 1381.68 472.396C1381.68 473.229 1381.32 473.823 1381.01 474.175C1380.32 474.968 1380 476.023 1380.15 477.064L1383.33 500.099H1374.75ZM1376.88 462.629C1372.37 463.593 1368.99 467.604 1368.99 472.396C1368.99 474.604 1369.71 476.715 1371.01 478.436L1366.84 503.133C1366.67 504.189 1366.96 505.271 1367.65 506.089C1368.35 506.908 1369.36 507.379 1370.44 507.379H1387.51C1388.56 507.379 1389.56 506.924 1390.25 506.131C1390.95 505.336 1391.25 504.283 1391.12 503.239L1387.56 477.493C1388.47 475.96 1388.96 474.201 1388.96 472.396C1388.96 468.792 1387.04 465.636 1384.16 463.879V450.519L1406.65 460.276V516.128C1406.65 523.013 1412.25 528.613 1419.15 528.613H1521.8C1528.69 528.613 1534.29 523.013 1534.29 516.128V456.864L1587.87 433.615C1589.25 433.017 1590.12 431.632 1590.07 430.128C1590 428.627 1589.03 427.316 1587.6 426.831L1465.72 385.22C1464.92 384.944 1464.04 384.961 1463.25 385.261C1421.52 401.063 1352.99 426.253 1346.63 426.636C1344.91 426.651 1343.44 427.857 1343.09 429.535C1342.75 431.224 1343.63 432.929 1345.2 433.615L1376.88 447.359V462.629" fill="white"/>
<path d="M1298.33 787.246L1241.53 854.602L1177.84 744.706L1298.33 787.246ZM1323.93 767.872L1327.15 813.01L1308.23 783.352L1307.99 783.058L1307.72 782.732L1307.47 782.5L1307.25 782.331L1307.01 782.158C1306.85 782.06 1306.69 781.991 1306.53 781.919L1306.25 781.779L1306.24 781.775L1213.49 749.026L1323.93 767.872ZM1367.68 742.403L1327.09 760.506L1216.56 741.646L1367.68 742.403ZM1290.72 808.371L1294.09 804.366L1304.51 792.008L1322.68 820.507L1290.72 808.371ZM1169.17 733.614L1169.12 733.622L1168.89 733.643C1168.72 733.655 1168.55 733.667 1168.37 733.702L1168.33 733.712L1168.24 733.744L1168.03 733.804C1167.69 733.907 1167.37 734.042 1167.08 734.227L1167.04 734.262C1166.75 734.455 1166.48 734.691 1166.25 734.954L1166.17 735.024L1166.15 735.074L1166.04 735.208L1166 735.26C1165.88 735.439 1165.76 735.626 1165.67 735.824L1165.64 735.902L1165.61 735.974L1165.53 736.155C1165.49 736.274 1165.44 736.391 1165.41 736.515L1165.4 736.534L1165.39 736.655C1165.35 736.824 1165.31 736.992 1165.29 737.171V737.244V737.438C1165.29 737.62 1165.29 737.802 1165.31 737.979L1165.33 738.09L1165.36 738.242L1165.4 738.431L1165.47 738.684L1165.48 738.726C1165.55 738.936 1165.63 739.143 1165.73 739.336L1165.76 739.382L1165.79 739.407L1165.8 739.466L1237.57 863.303C1238.21 864.4 1239.35 865.119 1240.6 865.23L1240.95 865.246C1242.09 865.246 1243.19 864.743 1243.92 863.86L1285.39 814.684L1330.68 831.882L1330.91 831.968C1331.36 832.136 1331.83 832.218 1332.28 832.218C1333.44 832.218 1334.56 831.707 1335.32 830.77C1336.16 829.726 1336.36 828.347 1335.96 827.111L1331.68 766.991L1387.37 742.158C1389.04 741.41 1389.97 739.596 1389.6 737.798C1389.21 736.002 1387.64 734.714 1385.8 734.703L1169.2 733.614H1169.17" fill="white"/>
<path d="M925.988 927.545C925.988 935.759 919.305 942.441 911.097 942.441H705.936C697.725 942.441 691.045 935.759 691.045 927.545C691.045 919.335 697.725 912.653 705.936 912.653H911.097C919.305 912.653 925.988 919.335 925.988 927.545ZM702.995 710.437C702.995 706.617 706.103 703.509 709.924 703.509C713.744 703.509 716.849 706.617 716.849 710.437V742.235L716.845 742.309L716.849 742.381V859.749L716.845 859.823L716.849 859.897V902.604H705.936C704.937 902.604 703.961 902.681 702.995 902.795V710.437ZM742.787 843.933C751.549 843.933 758.677 851.063 758.677 859.823C758.677 868.589 751.549 875.719 742.787 875.719C734.021 875.719 726.893 868.589 726.893 859.823C726.893 851.063 734.021 843.933 742.787 843.933ZM742.787 726.419C751.544 726.419 758.671 733.541 758.677 742.297L758.676 742.309L758.677 742.316C758.671 751.076 751.544 758.2 742.787 758.2C734.021 758.2 726.893 751.071 726.893 742.309C726.893 733.548 734.021 726.419 742.787 726.419ZM872.252 813.967C863.493 813.967 856.363 806.84 856.363 798.079C856.363 789.319 863.493 782.191 872.252 782.191C881.017 782.191 888.147 789.319 888.147 798.079C888.147 806.84 881.017 813.967 872.252 813.967ZM810.555 798.079C810.555 789.319 817.683 782.191 826.445 782.191C835.205 782.191 842.332 789.319 842.332 798.079C842.332 806.84 835.205 813.967 826.445 813.967C817.683 813.967 810.555 806.84 810.555 798.079ZM852.253 857.311C850.985 844.188 839.897 833.885 826.445 833.885C812.989 833.885 801.899 844.188 800.633 857.311H768.599C767.331 844.188 756.243 833.885 742.787 833.885C736.799 833.885 731.291 835.947 726.897 839.367V801.432H800.747C802.4 814.151 813.281 824.015 826.445 824.015C836.361 824.015 844.985 818.417 849.348 810.219C853.712 818.417 862.337 824.015 872.252 824.015C878.243 824.015 883.751 821.953 888.147 818.533V857.311H852.253ZM810.555 859.823C810.555 851.063 817.683 843.933 826.445 843.933C835.205 843.933 842.332 851.063 842.332 859.823C842.332 868.589 835.205 875.719 826.445 875.719C817.683 875.719 810.555 868.589 810.555 859.823ZM826.445 885.765C839.897 885.765 850.985 875.465 852.253 862.335H888.147V902.604H726.897V880.284C731.291 883.707 736.799 885.765 742.787 885.765C756.243 885.765 767.331 875.465 768.599 862.335H800.633C801.899 875.465 812.988 885.765 826.445 885.765ZM763.701 757.589C768.424 764.036 776.028 768.248 784.615 768.248C797.779 768.248 808.657 758.381 810.311 745.661H846.556C848.209 758.381 859.089 768.248 872.252 768.248C878.243 768.248 883.751 766.188 888.147 762.765V777.624C883.751 774.203 878.243 772.143 872.252 772.143C862.337 772.143 853.712 777.74 849.348 785.935C844.985 777.74 836.361 772.143 826.445 772.143C812.705 772.143 801.457 782.885 800.589 796.408H726.897V762.768C731.291 766.188 736.799 768.248 742.787 768.248C751.375 768.248 758.977 764.036 763.701 757.589V757.589ZM784.615 726.419C793.377 726.419 800.507 733.548 800.507 742.309C800.507 751.071 793.377 758.2 784.615 758.2C775.852 758.2 768.724 751.071 768.724 742.309C768.724 733.548 775.852 726.419 784.615 726.419ZM872.252 726.419C881.017 726.419 888.147 733.548 888.147 742.309C888.147 751.071 881.017 758.2 872.252 758.2C863.493 758.2 856.363 751.071 856.363 742.309C856.363 733.548 863.493 726.419 872.252 726.419ZM898.195 798.079V710.437C898.195 706.617 901.303 703.509 905.124 703.509C908.944 703.509 912.049 706.617 912.049 710.437V902.655C911.731 902.643 911.416 902.604 911.097 902.604H898.195V798.079ZM905.124 693.461C895.76 693.461 888.147 701.077 888.147 710.437V721.856C883.751 718.431 878.243 716.371 872.252 716.371C858.516 716.371 847.268 727.113 846.399 740.639H810.468C809.6 727.113 798.352 716.371 784.615 716.371C776.028 716.371 768.424 720.584 763.701 727.031C758.977 720.584 751.375 716.371 742.787 716.371C736.799 716.371 731.291 718.431 726.897 721.849V710.437C726.897 701.077 719.283 693.461 709.924 693.461C700.56 693.461 692.947 701.077 692.947 710.437V906.297C685.793 910.688 680.997 918.557 680.997 927.545C680.997 941.3 692.187 952.489 705.936 952.489H911.097C924.847 952.489 936.036 941.3 936.036 927.545C936.036 917.747 930.34 909.272 922.097 905.196V710.437C922.097 701.077 914.483 693.461 905.124 693.461" fill="white"/>
<path d="M438.36 489.577C438.36 481.171 445.653 474.332 454.617 474.332H550.827C559.789 474.332 567.083 481.171 567.083 489.577V492.34C567.083 493.729 567.835 495.009 569.052 495.683C573.581 498.196 576.288 502.363 576.288 506.827V653.457C576.288 660.864 568.995 666.887 560.031 666.887H454.617C445.653 666.887 438.36 660.048 438.36 651.643V489.577ZM430.717 489.577V651.643C430.717 664.263 441.439 674.531 454.617 674.531H560.031C573.209 674.531 583.931 665.077 583.931 653.457V506.827C583.931 500.256 580.529 494.188 574.725 490.213V489.577C574.725 476.956 564.005 466.689 550.827 466.689H454.617C441.439 466.689 430.717 476.956 430.717 489.577" fill="white"/>
<path d="M459.764 487.648H552.675C554.991 488.168 556.52 489.096 557.22 490.405C557.831 491.551 557.853 492.995 557.684 494.228H519.612C517.501 494.228 515.791 495.939 515.791 498.049V557.152L502.944 545.423C502.213 544.756 501.289 544.424 500.368 544.424C499.416 544.424 498.465 544.776 497.729 545.48L485.785 556.883V498.049C485.785 495.939 484.075 494.228 481.964 494.228H460.779C456.801 490.712 456.873 489.145 456.876 489.133C457.035 488.716 458.424 487.963 459.764 487.648V487.648ZM456.943 501C457.627 501.564 458.488 501.872 459.372 501.872H478.143V565.813C478.143 567.344 479.055 568.727 480.461 569.328C480.944 569.535 481.456 569.636 481.961 569.636C482.928 569.636 483.876 569.271 484.603 568.579L500.424 553.472L517.035 568.637C518.152 569.657 519.767 569.923 521.155 569.311C522.54 568.7 523.433 567.328 523.433 565.813V501.872H560.601C562.131 501.872 563.513 500.961 564.113 499.556C564.416 498.855 566.972 492.531 563.996 486.872C562.723 484.445 559.923 481.301 553.825 480.079C553.579 480.031 553.327 480.004 553.075 480.004H459.372C459.151 480.004 458.928 480.025 458.708 480.064C457.919 480.203 450.957 481.589 449.484 487.187C447.825 493.492 454.688 499.143 456.943 501" fill="white"/>
<path d="M496.695 526.102C497.317 526.012 497.855 525.62 498.132 525.056L499.213 522.868L500.292 525.056C500.569 525.62 501.107 526.012 501.729 526.102L504.147 526.452L502.4 528.155C501.951 528.595 501.744 529.226 501.849 529.844L502.264 532.252L500.103 531.116C499.824 530.968 499.517 530.898 499.213 530.898C498.909 530.898 498.603 530.968 498.323 531.116L496.163 532.252L496.576 529.847C496.684 529.227 496.477 528.595 496.028 528.155L494.281 526.452L496.695 526.102ZM492.639 530.191L491.74 535.42C491.616 536.138 491.912 536.862 492.497 537.291C492.832 537.534 493.224 537.656 493.623 537.656C493.927 537.656 494.232 537.582 494.512 537.436L499.213 534.967L503.912 537.436C504.556 537.774 505.335 537.719 505.924 537.291C506.512 536.864 506.805 536.139 506.684 535.42L505.787 530.191L509.585 526.487C510.109 525.982 510.295 525.22 510.071 524.527C509.847 523.836 509.248 523.332 508.528 523.228L503.276 522.464L500.928 517.706C500.605 517.051 499.941 516.638 499.213 516.638C498.485 516.638 497.821 517.051 497.499 517.706L495.151 522.464L489.897 523.228C489.18 523.332 488.581 523.836 488.355 524.527C488.131 525.22 488.317 525.982 488.84 526.487L492.639 530.191" fill="white"/>
</svg>
