<svg width="536" height="654" viewBox="0 0 536 654" fill="none" xmlns="http://www.w3.org/2000/svg">
<ellipse cx="268" cy="411" rx="268" ry="243" fill="#F3F2FC"/>
<path d="M249.015 513.88C248.194 512.473 246.018 512.447 244.704 513.416C243.391 514.384 242.736 515.987 242.164 517.514C232.486 543.339 228.8 571.389 231.478 598.838C231.584 599.93 231.718 601.068 232.327 601.98C233.106 603.144 234.499 603.71 235.819 604.178C247.275 608.251 263.746 612.398 276.05 609.331C290.476 605.737 288.66 590.189 286.883 578.813C283.696 558.421 278.738 538.844 283.88 518.211L249.015 513.88Z" fill="#645D9E"/>
<path d="M338.962 509.497C339.783 508.089 341.959 508.063 343.274 509.032C344.586 509.999 345.241 511.602 345.814 513.13C355.491 538.956 359.177 567.005 356.499 594.454C356.393 595.545 356.259 596.685 355.65 597.597C354.873 598.761 353.479 599.325 352.159 599.794C340.703 603.868 324.231 608.018 311.929 604.95C297.501 601.353 299.317 585.805 301.095 574.429C304.281 554.037 309.239 534.459 304.098 513.826L338.962 509.497Z" fill="#645D9E"/>
<path d="M222.287 371.395C190.182 363.687 163.91 335.713 158.23 303.187C156.9 295.567 156.592 287.71 154.091 280.391C151.59 273.073 146.267 266.093 138.731 264.347C128.171 261.903 118.219 270.382 112.13 279.349C91.5765 309.614 93.6579 353.377 116.99 381.554C140.323 409.734 182.928 419.939 216.496 405.39L222.287 371.395Z" fill="#645D9E"/>
<path d="M346.936 354.827C364.136 356.159 381.016 361.485 395.87 370.262C403.55 374.799 410.888 380.469 415.278 388.234C418.395 393.749 419.871 400.066 420.416 406.377C421.7 421.227 417.878 436.475 409.735 448.965C392.215 475.842 357.19 486.887 325.192 484.538L346.936 354.827Z" fill="#474371"/>
<path d="M353.876 345.937C386.132 372.518 398.44 420.725 382.871 459.515C372.276 485.914 346.828 509.062 321.028 520.667C305.114 527.827 277.576 525.414 261.146 520.774C242.871 515.615 226.138 505.943 210.884 494.631C192.86 481.263 189.994 455.695 189.504 434.301C188.828 404.713 195.88 370.777 221.686 356.285L353.876 345.937Z" fill="#8F86E3"/>
<path d="M371.199 448.663C369.958 454.621 368.198 460.438 365.91 466.015C364.967 468.374 363.909 470.685 362.771 472.949C344.879 508.413 298.641 521.406 262.098 509.632C241.135 502.87 223.082 487.967 211.813 469.086C209.167 464.658 206.902 460.025 205.063 455.218C203.741 451.779 202.637 448.25 201.762 444.651C199.267 434.347 198.727 423.618 199.981 413.098C200.463 409.073 201.199 405.083 202.199 401.15C206.178 385.442 214.205 370.735 225.646 359.249L335.473 349.313C351.215 359.661 362.035 375.151 368.002 392.629C369.705 397.619 371.015 402.771 371.913 408.015C374.258 421.399 374.017 435.359 371.199 448.663Z" fill="#D2CEF3"/>
<path d="M256.447 355.043C256.494 354.629 256.534 354.193 256.571 353.741C256.883 354.254 257.231 354.745 257.61 355.221C257.505 355.207 257.399 355.198 257.294 355.183C257.011 355.141 256.73 355.087 256.447 355.043ZM328.142 241.215C331.038 233.375 320.339 224.746 313.414 229.894C306.115 235.319 300.803 242.071 296.905 249.625C294.646 248.034 291.639 247.333 288.143 247.935C279.731 249.386 271.339 250.939 262.945 252.477C262.493 252.559 262.069 252.679 261.659 252.815C256.93 249.507 251.357 247.55 244.73 247.822C241.167 247.97 238.315 249.575 236.483 251.926C231.693 245.634 226.143 239.893 220.146 234.746C217.307 232.309 213.531 236.035 216.029 238.862C227.123 251.41 233.359 267.721 237.129 283.883C241.33 301.897 241.762 320.782 240.231 339.159C239.863 343.577 239.371 347.982 238.807 352.378C238.247 356.746 237.315 361.166 239.606 365.265C243.949 373.037 255.479 372.895 263.251 373.585C281.405 375.193 299.934 372.825 317.223 367.146C323.187 365.187 325.21 359.25 322.665 353.775C314.818 336.903 313.333 316.322 314.647 298.042C316.051 278.557 321.397 259.475 328.142 241.215Z" fill="#645D9E"/>
<path d="M401.114 0.856842C395.606 0.252869 390.031 0.611481 384.694 2.16083C375.475 4.83682 369.743 10.5995 363.794 18.0235C359.651 23.1955 355.071 34.3008 348.923 36.6888C342.962 38.9995 326.763 31.4248 320.265 30.2701C302.887 27.1861 284.575 25.6115 267.441 25.1475C249.885 24.6688 232.221 25.6835 214.937 29.0955C207.002 30.6621 196.465 37.7075 189.485 33.7182C182.541 29.7502 178.363 16.4888 172.495 10.6048C160.317 -1.60849 140.446 -3.03784 125.519 5.10751C121.814 7.13019 118.307 9.72215 115.779 13.2195C113.646 16.1728 112.279 19.6702 111.309 23.2382C107.859 35.9115 110.198 47.0728 114.133 59.1261C117.378 69.0688 124.023 76.1555 124.75 85.4781C126.847 112.39 126.239 136.856 132.926 163.606C137.654 182.522 145.243 200.956 156.729 216.434C185.681 255.448 232.23 262.54 276.059 263.862C316.761 265.09 355.422 247.369 384.919 218.313C406.781 196.775 417.829 165.386 421.758 134.373C424.005 116.645 417.299 90.4582 425.147 75.8795C438.618 50.8502 449.302 19.1995 416.153 4.89813C411.361 2.83014 406.266 1.42218 401.114 0.856842Z" fill="#645D9E"/>
<path d="M286.461 183.162C249.797 183.162 217.203 167.691 197.002 140.689C196.463 139.969 196.581 138.923 197.263 138.354C197.945 137.783 198.937 137.909 199.479 138.63C219.077 164.825 250.771 179.835 286.461 179.835C286.554 179.835 286.639 179.835 286.733 179.835C300.185 179.807 345.507 177.201 363.83 144.867C364.279 144.077 365.241 143.822 365.997 144.293C366.741 144.763 366.989 145.785 366.542 146.573C347.366 180.406 300.61 183.133 286.738 183.162C286.646 183.162 286.554 183.162 286.461 183.162Z" fill="#201C1D"/>
<path d="M374.063 100.709C373.023 101.983 372.603 103.723 373.95 104.889C376.901 107.438 380.33 101.703 378.211 99.5807C377.101 98.4674 375.207 99.306 374.063 100.709Z" fill="#645D9E"/>
<path d="M394.914 98.8674C397.226 97.7274 398.084 92.7994 394.99 91.7287C390.678 90.238 387.982 93.5993 391.18 97.4593C392.566 99.13 393.886 99.3754 394.914 98.8674Z" fill="#645D9E"/>
<path d="M402.155 121.785C406.647 121.683 408.193 116.501 404.225 113.821C399.421 110.571 394.931 118.274 399.359 121.135C400.185 121.667 401.187 121.807 402.155 121.785Z" fill="#645D9E"/>
<path d="M379.002 126.585C381.957 129.933 387.657 125.447 384.834 121.626C382.003 117.793 375.67 122.806 379.002 126.585Z" fill="#645D9E"/>
<path d="M157.984 97.3981C159.972 96.2568 161.302 93.5608 158.694 91.8714C155.67 89.9128 151.696 94.2368 154.346 97.1568C155.303 98.2114 156.767 98.0968 157.984 97.3981Z" fill="#645D9E"/>
<path d="M145.468 118.182C150.768 115.77 146.07 108.711 142.067 112.599C139.287 115.301 141.863 119.822 145.468 118.182Z" fill="#645D9E"/>
<path d="M178.332 104.456C176.966 101.473 172.183 101.168 170.639 104.098C168.557 108.049 173.592 112.049 176.915 109.692C178.472 108.586 179.15 106.237 178.332 104.456Z" fill="#645D9E"/>
<path d="M249.767 124.183C252.741 121.433 252.087 114.021 246.253 117.345C245.071 118.018 244.203 119.286 243.871 120.61C243.387 122.543 244.046 124.597 246.553 125.082C247.873 125.339 248.955 124.934 249.767 124.183Z" fill="#2C461E"/>
<path d="M304.047 122.298C303.883 114.026 293.319 117.239 296.152 124.195C297.07 126.449 299.859 127.814 301.902 126.642C303.332 125.822 304.08 124.015 304.047 122.298Z" fill="#2C461E"/>
<path d="M377.527 28.3567C366.318 47.6033 381.458 71.6406 400.885 75.8113C423.249 80.6126 440.311 50.4033 431.127 30.446C424.188 15.3673 408.307 8.33529 393.46 14.8926C385.815 18.2686 380.646 23.0007 377.527 28.3567Z" fill="white"/>
<path d="M413.667 58.2675C429.661 58.3102 436.133 37.4222 423.098 27.5436C411.503 18.7582 394.25 29.8809 398.559 44.9275C400.723 52.4795 405.681 58.2475 413.667 58.2675Z" fill="#100F0D"/>
<path d="M419.897 45.278C424.286 48.41 430.498 43.4714 428.557 38.0967C427.005 33.7941 421.922 31.7581 419.199 35.4794C416.931 38.5781 416.486 42.8447 419.897 45.278Z" fill="white"/>
<path d="M121.679 25.3286C110.47 44.578 125.61 68.6127 145.036 72.7847C167.4 77.5874 184.463 47.3767 175.279 27.4207C168.34 12.3407 152.459 5.30997 137.612 11.8673C129.967 15.2433 124.798 19.9753 121.679 25.3286Z" fill="white"/>
<path d="M157.821 55.2421C173.813 55.2835 180.285 34.3955 167.249 24.5168C155.655 15.7315 138.402 26.8555 142.713 41.9008C144.877 49.4515 149.833 55.2208 157.821 55.2421Z" fill="#100F0D"/>
<path d="M164.05 42.2528C168.438 45.3834 174.648 40.4434 172.708 35.0701C171.156 30.7674 166.074 28.7314 163.351 32.4528C161.083 35.5501 160.638 39.8194 164.05 42.2528Z" fill="white"/>
<path d="M292.282 337.081C301.41 333.666 309.466 327.961 318.016 323.287C326.568 318.614 336.158 314.878 345.839 315.978C355.523 317.077 365.048 324.318 365.918 334.023C366.49 340.391 363.394 346.533 359.619 351.691C347.187 368.681 327.198 378.601 306.979 384.465C288.164 389.922 268.096 392.397 248.932 388.338C229.767 384.281 211.587 373.086 201.942 356.035C198.099 349.241 195.67 340.938 198.463 333.65C206.283 313.239 224.506 327.197 236.568 332.647C253.886 340.475 274.054 343.898 292.282 337.081Z" fill="#8F86E3"/>
<path d="M371.912 408.015C363.184 413.202 352.801 416.513 344.131 418.974C325.871 424.125 306.794 426.102 287.97 428.069C257.647 431.231 224.047 430.989 199.98 413.098C200.463 409.073 201.199 405.083 202.199 401.15C210.892 407.382 221.438 411.373 231.624 413.603C250.806 417.801 270.894 415.742 290.19 413.454C306.99 411.465 323.915 409.487 340.232 404.829C347.604 402.725 354.778 400.081 361.54 396.458C363.782 395.251 365.91 393.939 368.002 392.629C369.704 397.619 371.015 402.771 371.912 408.015Z" fill="#8F86E3"/>
<path d="M371.199 448.663C369.958 454.621 368.198 460.438 365.91 466.015C359.608 468.374 353.238 470.489 346.764 472.327C327.687 477.757 307.887 481.067 288.062 481.734C268.939 482.378 249.53 480.527 231.027 475.571C224.415 473.813 218.034 471.627 211.812 469.086C209.167 464.658 206.902 460.025 205.063 455.218C231.499 465.809 261.188 469.799 289.086 468.326C308.082 467.326 326.826 463.658 344.97 458.058C353.538 455.414 361.999 452.425 370.291 449.043C370.59 448.917 370.888 448.79 371.199 448.663Z" fill="#8F86E3"/>
<path d="M320.319 423.057C313.922 426.29 307.306 429.355 301.976 434.15C296.646 438.946 292.7 445.899 293.443 453.034C294.746 465.573 309.171 472.402 321.764 473.031C351.376 474.51 376.362 456.123 385.908 428.422C390.583 414.862 391.471 399.909 388.464 385.883C387.067 379.363 385.112 373.887 381.259 368.511C380.283 367.15 364.388 352.527 363.426 357.146C360.648 370.449 363.328 382.155 357.606 394.79C351.64 407.962 332.94 416.681 320.319 423.057Z" fill="#645D9E"/>
</svg>
