<svg width="4000" height="2249" viewBox="0 0 4000 2249" fill="none" xmlns="http://www.w3.org/2000/svg">
<path d="M3465.83 1104.03C3465.83 1104.03 3494.24 1092.73 3512.61 1124.28C3530.97 1155.85 3521.04 1152.84 3529.97 1168.62C3538.92 1184.41 3543.21 1229.24 3546.29 1253.48C3577.78 1500.73 3201.06 1520.76 3348.17 1205.62C3361.97 1176.06 3373.64 1158.29 3386.05 1126.75C3398.46 1095.2 3450.94 1096.41 3465.83 1104.03Z" fill="#B75742"/>
<path d="M3385.23 1335L3347.24 1320.45C3347.24 1320.45 3332.16 1341.58 3327.64 1394.42C3323.12 1447.26 3327.64 1478.33 3327.64 1478.33H3370.61L3385.23 1335" fill="#355389"/>
<path d="M3461.35 1306.64C3448.47 1308.09 3352.58 1298.11 3347.24 1320.45C3318.53 1440.58 3358.02 1606.41 3368.11 1617.48C3378.2 1628.55 3542.97 1592.51 3542.97 1592.51C3542.97 1592.51 3568.83 1294.49 3461.35 1306.64Z" fill="#466EB6"/>
<path d="M3592.21 1183.49C3592.21 1183.49 3581.62 1177.96 3572 1158.41C3565.82 1145.88 3547.47 1129.81 3555.1 1127.21C3562.74 1124.61 3574.46 1145.82 3576.65 1139.73C3578.84 1133.67 3556.97 1087.76 3563.91 1085.41C3570.83 1083.05 3588.96 1127.71 3590.92 1122.27C3592.88 1116.83 3572.41 1077.82 3582.2 1074.49C3591.99 1071.17 3602.57 1122.51 3607.82 1120.72C3613.08 1118.94 3605.42 1079.76 3613.3 1077.09C3621.17 1074.4 3620.06 1125.53 3622.9 1124.06C3624.43 1123.26 3631.42 1098.5 3635.71 1100.36C3640.54 1102.45 3627.47 1153.29 3633.28 1164.49C3639.08 1175.7 3685.51 1314.98 3669.63 1332.39C3652.34 1351.34 3542.27 1394.82 3519.24 1387.35C3496.22 1379.87 3483.02 1354.91 3488.56 1339.58C3494.09 1324.23 3602.91 1289.77 3604.64 1284.97C3606.38 1280.15 3592.21 1183.49 3592.21 1183.49" fill="#F7A491"/>
<path d="M3601.03 1139.49C3604.36 1139.34 3607.64 1140.15 3610.79 1141.43C3611.25 1141.79 3621.68 1145.12 3626.17 1157.77C3621.21 1151.3 3615.71 1144.15 3601.03 1139.49" fill="#F48C7F"/>
<path d="M3829.36 2133.66H282.022C276.453 2133.66 271.939 2138.45 271.939 2144.34C271.939 2150.24 276.453 2155.02 282.022 2155.02H3829.36C3834.92 2155.02 3839.44 2150.24 3839.44 2144.34C3839.44 2138.45 3834.92 2133.66 3829.36 2133.66Z" fill="white"/>
<path d="M477.943 1344.02C477.943 1344.02 462.69 1550.25 462.69 1568.17C462.69 1586.08 527.615 1591.14 527.615 1591.14L547.465 1379.52L477.943 1344.02" fill="#466EB6"/>
<path d="M574.78 1293.83C574.78 1293.83 532.656 1269.1 497.928 1291.75C463.201 1314.41 453.744 1447.51 453.744 1447.51L564.989 1462.12L574.78 1293.83Z" fill="#86B1F2"/>
<path d="M832.024 1972.74C832.024 1972.74 810.737 2067.89 794.871 2082.83C779.005 2097.78 727.267 2126.35 740.805 2129.43C754.344 2132.49 854.536 2135.04 851.789 2116.74C849.042 2098.42 846.16 2086.74 846.16 2086.74L872.662 2018.78L832.024 1972.74Z" fill="#F47458"/>
<path d="M734.069 2133.32C758.504 2135.99 829.85 2138.8 850.638 2135.89C850.638 2135.89 854.536 2135.04 851.789 2116.74C851.118 2112.25 850.438 2108.18 849.794 2104.56C830.942 2110 789.883 2098.44 773.617 2096.06C755.948 2105.34 736.032 2119.19 729.608 2120.34C720.303 2122.03 720.311 2131.82 734.069 2133.32" fill="#13375B"/>
<path d="M1065.66 2052.5C1065.66 2052.5 1067.9 2076.57 1067.9 2087.19C1067.9 2097.79 1058.88 2127.72 1063.06 2132.3C1067.23 2136.88 1186.57 2136.31 1186.57 2132C1186.57 2127.69 1165.48 2114.64 1136.82 2105.66C1108.16 2096.68 1098.42 2061.89 1105.86 2041.9L1065.66 2052.5" fill="#F47458"/>
<path d="M1188.5 2132.3C1188.5 2128.27 1168.93 2115.96 1143.58 2107.46C1116.57 2117.46 1079.07 2109.22 1065 2106.27C1060.7 2118.6 1059.32 2130.3 1061.54 2132.72C1065.72 2137.3 1188.5 2136.61 1188.5 2132.3" fill="#13375B"/>
<path d="M936.129 1650.24L914.725 1671.05C914.725 1671.05 890.631 1742.56 889.228 1747.28C887.277 1753.84 809.229 2029.5 809.229 2029.5L863.602 2050.96C863.602 2050.96 917.516 1935.83 926.45 1895.84C935.384 1855.87 1024.72 1688.59 1024.72 1688.59L936.129 1650.24" fill="#86B1F2"/>
<path d="M1030.67 1692.68L1056.73 2058.04H1117.03C1117.03 2058.04 1138.62 1784.61 1131.17 1688.59L1030.67 1692.68" fill="#86B1F2"/>
<path d="M707.581 1438.1C707.581 1438.1 725.905 1536.29 741.989 1553.92C751.143 1563.95 776.092 1604.55 795.287 1604.55C810.564 1604.55 819.662 1605.78 822.228 1605.78C828.184 1605.78 821.483 1645.75 815.9 1651.88C815.9 1651.88 814.038 1657.99 802.872 1657.99C791.705 1657.99 732.521 1613.53 714.655 1593.95C696.787 1574.37 663.658 1467.47 663.658 1467.47L707.581 1438.1" fill="#F7A491"/>
<path d="M1001.64 1314.89C1001.64 1314.89 978.562 1344.27 948.04 1394.04C917.516 1443.81 839.51 1582 831.161 1591.14C829.14 1593.36 822.812 1597.82 822.812 1597.82C822.812 1597.82 811.859 1595.24 805.965 1597.61C800.206 1599.94 792.449 1612.16 795.179 1615.17C797.908 1618.15 808.438 1608.15 811.655 1608.26C814.875 1608.38 815.155 1608.36 815.155 1610.27C815.155 1612.16 802.127 1620.06 798.404 1621.14C794.683 1622.24 784.873 1638.76 786.742 1644.27C788.61 1649.76 788.479 1651.61 793.194 1651.61C797.908 1651.61 798.654 1655.69 802.623 1655.69C806.594 1655.69 807.587 1650.24 812.054 1652.42C816.521 1654.6 817.761 1654.06 831.657 1644.81C845.554 1635.56 871.486 1601.16 884.513 1586.88C897.54 1572.6 1016.53 1430.49 1016.53 1430.49L1001.64 1314.89" fill="#F47458"/>
<path d="M1052.14 1096.08C1052.14 1096.08 1023.73 1084.79 1005.36 1116.34C987 1147.89 996.925 1144.9 987.992 1160.67C979.058 1176.45 955.732 1173.19 955.732 1197.66C955.732 1222.14 966.155 1225.95 966.155 1225.95C966.155 1225.95 956.725 1244.99 967.147 1264.58C977.569 1284.16 1003.56 1301.02 1025.3 1298.3C1025.3 1298.3 1057.97 1317.93 1090.73 1308.66C1123.48 1299.38 1112.07 1299.38 1125.47 1299.38C1138.87 1299.38 1175.1 1279.26 1169.14 1249.89C1169.14 1249.89 1191.22 1221.13 1169.8 1197.66C1148.38 1174.18 1144.33 1150.33 1131.92 1118.79C1119.51 1087.24 1067.03 1088.45 1052.14 1096.08" fill="#184655"/>
<path d="M648.026 1303.77C652.244 1305.37 669.498 1318.84 679.547 1340.06C689.597 1361.26 716.142 1449.93 716.142 1449.93L672.455 1467.47L648.026 1303.77Z" fill="#50BFA5"/>
<path d="M428.165 2034.83C428.165 2034.83 420.968 2062.85 415.261 2069.11C409.553 2075.36 390.632 2099.64 395.285 2111.67C399.937 2123.71 515.235 2140.95 519.608 2136.14C523.981 2131.35 499.694 2111.05 485.922 2098.62C472.15 2086.17 462.286 2070.87 468.055 2052.31C473.824 2033.75 473.824 2035.58 473.824 2033.75C473.824 2031.9 428.165 2034.83 428.165 2034.83" fill="#F7A491"/>
<path d="M519.608 2136.14C524.826 2131.86 508.627 2112.69 485.151 2097.91C475.324 2097.9 462.219 2097.16 451.119 2094.13C433.741 2089.37 420.417 2072.86 416.465 2067.5C416.106 2068.06 388.157 2097.57 393.61 2111.67C398.262 2123.71 509.186 2144.72 519.608 2136.14Z" fill="#355389"/>
<path d="M619.47 2048.43C619.47 2048.43 621.599 2077.2 617.275 2084.68C612.95 2092.14 597.819 2121.74 606.252 2130.99C613.856 2139.32 719.472 2133.96 722.786 2128.24C726.1 2122.52 708.025 2105.43 692.109 2096.59C676.191 2087.73 663.518 2075.16 665.455 2055.66C667.391 2036.17 667.756 2037.95 667.391 2036.17C667.025 2034.38 619.47 2048.43 619.47 2048.43" fill="#F7A491"/>
<path d="M735.903 2132.85C741.411 2129.02 717.067 2104.89 691.217 2096.08C681.622 2098.41 668.688 2100.84 657.249 2100.52C639.342 2100.03 623.056 2087.11 618.133 2082.83C617.891 2083.45 593.833 2121.65 604.616 2131.4C613.036 2139.01 727.537 2138.68 735.903 2132.85" fill="#355389"/>
<path d="M627.18 1640.99L558.99 1857.55L480.773 2058.04L415.26 2039.99C415.26 2039.99 438.904 1901.02 461.113 1857.37C477.919 1824.34 489.653 1634.78 489.653 1634.78L627.18 1640.99" fill="#F47458"/>
<path d="M594.436 1677.44L618.061 2058.04H673.896C673.896 2058.04 698.282 1659.28 689.348 1621.35C680.416 1583.41 587.397 1591.98 587.397 1591.98L594.436 1677.44Z" fill="#B75742"/>
<path d="M648.026 1303.77C648.026 1303.77 576.07 1280.13 564.989 1281.66C552.859 1283.33 523.379 1300.45 523.379 1300.45C523.379 1300.45 525.191 1437.38 519.981 1476.09C514.769 1514.8 478.29 1638.82 478.29 1638.82C478.29 1638.82 529.658 1671.46 616.015 1660.86C702.371 1650.24 696.416 1627.4 696.416 1627.4C696.416 1627.4 688.226 1490.32 680.036 1429.93C671.848 1369.55 648.026 1303.77 648.026 1303.77" fill="#96D9C9"/>
<path d="M1136.39 1324.68C1136.39 1324.68 1098.05 1313.66 1054.49 1311C1031.94 1309.64 1001.64 1314.89 1001.64 1314.89C1001.64 1314.89 974.096 1382.62 965.906 1438.1C957.719 1493.58 913.05 1671.46 913.05 1671.46C913.05 1671.46 1003.87 1748.16 1136.39 1697.57V1324.68" fill="#F7A491"/>
<path d="M1033.15 1264.02C1033.15 1264.02 1034.35 1307.36 1030.64 1311.41C1026.92 1315.48 1021.74 1322.24 1027.2 1332.57C1032.66 1342.9 1056.36 1336.31 1067.4 1330.39C1078 1324.71 1084.84 1314.14 1084.84 1314.14L1079.31 1245.54L1033.15 1264.02" fill="#F47458"/>
<path d="M1048.91 1281.98C1056.52 1279.05 1069.82 1273.42 1080.09 1255.15L1079.31 1245.54L1033.15 1264.02C1033.15 1264.02 1033.45 1274.59 1033.29 1285.78C1039.76 1285.49 1045.28 1283.38 1048.91 1281.98" fill="#B75742"/>
<path d="M409.723 1111.68C409.723 1111.68 405.929 1130.95 424.264 1137.72C442.599 1144.49 453.978 1073.8 464.408 1059.82C474.839 1045.85 506.45 1042.04 522.888 1069.94C531.924 1085.27 534.751 1091.95 535.463 1094.85C536.048 1097.22 535.215 1097.07 535.215 1097.07L530.258 1107.24C530.258 1107.24 514.353 1096.65 508.347 1115.98C502.34 1135.3 520.042 1166.93 504.869 1193.18C489.695 1219.42 461.88 1200.86 461.88 1200.86C438.804 1217.86 412.252 1191.91 403.718 1167.36C395.183 1142.8 409.723 1111.68 409.723 1111.68" fill="#F7CC7F"/>
<path d="M590.682 1209.54L588.178 1237.97L564.989 1281.66C564.989 1281.66 610.709 1342.33 624.825 1327.84C627.978 1324.59 635.935 1260.39 635.935 1260.39L590.682 1209.54" fill="#F7A491"/>
<path d="M588.178 1237.97L583.331 1247.67C597.588 1261.69 615.872 1274.31 633.157 1281.56C634.771 1269.79 635.934 1260.39 635.934 1260.39L590.682 1209.54L588.178 1237.97Z" fill="#F48C7F"/>
<path d="M637.765 1116.22C637.765 1116.22 649.852 1128.23 654.294 1135.02C680.728 1175.4 659.316 1255 645.516 1261.62C624.62 1271.65 597.424 1258.16 566.774 1235.38C536.126 1212.61 526.44 1175.71 554.503 1143.62C582.565 1111.55 637.765 1116.22 637.765 1116.22" fill="#F7A491"/>
<path d="M536.071 1109.1L544.423 1100.35C577.16 1100.35 603.263 1078.71 640.008 1100.47C664.259 1114.82 654.294 1135.02 654.294 1135.02C564.489 1135.02 596.886 1212.59 585.88 1243.46C574.878 1274.34 506.208 1207.58 536.071 1109.1" fill="#F7CC7F"/>
<path d="M598.893 1196.46C598.893 1196.46 597.624 1171.01 583.381 1176.06C569.136 1181.1 580.236 1219.47 592.06 1218.12C603.883 1216.77 598.893 1196.46 598.893 1196.46Z" fill="#F7A491"/>
<path d="M1087.44 1196.54C1087.44 1196.54 1088.56 1171.07 1102.83 1176.01C1117.11 1180.97 1106.23 1219.41 1094.4 1218.13C1082.57 1216.87 1087.44 1196.54 1087.44 1196.54Z" fill="#F47458"/>
<path d="M533.722 1089.93C533.722 1089.93 547.25 1099.12 552.706 1098.35C558.161 1097.58 544.354 1116.97 537.034 1118.98C529.714 1120.99 532.293 1113.28 530.746 1110.63C529.199 1107.98 523.504 1110.05 522.189 1108.08C519.194 1103.64 527.329 1090.77 533.722 1089.93Z" fill="#50BFA5"/>
<path d="M786.074 1650.24C786.074 1650.24 798.592 1629.03 802.685 1628C806.78 1626.98 801.755 1642.5 801.755 1645.35C801.755 1648.2 809.2 1623.53 813.295 1623.53C817.388 1623.53 817.947 1626.79 816.272 1633.11C814.596 1639.43 810.689 1647.6 812.549 1647.6C814.411 1647.6 819.716 1620.15 822.786 1623.53C825.856 1626.89 824.678 1649.33 818.877 1655.69C813.077 1662.05 796.012 1658.07 786.074 1650.24" fill="#F7A491"/>
<path d="M973.761 1439.12C975.857 1436.69 981.948 1427.17 992.323 1430.94C1001.31 1434.21 1004.85 1444.36 1007.39 1448.94C1006.66 1444.32 1004.96 1436.36 1006.95 1427.33C1012.24 1403.32 1039.06 1405.48 1038.57 1427.75C1038.39 1436.49 1035.51 1441.84 1031.47 1451.21C1033.12 1449.23 1038.06 1442.68 1044.84 1438.85C1064.63 1427.68 1075.26 1454.92 1061.26 1469.36C1054.02 1476.84 1044.82 1477.04 1039.2 1477.76C1044.07 1479.26 1046.99 1479.71 1051.76 1483.03C1076.49 1500.2 1042.09 1546.59 1023.5 1501.93C1023.47 1501.89 1023.37 1501.89 1023.31 1501.86C1024.16 1508.18 1025.8 1515.91 1023.43 1524.86C1016.99 1549.1 987.582 1544.83 992.682 1517.4C994.278 1508.82 999.476 1499.74 999.791 1499.03C996.25 1503.18 991.021 1510.07 983.458 1513.3C963.984 1521.65 954.699 1491.51 972.639 1478.81C980.669 1473.12 988.64 1473.94 991.456 1473.12C984.801 1471.36 978.534 1469.32 973.989 1463.21C967.837 1454.93 971.141 1446.76 970.945 1445.65C971.884 1443.47 972.823 1441.3 973.761 1439.12ZM1008.63 1485.89C1013.7 1488.79 1020.11 1485.07 1022.7 1479.69C1026.29 1472.28 1024.03 1464.63 1018.95 1462.02C1013.64 1459.3 1007.54 1461.91 1004.3 1468.97C1001.3 1475.52 1003.34 1483.45 1008.63 1485.89Z" fill="#F7CC7F"/>
<path d="M1042.58 1113.35C1042.58 1113.35 1020.25 1112.81 1008.84 1131.84C997.421 1150.88 985.015 1205.28 1003.87 1242.82C1022.73 1280.34 1046.8 1271.09 1056.73 1267.29C1066.66 1263.48 1086.26 1255.06 1096.19 1219.96C1106.11 1184.87 1098.91 1106.01 1042.58 1113.35Z" fill="#F47458"/>
<path d="M534.92 1294.11C534.92 1294.11 551.104 1291.44 564.989 1349.02C580.726 1414.28 563.782 1481.87 537.749 1498.99C511.717 1516.11 500.991 1512.8 500.991 1512.8L505.078 1553.06C505.078 1553.06 581.991 1534.19 592.466 1462.12C609.633 1344.02 558.99 1283.2 558.99 1283.2C558.99 1283.2 549.466 1284.86 546.508 1286.18C543.346 1287.59 534.92 1294.11 534.92 1294.11Z" fill="#466EB6"/>
<path d="M495.164 1430.49C495.164 1430.49 495.164 1500.11 495.164 1514.8C495.164 1529.49 510.549 1628.92 529.409 1662.98C548.268 1697.03 573.832 1735.01 579.123 1737.19C584.414 1739.36 595.914 1747.35 601.869 1740.82C607.825 1734.29 612.539 1737.28 619.985 1733.75C627.43 1730.2 618.992 1718.52 608.57 1707.09C598.147 1695.67 595.914 1692.95 597.651 1691.04C599.387 1689.13 607.825 1699.75 612.292 1698.11C616.759 1696.48 609.563 1679.34 597.898 1673.37C586.236 1667.38 567.625 1655.69 565.888 1649.43C564.151 1643.17 564.151 1644.81 564.151 1643.17C564.151 1641.55 551 1542.82 551 1523.49C551 1504.18 545.789 1441.36 545.789 1441.36L495.164 1430.49" fill="#F7A491"/>
<path d="M530.346 1297.1C523.578 1298.03 505.215 1305.37 498.763 1329.31C492.312 1353.24 475.313 1421.24 478.29 1454.42C478.29 1454.42 550.751 1464.75 550.751 1461.49C550.751 1458.22 566.602 1373.09 558.691 1335.83C551.792 1303.33 542.11 1295.49 530.346 1297.1" fill="#50BFA5"/>
<path d="M636.759 1300.15L687.131 1498.57C684.911 1472.65 682.473 1447.9 680.036 1429.93C671.848 1369.55 648.026 1303.77 648.026 1303.77C648.026 1303.77 643.593 1302.31 636.759 1300.15" fill="#466EB6"/>
<path d="M930.398 1700.11H1069.79V1490.37L930.398 1498.54V1700.11Z" fill="#3C8F7C"/>
<path d="M930.398 1482.19H1063.59C1067.01 1482.19 1069.79 1485.85 1069.79 1490.37C1069.79 1494.87 1067.01 1498.54 1063.59 1498.54H930.398L930.512 1498.49C939.716 1493.93 939.665 1486.72 930.398 1482.19" fill="#3C8F7C"/>
<path d="M934.207 1484.6H1059.01C1061.42 1484.6 1063.37 1487.19 1063.37 1490.37C1063.37 1493.54 1061.42 1496.12 1059.01 1496.12H934.21C938.437 1492.56 938.43 1488.16 934.207 1484.6" fill="#FAE0B2"/>
<path d="M1136.39 1324.68C1136.39 1324.68 1125.95 1336.14 1114.78 1379.61C1103.62 1423.08 1097.92 1524.86 1088.25 1535.46C1078.57 1546.08 1015.29 1601.29 1003.87 1599.38C992.459 1597.48 966.899 1564.85 958.959 1564.85C951.017 1564.85 952.01 1572.73 955.982 1577.09C959.95 1581.43 964.789 1586.47 962.433 1589.05C960.075 1591.64 960.075 1591.64 960.075 1591.64C960.075 1591.64 924.714 1581.43 918.759 1585.24C912.803 1589.05 924.466 1598.02 924.466 1604.55C924.466 1611.08 923.008 1610.96 923.721 1618.15C924.435 1625.35 926.079 1631.07 929.18 1634.48C932.283 1637.87 971.365 1650.24 1009.58 1644.54C1047.8 1638.82 1094.45 1618.7 1128.94 1571.91C1163.43 1525.13 1156.52 1378.1 1155.74 1363.44C1153.76 1326.31 1136.39 1324.68 1136.39 1324.68" fill="#F47458"/>
<path d="M3044.29 527.342L3073.3 521.02L3080.37 488.916L3113.34 484.351L3111.23 447.578L3148.32 440.61L3150.18 406.509L3184.84 393.415L3189.4 407.785L3163.5 417.576L3161.52 453.569L3125.88 460.266L3128.03 497.655L3091.63 502.686L3084.74 534.039L3057.84 539.91L3057.25 561.548L3043.36 561.037L3044.29 527.342" fill="#50BFA5"/>
<path d="M2879.08 791.652L2896.37 756.965L2880.1 721.693C2878.25 717.669 2881.4 713.074 2885.44 713.9L2920.88 721.212L2946.46 693.343C2949.37 690.175 2954.34 692.037 2954.86 696.511L2959.48 735.703L2991.56 753.752C2995.21 755.809 2995.12 761.575 2991.41 763.497L2958.82 780.42L2953.08 819.431C2952.42 823.876 2947.39 825.573 2944.57 822.299L2919.83 793.559L2884.19 799.61C2880.14 800.301 2877.11 795.601 2879.08 791.652" fill="#F47458"/>
<path d="M551.04 680.969L572.287 649.046L560.334 611.761C558.972 607.512 562.645 603.398 566.549 604.794L600.823 617.077L629.483 593.082C632.746 590.364 637.452 592.916 637.446 597.421L637.38 636.943L667.047 659.407C670.424 661.959 669.66 667.65 665.752 669.047L631.438 681.18L621.112 719.05C619.937 723.359 614.76 724.32 612.351 720.671L591.211 688.658L555.161 689.604C551.056 689.709 548.62 684.603 551.04 680.969" fill="#F7CC7F"/>
<path d="M1226.23 432.022C1224.85 410.099 1239.94 391.089 1259.93 389.572C1279.94 388.056 1297.28 404.588 1298.66 426.511C1300.05 448.435 1284.96 467.429 1264.96 468.961C1244.96 470.478 1227.62 453.945 1226.23 432.022Z" fill="#F7CC7F"/>
<path d="M1287.8 544.37C1285.63 532.838 1284.32 520.48 1280.73 509.353C1277.64 499.788 1264.02 502.716 1264.71 512.987C1265.55 525.57 1269.14 538.319 1271.54 550.647C1272.52 555.632 1278.54 557.959 1282.53 556.428C1287.4 554.551 1288.74 549.4 1287.8 544.37Z" fill="#F7CC7F"/>
<path d="M1350.01 495.088C1337.98 487.31 1327.49 477.669 1316.39 468.48C1307.72 461.302 1298.36 473.66 1305.5 482.189C1315.74 494.457 1329.19 504.037 1342.18 512.431C1346.29 515.089 1352 512.491 1354 508.047C1356.25 503.076 1354.13 497.746 1350.01 495.088" fill="#F7CC7F"/>
<path d="M1327.22 423.853C1324.5 426.256 1323.96 429.694 1325.64 433.043C1329.71 441.121 1340.04 440.731 1347.37 440.461C1355.02 440.16 1362.68 438.464 1369.92 435.761C1380.62 431.751 1374.81 413.552 1364.08 417.577C1343.08 425.43 1335.13 416.901 1327.22 423.853" fill="#F7CC7F"/>
<path d="M1315.66 346.491C1305.1 363.429 1296.46 369.15 1297.81 378.475C1298.59 383.926 1302.53 386.539 1307.33 385.337C1313 383.926 1316.1 377.334 1319.5 372.709C1322.76 368.264 1325.96 363.82 1328.87 359.09C1331.52 354.795 1331.89 349.239 1328.02 345.545C1324.77 342.452 1318.35 342.182 1315.66 346.491" fill="#F7CC7F"/>
<path d="M1274.5 343.549C1271.12 333.293 1270.38 329.554 1266 324.779C1262.19 320.634 1254.15 323.277 1253.62 329.389C1253 336.521 1254.36 339.164 1257.91 349.96C1259.52 354.84 1264.62 357.573 1269.12 355.847C1273.59 354.135 1276.12 348.474 1274.5 343.549" fill="#F7CC7F"/>
<path d="M1230.04 368.399C1214.81 355.726 1211.71 352.152 1205.73 352.843C1202.22 353.248 1198.28 356.942 1199.05 361.252C1200.47 369.27 1204.72 371.447 1218.73 382.649C1222.49 385.652 1227.64 385.803 1230.88 381.718C1233.78 378.069 1233.76 371.508 1230.04 368.399" fill="#F7CC7F"/>
<path d="M1168.86 426.541C1162.86 430.025 1165.27 441.407 1171.77 442.338C1178 443.224 1180.4 442.128 1210.64 436.076C1215.31 435.145 1219.16 431.406 1218.8 425.805C1218.5 421.045 1214.13 415.925 1209.42 416.856C1178.02 423.072 1174.88 423.042 1168.86 426.541" fill="#F7CC7F"/>
<path d="M1216.23 480.763C1199.66 498.332 1197.23 495.238 1190.69 505.975C1187.69 510.9 1192.63 518.738 1197.84 517.687C1204.53 516.335 1206.32 515.104 1215.04 507.536C1220.11 503.137 1224.95 498.422 1229.6 493.511C1233.05 489.863 1232.12 483.03 1228.73 479.802C1224.86 476.108 1219.68 477.099 1216.23 480.763" fill="#F7CC7F"/>
<path d="M942.745 440.865L971.568 419.918L960.279 394.736L988.064 373.009L980.536 346.821L999.483 327.571L992.047 319.672L966.706 345.425L973.839 370.231L944.935 392.845L956.039 417.621L929.917 436.586L942.745 440.865" fill="#86B1F2"/>
<path d="M3243.49 638.414L3209.8 629.885L3200.9 656.193L3167.39 649.046L3155.22 673.041L3129.44 671.209L3129.33 682.561L3163.81 685.009L3175.33 662.26L3210.2 669.708L3218.95 643.835L3249.49 651.568L3243.49 638.414" fill="#F7CC7F"/>
<path d="M901.179 649.301C901.179 649.301 911.752 636.327 930.213 638.279C946.674 640.021 956.756 655.563 955.286 672.26C953.581 691.586 936.104 712.818 894.208 728.45C855.814 704.334 842.363 679.813 844.066 660.488C845.539 643.79 858.144 630.651 874.605 632.393C893.067 634.345 901.179 649.301 901.179 649.301" fill="#F48C7F"/>
<path d="M764.428 642.529C780.167 647.063 793.03 649.841 805.787 651.913C809.993 652.589 817.106 655.142 820.553 651.658C822.345 649.841 822.92 647.379 821.512 645.021C818.93 640.682 812.389 641.162 808.152 640.471C795.23 638.369 780.701 635.321 766.179 631.297C763.458 630.546 760.628 633.084 760.18 635.952C759.67 639.21 761.705 641.748 764.428 642.529" fill="#F48C7F"/>
<path d="M975.174 714.065C981.34 715.191 987.522 716.182 993.703 717.203C999.616 718.164 1006.45 720.446 1012.35 719.155C1016.71 718.209 1017.91 712.248 1013.79 709.83C1008.47 706.692 1001.42 706.692 995.493 705.731C989.307 704.74 983.126 703.734 976.928 702.833C970.306 701.887 968.547 712.863 975.174 714.065Z" fill="#F48C7F"/>
<path d="M809.256 740.612C818.975 727.638 829.025 724.8 836.994 720.521C841.255 718.238 839.982 711.631 835.144 711.661C821.886 711.752 809.142 722.653 801.221 733.464C797.051 739.14 805.017 746.273 809.256 740.612" fill="#F48C7F"/>
<path d="M875.546 788.197C876.27 781.155 878.185 774.473 881.437 768.347C883.429 764.593 892.333 754.667 885.365 751.379C878.803 748.27 873.419 759.983 871.068 764.908C867.917 771.515 865.952 778.858 865.255 786.26C864.571 793.543 874.79 795.525 875.546 788.197Z" fill="#F48C7F"/>
<path d="M933.844 754.292C936.897 757.596 939.954 760.899 943.009 764.203C946.056 767.506 948.79 772.026 953.454 771.756C956.076 771.62 957.458 768.993 957.517 766.425C957.623 761.755 952.521 758.136 949.722 755.148C946.65 751.86 943.579 748.586 940.507 745.298C938.465 743.12 934.756 743.871 933.074 746.139C931.131 748.766 931.804 752.085 933.844 754.292" fill="#F48C7F"/>
<path d="M864.453 600.71C856.141 563.921 856.422 563.801 854.169 560.498C851.862 557.134 846.614 558.29 846.003 562.6C845.397 566.864 845.565 566.174 854.443 604.839C855.148 607.903 858.843 609.284 861.33 608.263C864.298 607.032 865.153 603.803 864.453 600.71" fill="#F48C7F"/>
<path d="M920.866 609.734C923.719 604.329 926.014 598.653 927.757 592.707C929.376 587.181 932.538 578.952 928.284 574.207C927.372 573.186 925.437 572.886 924.28 573.486C919.44 576.024 919.279 583.892 917.767 588.983C916.117 594.523 913.923 599.884 911.437 605.05C910.132 607.767 911.574 611.341 914.013 612.558C916.769 613.939 919.459 612.392 920.866 609.734" fill="#F48C7F"/>
<path d="M999.626 628.685C1000.91 626.207 999.326 623.399 997.383 622.153C993.384 619.585 987.166 623.189 983.268 624.901C978.728 626.898 974.408 629.375 970.221 632.138C967.807 633.745 967.514 637.784 969.069 640.142C970.889 642.89 973.888 642.905 976.36 641.403C992.51 631.553 996.449 634.811 999.626 628.685" fill="#F48C7F"/>
<path d="M1429.39 652.754L1407.92 706.451L1353.45 705.355L1353.71 689.739L1398.68 690.624L1420.86 635.156L1481.69 647.304L1492.28 608.443L1505.61 614.164L1491.69 665.203L1429.39 652.754" fill="#F7CC7F"/>
<path d="M1726.94 261.937C1723.19 294.327 1753.97 320.034 1781.34 318.006C1811.59 315.769 1837.27 288.56 1841.69 255.976C1846.49 220.689 1827.14 192.489 1797.22 189.891C1768.1 187.384 1749.47 215.794 1757.88 244.474C1763.92 265.031 1781.03 272.689 1789.66 267.013C1796.37 262.598 1795.98 251.441 1787.84 249.474C1784.58 248.693 1781.21 250.675 1779.48 253.423C1772.36 250.33 1765.58 236.11 1770.18 220.764C1776.06 201.153 1798.66 200.042 1812.72 209.187C1830.58 220.824 1833.4 245.885 1826.84 265.856C1819.97 286.819 1801.17 303.336 1780.71 304.928C1757.55 306.73 1737.15 287.269 1735.3 261.967C1734.86 255.991 1727.61 256.141 1726.94 261.937" fill="#86B1F2"/>
<path d="M2745.48 591.625C2742.59 559.131 2707.38 541.517 2681.09 550.152C2652.05 559.672 2632.51 592.436 2634.77 625.291C2637.24 660.864 2661.79 683.673 2691.49 678.928C2720.4 674.318 2732.84 642.094 2718.84 616.161C2708.79 597.587 2690.56 594.268 2683.3 601.896C2677.63 607.843 2680.28 618.609 2688.61 618.549C2691.96 618.534 2694.83 615.771 2695.97 612.678C2703.53 613.969 2713.01 626.177 2711.63 642.274C2709.86 662.816 2688.04 669.393 2672.49 663.882C2652.71 656.884 2644.91 633.114 2647.27 612.062C2649.75 589.929 2664.72 569.267 2684.35 562.75C2706.59 555.362 2730.41 569.402 2737.32 593.622C2738.96 599.344 2746 597.437 2745.48 591.625" fill="#86B1F2"/>
<path d="M2925.19 2042.22C2925.19 2042.22 2928.41 2072.67 2928.41 2077.85C2928.41 2083.02 2928.41 2083.02 2928.41 2083.02L2926.1 2088.27L2925.19 2090.36L2941.8 2115.93C2941.8 2115.93 3008.56 2117.01 3010.04 2117.01C3011.54 2117.01 3001.11 2099.34 3001.11 2099.34C3001.11 2099.34 2979.03 2081.11 2975.05 2068.33C2971.09 2055.54 2978.44 2028.88 2978.44 2028.88L2925.19 2042.22" fill="#F7A491"/>
<path d="M2603.41 1859.94C2603.41 1859.94 2579.64 1876.11 2575.95 1879.32C2572.26 1882.54 2572.26 1882.54 2572.26 1882.54L2569.93 1887.78L2569.01 1889.87L2540.41 1891.49C2540.41 1891.49 2498.13 1834.86 2497.21 1833.59C2496.28 1832.31 2509.36 1835.51 2509.36 1835.51C2509.36 1835.51 2536.05 1839.46 2547.65 1834.92C2559.26 1830.37 2582.74 1805.04 2582.74 1805.04L2603.41 1859.94Z" fill="#F7A491"/>
<path d="M2819.46 1574.13L2563.38 1813.2L2602.84 1874.4C2602.84 1874.4 2866 1695.29 2879.77 1693.26C2893.54 1691.22 2904.7 1698.16 2907.32 1709.17C2909.92 1720.19 2916.55 2050.7 2916.55 2050.7H2984.92L3020.58 1634.58L2819.46 1574.13Z" fill="#50BFA5"/>
<path d="M3188.42 1233.15C3207.36 1219.53 3251.88 1167.18 3266.96 1149.36C3267.11 1147.27 3268.55 1135.15 3280.67 1119.78C3289.24 1108.91 3295.73 1084.1 3301.35 1091.14C3306.95 1098.17 3293.02 1117.87 3299.4 1117.99C3305.78 1118.13 3337.45 1079.12 3342.54 1085.48C3347.62 1091.85 3315.47 1126.54 3321.18 1126.64C3326.88 1126.76 3352.99 1091.64 3360.19 1100.65C3367.38 1109.64 3325.96 1138.85 3329.83 1143.68C3333.69 1148.5 3359.35 1129.36 3365.15 1136.61C3370.94 1143.86 3328.95 1160.94 3332.31 1161.01C3335.66 1161.07 3359.89 1160.35 3360.06 1165.47C3360.27 1171.25 3298.78 1180.25 3291.25 1190.25C3275.18 1218.28 3246.59 1269.5 3217.63 1291.96C3182.18 1319.46 3100.28 1377.8 3100.28 1377.8L3059.61 1320.18C3059.61 1320.18 3165.95 1249.29 3188.42 1233.15" fill="#F7A491"/>
<path d="M3299.4 1130.39C3300.98 1133.79 3301.66 1137.5 3301.88 1141.22C3301.76 1141.82 3303.25 1153.86 3293.88 1163.02C3297.54 1155.58 3301.55 1147.3 3299.4 1130.39" fill="#F48C7F"/>
<path d="M2813 1170.13C2797.95 1151.55 2767.48 1088.27 2757.18 1066.74C2757.52 1064.68 2759.02 1052.58 2750.99 1034.25C2745.32 1021.3 2744.98 995.522 2737.88 1000.69C2730.78 1005.87 2739.54 1028.87 2733.34 1027.17C2727.17 1025.46 2705.9 978.734 2699.46 983.419C2693.03 988.104 2715.79 1030.81 2710.26 1029.28C2704.72 1027.76 2687.9 986.362 2678.82 992.999C2669.72 999.636 2702.72 1039.68 2697.85 1043.24C2692.97 1046.8 2672.76 1020.96 2665.45 1026.3C2658.13 1031.63 2694.57 1060.15 2691.31 1059.25C2688.07 1058.36 2664.84 1050.72 2663.46 1055.6C2661.89 1061.13 2719.08 1087.43 2723.97 1099.25C2732.78 1130.92 2748.17 1188.55 2770.76 1218.54C2798.41 1255.24 2863.54 1335 2863.54 1335L2916.55 1291.05C2916.55 1291.05 2830.82 1192.15 2813 1170.13" fill="#F7A491"/>
<path d="M2730.39 1039.13C2728.06 1041.97 2726.52 1045.34 2725.41 1048.87C2725.38 1049.49 2721.07 1060.69 2727.93 1072.21C2726.19 1063.98 2724.27 1054.83 2730.39 1039.13" fill="#F48C7F"/>
<path d="M2926.17 1301.32C2933.88 1288.71 2947.17 1281.54 2961 1282.58C3001.66 1285.61 3084.12 1292.75 3091.94 1301.32C3102.37 1312.75 3133.63 1387.27 3103.85 1491.72C3074.08 1596.16 3057.69 1585.28 3033.37 1585.28C3009.06 1585.28 2894.42 1525.99 2894.42 1525.99L2926.17 1301.32Z" fill="#355389"/>
<path d="M2855.95 1212.65L2808.13 1281.02L2867.48 1377.8C2867.48 1377.8 2861.91 1449.69 2853.34 1472.14C2844.78 1494.57 2795.27 1586.77 2795.27 1586.77C2795.27 1586.77 2915.5 1667.56 3033.13 1655.72C3033.13 1655.72 3066.25 1468.87 3075.56 1450.92C3084.86 1432.96 3174.58 1344.03 3174.58 1344.03L3131.03 1266.92L3055.83 1312.61C3055.83 1312.61 2918.4 1288.27 2911.79 1281.02C2905.16 1273.77 2855.95 1212.65 2855.95 1212.65" fill="#F7CC7F"/>
<path d="M3011.04 1072.85C3011.04 1072.85 2964.64 1045.93 2948.76 1090.54C2948.76 1090.54 2907.07 1085.92 2914.27 1133.25C2914.27 1133.25 2872.32 1156.36 2898.88 1215.92C2898.88 1215.92 2887.22 1271.95 2947.02 1275.49C2947.02 1275.49 2955.95 1295.34 2983.25 1290.72C3010.55 1286.09 3017.5 1278.21 3017.5 1278.21C3017.5 1278.21 3065.88 1293.71 3080.53 1245.84C3080.53 1245.84 3113.78 1237.14 3091.45 1190.35C3091.45 1190.35 3120.48 1129.7 3069.36 1111.47C3069.36 1111.47 3063.4 1049.47 3011.04 1072.85" fill="#F47458"/>
<path d="M3029.78 1204.26C3026.02 1215.79 3028.73 1227.4 3035.84 1230.19C3042.95 1232.98 3051.77 1225.89 3055.54 1214.36C3059.31 1202.83 3056.6 1191.22 3049.49 1188.43C3042.38 1185.64 3033.55 1192.72 3029.78 1204.26Z" fill="#F7A491"/>
<path d="M2904.62 1175.94C2904.09 1188.18 2909.79 1198.42 2917.32 1198.81C2924.87 1199.2 2931.42 1189.6 2931.95 1177.36C2932.47 1165.13 2926.79 1154.89 2919.24 1154.49C2911.69 1154.1 2905.14 1163.7 2904.62 1175.94Z" fill="#F7A491"/>
<path d="M2957.7 1256.99C2957.7 1257.79 2951.67 1286.2 2948.46 1301.2C2947.27 1306.8 2949.86 1312.54 2954.63 1314.92C2967.39 1321.31 2992.48 1330.21 3009.82 1313C3011.4 1311.42 3012.25 1309.16 3012.18 1306.82L3010.04 1239.05L2957.7 1256.99" fill="#F7A491"/>
<path d="M2954.46 1272.89C2967.96 1280.36 2984.94 1280.51 3003.99 1268.27C3006.4 1266.71 3008.67 1265.07 3010.81 1263.33L3010.04 1239.05L2957.7 1256.99C2957.7 1257.38 2956.28 1264.23 2954.46 1272.89" fill="#F48C7F"/>
<path d="M2994.82 1100.5C2994.82 1100.5 3017.67 1107.12 3031.1 1131.49C3044.53 1155.86 3051.94 1226.3 3003.99 1257.11C2956.04 1287.93 2921.16 1240.2 2922.06 1195.07C2922.97 1149.93 2941.27 1092.22 2994.82 1100.5" fill="#F7A491"/>
<path d="M2916.58 1283.38C2894.51 1301.66 2871.4 1395.44 2862.65 1419.91L2855.6 1464.87L2945.43 1290.96C2945.43 1290.96 2921.34 1279.43 2916.58 1283.38Z" fill="#466EB6"/>
<path d="M3025.65 1307.1C3025.65 1307.1 3022.95 1422.63 3030.89 1462.33C3038.84 1502.05 3059.61 1515.93 3059.61 1515.93L3069.83 1469.72C3069.83 1469.72 3059.61 1367.69 3055.83 1312.61C3055.27 1304.25 3025.65 1307.1 3025.65 1307.1" fill="#466EB6"/>
<path d="M2913.02 2134.64C2902.83 2133.21 2920.43 2094.47 2926.1 2088.27L3001.11 2099.34C3001.11 2099.34 3037.22 2117.69 3045.79 2127.07C3047.81 2129.29 3048.09 2133.2 3039.27 2134.64C3010.96 2139.25 2935.64 2137.78 2913.02 2134.64" fill="#13375B"/>
<path d="M2544.2 1928.44C2553 1934.24 2569.03 1896.5 2569.93 1887.78L2509.36 1835.51C2509.36 1835.51 2462.63 1820.82 2453.21 1831.15C2444.63 1840.54 2524.2 1915.27 2544.2 1928.44" fill="#13375B"/>
<path d="M1641.76 400.053L1598.2 461.528L1692.01 479.607L1641.76 400.053Z" fill="#96D9C9"/>
<path d="M2215.48 107.109L2323.43 269.49L2394.9 183.81L2215.48 107.109Z" fill="#466EB6"/>
<path d="M2404.57 138.942L2394.9 183.81L2215.48 107.109L2404.57 138.942Z" fill="#9BC1F9"/>
<path d="M2394.9 200.943L2215.48 107.109L2382.24 269.49L2394.9 200.943Z" fill="#9BC1F9"/>
<path d="M2385.58 281.668C2385.58 281.683 2385.58 281.713 2385.58 281.728C2385.58 281.713 2385.58 281.698 2385.58 281.668ZM2503.87 395.534C2502.54 395.398 2471.02 391.84 2431.05 364.556C2390.93 337.182 2375.91 289.402 2375.91 281.728C2375.91 278.8 2378.08 276.428 2380.75 276.428C2383.39 276.428 2385.54 278.74 2385.58 281.623C2386.02 286.744 2398.84 330.095 2436.16 355.561C2474.04 381.419 2504.49 384.947 2504.79 384.977C2507.44 385.263 2509.4 387.845 2509.14 390.759C2508.88 393.672 2506.53 395.804 2503.87 395.534Z" fill="#F7CC7F"/>
<path d="M2699.96 443.57C2644.03 431.272 2590.54 408.643 2540.94 376.284C2500.1 349.645 2467.17 309.043 2425.51 286.489C2423.11 285.182 2422.12 282.014 2423.31 279.386C2424.49 276.758 2427.4 275.677 2429.79 276.969C2472.92 300.318 2505.6 340.891 2545.9 367.169C2594.55 398.912 2647.02 421.106 2701.88 433.164C2722.03 437.593 2745.92 439.215 2772.87 437.984C2775.55 437.879 2777.8 440.146 2777.91 443.074C2778.02 446.002 2775.95 448.465 2773.28 448.585C2749.33 449.681 2723.56 448.75 2699.96 443.57" fill="#F7CC7F"/>
<path d="M1392.31 1302.51C1394.72 1302.33 1412.95 1334.6 1424.38 1384.1C1435.79 1433.59 1460.11 1524.98 1460.11 1524.98C1460.11 1524.98 1499.56 1612.3 1510.24 1624C1520.91 1635.69 1531.25 1623.59 1541.99 1627.25C1545.31 1628.38 1555.56 1638.14 1555.56 1638.14C1555.56 1638.14 1574.01 1681.93 1571.28 1684.92C1568.54 1687.9 1540.01 1696.34 1520.15 1689.27C1500.3 1682.2 1407.99 1563.62 1407.99 1563.62C1407.99 1563.62 1332.75 1306.89 1392.31 1302.51" fill="#F48C7F"/>
<path d="M1752.92 1341.89L1743.98 1331.74C1743.98 1331.74 1727.61 1363.98 1708.75 1409.66C1689.9 1455.35 1667.31 1511.66 1659.62 1520.09C1651.92 1528.52 1587.16 1626.16 1567.56 1635.68C1547.95 1645.2 1554.02 1641.02 1538.27 1638.95C1526.46 1637.4 1527.74 1646.77 1535.43 1651.13C1537.51 1652.3 1539.87 1653.08 1544.58 1656.74C1553.95 1664.03 1561.97 1674.37 1567.84 1680.41C1570.12 1682.74 1565.36 1687 1562.69 1684.09C1559.95 1681.07 1550.61 1665.26 1546.7 1665.26C1542.8 1665.26 1545.4 1676.07 1547.07 1679.54C1548.76 1683.01 1545.03 1681.99 1541.69 1673.43C1538.33 1664.85 1535.91 1656.29 1531.07 1657.51C1527.17 1658.5 1529.57 1670.35 1530.63 1674.91C1529.51 1670.57 1526.42 1659.76 1523.44 1659.76C1519.72 1659.76 1518.04 1660.17 1518.04 1668.22C1518.04 1676.28 1520.65 1684.91 1529.21 1692.02C1537.77 1699.12 1561.75 1694.39 1571.6 1690.08C1578.32 1687.15 1585.02 1675.17 1591.76 1671.18C1621.88 1653.38 1652.81 1632.12 1691.13 1576.12C1738.03 1507.58 1756.33 1446.39 1756.33 1446.39L1752.92 1341.89Z" fill="#F4C0B8"/>
<path d="M1735.55 2119.55C1735.55 2119.55 1730.59 2096.71 1735.55 2068.96C1740.52 2041.21 1767.32 1899.78 1767.32 1870.41C1767.32 1841.03 1780.22 1798.06 1780.22 1798.06L1701.31 1776.3L1693.36 1860.62C1693.36 1860.62 1689.14 2057.26 1681.95 2065.15C1674.76 2073.04 1644.33 2084.68 1634.8 2084.68C1624.14 2084.68 1607.26 2085.48 1607.26 2091.36C1607.26 2097.25 1608.75 2101.05 1608.75 2101.05L1735.55 2119.55" fill="#F4C0B8"/>
<path d="M1829.51 1785.66L1839.28 1858.44C1839.28 1858.44 1862.5 2071.75 1857.15 2077.62C1851.79 2083.5 1827.46 2100.67 1816.28 2102.04C1805.11 2103.39 1789.4 2111.67 1789.4 2118.18C1789.4 2131.38 1914.96 2120.68 1914.96 2120.68C1914.96 2120.68 1918.93 2110.84 1914.96 2096.42C1910.99 2082.01 1910.99 2061.62 1910.99 2058.34C1910.99 2055.09 1911.25 2057.8 1911.25 2052.64C1911.25 2047.47 1911.25 2045.84 1911.25 2045.84C1911.25 2045.84 1926.37 1944.12 1910.25 1879.93L1904.54 1755.35L1829.51 1785.66" fill="#F4C0B8"/>
<path d="M1307.37 1073.9C1307.37 1073.9 1278.33 1073.53 1258.23 1085.95C1238.2 1098.34 1232.82 1127.89 1232.45 1150.98C1231.96 1180.8 1240.89 1210.83 1257.86 1234.24C1274.85 1257.67 1304.76 1268.21 1304.76 1268.21L1388.92 1209.41C1388.92 1209.41 1398.94 1182.02 1391.87 1145.31C1384.79 1108.58 1386.65 1068.18 1307.37 1073.9" fill="#184655"/>
<path d="M1449.19 2024.83C1449.19 2024.83 1476.97 2068.61 1478.96 2074.59C1480.95 2080.58 1494.59 2120.3 1494.59 2120.3L1601.3 2063.45L1519.66 2036.26L1503.29 1997.08L1449.19 2024.83" fill="#F48C7F"/>
<path d="M1309.23 1714.84L1396.33 1913.92L1453.65 2039.59C1453.65 2039.59 1504.52 2018.1 1517.18 2004.23L1475.99 1845.93L1429.09 1662.62L1330.49 1652.78L1309.23 1714.84" fill="#355389"/>
<path d="M1227.09 2045.02C1227.09 2045.02 1231.06 2074.4 1231.06 2076.3C1231.06 2078.21 1225.1 2106.48 1224.11 2114.11C1223.12 2121.73 1224.11 2127.7 1224.11 2127.7L1325.23 2101.18C1325.23 2101.18 1310.22 2090.45 1296.82 2082.28C1283.42 2074.13 1281.44 2035.23 1281.44 2035.23L1227.09 2045.02" fill="#F48C7F"/>
<path d="M1212.95 1662.62C1212.95 1662.62 1230.27 1782.04 1227.84 1821.99C1224.34 1879.37 1210.46 1901.41 1220.39 2051.87H1290.87C1290.87 2051.87 1295.83 1971.04 1306.75 1908.49C1317.67 1845.93 1341.49 1740.94 1341.49 1740.94L1380.7 1644.09L1212.95 1662.62" fill="#86B1F2"/>
<path d="M1253.72 1213.64C1257.12 1225.31 1265.71 1232.73 1272.91 1230.2C1280.11 1227.7 1283.19 1216.2 1279.78 1204.53C1276.39 1192.85 1267.79 1185.43 1260.6 1187.95C1253.4 1190.47 1250.32 1201.98 1253.72 1213.64Z" fill="#F48C7F"/>
<path d="M1373.4 1188.73C1374.35 1200.94 1381.21 1210.26 1388.74 1209.56C1396.27 1208.87 1401.61 1198.4 1400.66 1186.19C1399.72 1173.98 1392.84 1164.66 1385.32 1165.35C1377.78 1166.06 1372.45 1176.52 1373.4 1188.73" fill="#F48C7F"/>
<path d="M2407.79 1226.07C2423.71 1207.18 2457.25 1128.53 2468.59 1106.2C2468.34 1103.97 2467.44 1090.95 2476.36 1071.88C2482.66 1058.39 2484.26 1030.85 2491.1 1036.83C2497.92 1042.81 2488.06 1066.85 2494.32 1065.41C2500.59 1063.98 2524.1 1015.39 2530.3 1020.81C2536.49 1026.21 2511.66 1070.41 2517.27 1069.11C2522.87 1067.84 2541.69 1024.68 2550.45 1032.34C2559.2 1040 2524.28 1080.71 2528.99 1084.82C2533.68 1088.92 2555.12 1062.6 2562.18 1068.75C2569.22 1074.93 2531.42 1103.09 2534.72 1102.33C2538.01 1101.58 2561.57 1094.9 2562.72 1100.2C2564.03 1106.19 2505.61 1130.69 2500.16 1143.01C2489.8 1176.28 2471.61 1236.89 2447.58 1267.5C2418.18 1304.97 2333.59 1408.85 2333.59 1408.85L2298.45 1335.8C2298.45 1335.8 2388.9 1248.48 2407.79 1226.07Z" fill="#966259"/>
<path d="M2496.7 1078.38C2498.88 1081.56 2500.25 1085.26 2501.18 1089.1C2501.18 1089.76 2504.94 1102 2497.53 1113.88C2499.68 1105.18 2502.03 1095.54 2496.7 1078.38Z" fill="#6B4744"/>
<path d="M1219.59 1324.17C1219.59 1324.17 1227.78 1555.72 1219.59 1598.96C1211.4 1642.21 1207.64 1670.27 1207.64 1670.27C1207.64 1670.27 1320.84 1694.43 1429.53 1662.62C1429.53 1662.62 1413.14 1581.83 1405.7 1497.79C1398.27 1413.74 1392.31 1302.51 1392.31 1302.51C1392.31 1302.51 1351.09 1299.14 1319.35 1302.33C1247.19 1309.58 1219.59 1324.17 1219.59 1324.17" fill="#FAE0B2"/>
<path d="M1286.9 1243.63L1283.71 1306.98C1283.71 1306.98 1289.13 1341.94 1320.77 1343.98C1352.41 1346.02 1343.1 1271.36 1343.1 1271.36L1341.24 1243.63H1286.9" fill="#F48C7F"/>
<path d="M1342.08 1291.35C1342.85 1291.35 1343.6 1291.33 1344.35 1291.29C1344.18 1279.98 1343.1 1271.36 1343.1 1271.36L1341.24 1243.63H1286.9L1286.42 1253.13C1293.23 1265.85 1313.3 1291.35 1342.08 1291.35" fill="#F27A6A"/>
<path d="M1226.04 2090.79C1226.04 2090.79 1229.76 2086.71 1242.79 2087.93C1255.81 2089.16 1321.14 2097.11 1323.93 2097.11C1326.72 2097.11 1364.1 2128.21 1365.78 2133.86C1367.45 2139.5 1285.03 2135.81 1285.03 2135.81H1222.28C1222.28 2135.81 1216.36 2115.27 1226.04 2090.79" fill="#3C8F7C"/>
<path d="M1484.92 2089.29C1484.92 2089.29 1481.1 2092.1 1481.1 2095.91C1481.1 2098.44 1484.99 2115.63 1489.49 2127.87C1492.11 2135 1499.84 2138 1505.99 2134.29L1619.16 2065.9C1619.16 2065.9 1627.41 2058.06 1574.04 2054.36L1484.92 2089.29Z" fill="#3C8F7C"/>
<path d="M1219.59 1324.17C1219.59 1324.17 1203.52 1331.88 1194.09 1355.81C1184.66 1379.75 1154.38 1488 1174.73 1552.73C1174.73 1552.73 1183.9 1601.94 1231.05 1635.68C1278.2 1669.4 1360.41 1677.51 1365.06 1672.41C1369.72 1667.3 1369.9 1658.46 1369.9 1652.78C1369.9 1647.1 1380.7 1644.25 1380.7 1636.5C1380.7 1628.76 1362.46 1627.39 1341.49 1627.39C1341.49 1627.39 1337.77 1626.98 1342.36 1623.17C1346.95 1619.37 1352.78 1614.61 1351.79 1607.4C1350.79 1600.2 1346.51 1600.53 1342.48 1604.96C1338.45 1609.37 1325.11 1621.28 1314.44 1617.87C1303.77 1614.48 1240.74 1557.76 1230.32 1539.82C1230.32 1539.82 1234.48 1328.03 1219.59 1324.17" fill="#F48C7F"/>
<path d="M1743.98 1331.74C1743.98 1331.74 1777.96 1311.08 1814.02 1306.45C1850.08 1301.82 1901.81 1316.65 1901.81 1316.65L1931.65 1788.73C1931.65 1788.73 1797.65 1858.5 1697.14 1788.73C1697.14 1788.73 1724.13 1590.52 1724.13 1562.66C1724.13 1534.79 1724.13 1534.79 1724.13 1534.79L1743.98 1331.74" fill="#50BFA5"/>
<path d="M1607.31 2095.48C1603.74 2095.03 1600.37 2097.34 1599.16 2101.05C1597.77 2105.33 1598.38 2109.16 1601.3 2112.36C1606.64 2118.2 1699.76 2134.92 1732.26 2134.13C1735.71 2134.05 1740.64 2122.81 1735.55 2119.55C1727.6 2114.44 1631.88 2098.51 1607.31 2095.48Z" fill="#13375B"/>
<path d="M1634.8 2084.68L1642.5 2101.88L1659.62 2107.04C1659.62 2107.04 1651.67 2076.3 1644.73 2077.65C1637.78 2079.02 1634.8 2084.68 1634.8 2084.68" fill="#13375B"/>
<path d="M1789.39 2119.29C1786.13 2119.28 1783.18 2121.55 1782.17 2124.95C1781.36 2127.69 1781.09 2130.83 1782.95 2132.88C1786.92 2137.22 1920.26 2134.23 1920.26 2134.23C1920.26 2134.23 1923.48 2123.36 1917.69 2121.19C1913.85 2119.73 1812.58 2119.35 1789.39 2119.29Z" fill="#13375B"/>
<path d="M1829.57 2095.88C1828.38 2093.5 1819.18 2096.02 1816.28 2102.04L1828.12 2120.66L1842.01 2120.6L1829.57 2095.88Z" fill="#13375B"/>
<path d="M2126.41 2001.51C2126.41 2001.51 2121.04 2052.64 2112.31 2074.94C2103.58 2097.25 2074.8 2111.32 2049.48 2116.8C2024.16 2122.27 2032.6 2126.64 2036.32 2130.71C2040.01 2134.76 2149.74 2137.51 2169.08 2133.66C2169.08 2133.66 2161.64 2091.8 2161.64 2085.28C2161.64 2078.75 2191.92 1975.94 2191.92 1975.94L2126.41 2001.51Z" fill="#966259"/>
<path d="M2169.08 2133.66C2169.08 2133.66 2167.58 2125.15 2165.9 2115.19C2144.74 2118.3 2096.32 2112.87 2072.06 2109.77C2064.63 2112.85 2055.61 2113.77 2048.18 2115.37C2022.88 2120.84 2024.77 2128.12 2031.12 2133.18C2035.36 2136.56 2149.74 2137.51 2169.08 2133.66Z" fill="#F47458"/>
<path d="M2342.26 1989.53C2342.26 1989.53 2339.3 2052.37 2345.44 2074.94C2351.77 2098.2 2360.84 2102.19 2385.69 2109.77C2410.09 2117.21 2400.83 2129.11 2397.12 2133.18C2393.41 2137.24 2308.01 2137.51 2288.66 2133.66C2288.66 2133.66 2296.11 2091.8 2296.11 2085.28C2296.11 2078.75 2287.07 1973.08 2287.07 1973.08L2342.26 1989.53" fill="#966259"/>
<path d="M2288.66 2133.66C2288.66 2133.66 2290.18 2125.15 2291.85 2115.19C2313 2118.3 2361.43 2112.87 2385.69 2109.77C2394.08 2112 2400.87 2113.84 2408.27 2116.8C2432.51 2126.5 2430.34 2129.11 2426.63 2133.18C2422.93 2137.24 2308.01 2137.51 2288.66 2133.66Z" fill="#F47458"/>
<path d="M1901.81 1316.65C1901.81 1316.65 1872.78 1354.18 1887.67 1417.02C1902.56 1479.84 1938.54 1579.92 1982.95 1635.65C1990.15 1644.66 2006.78 1663.7 2014.23 1669.13C2021.67 1674.58 2053.18 1678.38 2053.18 1678.38C2053.18 1678.38 2067.09 1631.61 2063.11 1627.25C2059.14 1622.9 2025.77 1622.49 2016.71 1612.57C2007.64 1602.64 1919.67 1316.65 1901.81 1316.65" fill="#F4C0B8"/>
<path d="M2182.65 1315.83C2182.65 1315.83 2174.27 1321.55 2168.33 1338.41C2162.37 1355.27 2131.48 1493.99 2127.01 1514.11C2123.56 1529.65 2092.23 1575.28 2076.68 1597.27C2072.09 1603.75 2068.57 1609.16 2066.33 1609.16C2052.69 1609.16 2030.03 1617.46 2030.03 1623.67C2030.03 1629.85 2035.38 1630.51 2044.32 1628.35C2053.25 1626.17 2046.48 1636.77 2043.26 1640.3C2040.03 1643.85 2026.29 1664.01 2031.16 1669.34C2036.03 1674.67 2047.73 1678.38 2053.18 1678.38C2056.15 1678.38 2062.17 1678.02 2073.17 1668.19C2082.42 1659.91 2096.02 1642.99 2106.01 1633.23C2141.9 1598.15 2171.43 1524.44 2176.89 1507.58C2182.34 1490.71 2182.65 1315.83 2182.65 1315.83Z" fill="#966259"/>
<path d="M2067.63 1644.25C2067.63 1644.25 2071.36 1644.66 2071.36 1652.62C2071.36 1660.57 2065.03 1672.81 2060.76 1677.51C2056.47 1682.2 2017.27 1670.78 2017.27 1670.78C2017.27 1670.78 2031.53 1671.18 2036.4 1664.55C2038.58 1661.59 2042.7 1647.72 2046.8 1647.72C2050.89 1647.72 2046.43 1666.49 2046.43 1666.49C2046.43 1666.49 2054.25 1641.8 2058.33 1641.8C2062.43 1641.8 2062.8 1646.29 2060.93 1653.85C2059.07 1661.38 2065.11 1642.07 2067.63 1644.25Z" fill="#F4C0B8"/>
<path d="M2099.13 2006.58C2099.13 2006.58 2157.2 2023.72 2223.07 2023.72C2288.96 2023.72 2418.49 1987 2418.49 1987C2418.49 1987 2382.76 1892.36 2370.47 1819.74C2358.18 1747.13 2349.26 1622.3 2349.26 1622.3H2152.7L2140.41 1708.72L2099.13 2006.58" fill="#466EB6"/>
<path d="M2182.65 1315.82C2182.65 1315.82 2169.81 1332.15 2169.81 1382.74C2169.81 1433.32 2167.58 1509.21 2163.86 1535.33C2160.14 1561.44 2148.97 1626.31 2148.97 1626.31C2148.97 1626.31 2181.73 1656.08 2266.6 1647.93C2351.46 1639.76 2355.92 1627.25 2355.92 1627.25C2355.92 1627.25 2344.02 1417.02 2344.02 1394.97C2344.02 1372.95 2325.8 1309.22 2325.8 1309.22C2325.8 1309.22 2276.76 1303.66 2254.43 1305.55C2232.1 1307.43 2182.65 1315.82 2182.65 1315.82" fill="#FAE0B2"/>
<path d="M2144.07 1117.27C2144.07 1117.27 2108.36 1128.37 2111.32 1168.55C2114.05 1205.59 2130.67 1203.72 2130.67 1203.72C2130.67 1203.72 2118.52 1256.24 2155.23 1271.48C2189.86 1285.84 2202.88 1271.48 2202.88 1271.48C2202.88 1271.48 2217.91 1315.09 2269.27 1298.26C2320.65 1281.42 2316.04 1247.28 2316.04 1247.28C2316.04 1247.28 2337.92 1256.71 2363.24 1212.65C2388.54 1168.58 2374.1 1136.85 2340.61 1117.27C2340.61 1117.27 2351.76 1061.17 2300.53 1052.19C2249.32 1043.21 2236.76 1074.02 2236.76 1074.02C2236.76 1074.02 2227.65 1039.64 2173.11 1063.29C2137.37 1078.8 2144.07 1117.27 2144.07 1117.27" fill="#13375B"/>
<path d="M2285.57 1201.36C2281.81 1212.89 2284.52 1224.5 2291.63 1227.29C2298.74 1230.08 2307.56 1223.01 2311.33 1211.46C2315.11 1199.95 2312.4 1188.33 2305.29 1185.53C2298.18 1182.74 2289.35 1189.83 2285.57 1201.36Z" fill="#966259"/>
<path d="M2169.12 1212.8C2170.85 1224.9 2178.3 1233.69 2185.75 1232.41C2193.22 1231.14 2197.88 1220.28 2196.15 1208.18C2194.44 1196.07 2186.99 1187.29 2179.52 1188.57C2172.05 1189.84 2167.4 1200.7 2169.12 1212.8Z" fill="#966259"/>
<path d="M2230.36 1265.79L2232.35 1313.38C2232.35 1313.38 2233.34 1331.88 2250.95 1334.32C2268.59 1336.77 2284.71 1321.83 2284.71 1306.86C2284.71 1304.95 2276.02 1239.68 2276.02 1239.68L2230.36 1265.79Z" fill="#966259"/>
<path d="M2276.02 1239.68L2230.36 1265.79L2231.07 1282.72C2239.34 1282.78 2251.57 1282.05 2261.38 1275.64C2269.63 1270.25 2274.23 1263.4 2277.91 1253.96C2276.82 1245.61 2276.02 1239.68 2276.02 1239.68" fill="#6B4744"/>
<path d="M1535.43 1637.69C1535.43 1637.69 1546.55 1645.57 1553.16 1643.85C1559.76 1642.1 1556.51 1638.41 1553.4 1635.02C1550.31 1631.61 1541.99 1627.25 1541.99 1627.25L1535.43 1637.69Z" fill="#F48C7F"/>
<path d="M1315.6 1107.15C1297.57 1110.06 1284.39 1124.06 1274.81 1141.15C1255.83 1175.01 1271.26 1224.86 1276.47 1236.27C1281.68 1247.7 1302.53 1277.07 1333.42 1277.07C1364.32 1277.07 1385.91 1246.06 1388.51 1215.88C1392 1175.46 1382.13 1125.08 1347.03 1111.04C1337.46 1107.21 1326.13 1105.44 1315.6 1107.15Z" fill="#F48C7F"/>
<path d="M1812.86 1108.17C1812.86 1108.17 1797.59 1107.36 1780.47 1116.32C1763.34 1125.3 1745.48 1165.67 1745.48 1201.57C1745.48 1223.42 1736.66 1232.43 1729.75 1236.15C1726.04 1238.13 1725.04 1243.42 1727.76 1246.81C1734.52 1255.22 1741.55 1264.47 1750.41 1270.12C1784 1291.53 1817.83 1292.19 1855.57 1284.59C1885.94 1278.5 1914.61 1263.51 1936.14 1238.94C1940.2 1234.32 1939.09 1226.69 1933.94 1223.66C1926.81 1219.45 1918.4 1210.41 1915.21 1191C1909.26 1154.67 1896.97 1090.63 1812.86 1108.17Z" fill="#13375B"/>
<path d="M1858.35 1207.23C1855.93 1219.2 1859.94 1230.35 1867.31 1232.14C1874.7 1233.94 1882.64 1225.7 1885.07 1213.75C1887.49 1201.78 1883.48 1190.64 1876.09 1188.84C1868.72 1187.03 1860.78 1195.28 1858.35 1207.23Z" fill="#F4C0B8"/>
<path d="M1749.25 1191.28C1749.25 1203.54 1755.37 1213.46 1762.92 1213.46C1770.48 1213.46 1776.6 1203.54 1776.6 1191.28C1776.6 1179.03 1770.48 1169.11 1762.92 1169.11C1755.37 1169.11 1749.25 1179.03 1749.25 1191.28Z" fill="#F4C0B8"/>
<path d="M1795.61 1270.15L1791.88 1326.17C1791.88 1326.17 1793.62 1338.95 1807.51 1341.67C1821.42 1344.38 1850.94 1321.82 1850.94 1309.85L1844 1245.12L1795.61 1270.15" fill="#F4C0B8"/>
<path d="M1793.78 1297.48C1815.73 1298.68 1833.4 1287.84 1846.46 1268.07L1843.99 1245.12L1795.61 1270.15L1793.78 1297.48" fill="#F7A491"/>
<path d="M1761.48 1219.96C1764.84 1240.76 1770.41 1277.38 1800.2 1281.15C1829.97 1284.92 1852.31 1267.28 1866.45 1235.46C1880.6 1203.64 1877.25 1161.61 1869.42 1140.82C1863.22 1124.28 1836.41 1125.06 1823.24 1125.32C1779.1 1126.13 1754.07 1173.88 1761.48 1219.96" fill="#F4C0B8"/>
<path d="M1805.03 1118.64C1805.03 1118.64 1804.57 1145.4 1824.88 1167.66C1845.2 1189.93 1886.05 1201.57 1886.05 1201.57L1890.89 1214.14C1890.89 1214.14 1897.34 1174.14 1881.96 1147.47C1866.57 1120.81 1805.03 1118.64 1805.03 1118.64" fill="#13375B"/>
<path d="M2253.83 1111.49C2253.83 1111.49 2275.45 1118.26 2288.38 1142.17C2301.33 1166.07 2309.14 1234.75 2264.3 1264.08C2219.47 1293.39 2189.5 1246.32 2186.36 1202.53C2182.65 1150.74 2203.26 1102.69 2253.83 1111.49" fill="#966259"/>
<path d="M3685.95 1980.68C3685.95 1980.68 3707.24 2075.84 3723.1 2090.78C3738.97 2105.72 3790.7 2134.29 3777.16 2137.37C3763.63 2140.45 3663.44 2143 3666.18 2124.68C3668.93 2106.36 3671.81 2094.7 3671.81 2094.7L3645.31 2026.72L3685.95 1980.68" fill="#F79C8D"/>
<path d="M3783.9 2141.28C3759.46 2143.93 3688.13 2146.76 3667.33 2143.84C3667.33 2143.84 3663.44 2143 3666.18 2124.68C3666.85 2120.21 3667.53 2116.13 3668.18 2112.52C3687.03 2117.94 3728.09 2106.39 3744.35 2104.02C3762.02 2113.3 3781.94 2127.15 3788.37 2128.3C3797.67 2129.97 3797.66 2139.78 3783.9 2141.28" fill="#13375B"/>
<path d="M3452.31 2060.46C3452.31 2060.46 3450.07 2084.53 3450.07 2095.15C3450.07 2105.75 3459.09 2135.66 3454.91 2140.24C3450.73 2144.82 3331.39 2144.26 3331.39 2139.96C3331.39 2135.65 3352.49 2122.58 3381.15 2113.62C3409.81 2104.64 3419.55 2069.85 3412.11 2049.86L3452.31 2060.46" fill="#F79C8D"/>
<path d="M3329.47 2140.24C3329.47 2136.23 3349.04 2123.9 3374.4 2115.42C3401.4 2125.42 3438.91 2117.16 3452.96 2114.22C3457.27 2126.56 3458.65 2138.24 3456.43 2140.68C3452.25 2145.26 3329.47 2144.55 3329.47 2140.24" fill="#13375B"/>
<path d="M3581.84 1658.2L3603.24 1679.01C3603.24 1679.01 3627.34 1750.5 3628.73 1755.23C3630.69 1761.8 3708.74 2037.46 3708.74 2037.46L3654.37 2058.9C3654.37 2058.9 3600.46 1943.79 3591.51 1903.8C3582.59 1863.81 3493.26 1696.55 3493.26 1696.55L3581.84 1658.2" fill="#FAE0B2"/>
<path d="M3487.3 1700.62L3461.24 2065.99H3400.95C3400.95 2065.99 3379.35 1792.56 3386.79 1696.55L3487.3 1700.62Z" fill="#FAE0B2"/>
<path d="M3381.59 1332.63C3381.59 1332.63 3419.92 1321.62 3463.47 1318.96C3486.02 1317.6 3516.33 1322.84 3516.33 1322.84C3516.33 1322.84 3543.88 1390.56 3552.06 1446.04C3560.25 1501.54 3604.92 1679.42 3604.92 1679.42C3604.92 1679.42 3514.09 1756.1 3381.59 1705.53V1332.63" fill="#50BFA5"/>
<path d="M3484.82 1271.98C3484.82 1271.98 3483.62 1315.3 3487.34 1319.37C3491.05 1323.44 3496.23 1330.18 3490.78 1340.53C3485.31 1350.86 3461.61 1344.27 3450.57 1338.35C3439.98 1332.67 3433.13 1322.1 3433.13 1322.1L3438.66 1253.48L3484.82 1271.98" fill="#F79C8D"/>
<path d="M3469.06 1289.94C3461.44 1287.01 3448.14 1281.38 3437.88 1263.09L3438.66 1253.48L3484.82 1271.98C3484.82 1271.98 3484.53 1282.55 3484.68 1293.74C3478.21 1293.44 3472.69 1291.32 3469.06 1289.94" fill="#B75742"/>
<path d="M3430.52 1204.5C3430.52 1204.5 3429.4 1179.03 3415.14 1183.97C3400.86 1188.91 3411.74 1227.35 3423.58 1226.09C3435.4 1224.83 3430.52 1204.5 3430.52 1204.5Z" fill="#F79C8D"/>
<path d="M3475.39 1121.29C3475.39 1121.29 3497.72 1120.75 3509.13 1139.79C3520.55 1158.83 3532.96 1213.24 3514.09 1250.76C3495.24 1288.3 3471.17 1279.05 3461.24 1275.24C3451.32 1271.44 3431.72 1263 3421.78 1227.92C3411.86 1192.83 3419.06 1113.95 3475.39 1121.29Z" fill="#F79C8D"/>
<path d="M3385.85 1331.49C3396.04 1356.68 3421.08 1410.94 3419.93 1470.77C3418.73 1533.45 3375.72 1574.13 3375.72 1574.13V1605.11C3375.72 1605.11 3423.18 1596.91 3441.33 1515.93C3459.47 1434.95 3415.81 1324.92 3415.81 1324.92C3415.81 1324.92 3409.59 1320.06 3397.23 1323.83C3389 1326.35 3385.85 1331.49 3385.85 1331.49" fill="#355389"/>
<path d="M3490.12 1318.74C3490.12 1318.74 3525.78 1529.14 3572.04 1542.77L3563.99 1506.9C3563.99 1506.9 3516.33 1336.68 3516.33 1322.84C3516.33 1309.01 3490.12 1318.74 3490.12 1318.74" fill="#355389"/>
<path d="M3586.62 1678.77H3448.22V1505.91L3586.62 1512.65V1678.77Z" fill="#F47458"/>
<path d="M3586.62 1499.18H3454.37C3450.98 1499.18 3448.22 1502.2 3448.22 1505.91C3448.22 1509.63 3450.98 1512.65 3454.37 1512.65H3586.62L3586.51 1512.61C3577.37 1508.85 3577.41 1502.91 3586.62 1499.18Z" fill="#B75742"/>
<path d="M3582.84 1501.17H3458.94C3456.54 1501.17 3454.59 1503.3 3454.59 1505.91C3454.59 1508.54 3456.54 1510.66 3458.94 1510.66H3582.84C3578.63 1507.73 3578.65 1504.11 3582.84 1501.17" fill="#FAE0B2"/>
<path d="M3525.96 1502.14H3517.24C3515.37 1502.14 3513.86 1503.81 3513.86 1505.87V1506.2H3525.96V1502.14Z" fill="#13375B"/>
<path d="M3517.6 1502.16C3519.68 1502.16 3522.79 1504.09 3524.55 1506.47L3545.22 1534.56H3557.36L3537.7 1507.83C3535.4 1504.69 3531.29 1502.14 3528.55 1502.16H3517.6Z" fill="#355389"/>
<path d="M3381.59 1332.63C3381.59 1332.63 3392.03 1344.1 3403.19 1387.57C3414.36 1431.04 3420.04 1532.82 3429.73 1543.42C3439.4 1554.02 3502.68 1609.23 3514.09 1607.34C3525.51 1605.44 3551.07 1572.79 3559.02 1572.79C3566.95 1572.79 3565.96 1580.67 3561.99 1585.03C3558.02 1589.38 3553.18 1594.41 3555.54 1597C3557.89 1599.58 3557.89 1599.58 3557.89 1599.58C3557.89 1599.58 3593.25 1589.38 3599.21 1593.2C3605.17 1597 3593.5 1605.98 3593.5 1612.51C3593.5 1619.03 3594.96 1618.92 3594.25 1626.1C3593.54 1633.29 3591.9 1639.03 3588.79 1642.42C3585.69 1645.83 3546.6 1658.2 3508.39 1652.48C3470.17 1646.77 3423.52 1626.65 3389.03 1579.86C3354.53 1533.09 3361.45 1386.05 3362.23 1371.38C3364.22 1334.26 3381.59 1332.63 3381.59 1332.63" fill="#F79C8D"/>
<path d="M3357.05 855.559C3370.22 893.639 3409.03 912.799 3443.76 898.384C3478.49 883.954 3495.97 841.399 3482.82 803.319C3469.66 765.253 3430.84 746.078 3396.11 760.509C3361.38 774.939 3343.9 817.494 3357.05 855.559Z" fill="#F7CC7F"/>
<path d="M3457.33 826.398C3464.36 846.759 3455.01 869.508 3436.44 877.227C3417.88 884.93 3397.12 874.689 3390.09 854.327L3457.33 826.398Z" fill="#EFEFEF"/>
</svg>
