<svg width="451" height="781" viewBox="0 0 451 781" fill="none" xmlns="http://www.w3.org/2000/svg">
<path d="M447.773 527.729C447.079 530.249 446.213 532.743 445.186 535.168C444.693 536.315 444.173 537.448 443.613 538.555C437.399 550.955 427.053 561.009 415.879 569.343C402.853 579.048 388.373 586.768 373.106 592.303C361.761 596.448 349.974 599.369 338.014 601.023C324.987 602.835 311.747 603.129 298.654 601.821C298.521 601.821 298.387 601.809 298.254 601.781C297.454 601.715 296.641 601.621 295.839 601.529L296.827 585.863L298.239 563.181L299.227 547.515L302.667 492.821L303.121 485.555L303.614 477.541L306.787 427.181L307.681 412.888L307.814 410.648L309.521 383.515C312.747 382.423 316.014 381.529 319.321 380.835C325.681 379.476 332.161 378.848 338.667 378.863C343.201 378.875 347.747 379.208 352.254 379.848H352.267C372.039 382.661 391.173 391.315 406.399 404.356C413.066 410.063 419.013 416.529 424.199 423.555C425.773 425.676 427.279 427.863 428.706 430.089C432.559 436.063 435.919 442.381 438.759 448.941C440.159 452.143 441.439 455.409 442.586 458.715C446.439 469.781 448.933 481.343 450.013 492.995V493.009C450.079 493.796 450.146 494.595 450.213 495.381C450.359 497.249 450.466 499.115 450.533 500.995C450.533 500.995 450.533 500.995 450.533 501.009C450.853 510.023 450.199 519.129 447.773 527.729" fill="#B24846"/>
<path d="M342.011 277.149C339.682 287.71 337.327 298.265 335.027 308.833C330.151 308.376 324.948 310.845 323.8 316.288C323.032 319.938 322.238 323.584 321.431 327.224C320.079 326.106 318.486 325.516 316.823 325.369C318.156 323.749 319.61 322.23 321.074 320.824C326.982 315.158 320.934 304.345 312.96 306.885C303.45 309.917 297.443 316.097 293.535 324.657C289.411 321.645 285.054 319.028 280.434 317.146C275.842 315.277 273.191 320.808 275.004 324.411C274.939 324.428 274.874 324.445 274.808 324.464C281.335 333.765 290.147 341.584 297.466 350.278C305.058 359.297 311.824 368.786 317.838 378.93C320.107 382.76 324.534 384.327 328.76 383.376C328.902 383.344 329.034 383.3 329.172 383.264C330.87 388.942 337.362 391.22 342.671 389.572C346.879 389.248 350.819 386.845 351.827 382.002C358.808 348.447 362.638 314.261 362.967 279.985C363.08 268.18 344.648 265.202 342.011 277.149Z" fill="#FF6765"/>
<path d="M137.182 654.287C126.488 681.84 108.336 740.94 112 770.5C112.462 774.232 126.5 772.808 129 772.808C137.182 772.808 137.751 772.808 152.5 772.808C175 772.808 181.672 770.51 204.599 772.808C209.631 773.318 215.775 773.105 218.318 768.453C219.748 765.828 219.504 762.578 219.142 759.57C215.929 733.005 206.724 707.513 204.295 680.855C200.454 638.683 215.649 602.068 224 562.117C177.879 551.429 150.441 620.127 137.182 654.287Z" fill="#FF6765"/>
<path d="M206.069 411.316C176.894 421.117 143.026 415.569 118.503 396.973C102.779 385.048 88.4849 367.288 68.7515 367.362C51.3755 367.428 36.9875 382.57 31.9662 399.206C28.6568 410.172 28.5501 422.314 32.9955 432.872C38.7261 446.482 51.2382 456.085 64.3355 462.912C106.81 485.049 160.978 482.812 201.482 457.242L206.069 411.316" fill="#FF6765"/>
<path d="M80.0393 21.9444C94.2647 8.62312 117.451 2.28578 135.929 10.1671C167.469 23.6191 167.102 64.1324 184.374 91.6791C192.727 68.6698 197.63 43.9084 213.234 24.2778C228.834 4.65379 260.173 -7.70353 282.498 5.45781C322.709 29.1645 314.875 118.291 278.51 142.316C260.717 154.072 237.395 155.528 215.445 156.56C188.729 157.819 161.686 159.056 135.449 154.31C67.3086 141.98 23.782 74.6231 80.0393 21.9444" fill="#FF6765"/>
<path d="M289.511 32.9775C274.774 7.33346 240.237 12.6214 224.942 35.0508C207.333 60.8708 230.757 100.441 257.558 100.388C277.807 100.347 294.253 84.1348 295.339 61.2775C295.897 49.5068 293.611 40.1121 289.511 32.9775" fill="white"/>
<path d="M236.951 61.7111C228.051 82.1644 247.195 102.704 265.163 91.8084C281.142 82.1151 278.591 53.4964 259.834 50.1911C250.418 48.5324 241.397 51.4964 236.951 61.7111" fill="#100F0D"/>
<path d="M247.635 77.3066C241.799 81.0893 243.734 91.94 250.657 92.6093C256.198 93.144 261.227 87.8293 258.686 82.16C256.57 77.4387 252.173 74.3653 247.635 77.3066" fill="white"/>
<path d="M146.97 35.7654C132.232 10.1214 97.6952 15.4107 82.3992 37.8387C64.7912 63.6601 88.2152 103.229 115.015 103.175C135.267 103.135 151.711 86.9227 152.796 64.0654C153.356 52.2947 151.07 42.9 146.97 35.7654" fill="white"/>
<path d="M94.4098 64.5C85.5098 84.952 104.654 105.492 122.622 94.596C138.6 84.9027 136.051 56.284 117.292 52.9787C107.878 51.32 98.8551 54.284 94.4098 64.5Z" fill="#100F0D"/>
<path d="M105.095 80.0949C99.2581 83.8789 101.193 94.7282 108.116 95.3962C113.657 95.9322 118.686 90.6176 116.145 84.9496C114.029 80.2283 109.633 77.1536 105.095 80.0949Z" fill="white"/>
<path d="M52.1019 135.093C22.3886 155.601 2.35388 188.433 0.191215 222.934C-1.97279 257.434 14.3392 292.836 43.6192 313.882C70.4725 333.185 105.271 339.614 138.934 342.97C170.398 346.106 202.111 347.046 233.725 345.796C250.291 345.141 267.438 344.604 283.597 341.425C294.41 339.298 301.56 337.214 310.694 331.904C320.008 326.485 330.649 323.753 338.65 316.261C355.049 302.705 371.133 284.496 375.373 263.848C381.733 232.94 375.266 199.69 356.591 173.394C300.01 93.7477 130.766 80.8024 52.1019 135.093" fill="#FF6765"/>
<path d="M317.923 277.417C301.712 282.692 287.455 292.185 271.038 297.368C254.74 302.51 237.736 305.789 220.538 306.429C201.223 307.149 181.919 304.924 162.838 302.35C143.615 299.76 124.454 296.425 106.067 290.45C97.5684 287.689 89.3737 284.202 81.2977 280.502C75.7737 277.973 69.5804 272.565 63.3871 271.758C59.3551 271.236 56.2431 273.876 56.4604 277.66C56.7004 281.814 61.6044 284.46 64.9018 286.506C73.9298 292.108 83.7378 296.525 93.6964 300.464C112.066 307.73 131.259 312.361 150.835 315.757C190.204 322.588 230.312 327.376 269.427 316.574C279.494 313.794 289.328 310.19 298.795 305.949C308.35 301.668 318.262 296.634 325.066 288.905C329.283 284.114 325.514 274.948 317.923 277.417" fill="#FFC2C1"/>
<path d="M224.826 269.725C224.477 268.651 224.003 267.669 223.366 266.728C222.167 264.955 220.102 263.977 217.861 264.259C216.867 264.384 216.042 264.703 215.247 265.277C214.357 265.921 213.491 266.895 213.269 267.964C212.669 270.835 212.523 274.367 215.165 276.453C216.615 277.599 218.107 278.183 220.021 277.941C221.761 277.723 223.375 276.839 224.245 275.357C224.827 274.365 225.282 273.269 225.282 272.12C225.282 271.323 225.073 270.488 224.826 269.725" fill="#FFC2C1"/>
<path d="M174.681 263.32C171.791 261.891 168.542 262.728 166.771 265.261C165.663 266.847 164.825 268.7 164.455 270.564C164.175 271.981 163.986 273.369 164.338 274.792C164.787 276.612 165.849 277.795 167.415 278.887C169.218 280.145 172.329 279.576 173.799 278.116C174.659 277.263 175.225 276.32 175.555 275.193C175.734 274.583 175.823 273.959 175.894 273.327C175.899 273.268 175.915 273.077 175.927 272.889C175.955 272.728 175.993 272.493 176.01 272.423C176.081 272.145 176.211 271.864 176.263 271.587C176.266 271.573 176.265 271.572 176.267 271.56C176.43 271.283 176.581 271 176.755 270.725C178.302 268.289 177.427 264.679 174.681 263.32" fill="#FFC2C1"/>
<path d="M345.299 243.184C344.15 239.813 341.215 236.317 337.249 235.647C334.154 235.123 331.359 235.132 328.271 235.752C326.665 236.075 325.039 236.403 323.441 236.756C319.053 237.725 313.71 241.389 314.059 246.199C314.418 251.165 318.41 254.807 323.441 255.947C327.811 256.937 332.949 257.897 337.249 256.459C340.741 255.291 344.703 252.705 345.299 248.923C345.626 246.845 346.007 245.259 345.299 243.184" fill="#FFC2C1"/>
<path d="M59.2352 228.121C56.4912 226.961 54.2939 226.216 51.2459 226.352C49.7686 226.417 48.2605 226.623 46.7832 226.752C33.6259 227.897 29.9832 240.525 43.4859 245.257C47.6912 246.731 52.2672 247.967 56.6659 246.532C60.7832 245.189 63.7752 242.315 64.3725 238.157C64.8939 234.528 63.0979 229.753 59.2352 228.121" fill="#FFC2C1"/>
<path d="M381.826 573.604C412.026 492.292 356.289 310.624 239.601 359.96C198.427 377.369 184.438 429.17 178.811 469.302C172.014 517.786 177.448 573.537 214.742 605.257C238.774 625.697 272.038 632.209 303.558 630.874C318.037 630.261 332.826 628.034 345.473 620.96C363.21 611.037 374.746 592.656 381.826 573.604Z" fill="#B24846"/>
<path d="M346.537 507.065C346.066 516.221 345.282 525.457 343.738 534.509C342.666 540.749 341.253 546.897 339.33 552.888V552.901C337.89 557.415 336.165 561.836 334.083 566.127C310.955 613.939 229.525 633.863 195.03 588.377C187.102 577.925 181.831 565.879 178.311 553.203C177.658 550.835 177.057 548.441 176.519 546.021C174.781 538.264 173.603 530.336 172.831 522.461C171.535 509.432 171.234 496.155 172.557 483.127C172.831 480.313 173.197 477.515 173.642 474.741C175.317 464.157 178.169 453.824 182.563 444.027C185.337 437.839 188.711 432.096 192.597 426.876C194.362 424.509 196.233 422.233 198.195 420.088C218.366 398.02 248.637 387.829 279.522 396.751C291.307 400.151 301.394 405.476 309.909 412.252C314.201 415.64 318.098 419.421 321.605 423.501C332.095 435.733 339.094 450.711 342.993 466.84C343.018 466.972 343.058 467.089 343.083 467.219C344.182 471.851 345.033 476.547 345.634 481.32V481.335C346.694 489.812 346.982 498.457 346.537 507.065Z" fill="#FFC2C1"/>
<path d="M321.605 423.501C319.263 424.051 316.947 424.561 314.749 425.149C307.411 427.073 300.059 428.891 292.642 430.475C278.017 433.6 263.105 435.889 248.139 436.361C229.079 436.963 210.047 434.044 192.597 426.876C194.362 424.509 196.233 422.233 198.195 420.088C215.045 424.665 232.951 425.541 250.338 424.3C265.118 423.24 279.705 420.297 294.055 416.608C299.366 415.248 304.638 413.769 309.909 412.252C314.201 415.64 318.098 419.421 321.605 423.501" fill="#B24846"/>
<path d="M345.634 481.32V481.334C341.005 483.336 336.019 484.697 331.363 486.03C322.911 488.45 314.343 490.504 305.725 492.217C287.867 495.762 269.618 498.013 251.41 498.366C234.445 498.693 216.862 498.326 200.197 494.768C193.133 493.264 185.991 491.145 179.542 487.809C176.898 486.449 174.622 484.878 172.557 483.126C172.831 480.313 173.197 477.515 173.642 474.741C183.635 480.628 196.835 482.76 207.654 483.624C223.429 484.878 239.218 485.101 255.006 484.081C271.542 483.008 287.919 480.954 304.127 477.436C312.33 475.656 320.466 473.55 328.498 471.13C333.181 469.717 338.047 467.913 342.993 466.84C343.018 466.972 343.058 467.089 343.083 467.218C344.182 471.85 345.033 476.546 345.634 481.32" fill="#B24846"/>
<path d="M343.738 534.509C342.666 540.749 341.252 546.897 339.33 552.888V552.901C328.446 557.18 316.49 559.639 305.527 561.836C289.386 565.093 272.915 566.676 256.447 566.715C229.447 566.781 203.506 561.784 178.311 553.203C177.658 550.835 177.056 548.441 176.519 546.021C202.132 552.287 229.027 554.145 255.228 553.072C271.188 552.419 287.056 550.247 302.635 546.78C316.632 543.68 329.923 537.977 343.738 534.509" fill="#B24846"/>
<path d="M280.982 683.631C278.992 711.581 282.171 740.436 294.417 765.641C295.963 768.828 297.781 772.081 300.783 773.961C303.947 775.935 307.891 776.042 311.618 776.014C334.674 775.908 357.718 773.228 380.186 768.028C385.106 766.895 390.892 764.774 391.919 759.814C392.506 757.028 391.306 754.201 390.066 751.632C379.146 728.956 362.838 709.129 352.624 686.123C336.468 649.725 340.046 612.271 336.134 574.003C289.146 579.04 283.448 648.976 280.982 683.631" fill="#FF6765"/>
<path d="M394.999 437.168C392.746 433.13 390.626 429.036 388.719 424.822C387.493 422.13 385.919 419.476 384.399 416.81C384.719 415.81 384.613 414.69 383.826 413.622C380.413 408.995 388.973 409.848 391.293 411.196C394.013 412.782 396.439 415.13 398.413 417.555C401.239 421.01 405.759 427.636 406.413 432.743C403.199 435.423 399.133 436.703 394.999 437.168ZM404.773 408.41C399.093 402.236 389.533 396.315 380.986 400.356C375.213 403.102 372.679 409.502 374.679 414.982C374.959 420.57 376.439 425.275 379.053 430.41C381.599 435.37 384.359 442.182 389.413 444.942C391.039 445.835 392.666 445.275 393.546 444.076C401.039 443.888 416.093 442.796 416.639 433.155C417.106 424.662 410.186 414.275 404.773 408.41" fill="#FF6765"/>
<path d="M421.039 496.782C419.426 497.636 409.359 497.463 407.999 496.476C405.746 494.835 406.653 489.382 406.506 486.69C406.199 481.168 406.306 475.208 405.559 469.515C406.399 469.41 407.133 469.076 407.733 468.608C408.413 468.583 409.146 468.53 409.506 468.555C411.506 468.703 413.493 468.835 415.493 468.97C417.319 469.102 419.786 468.768 421.466 469.382C421.759 469.448 421.986 469.488 422.159 469.515C422.253 470.288 422.333 471.048 422.413 471.822C422.933 476.715 426.386 493.955 421.039 496.782V496.782ZM431.479 464.875C429.239 459.502 424.186 459.315 419.079 458.97C413.746 458.595 406.413 456.57 401.506 459.236C399.359 460.41 398.786 462.796 399.159 465.023L399.306 465.888C399.333 466.076 399.399 466.25 399.453 466.423C398.719 471.822 399.119 477.448 399.133 482.848C399.159 488.155 397.359 496.73 400.799 501.275C403.786 505.208 410.239 504.502 414.519 504.583C419.586 504.676 425.773 505.463 429.146 500.835C432.333 496.476 432.053 489.023 432.359 483.942C432.693 478.168 433.786 470.37 431.479 464.875" fill="#FF6765"/>
<path d="M419.653 537.636C417.759 542.875 416.333 549.396 412.346 553.476C411.079 554.835 409.546 555.743 407.746 556.196C405.853 555.781 405.546 554.648 406.799 552.835C406.746 550.476 407.999 547.515 408.506 545.261C409.679 540.036 411.373 534.463 411.466 529.036C413.826 527.995 417.746 526.356 419.733 527.595C423.546 529.981 420.679 534.809 419.653 537.636ZM430.813 525.529C426.693 514.396 413.839 517.369 405.773 521.356C402.293 523.076 402.933 526.743 405.226 528.661C403.093 533.648 402.119 539.315 400.866 544.488C399.839 548.729 396.226 556.435 398.719 560.648C403.586 568.888 416.173 562.155 420.239 556.821C423.973 551.916 426.119 545.781 428.559 540.181C430.573 535.569 432.693 530.555 430.813 525.529Z" fill="#FF6765"/>
<path d="M450.532 501.009C447.066 509.448 444.319 521.076 447.772 527.729C447.079 530.249 446.212 532.743 445.186 535.168C444.692 536.315 444.172 537.448 443.612 538.555C437.652 533.595 436.812 523.343 437.772 515.621C438.932 506.356 441.479 496.756 450.012 493.009C450.079 493.796 450.146 494.595 450.212 495.381C450.359 497.249 450.466 499.115 450.532 500.995C450.532 500.995 450.532 500.995 450.532 501.009Z" fill="#FF6765"/>
<path d="M442.586 458.715C434.226 458.863 424.413 453.703 421.079 446.595C417.586 439.143 419.399 430.115 424.199 423.555C425.772 425.676 427.279 427.863 428.706 430.089C426.946 434.848 425.959 439.636 429.159 444.143C431.532 447.501 435.052 448.396 438.759 448.941C440.159 452.143 441.439 455.409 442.586 458.715Z" fill="#FF6765"/>
<path d="M295.488 495.904C275.489 510.234 193.364 534.408 226.991 573.575C242.642 591.802 270.49 597.099 292.963 588.606C349.435 567.267 376.888 475.476 346.586 425.896C344.26 422.091 341.491 418.324 337.52 416.294C333.551 414.262 328.108 414.496 325.236 417.91C323.041 420.518 322.826 424.198 322.591 427.599C321.02 450.372 315.12 481.838 295.488 495.904Z" fill="#FF6765"/>
<rect x="46" y="773" width="359" height="8" fill="white"/>
</svg>
