<svg width="1372" height="841" viewBox="0 0 1372 841" fill="none" xmlns="http://www.w3.org/2000/svg">
<path d="M249.948 116.415C249.948 116.415 292.396 0.224949 229.915 0.000315753C167.438 -0.227527 134.179 124.46 134.179 124.46C134.179 124.46 16.9033 125.327 26.6939 174.739C36.4939 224.156 134.705 199.876 134.705 199.876L249.948 116.415Z" fill="#8C85D1"/>
<path d="M210.356 143.107C210.356 143.107 191.7 -2.30755 132.16 13.2771C72.615 28.8552 87.8637 156.957 87.8637 156.957C87.8637 156.957 -23.4125 187.443 4.4895 232.397C32.3962 277.351 116.726 229.209 116.726 229.209L210.356 143.107Z" fill="#A6A0DB"/>
<path d="M176.99 88.4575C176.99 110.935 163.184 129.155 146.162 129.155C129.135 129.155 115.333 110.935 115.333 88.4575C115.333 65.9799 129.135 47.7603 146.162 47.7603C163.184 47.7603 176.99 65.9799 176.99 88.4575Z" fill="white"/>
<path d="M79.7904 221.648C79.7904 231.495 67.7758 239.474 52.9526 239.474C38.1276 239.474 26.1133 231.495 26.1133 221.648C26.1133 211.807 38.1276 203.822 52.9526 203.822C67.7758 203.822 79.7904 211.807 79.7904 221.648Z" fill="white"/>
<path d="M100.1 193.061C100.1 199.006 93.1184 203.822 84.507 203.822C75.8917 203.822 68.9097 199.006 68.9097 193.061C68.9097 187.119 75.8917 182.296 84.507 182.296C93.1184 182.296 100.1 187.119 100.1 193.061Z" fill="white"/>
<path d="M135.417 202.79C114.844 214.53 35.213 269.857 18.6987 228.014C10.4122 207.027 38.5387 190.066 56.9464 180.618C75.8996 170.891 97.7576 165.24 119.132 160.378C121.101 159.925 122.422 158.138 121.809 156.491C114.243 136.115 107.368 115.755 105.866 94.3662C104.64 76.8517 112.977 32.1254 144.65 36.139C163.717 38.557 175.332 63.5582 181.216 76.2044C191.18 97.6127 193.342 121.093 194.261 143.799C194.407 147.324 201.085 147.333 200.924 143.799C199.689 116.949 195.83 90.4044 182.662 65.62C175.084 51.3489 161.48 30.8112 139.626 30.9439C115.524 31.0896 103.343 61.2276 100.316 76.3274C94.8922 103.432 104.695 132.502 114.415 158.17C115.308 156.876 116.2 155.578 117.092 154.283C77.8099 163.414 -5.39463 187.525 13.6809 233.083C20.6683 249.776 45.1656 248.028 61.7889 244.626C91.3783 238.579 114.923 220.596 136.545 203.994C137.311 203.408 136.293 202.288 135.417 202.79" fill="white"/>
<path d="M343.11 66.957C339.164 65.1784 335.587 67.5423 334.852 70.3148C318.245 69.5364 300.482 77.5676 287.864 87.0782C283.737 85.2803 279.059 84.2414 274.13 84.2414C273.108 84.2414 272.098 84.2865 271.099 84.3701C274.456 77.9343 278.296 71.6206 283.049 65.8313C288.733 58.9194 296.492 54.6803 303.74 49.3477C304.636 49.9877 305.835 50.4059 307.368 50.4059C314.754 50.4059 314.754 41.0335 307.368 41.0335C302.864 41.0335 301.122 44.5136 302.113 47.2313C285.529 53.7186 274.063 70.1733 269.311 84.6017C255.333 86.5347 244.406 96.6468 244.406 108.56C244.406 110.519 244.736 112.42 245.29 114.25C217.173 123.59 193.18 140.955 171.298 157.824C141.283 180.962 103.406 218.255 110.367 254.278C111.621 260.769 121.338 262.332 127.391 259.942C160.252 246.964 178.794 211.845 197.272 187.688C213.125 166.975 229.956 142.54 252.908 125.436C258.336 130 265.879 132.882 274.13 132.882C290.328 132.882 303.85 121.818 303.85 108.56C303.85 100.027 298.233 92.4269 289.924 88.0752C295.423 84.7431 301.142 81.6394 307.191 79.0889C316.244 75.2744 325.54 74.6214 335.033 72.8074C335.442 73.7241 336.24 74.5603 337.588 75.1682C344.058 78.0822 349.58 69.871 343.11 66.957" fill="white"/>
<path d="M282.391 112.296C283.084 112.18 283.673 111.824 283.961 111.164C284.474 110.42 285.093 109.798 285.823 109.18C286.595 108.52 286.734 107.539 286.198 106.738L286.097 106.585C285.546 105.763 284.096 105.376 283.036 105.76C282.605 105.826 282.189 105.982 281.855 106.332L281.507 106.76L281.477 106.738L281.147 107.204C280.784 107.657 280.439 108.136 280.147 108.617L279.675 109.286L279.573 109.633L279.431 109.88C278.667 111.486 280.716 112.549 282.357 112.302L282.391 112.296" fill="#200A0C"/>
<path d="M289.61 117.01L289.644 117.004C290.337 116.891 290.926 116.535 291.214 115.875C291.728 115.131 292.346 114.512 293.077 113.89C293.849 113.23 293.988 112.245 293.452 111.451L293.351 111.294C292.8 110.472 291.349 110.084 290.288 110.469C289.857 110.535 289.441 110.691 289.108 111.041L288.759 111.469L288.733 111.451L288.403 111.917C288.036 112.367 287.695 112.845 287.402 113.327L286.93 113.996L286.825 114.343L286.687 114.59C285.918 116.197 287.965 117.26 289.61 117.01" fill="#200A0C"/>
<path d="M269.186 119.737C264.845 119.737 261.705 116.095 262.804 112.513C263.725 109.494 266.316 107.781 269.865 107.635C269.946 107.632 270.027 107.629 270.108 107.629C273.023 107.629 276.41 109.793 276.959 112.291C277.688 115.618 275.344 119.737 270.959 119.734C270.749 119.734 270.539 119.728 270.321 119.709L269.953 119.645L269.186 119.737" fill="#DF7F7F"/>
<path d="M288.889 129.155C288.584 129.155 288.28 129.144 287.971 129.124C291.544 127.883 294.741 126.296 297.4 124.446C297.367 124.823 297.243 125.197 297.01 125.557C295.835 127.39 294.113 128.182 291.073 128.922C290.411 129.083 289.664 129.155 288.889 129.155" fill="#DE732C"/>
<path d="M289.388 129.155C287.635 128.973 285.85 128.221 284.897 127.232C282.477 124.706 281.985 121.255 284.897 118.777C286.197 117.675 288.156 117.046 290.086 117.046C291.593 117.046 293.083 117.431 294.214 118.275C296.197 119.323 297.514 121.365 297.393 123.356C295.135 125.65 292.421 127.617 289.388 129.155ZM295.2 119.172C295.216 119.189 295.232 119.206 295.248 119.223C295.236 119.206 295.22 119.189 295.204 119.172H295.2Z" fill="#DF7F7F"/>
<path d="M229.839 119.737C228.165 120.543 226.506 121.379 224.864 122.239C228.18 128.335 232.678 134.091 238.232 138.572C240.023 136.716 241.85 134.894 243.723 133.126C238.705 128.838 233.906 124.595 229.839 119.737Z" fill="#F6D351"/>
<path d="M218.565 140.205C215.267 137.512 212.201 134.726 209.3 131.845C207.707 132.72 206.122 133.612 204.553 134.517C209.364 141.539 215.587 148.031 223.167 153.371C224.916 151.471 226.673 149.571 228.49 147.714C225.177 145.224 221.759 142.806 218.565 140.205Z" fill="#F6D351"/>
<path d="M185.116 148.662C183.604 149.692 182.104 150.724 180.616 151.766C187.04 160.746 195.752 169.086 206.216 174.897C208.049 172.628 209.914 170.356 211.807 168.069C201.858 162.297 192.654 156.085 185.116 148.662" fill="#F6D351"/>
<path d="M165.404 162.789C164.192 163.721 162.977 164.67 161.757 165.644C169.94 176.936 179.694 187.815 191.839 196.423C193.665 193.961 195.486 191.561 197.3 189.264C185.941 180.94 175.163 172.513 165.404 162.789" fill="#F6D351"/>
<path d="M141.751 184.314C140.42 185.642 139.112 186.999 137.82 188.364C146.662 200.863 158.641 212.262 173.342 219.966C175.073 217.709 176.78 215.439 178.44 213.17C164.535 204.778 151.866 195.494 141.751 184.314Z" fill="#F6D351"/>
<path d="M122.426 208.531C121.201 210.43 120.043 212.345 118.96 214.276C127.934 225.849 139.627 236.643 153.304 244.183C156.248 241.536 159.058 238.735 161.757 235.814C147.013 228.125 133.629 219.614 122.426 208.531" fill="#F6D351"/>
<path d="M110.566 234.765C110.113 236.668 109.773 238.576 109.53 240.491C116.146 247.179 123.59 253.299 131.971 258.309C134.488 257.116 136.918 255.795 139.27 254.358C128.751 248.741 119.225 242.2 110.566 234.765Z" fill="#F6D351"/>
<path d="M884 638.5C884 666.94 822.215 690 746 690C669.785 690 608 666.94 608 638.5C608 610.06 669.785 587 746 587C822.215 587 884 610.06 884 638.5Z" fill="#F2F1F9"/>
<path d="M702.015 546.88C701.194 545.473 699.018 545.447 697.704 546.416C696.391 547.384 695.736 548.987 695.164 550.514C685.486 576.339 681.8 604.389 684.478 631.838C684.584 632.93 684.718 634.068 685.327 634.98C686.106 636.144 687.499 636.71 688.819 637.178C700.275 641.251 716.746 645.398 729.05 642.331C743.476 638.737 741.66 623.189 739.883 611.813C736.696 591.421 731.738 571.844 736.88 551.211L702.015 546.88Z" fill="#8C85D1"/>
<path d="M791.962 542.497C792.783 541.089 794.959 541.063 796.274 542.032C797.586 542.999 798.241 544.602 798.814 546.13C808.491 571.956 812.177 600.005 809.499 627.454C809.393 628.545 809.259 629.685 808.65 630.597C807.873 631.761 806.479 632.325 805.159 632.794C793.703 636.868 777.231 641.018 764.929 637.95C750.501 634.353 752.317 618.805 754.095 607.429C757.281 587.037 762.239 567.459 757.098 546.826L791.962 542.497Z" fill="#8C85D1"/>
<path d="M675.287 404.395C643.182 396.687 616.91 368.713 611.23 336.187C609.9 328.567 609.592 320.71 607.091 313.391C604.59 306.073 599.267 299.093 591.731 297.347C581.171 294.903 571.219 303.382 565.13 312.349C544.576 342.614 546.658 386.377 569.99 414.554C593.323 442.734 635.928 452.939 669.496 438.39L675.287 404.395Z" fill="#A6A0DB"/>
<path d="M799.936 387.827C817.136 389.159 834.016 394.485 848.87 403.262C856.55 407.799 863.888 413.469 868.278 421.234C871.395 426.749 872.871 433.066 873.416 439.377C874.7 454.227 870.878 469.475 862.735 481.965C845.215 508.842 810.19 519.887 778.192 517.538L799.936 387.827Z" fill="#8C85D1"/>
<path d="M806.876 378.937C839.132 405.518 851.44 453.725 835.871 492.515C825.276 518.914 799.828 542.062 774.028 553.667C758.114 560.827 730.576 558.414 714.146 553.774C695.871 548.615 679.138 538.943 663.884 527.631C645.86 514.263 642.994 488.695 642.504 467.301C641.828 437.713 648.88 403.777 674.686 389.285L806.876 378.937Z" fill="#8C85D1"/>
<path d="M824.199 481.663C822.958 487.621 821.198 493.438 818.91 499.015C817.967 501.374 816.908 503.685 815.771 505.949C797.879 541.413 751.64 554.406 715.098 542.632C694.135 535.87 676.082 520.967 664.812 502.086C662.167 497.658 659.902 493.025 658.063 488.218C656.74 484.779 655.636 481.25 654.762 477.651C652.267 467.347 651.727 456.618 652.98 446.098C653.463 442.073 654.199 438.083 655.199 434.15C659.178 418.442 667.204 403.735 678.646 392.249L788.472 382.313C804.215 392.661 815.035 408.151 821.002 425.629C822.704 430.619 824.015 435.771 824.912 441.015C827.258 454.399 827.016 468.359 824.199 481.663Z" fill="#CCC9EA"/>
<path d="M709.447 388.043C709.494 387.629 709.534 387.193 709.571 386.741C709.883 387.254 710.231 387.745 710.61 388.221C710.505 388.207 710.399 388.198 710.294 388.183C710.011 388.141 709.73 388.087 709.447 388.043ZM781.142 274.215C784.038 266.375 773.339 257.746 766.414 262.894C759.115 268.319 753.803 275.071 749.905 282.625C747.646 281.034 744.639 280.333 741.143 280.935C732.731 282.386 724.339 283.939 715.945 285.477C715.493 285.559 715.069 285.679 714.659 285.815C709.93 282.507 704.357 280.55 697.73 280.822C694.167 280.97 691.315 282.575 689.483 284.926C684.693 278.634 679.143 272.893 673.146 267.746C670.307 265.309 666.531 269.035 669.029 271.862C680.123 284.41 686.359 300.721 690.129 316.883C694.33 334.897 694.762 353.782 693.231 372.159C692.863 376.577 692.371 380.982 691.807 385.378C691.247 389.746 690.315 394.166 692.606 398.265C696.949 406.037 708.479 405.895 716.251 406.585C734.405 408.193 752.934 405.825 770.223 400.146C776.187 398.187 778.21 392.25 775.665 386.775C767.818 369.903 766.333 349.322 767.647 331.042C769.051 311.557 774.397 292.475 781.142 274.215Z" fill="#A6A0DB"/>
<path d="M854.114 33.8568C848.606 33.2528 843.031 33.6115 837.694 35.1608C828.475 37.8368 822.743 43.5995 816.794 51.0235C812.651 56.1955 808.071 67.3008 801.923 69.6888C795.962 71.9995 779.763 64.4248 773.265 63.2701C755.887 60.1861 737.575 58.6115 720.441 58.1475C702.885 57.6688 685.221 58.6835 667.937 62.0955C660.002 63.6621 649.465 70.7075 642.485 66.7182C635.541 62.7502 631.363 49.4888 625.495 43.6048C613.317 31.3915 593.446 29.9622 578.519 38.1075C574.814 40.1302 571.307 42.7221 568.779 46.2195C566.646 49.1728 565.279 52.6702 564.309 56.2382C560.859 68.9115 563.198 80.0728 567.133 92.1261C570.378 102.069 577.023 109.155 577.75 118.478C579.847 145.39 579.239 169.856 585.926 196.606C590.654 215.522 598.243 233.956 609.729 249.434C638.681 288.448 685.23 295.54 729.059 296.862C769.761 298.09 808.422 280.369 837.919 251.313C859.781 229.775 870.829 198.386 874.758 167.373C877.005 149.645 870.299 123.458 878.147 108.88C891.618 83.8502 902.302 52.1995 869.153 37.8981C864.361 35.8301 859.266 34.4222 854.114 33.8568Z" fill="#A6A0DB"/>
<path d="M739.461 216.162C702.797 216.162 670.203 200.691 650.002 173.689C649.463 172.969 649.581 171.923 650.263 171.354C650.945 170.783 651.937 170.909 652.479 171.63C672.077 197.825 703.771 212.835 739.461 212.835C739.554 212.835 739.639 212.835 739.733 212.835C753.185 212.807 798.507 210.201 816.83 177.867C817.279 177.077 818.241 176.822 818.997 177.293C819.741 177.763 819.989 178.785 819.542 179.573C800.366 213.406 753.61 216.133 739.738 216.162C739.646 216.162 739.554 216.162 739.461 216.162Z" fill="#201C1D"/>
<path d="M827.063 133.709C826.023 134.983 825.603 136.723 826.95 137.889C829.901 140.438 833.33 134.703 831.211 132.581C830.101 131.467 828.207 132.306 827.063 133.709Z" fill="white"/>
<path d="M847.914 131.867C850.226 130.727 851.084 125.799 847.99 124.729C843.678 123.238 840.982 126.599 844.18 130.459C845.566 132.13 846.886 132.375 847.914 131.867Z" fill="white"/>
<path d="M855.155 154.785C859.647 154.683 861.193 149.501 857.225 146.821C852.421 143.571 847.931 151.274 852.359 154.135C853.185 154.667 854.187 154.807 855.155 154.785Z" fill="white"/>
<path d="M832.002 159.585C834.957 162.933 840.657 158.447 837.834 154.626C835.003 150.793 828.67 155.806 832.002 159.585Z" fill="white"/>
<path d="M610.984 130.398C612.972 129.257 614.302 126.561 611.694 124.871C608.67 122.913 604.696 127.237 607.346 130.157C608.303 131.211 609.767 131.097 610.984 130.398Z" fill="white"/>
<path d="M598.468 151.182C603.768 148.77 599.07 141.711 595.067 145.599C592.287 148.301 594.863 152.822 598.468 151.182Z" fill="white"/>
<path d="M631.332 137.456C629.966 134.473 625.183 134.168 623.639 137.098C621.557 141.049 626.592 145.049 629.915 142.692C631.472 141.586 632.15 139.237 631.332 137.456Z" fill="white"/>
<path d="M702.767 157.183C705.741 154.433 705.087 147.021 699.253 150.345C698.071 151.018 697.203 152.286 696.871 153.61C696.387 155.543 697.046 157.597 699.553 158.082C700.873 158.339 701.955 157.934 702.767 157.183Z" fill="black"/>
<path d="M757.047 155.298C756.883 147.026 746.319 150.239 749.152 157.195C750.07 159.449 752.859 160.814 754.902 159.642C756.332 158.822 757.08 157.015 757.047 155.298Z" fill="black"/>
<path d="M830.527 61.3567C819.318 80.6033 834.458 104.641 853.885 108.811C876.249 113.613 893.311 83.4033 884.127 63.446C877.188 48.3673 861.307 41.3353 846.46 47.8926C838.815 51.2686 833.646 56.0007 830.527 61.3567Z" fill="white"/>
<path d="M866.667 91.2675C882.661 91.3102 889.133 70.4222 876.098 60.5436C864.503 51.7582 847.25 62.8809 851.559 77.9275C853.723 85.4795 858.681 91.2475 866.667 91.2675Z" fill="#100F0D"/>
<path d="M872.897 78.278C877.286 81.41 883.498 76.4714 881.557 71.0967C880.005 66.7941 874.922 64.7581 872.199 68.4794C869.931 71.5781 869.486 75.8447 872.897 78.278Z" fill="white"/>
<path d="M574.679 58.3286C563.47 77.578 578.61 101.613 598.036 105.785C620.4 110.587 637.463 80.3767 628.279 60.4207C621.34 45.3407 605.459 38.31 590.612 44.8673C582.967 48.2433 577.798 52.9753 574.679 58.3286Z" fill="white"/>
<path d="M610.821 88.2421C626.813 88.2835 633.285 67.3955 620.249 57.5168C608.655 48.7315 591.402 59.8555 595.713 74.9008C597.877 82.4515 602.833 88.2208 610.821 88.2421Z" fill="#100F0D"/>
<path d="M617.05 75.2528C621.438 78.3834 627.648 73.4434 625.708 68.0701C624.156 63.7674 619.074 61.7314 616.351 65.4528C614.083 68.5501 613.638 72.8194 617.05 75.2528Z" fill="white"/>
<path d="M745.282 370.081C754.41 366.666 762.466 360.961 771.016 356.287C779.568 351.614 789.158 347.878 798.839 348.978C808.523 350.077 818.048 357.318 818.918 367.023C819.49 373.391 816.394 379.533 812.619 384.691C800.187 401.681 780.198 411.601 759.979 417.465C741.164 422.922 721.096 425.397 701.932 421.338C682.767 417.281 664.587 406.086 654.942 389.035C651.099 382.241 648.67 373.938 651.463 366.65C659.283 346.239 677.506 360.197 689.568 365.647C706.886 373.475 727.054 376.898 745.282 370.081Z" fill="#8C85D1"/>
<path d="M824.912 441.015C816.184 446.202 805.801 449.513 797.131 451.974C778.871 457.125 759.794 459.102 740.97 461.069C710.647 464.231 677.047 463.989 652.98 446.098C653.463 442.073 654.199 438.083 655.199 434.15C663.892 440.382 674.438 444.373 684.624 446.603C703.806 450.801 723.894 448.742 743.19 446.454C759.99 444.465 776.915 442.487 793.232 437.829C800.604 435.725 807.778 433.081 814.54 429.458C816.782 428.251 818.91 426.939 821.002 425.629C822.704 430.619 824.015 435.771 824.912 441.015Z" fill="#8C85D1"/>
<path d="M824.199 481.663C822.958 487.621 821.198 493.438 818.91 499.015C812.608 501.374 806.238 503.489 799.764 505.327C780.687 510.757 760.887 514.067 741.062 514.734C721.939 515.378 702.53 513.527 684.027 508.571C677.415 506.813 671.034 504.627 664.812 502.086C662.167 497.658 659.902 493.025 658.063 488.218C684.499 498.809 714.188 502.799 742.086 501.326C761.082 500.326 779.826 496.658 797.97 491.058C806.538 488.414 814.999 485.425 823.291 482.043C823.59 481.917 823.888 481.79 824.199 481.663Z" fill="#8C85D1"/>
<path d="M824 398.62C853.19 391.332 877.076 364.881 882.24 334.127C883.449 326.922 883.729 319.493 886.003 312.573C888.277 305.653 893.116 299.053 899.968 297.403C909.569 295.092 918.617 303.109 924.153 311.587C942.84 340.204 940.948 381.583 919.735 408.225C898.52 434.87 859.784 444.519 829.265 430.763L824 398.62" fill="#A6A0DB"/>
</svg>
