<svg width="341" height="657" viewBox="0 0 341 657" fill="none" xmlns="http://www.w3.org/2000/svg">
<path d="M333 605.5C333 633.94 271.215 657 195 657C118.785 657 57 633.94 57 605.5C57 577.06 118.785 554 195 554C271.215 554 333 577.06 333 605.5Z" fill="white"/>
<path d="M151.015 513.88C150.194 512.473 148.018 512.447 146.704 513.416C145.391 514.384 144.736 515.987 144.164 517.514C134.486 543.339 130.8 571.389 133.478 598.838C133.584 599.93 133.718 601.068 134.327 601.98C135.106 603.144 136.499 603.71 137.819 604.178C149.275 608.251 165.746 612.398 178.05 609.331C192.476 605.737 190.66 590.189 188.883 578.813C185.696 558.421 180.738 538.844 185.88 518.211L151.015 513.88" fill="#5B989F"/>
<path d="M240.962 509.497C241.783 508.089 243.959 508.063 245.274 509.032C246.586 509.999 247.241 511.602 247.814 513.13C257.491 538.956 261.177 567.005 258.499 594.454C258.393 595.545 258.259 596.685 257.65 597.597C256.873 598.761 255.479 599.325 254.159 599.794C242.703 603.868 226.231 608.018 213.929 604.95C199.501 601.353 201.317 585.805 203.095 574.429C206.281 554.037 211.239 534.459 206.098 513.826L240.962 509.497Z" fill="#5B989F"/>
<path d="M124.287 371.395C92.1819 363.687 65.9098 335.713 60.2298 303.187C58.9005 295.567 58.5925 287.71 56.0912 280.391C53.5898 273.073 48.2672 266.093 40.7312 264.347C30.1712 261.903 20.2192 270.382 14.1298 279.349C-6.4235 309.614 -4.34214 353.377 18.9899 381.554C42.3232 409.734 84.9285 419.939 118.496 405.39L124.287 371.395" fill="#72BFC7"/>
<path d="M248.936 354.827C266.136 356.159 283.016 361.485 297.87 370.262C305.55 374.799 312.888 380.469 317.278 388.234C320.395 393.749 321.871 400.066 322.416 406.377C323.7 421.227 319.878 436.475 311.735 448.965C294.215 475.842 259.19 486.887 227.192 484.538L248.936 354.827Z" fill="#5B989F"/>
<path d="M255.876 345.937C288.132 372.518 300.44 420.725 284.871 459.515C274.276 485.914 248.828 509.062 223.028 520.667C207.114 527.827 179.576 525.414 163.146 520.774C144.871 515.615 128.138 505.943 112.884 494.631C94.8604 481.263 91.9937 455.695 91.5044 434.301C90.8284 404.713 97.8804 370.777 123.686 356.285L255.876 345.937Z" fill="#5B989F"/>
<path d="M273.199 448.663C271.958 454.621 270.198 460.438 267.91 466.015C266.967 468.374 265.908 470.685 264.771 472.949C246.879 508.413 200.64 521.406 164.098 509.632C143.135 502.87 125.082 487.967 113.812 469.086C111.167 464.658 108.902 460.025 107.063 455.218C105.74 451.779 104.636 448.25 103.762 444.651C101.267 434.347 100.727 423.618 101.98 413.098C102.463 409.073 103.199 405.083 104.199 401.15C108.178 385.442 116.204 370.735 127.646 359.249L237.472 349.313C253.215 359.661 264.035 375.151 270.002 392.629C271.704 397.619 273.015 402.771 273.912 408.015C276.258 421.399 276.016 435.359 273.199 448.663Z" fill="#D4E88E"/>
<path d="M158.447 355.043C158.494 354.629 158.534 354.193 158.571 353.741C158.883 354.254 159.231 354.745 159.61 355.221C159.505 355.207 159.399 355.198 159.294 355.183C159.011 355.141 158.73 355.087 158.447 355.043ZM230.142 241.215C233.038 233.375 222.339 224.746 215.414 229.894C208.115 235.319 202.803 242.071 198.905 249.625C196.646 248.034 193.639 247.333 190.143 247.935C181.731 249.386 173.339 250.939 164.945 252.477C164.493 252.559 164.069 252.679 163.659 252.815C158.93 249.507 153.357 247.55 146.73 247.822C143.167 247.97 140.315 249.575 138.483 251.926C133.693 245.634 128.143 239.893 122.146 234.746C119.307 232.309 115.531 236.035 118.029 238.862C129.123 251.41 135.359 267.721 139.129 283.883C143.33 301.897 143.762 320.782 142.231 339.159C141.863 343.577 141.371 347.982 140.807 352.378C140.247 356.746 139.315 361.166 141.606 365.265C145.949 373.037 157.479 372.895 165.251 373.585C183.405 375.193 201.934 372.825 219.223 367.146C225.187 365.187 227.21 359.25 224.665 353.775C216.818 336.903 215.333 316.322 216.647 298.042C218.051 278.557 223.397 259.475 230.142 241.215Z" fill="#72BFC7"/>
<path d="M303.114 0.856855C297.606 0.252855 292.031 0.611493 286.694 2.16083C277.475 4.83683 271.743 10.5995 265.794 18.0235C261.651 23.1955 257.071 34.3008 250.923 36.6888C244.962 38.9995 228.763 31.4248 222.265 30.2701C204.887 27.1861 186.575 25.6115 169.441 25.1475C151.885 24.6688 134.221 25.6835 116.937 29.0955C109.002 30.6621 98.4646 37.7075 91.4846 33.7182C84.5406 29.7502 80.3633 16.4888 74.4953 10.6048C62.3166 -1.6085 42.4459 -3.03783 27.5192 5.10751C23.8139 7.13017 20.3073 9.72215 17.7793 13.2195C15.6459 16.1728 14.2793 19.6702 13.3086 23.2382C9.85929 35.9115 12.1979 47.0728 16.1326 59.1261C19.3779 69.0688 26.0232 76.1555 26.7499 85.4781C28.8472 112.39 28.2393 136.856 34.9259 163.606C39.6539 182.522 47.2433 200.956 58.7286 216.434C87.6806 255.448 134.23 262.54 178.059 263.862C218.761 265.09 257.422 247.369 286.919 218.313C308.781 196.775 319.829 165.386 323.758 134.373C326.005 116.645 319.299 90.4582 327.147 75.8795C340.618 50.8502 351.302 19.1995 318.153 4.89813C313.361 2.83013 308.266 1.42219 303.114 0.856855" fill="#72BFC7"/>
<path d="M188.461 183.162C151.797 183.162 119.203 167.691 99.0019 140.689C98.4632 139.969 98.5805 138.923 99.2632 138.354C99.9445 137.783 100.937 137.909 101.479 138.63C121.077 164.825 152.771 179.835 188.461 179.835C188.554 179.835 188.639 179.835 188.733 179.835C202.185 179.807 247.507 177.201 265.83 144.867C266.279 144.077 267.241 143.822 267.997 144.293C268.741 144.763 268.989 145.785 268.542 146.573C249.366 180.406 202.61 183.133 188.738 183.162C188.646 183.162 188.554 183.162 188.461 183.162" fill="#201C1D"/>
<path d="M276.063 100.709C275.023 101.983 274.603 103.723 275.95 104.889C278.901 107.438 282.33 101.703 280.211 99.5807C279.101 98.4674 277.207 99.306 276.063 100.709Z" fill="white"/>
<path d="M296.914 98.8674C299.226 97.7274 300.084 92.7994 296.99 91.7287C292.678 90.238 289.982 93.5993 293.18 97.4593C294.566 99.13 295.886 99.3754 296.914 98.8674Z" fill="white"/>
<path d="M304.155 121.785C308.647 121.683 310.193 116.501 306.225 113.821C301.421 110.571 296.931 118.274 301.359 121.135C302.185 121.667 303.187 121.807 304.155 121.785" fill="white"/>
<path d="M281.002 126.585C283.957 129.933 289.657 125.447 286.834 121.626C284.003 117.793 277.67 122.806 281.002 126.585Z" fill="white"/>
<path d="M59.9844 97.3981C61.9724 96.2568 63.3017 93.5608 60.6937 91.8714C57.6697 89.9128 53.6964 94.2368 56.3457 97.1568C57.3031 98.2114 58.7671 98.0968 59.9844 97.3981Z" fill="white"/>
<path d="M47.4684 118.182C52.7684 115.77 48.0698 108.711 44.0671 112.599C41.2871 115.301 43.8631 119.822 47.4684 118.182Z" fill="white"/>
<path d="M80.3325 104.456C78.9658 101.473 74.1832 101.168 72.6392 104.098C70.5565 108.049 75.5925 112.049 78.9151 109.692C80.4725 108.586 81.1498 106.237 80.3325 104.456Z" fill="white"/>
<path d="M151.767 124.183C154.741 121.433 154.087 114.021 148.253 117.345C147.071 118.018 146.203 119.286 145.871 120.61C145.387 122.543 146.046 124.597 148.553 125.082C149.873 125.339 150.955 124.934 151.767 124.183Z" fill="black"/>
<path d="M206.047 122.298C205.883 114.026 195.319 117.239 198.152 124.195C199.07 126.449 201.859 127.814 203.902 126.642C205.332 125.822 206.08 124.015 206.047 122.298Z" fill="black"/>
<path d="M279.527 28.3567C268.318 47.6034 283.458 71.6406 302.885 75.8113C325.249 80.6126 342.311 50.4033 333.127 30.446C326.188 15.3673 310.307 8.33529 295.46 14.8926C287.815 18.2686 282.646 23.0007 279.527 28.3567Z" fill="white"/>
<path d="M315.667 58.2675C331.661 58.3102 338.133 37.4222 325.098 27.5436C313.503 18.7582 296.25 29.8809 300.559 44.9275C302.723 52.4795 307.681 58.2475 315.667 58.2675Z" fill="#100F0D"/>
<path d="M321.897 45.278C326.286 48.41 332.498 43.4714 330.557 38.0967C329.005 33.7941 323.922 31.7581 321.199 35.4794C318.931 38.5781 318.486 42.8447 321.897 45.278" fill="white"/>
<path d="M23.679 25.3286C12.4697 44.578 27.6097 68.6127 47.0364 72.7847C69.4004 77.5874 86.463 47.3767 77.279 27.4207C70.3403 12.3407 54.459 5.30998 39.6123 11.8673C31.967 15.2433 26.7977 19.9753 23.679 25.3286Z" fill="white"/>
<path d="M59.8206 55.2421C75.8126 55.2835 82.2846 34.3955 69.2486 24.5168C57.6552 15.7315 40.4019 26.8555 44.7126 41.9008C46.8766 49.4515 51.8326 55.2208 59.8206 55.2421" fill="#100F0D"/>
<path d="M66.0497 42.2528C70.4377 45.3834 76.6484 40.4434 74.7084 35.0701C73.1564 30.7674 68.0737 28.7314 65.3511 32.4528C63.0831 35.5501 62.6377 39.8194 66.0497 42.2528" fill="white"/>
<path d="M194.282 337.081C203.41 333.666 211.466 327.961 220.016 323.287C228.568 318.614 238.158 314.878 247.839 315.978C257.523 317.077 267.048 324.318 267.918 334.023C268.49 340.391 265.394 346.533 261.619 351.691C249.187 368.681 229.198 378.601 208.979 384.465C190.164 389.922 170.096 392.397 150.932 388.338C131.767 384.281 113.587 373.086 103.942 356.035C100.099 349.241 97.6697 340.938 100.463 333.65C108.283 313.239 126.506 327.197 138.568 332.647C155.886 340.475 176.054 343.898 194.282 337.081Z" fill="#5B989F"/>
<path d="M273.912 408.015C265.184 413.202 254.801 416.513 246.131 418.974C227.871 424.125 208.794 426.102 189.97 428.069C159.647 431.231 126.047 430.989 101.98 413.098C102.463 409.073 103.199 405.083 104.199 401.15C112.892 407.382 123.438 411.373 133.624 413.603C152.806 417.801 172.894 415.742 192.19 413.454C208.99 411.465 225.915 409.487 242.232 404.829C249.604 402.725 256.778 400.081 263.54 396.458C265.782 395.251 267.91 393.939 270.002 392.629C271.704 397.619 273.015 402.771 273.912 408.015" fill="#5B989F"/>
<path d="M273.199 448.663C271.958 454.621 270.198 460.438 267.91 466.015C261.608 468.374 255.238 470.489 248.764 472.327C229.687 477.757 209.887 481.067 190.062 481.734C170.939 482.378 151.53 480.527 133.027 475.571C126.415 473.813 120.034 471.627 113.812 469.086C111.167 464.658 108.902 460.025 107.063 455.218C133.499 465.809 163.188 469.799 191.086 468.326C210.082 467.326 228.826 463.658 246.97 458.058C255.538 455.414 263.999 452.425 272.291 449.043C272.59 448.917 272.888 448.79 273.199 448.663Z" fill="#5B989F"/>
<path d="M222.319 423.057C215.922 426.29 209.306 429.355 203.976 434.15C198.646 438.946 194.7 445.899 195.443 453.034C196.746 465.573 211.171 472.402 223.764 473.031C253.376 474.51 278.362 456.123 287.908 428.422C292.583 414.862 293.471 399.909 290.464 385.883C289.067 379.363 287.112 373.887 283.259 368.511C282.283 367.15 266.388 352.527 265.426 357.146C262.648 370.449 265.328 382.155 259.606 394.79C253.64 407.962 234.94 416.681 222.319 423.057" fill="#72BFC7"/>
</svg>
